<svg width="249" height="222" viewBox="0 0 249 222" fill="none" xmlns="http://www.w3.org/2000/svg">
<g clip-path="url(#clip0_1_3464)">
<path d="M22.6732 164.559C25.6563 167.156 21.6884 163.04 24.4064 166.254C20.3984 165.706 23.8208 163.665 20.5184 164.882C15.4502 166.805 18.7335 167.972 18.4526 163.682C18.0307 158.526 13.7718 165.812 17.4111 160.57C18.3099 165.126 16.2665 156.982 18.684 161.238C27.2861 152.784 37.4582 148.514 49.3943 148.66C63.2373 148.965 74.6768 155.044 85.3033 163.187C88.9043 166.049 92.4876 169.123 95.8589 172.179C103.396 178.997 110.686 186.222 118.223 193.04C151.354 222.911 188.968 209.417 209.971 187.918C229.542 168.22 235.696 143.132 235.847 115.834C235.753 83.822 224.976 54.5425 214.216 25.0512C213.352 22.6319 212.487 20.2126 211.623 17.7932C211.429 17.5636 211.694 16.9457 211.959 16.3278C212.347 16.787 212.965 17.0521 213.142 17.4936C227.026 47.8866 238.951 78.7556 239.945 112.763C240.748 136.301 236.308 158.759 223.517 179.024C203.093 211.453 152.127 234.07 110.524 193.249C101.452 184.382 92.6266 175.109 82.3884 167.424C70.5615 158.326 57.7098 151.276 42.0998 154.237C34.5245 155.523 27.6902 158.151 22.6732 164.559Z" fill="white"/>
<path d="M6.82966 170.91L18.7005 150.039L30.84 170.755L6.82966 170.91Z" fill="#8EFF01"/>
</g>
<defs>
<clipPath id="clip0_1_3464">
<rect width="202.626" height="232.735" fill="white" transform="translate(248.826 19.4138) rotate(94.7849)"/>
</clipPath>
</defs>
</svg>
