<svg width="131" height="131" viewBox="0 0 131 131" fill="none" xmlns="http://www.w3.org/2000/svg">
<g clip-path="url(#clip0_1_3591)">
<path d="M63.5895 56.2208C57.3124 67.4104 50.4895 66.8646 38.4812 66.8646C30.5666 66.8646 14.7374 69.0479 9.82494 60.3146C4.91244 51.8542 14.1916 45.0313 19.377 40.1188C21.5604 38.2083 24.2895 40.3917 24.0166 42.575C28.3833 46.6688 30.8395 51.0354 34.1145 55.9479C36.5708 59.4958 48.0333 40.3917 49.3979 38.7542C50.2166 37.6625 51.8541 36.8438 53.2187 37.6625C57.8583 40.9375 67.4104 49.3979 63.5895 56.2208Z" fill="white"/>
<path d="M128.817 111.35C123.904 120.083 112.987 123.085 103.708 122.812C93.8832 122.812 76.6894 123.085 70.9582 112.987C66.3186 105.346 79.9644 96.8854 85.1498 94.4291C87.6061 93.3375 90.0623 96.0666 88.9707 97.9771C90.0623 99.6146 97.1582 112.987 100.706 108.894C105.073 103.981 109.166 99.0687 113.26 93.6104C113.806 92.7916 115.171 91.9729 116.262 92.2458C123.904 95.2479 134.548 101.798 128.817 111.35Z" fill="white"/>
<path d="M7.0958 35.2062C7.64163 34.6604 8.18747 34.3875 8.7333 33.8417C9.27913 33.5687 9.82497 33.2958 10.0979 32.75C10.6437 32.4771 11.4625 31.9312 12.2812 31.6583C13.6458 31.1125 15.0104 30.8396 16.375 30.2937H16.6479C17.1937 30.0208 17.7396 29.475 17.4666 28.9292C17.4666 28.3833 16.9208 28.1104 16.375 28.1104H16.1021C15.8291 28.1104 15.5562 28.3833 15.2833 28.3833C14.7375 28.3833 14.4646 28.6562 13.9187 28.9292C12.8271 29.2021 11.7354 29.7479 10.6437 30.2937C8.7333 31.1125 6.82289 32.4771 5.18538 33.8417C4.63955 34.1146 4.36663 34.6604 4.09372 35.2062C3.8208 35.4792 3.54788 36.025 3.27497 36.2979C2.72913 37.1167 2.1833 38.2083 1.63747 39.0271C1.09163 40.1187 0.818718 41.2104 0.545801 42.3021L-0.272949 46.3958C-0.272949 46.9417 0.272884 47.7604 0.818718 47.7604C1.09163 47.7604 1.36455 47.7604 1.63747 47.4875C1.91038 47.2146 1.91038 46.9417 1.91038 46.6687C1.91038 46.1229 2.1833 45.3041 2.1833 44.7583C2.45622 43.9396 2.45622 43.1208 2.72913 42.3021C3.00205 41.4833 3.27497 40.9375 3.54788 40.1187L4.36663 38.4812C4.63955 37.9354 4.91247 37.3896 5.18538 37.1167C6.27705 36.025 6.82288 35.7521 7.0958 35.2062ZM118.446 58.95C118.446 59.2229 118.446 59.2229 118.446 58.95C119.265 60.3146 119.81 61.4062 120.356 62.7708C120.629 63.3167 120.902 64.1354 120.902 64.6812C120.902 65.2271 121.175 65.7729 121.175 66.3187C121.448 69.0479 121.175 72.05 120.902 74.7792C120.902 75.325 121.448 76.1437 121.994 76.1437C122.267 76.1437 122.54 76.1437 122.812 75.8708C123.085 75.5979 123.085 75.325 123.085 75.0521C123.358 72.05 123.631 69.0479 123.358 66.0458C123.085 64.4083 122.812 62.7708 121.994 61.4062C121.721 60.5875 121.175 60.0417 120.629 59.2229C120.356 58.95 120.356 58.6771 120.083 58.4041L119.265 57.5854C118.992 57.5854 118.992 57.3125 118.719 57.3125C118.446 57.3125 117.9 57.5854 117.627 57.8583C117.9 58.1312 118.173 58.6771 118.446 58.95ZM130.727 103.708C130.727 103.435 130.727 103.162 130.454 102.89C130.454 102.344 130.181 101.798 129.908 101.252L128.271 97.9771C127.725 97.1583 127.179 96.6125 126.633 95.7937L125.269 94.4291C124.723 93.8833 124.177 93.3375 123.358 93.0646C122.812 92.5187 121.994 92.2458 121.448 91.7C120.083 90.8812 118.719 90.3354 117.354 89.7896L114.898 88.9708C114.079 88.6979 112.987 88.425 111.896 88.1521H111.35C110.531 88.1521 109.712 88.6979 109.712 89.5166C109.44 90.3354 109.985 91.4271 110.804 91.7C112.987 92.2458 114.898 92.7916 117.081 93.6104C117.9 93.8833 118.719 94.4291 119.537 94.975L121.994 96.6125C122.54 96.8854 123.085 97.4312 123.358 97.9771L124.996 99.6146C125.269 100.16 125.542 100.433 125.815 100.979C126.087 101.252 126.36 101.798 126.36 102.344C126.633 102.89 126.633 103.162 126.906 103.708C126.906 103.981 127.179 104.527 127.179 104.8V107.256C127.179 107.802 126.906 108.075 126.906 108.621C126.906 109.167 126.633 109.44 126.36 109.985L125.542 111.623C125.269 112.169 124.996 112.715 124.45 112.987C123.904 113.533 123.631 114.079 123.085 114.625C122.54 115.171 121.721 115.717 121.175 116.535C120.356 117.081 119.265 117.9 118.446 118.446C117.354 118.992 116.535 119.537 115.444 120.083C114.352 120.629 113.26 120.902 111.896 121.175C110.531 121.448 109.167 121.721 108.075 121.994C106.71 122.267 105.073 122.267 103.708 122.267H98.5229C95.2479 122.267 91.9729 121.994 88.6979 121.448C87.0604 121.175 85.4229 120.902 84.0583 120.629C83.2396 120.356 82.4208 120.083 81.6021 120.083L79.1458 119.265C78.6 118.992 78.3271 118.992 77.7812 118.719C77.5083 118.446 77.2354 118.446 76.9625 118.173C76.4166 117.9 75.8708 117.627 75.325 117.081C74.5062 116.535 73.6875 115.717 73.1416 114.898C72.8687 114.352 72.3229 113.806 72.05 112.987C71.7771 112.169 71.5041 111.35 71.5041 110.804V108.621C71.7771 107.802 71.7771 106.983 72.05 106.165L72.8687 104.527C73.1416 104.254 73.4146 103.708 73.6875 103.435C74.2333 102.89 74.5062 102.344 75.0521 101.798C75.5979 101.252 76.1437 100.979 76.6896 100.433L79.1458 98.7958C79.9646 98.25 80.7833 97.9771 81.875 97.4312L86.7875 95.7937V96.0667C87.0604 96.6125 87.3333 96.8854 87.6062 97.4312C87.8791 98.25 88.425 99.0687 88.9708 100.16C89.7896 101.798 90.8812 103.435 91.7 105.073C92.5187 106.71 93.6104 108.348 94.4291 109.985C94.7021 110.804 95.2479 111.623 95.7937 112.442C96.3396 113.533 97.1583 114.625 98.5229 114.625C100.16 114.625 100.979 113.26 102.071 112.169C102.617 111.623 103.162 110.804 103.708 110.258C105.073 108.621 106.437 106.983 107.529 105.619C109.985 102.617 112.442 99.3417 114.898 96.3396C115.171 96.0667 115.171 95.5208 115.171 94.975C115.171 94.4291 114.625 94.1562 114.352 93.8833C113.533 92.7917 113.26 92.7916 112.987 92.7916C112.442 92.7916 111.896 93.0646 111.35 93.6104C109.985 95.5208 108.894 97.7041 107.529 99.6146C106.165 101.525 105.073 103.162 103.708 105.073L103.981 104.8C103.162 105.892 102.344 106.71 101.525 107.802L99.3416 109.985C99.0687 109.985 99.0687 110.258 98.7958 110.258C97.9771 109.167 97.1583 108.075 96.6125 107.256C95.7937 105.892 94.975 104.8 94.1562 103.435C93.3375 102.344 92.5187 100.979 91.9729 99.8875C91.1541 98.5229 90.3354 97.4312 89.5166 96.3396C89.2437 96.0667 89.2437 95.7937 88.9708 95.5208C89.2437 95.5208 89.7896 95.2479 90.0625 95.2479C90.6083 94.975 91.1541 94.975 91.7 94.7021C92.2458 94.4292 92.5187 94.4292 93.0646 94.1562H93.6104C94.7021 95.2479 95.7937 96.3396 97.1583 97.1583C97.4312 97.4312 97.7041 97.4312 97.9771 97.4312C98.5229 97.4312 99.0687 97.1583 99.3416 96.8854C99.6146 96.6125 99.8875 96.0667 99.8875 95.5208C99.8875 94.975 99.6146 94.4292 99.3416 94.1562L98.7958 93.6104C98.7958 93.3375 99.0687 93.3375 99.0687 93.0646L99.8875 92.2458C100.979 90.8812 102.071 89.5167 103.162 87.8792C103.435 87.3333 103.435 86.5146 102.89 86.2417C102.617 86.2417 102.617 85.9687 102.344 85.9687H102.071C101.798 85.9687 101.525 86.2417 101.252 86.5146C100.16 87.6062 99.3416 88.9708 98.5229 90.0625C97.9771 90.6083 97.7041 91.1541 97.1583 91.7C96.6125 91.1541 96.0666 90.8812 95.7937 90.3354L94.7021 89.2437C94.975 89.2437 95.2479 89.2437 95.2479 88.9708L95.7937 88.425C96.0666 87.8792 96.6125 87.6062 96.8854 87.0604C97.7041 85.9687 98.5229 85.15 99.6146 84.0583C100.16 83.5125 100.16 82.9667 99.6146 82.4208C98.7958 81.875 98.5229 81.875 97.9771 81.875C97.7041 81.875 97.4312 81.875 97.1583 82.1479C95.7937 83.7854 94.4291 85.15 93.0646 86.7875C93.0646 87.0604 92.7916 87.0604 92.7916 87.3333V87.8792L91.7 86.7875C91.1541 86.2416 90.8812 85.4229 90.3354 84.8771C90.6083 84.8771 90.6083 84.6041 90.8812 84.6041C91.1541 84.0583 91.7 83.5125 92.2458 82.9667C92.7916 82.1479 93.6104 81.3291 94.4291 80.2375C94.4291 80.2375 94.4291 80.5104 94.1562 80.5104C94.975 79.6917 95.7937 78.6 96.6125 77.7812C96.8854 77.5083 96.8854 77.2354 96.8854 76.9625C96.8854 76.6896 96.8854 76.4166 96.6125 76.1437C96.3396 75.8708 96.0666 75.8708 95.7937 75.8708C95.5208 75.8708 95.2479 75.8708 94.975 76.1437C93.8833 77.5083 92.7916 78.6 91.7 79.9646C91.1541 80.5104 90.6083 81.3291 90.0625 81.875C89.7896 82.1479 89.5166 82.6937 89.2437 82.9667C88.6979 82.1479 88.425 81.3291 87.8791 80.5104C87.6062 79.9646 87.6062 79.6917 87.3333 79.1458C87.6062 79.1458 87.6062 78.8729 87.8791 78.8729V78.6C88.9708 77.5083 89.7896 76.4166 90.6083 75.0521C91.7 73.4146 93.0646 71.7771 94.4291 69.8666C94.7021 69.3208 94.7021 68.5021 94.1562 68.2291C93.8833 68.2291 93.8833 67.9562 93.6104 67.9562C93.3375 67.9562 92.7916 68.2292 92.5187 68.5021C91.1541 70.1396 90.0625 72.05 88.6979 73.6875C88.1521 74.5062 87.6062 75.325 86.7875 76.1437C86.7875 75.5979 86.5146 75.0521 86.5146 74.7792V72.3229C87.0604 72.5958 87.6062 72.3229 87.8791 71.7771C87.8791 71.5042 88.1521 71.2312 88.425 70.9583C88.6979 70.4125 88.9708 70.1396 89.2437 69.5937C90.0625 68.5021 90.8812 67.1375 91.7 66.0458C91.9729 65.5 91.9729 64.6812 91.4271 64.4083C91.1541 64.4083 91.1541 64.1354 90.8812 64.1354H90.6083C90.3354 64.1354 90.0625 64.4083 89.7896 64.6812C88.9708 65.7729 88.1521 66.8646 87.0604 68.2291C87.3333 67.6833 87.3333 67.4104 87.6062 66.8646C87.8791 66.3187 88.1521 65.7729 88.425 64.9541C88.6979 64.4083 89.2437 63.5896 89.5166 63.0437C90.0625 62.4979 90.3354 61.9521 90.8812 61.4062L92.5187 59.7687C93.0646 59.2229 93.8833 58.6771 94.4291 58.4041C94.975 58.1312 95.5208 57.8583 95.7937 57.5854C96.0666 57.3125 96.6125 57.3125 97.1583 57.0396C97.7041 56.7666 98.25 56.7667 98.7958 56.4937C99.3416 56.4937 99.8875 56.2208 100.16 56.2208H102.617C103.435 56.2208 104.254 56.4937 105.346 57.0396C105.892 57.3125 106.71 57.8583 107.256 58.1312C108.075 58.6771 108.621 59.4958 109.167 60.0416C109.44 60.5875 109.985 61.1333 110.258 61.6791C110.531 62.225 110.804 63.0437 111.077 63.5896C111.35 64.6812 111.896 65.7729 112.169 66.8646C112.442 67.9562 112.715 69.0479 112.715 70.1396V72.8687C112.715 73.6875 112.715 74.2333 112.442 75.0521C112.169 75.8708 112.169 76.6896 111.896 77.5083C111.623 78.0541 111.35 78.8729 111.077 79.4187C110.531 80.7833 109.985 81.875 109.167 82.9667C108.621 84.0583 107.802 85.15 106.983 85.9687C105.892 87.3333 104.527 88.6979 103.162 90.0625C102.344 90.6083 101.798 91.4271 100.979 91.9729C100.706 92.2458 100.16 92.5187 99.8875 93.0646L99.3416 93.6104C99.3416 93.8833 99.0687 93.8833 98.7958 93.8833C98.25 94.1562 97.9771 94.975 98.5229 95.5208C98.7958 96.0667 99.6146 96.3396 100.16 95.7937C100.433 95.7937 100.433 95.5208 100.706 95.5208C101.252 95.2479 101.525 94.975 101.798 94.975C102.071 94.7021 102.617 94.4292 102.89 94.1562C103.708 93.3375 104.8 92.7917 105.619 91.9729C107.256 90.3354 108.621 88.6979 109.985 86.7875C111.35 84.8771 112.442 83.2396 113.533 81.0562C114.625 79.1458 115.171 76.9625 115.171 75.0521C115.444 72.8687 115.171 70.4125 114.625 68.2291C114.352 67.1375 114.079 66.3187 113.806 65.2271C113.533 64.1354 112.987 62.7708 112.442 61.6791L111.623 60.0416C111.35 59.4958 111.077 59.2229 110.804 58.6771C110.258 57.8583 109.712 57.0396 109.167 56.4937C108.348 55.675 107.529 55.1292 106.71 54.5833C105.892 54.0375 105.073 53.7646 104.254 53.4916C103.435 53.2187 102.344 53.2187 101.525 53.2187H101.252C99.6146 53.2187 98.25 53.4916 96.6125 54.0375C95.5208 54.3104 94.4291 54.8562 93.3375 55.4021L90.8812 57.0396C88.9708 58.4041 87.6062 59.7687 86.2416 61.4062C85.4229 62.225 84.8771 63.3167 84.3312 64.4083C83.7854 65.2271 83.5125 66.3187 82.9666 67.1375C82.1479 69.3208 81.875 71.5042 81.875 73.9604C82.1479 78.0542 83.7854 82.1479 85.9687 85.6958C87.0604 87.6062 88.425 89.2437 89.7896 90.8812H89.2437C88.6979 90.8812 88.1521 91.1542 87.6062 91.1542C86.5145 91.4271 85.4229 91.7 84.6041 91.9729C82.4208 92.5187 80.2375 93.3375 78.0541 94.1562C76.9625 94.7021 76.1437 95.2479 75.325 95.7937C74.2333 96.3396 73.4146 97.1583 72.3229 97.9771C71.5041 98.7958 70.6854 99.6146 70.1396 100.433C69.5937 100.979 69.3208 101.525 69.0479 102.071C68.5021 102.89 67.9562 103.981 67.4104 105.073C67.1375 105.892 66.8646 106.983 66.8646 108.075C66.8646 109.167 66.8646 109.985 67.1375 111.077C67.4104 111.896 67.6833 112.987 67.9562 113.806C68.2291 114.352 68.5021 114.625 68.775 115.171C69.0479 115.717 69.5937 116.262 70.1396 116.808C70.9583 117.627 71.7771 118.173 72.5958 118.992C73.4146 119.537 74.2333 119.81 75.0521 120.356C76.1437 120.902 77.2354 121.175 78.3271 121.721C79.4187 121.994 80.2375 122.267 81.3291 122.54L84.6041 123.358C87.0604 123.904 89.2437 124.177 91.7 124.45C96.3396 124.996 100.979 124.996 105.619 124.45C109.985 123.904 114.352 122.812 118.446 120.902C119.265 120.356 120.356 119.81 121.175 119.265C122.267 118.719 123.085 117.627 124.177 116.808C125.815 115.444 127.179 113.533 128.271 111.623C129.362 109.44 129.908 106.983 129.908 104.8C131 104.8 131 104.254 130.727 103.708ZM115.717 119.81C115.444 119.81 115.444 119.81 115.717 119.81V119.81ZM64.4083 47.4875L63.5896 45.85C61.6791 42.575 58.95 39.8458 55.9479 37.3896C54.5833 36.2979 53.2187 35.4792 51.5812 34.6604C49.9437 33.8417 48.3062 33.0229 46.6687 32.4771H45.85C46.1229 32.2042 46.3958 31.6583 46.6687 31.3854C47.7604 29.475 48.5791 27.5646 49.3979 25.6542C50.2166 23.7437 50.7625 21.5604 51.0354 19.3771C51.3083 18.2854 51.3083 17.1937 51.3083 16.1021C51.3083 15.2833 51.0354 14.1917 51.0354 13.3729C50.7625 12.5542 50.4896 12.0083 50.2166 11.4625C49.9437 10.6437 49.125 9.82498 48.5791 9.00623C48.3062 8.4604 47.7604 7.91457 47.2146 7.64165C46.6687 7.36873 46.1229 6.8229 45.5771 6.54998C45.0312 6.27707 44.2125 6.00415 43.6666 6.00415H41.7562C40.3916 6.00415 39.0271 6.27707 37.6625 6.8229C36.5708 7.09582 35.4791 7.36873 34.3875 7.91457L32.75 8.73332C31.9312 9.27915 30.8396 10.0979 30.0208 10.6437C29.2021 11.1896 28.6562 12.2812 28.1104 12.8271C27.5646 13.6458 27.0187 14.7375 26.7458 15.5562C26.2 16.6479 25.9271 18.0125 25.6541 19.3771C25.6541 20.4687 25.3812 21.2875 25.3812 22.3792C25.3812 23.1979 25.3812 24.2896 25.6541 25.1083C25.9271 27.2917 26.7458 29.475 27.8375 31.3854C28.6562 33.0229 29.7479 34.3875 30.8396 35.7521C28.9291 35.4792 27.2916 35.7521 25.3812 36.2979C24.2896 36.5708 23.4708 36.8437 22.3791 37.1167C21.2875 37.3896 20.1958 37.9354 19.1041 38.2083C17.1937 39.0271 15.2833 40.1187 13.6458 41.4833C12.8271 42.0292 12.0083 42.8479 11.1896 43.6667C10.3708 44.4854 9.55205 45.5771 8.7333 46.6687C8.18747 47.4875 7.36872 48.5792 7.0958 49.6708L6.27705 52.1271C6.00413 53.2187 5.73122 54.3104 5.73122 55.4021C5.73122 56.2208 6.00413 57.3125 6.27705 58.1312C6.54997 58.95 7.0958 60.0416 7.64163 60.8604C8.7333 62.7708 10.0979 64.1354 12.0083 65.2271C13.6458 66.3187 15.5562 67.4104 17.7396 68.2291C18.8312 68.5021 19.9229 69.0479 20.7416 69.3208C21.8333 69.5937 22.925 69.8666 24.0166 69.8666C28.3833 70.4125 33.0229 70.4125 37.6625 70.6854C42.3021 70.6854 46.9416 70.4125 51.3083 69.3208C53.4916 68.775 55.675 67.9562 57.5854 67.1375C58.6771 66.5917 59.4958 66.0458 60.3146 65.2271C61.4062 64.4083 62.225 63.5896 62.7708 62.7708C63.0437 62.4979 63.3166 61.9521 63.8625 61.6791C64.4083 60.8604 64.9541 60.0417 65.2271 59.2229C65.5 58.6771 65.7729 58.1312 65.7729 57.5854C65.7729 57.3125 66.0458 56.7667 66.0458 56.4937C66.0458 55.9479 66.3187 55.1292 66.0458 54.5833C66.0458 53.4916 65.7729 52.1271 65.5 51.0354C65.5 49.6708 64.9541 48.5792 64.4083 47.4875ZM29.7479 16.6479C30.0208 15.8292 30.5666 15.0104 31.1125 14.1917C31.6583 13.3729 32.4771 12.5542 33.2958 11.7354C33.8416 11.1896 34.3875 10.9167 35.2062 10.6437L36.8437 9.82498C37.3896 9.55207 37.9354 9.55207 38.4812 9.27915C39.0271 9.27915 39.5729 9.00623 39.8458 9.00623H42.3021C42.8479 9.00623 43.1208 9.27915 43.6666 9.27915C44.2125 9.27915 43.9396 9.27915 43.9396 9.55207C44.2125 9.82498 44.4854 9.82498 44.7583 10.0979C45.3041 10.6437 45.85 10.9166 46.1229 11.4625C46.1229 11.7354 46.3958 11.7354 46.3958 12.0083C46.6687 12.2812 46.6687 12.8271 46.9416 13.1C47.2146 13.6458 47.2146 14.4646 47.4875 15.0104V16.9208C47.4875 17.4667 47.4875 18.0125 47.2146 18.5583C46.9416 19.65 46.9416 20.7417 46.3958 21.8333C46.1229 22.925 45.85 23.7437 45.3041 24.8354C44.2125 27.2917 43.1208 29.7479 41.4833 31.9312C40.6646 33.0229 39.8458 34.1146 39.0271 35.4792C38.4812 36.025 38.2083 36.5708 37.9354 37.1167C37.6625 36.8437 37.6625 36.5708 37.1166 36.2979C36.2979 35.7521 35.7521 35.4792 34.9333 34.9333L34.6604 34.6604C34.9333 34.3875 34.9333 34.1146 35.2062 33.8417C35.7521 33.0229 36.2979 32.4771 36.8437 31.6583C37.3896 31.1125 37.9354 30.5667 38.2083 30.0208C38.4812 29.7479 38.4812 29.475 38.4812 29.2021C38.4812 28.9292 38.4812 28.6562 38.2083 28.3833C37.9354 28.1104 37.6625 28.1104 37.3896 28.1104C37.1166 28.1104 36.8437 28.1104 36.5708 28.3833C35.4791 29.7479 34.3875 30.8396 33.5687 32.2042C33.2958 32.4771 33.2958 32.75 33.0229 33.0229L31.9312 31.9312C31.6583 31.3854 31.3854 30.8396 30.8396 30.2937L31.6583 29.475C32.4771 28.6562 33.0229 27.8375 33.5687 27.0187C34.3875 26.2 34.9333 25.3812 35.7521 24.5625C36.025 24.0167 36.025 23.1979 35.4791 22.925C35.2062 22.925 34.9333 22.6521 34.9333 22.6521H34.6604C34.3875 22.6521 34.1146 22.925 33.8416 23.1979C33.0229 24.0167 32.4771 25.1083 31.6583 25.9271C31.1125 26.4729 30.5666 27.2917 30.0208 27.8375L29.7479 28.1104C29.7479 27.8375 29.475 27.8375 29.475 27.5646C29.2021 27.0187 28.9291 26.2 28.9291 25.6542C28.6562 24.8354 28.6562 24.2896 28.3833 23.4708C28.9291 22.925 29.475 22.1062 30.0208 21.5604C30.8396 20.4687 31.6583 19.3771 32.75 18.2854C33.0229 18.0125 33.0229 17.7396 33.0229 17.4667C33.0229 17.1937 32.75 16.9208 32.4771 16.6479C32.2041 16.6479 32.2041 16.375 31.9312 16.375C31.6583 16.375 31.1125 16.6479 30.8396 16.9208C30.0208 17.7396 29.475 18.8312 28.6562 19.65V18.8312C29.2021 18.5583 29.475 17.4667 29.7479 16.6479ZM62.7708 55.1292V55.9479C62.4979 56.4937 62.4979 57.3125 62.225 57.8583C61.9521 58.4042 61.6791 59.2229 61.1333 59.7687C61.1333 60.0416 60.8604 60.3146 60.5875 60.3146C60.3146 60.5875 60.0416 61.1333 59.4958 61.4062L58.4041 62.4979C57.8583 62.7708 57.3125 63.3166 56.7666 63.5896C56.2208 64.1354 55.4021 64.4083 54.8562 64.6812C53.4916 65.2271 52.1271 65.7729 50.4896 66.0458L45.5771 66.8646C42.3021 67.1375 39.0271 67.4104 35.7521 67.4104C32.4771 67.4104 29.2021 67.4104 26.2 66.8646H25.3812L21.2875 66.0458C20.1958 65.7729 19.1041 65.5 18.0125 64.9541C17.1937 64.6812 16.1021 64.1354 15.2833 63.5896C14.7375 63.3166 14.4646 63.0437 13.9187 62.7708C13.6458 62.7708 13.3729 62.4979 13.1 62.225L10.9166 60.0416C10.3708 59.2229 9.82497 58.6771 9.55205 57.8583C9.27913 57.3125 9.00622 56.4937 9.00622 55.9479V53.7646C9.27913 52.9458 9.27913 52.1271 9.55205 51.3083L10.3708 49.6708C10.6437 49.125 11.1896 48.3062 11.7354 47.7604C12.0083 47.4875 12.2812 47.2146 12.2812 46.9417L13.6458 45.5771C14.1916 45.0312 15.0104 44.4854 15.5562 43.9396C16.6479 43.1208 17.4666 42.575 18.5583 42.0292C19.65 41.4833 20.4687 40.9375 21.5604 40.6646C21.5604 40.9375 21.5604 41.2104 21.8333 41.4833C22.1062 41.7562 22.1062 41.7562 22.1062 42.0292C22.3791 42.575 22.6521 42.8479 22.6521 43.3937C22.925 44.2125 23.4708 44.7583 24.0166 45.5771C25.1083 46.9417 25.9271 48.3062 27.0187 49.6708C28.1104 51.0354 28.9291 52.4 30.0208 53.7646C30.5666 54.5833 31.1125 55.1292 31.6583 55.9479L32.4771 56.7666C32.75 57.0396 33.0229 57.3125 33.2958 57.3125C33.5687 57.3125 33.5687 57.5854 33.5687 57.5854C33.8416 57.8583 34.1146 57.8583 34.3875 57.8583H35.2062C35.4791 57.8583 35.7521 57.8583 36.025 57.5854C36.2979 57.5854 36.5708 57.3125 36.8437 57.0396C37.3896 56.7666 37.6625 56.2208 38.2083 55.675C38.7541 55.1292 39.3 54.3104 39.5729 53.7646C40.6646 52.1271 41.7562 50.7625 42.575 49.125C44.4854 46.1229 46.6687 43.1208 48.5791 40.1187C49.125 39.3 48.8521 38.2083 48.0333 37.6625C47.7604 37.3896 47.4875 37.3896 47.2146 37.3896C46.6687 37.3896 46.1229 37.6625 45.5771 38.2083C44.4854 40.3917 43.1208 42.575 41.7562 44.7583C40.6646 46.9417 39.0271 48.8521 37.6625 50.7625C37.3896 51.3083 37.1166 51.5812 36.5708 52.1271L35.2062 53.4916C34.9333 53.4916 34.9333 53.7646 34.6604 53.7646C34.3875 53.7646 34.3875 53.4916 34.3875 53.4916C32.2041 51.5812 30.5666 49.3979 28.6562 47.2146C27.8375 46.1229 26.7458 44.7583 25.9271 43.6667C25.3812 43.1208 24.8354 42.3021 24.2896 41.7562C25.1083 41.4833 24.5625 40.9375 24.2896 40.3917C24.2896 40.1187 24.0166 39.8458 23.7437 39.8458C24.5625 39.5729 25.6541 39.3 26.7458 39.0271C27.5646 38.7542 28.3833 38.7542 29.2021 38.7542C29.7479 38.7542 30.0208 38.4812 30.5666 38.4812C30.8396 38.4812 31.3854 38.2083 31.6583 38.2083C32.2041 38.4812 32.4771 38.2083 32.75 37.6625C33.5687 38.4812 34.6604 39.0271 35.7521 39.8458C36.025 40.1187 36.2979 40.1187 36.8437 40.1187C36.8437 40.3917 36.8437 40.6646 37.1166 40.9375C37.6625 41.4833 38.2083 41.4833 38.7541 40.9375L39.3 40.3917C39.5729 40.1187 40.1187 39.8458 40.3916 39.5729L41.4833 38.4812C42.0291 37.9354 42.3021 37.3896 42.8479 36.8437C43.3937 36.2979 43.6666 35.4792 44.2125 34.9333C44.2125 35.2062 44.2125 35.2062 44.4854 35.4792C44.7583 36.025 45.0312 36.2979 45.5771 36.2979C46.6687 36.5708 47.4875 37.1167 48.3062 37.3896L51.5812 39.0271C52.1271 39.3 52.9458 39.8458 53.4916 40.1187C54.0375 40.3917 54.5833 40.9375 55.4021 41.4833C55.9479 42.0292 56.4937 42.575 57.0396 42.8479C57.5854 43.3937 58.4041 44.2125 58.95 45.0312L58.6771 44.7583C58.95 45.0312 59.2229 45.5771 59.4958 45.85C59.7687 46.1229 60.0416 46.6687 60.3146 46.9417L61.9521 50.2166C61.9521 50.4896 62.225 50.7625 62.225 51.0354C62.4979 51.5812 62.4979 52.1271 62.4979 52.6729V54.0375C62.7708 54.0375 62.7708 54.5833 62.7708 55.1292ZM76.4166 17.7396H83.2396C84.0583 17.7396 84.8771 17.7396 85.6958 18.0125L89.7896 18.8312C91.4271 19.3771 92.7916 19.9229 94.4291 20.4687H94.7021C95.7937 21.0146 96.6125 21.5604 97.7041 22.1062C98.7958 22.6521 99.6146 23.1979 100.433 24.0167C101.252 24.5625 102.071 25.3812 102.617 25.9271C103.435 26.7458 104.254 27.8375 105.073 28.6562C105.619 29.475 106.165 30.5667 106.71 31.3854C107.256 32.2042 107.529 33.2958 108.075 34.1146C108.075 34.3875 108.348 34.3875 108.348 34.6604C108.348 34.9333 108.621 34.9333 108.621 35.2062H108.075C107.256 35.2062 106.437 34.9333 105.619 34.9333C104.527 34.6604 103.435 34.6604 102.617 34.3875C102.071 34.3875 101.798 34.3875 101.252 34.6604C100.979 34.9333 100.706 35.2062 100.433 35.7521C100.16 36.8437 100.979 37.9354 102.071 37.9354C104.254 37.9354 106.437 38.2083 108.348 38.4812C109.44 38.4812 110.531 38.7542 111.623 38.7542C112.442 38.7542 113.26 38.4812 113.806 38.2083C114.625 37.6625 114.898 36.8437 115.171 35.7521V27.0187C115.171 26.4729 115.171 25.9271 114.898 25.3812C114.898 25.1083 114.898 24.8354 114.625 24.5625C114.625 24.2896 114.625 24.2896 114.352 24.0167V23.7437C114.352 23.1979 113.806 22.6521 113.26 22.6521C112.715 22.6521 112.169 23.1979 112.169 23.7437V24.0167C111.896 24.2896 111.35 24.5625 111.35 24.8354C111.35 25.1083 111.35 25.3812 111.623 25.6542V28.1104C111.623 29.7479 111.35 31.1125 111.35 32.75V33.0229C111.077 32.2042 110.804 31.6583 110.258 30.8396C109.985 30.0208 109.44 29.2021 108.894 28.6562C108.348 27.8375 107.802 27.0187 107.256 26.4729C106.71 25.6542 106.165 24.8354 105.346 24.2896C105.073 22.925 103.708 21.8333 102.344 20.7416C100.706 19.65 99.3416 18.8312 97.7041 18.0125C96.0666 17.1937 94.1562 16.6479 92.2458 15.8292C90.6083 15.2833 88.6979 15.0104 87.0604 14.7375C86.2416 14.4646 85.15 14.4646 84.3312 14.4646H80.5104C79.9646 14.4646 79.4187 14.4646 79.1458 14.7375C78.8729 14.7375 78.6 14.7375 78.6 15.0104C78.3271 15.0104 78.0541 15.2833 77.7812 15.2833C77.5083 15.2833 77.2354 15.5562 76.9625 15.5562C76.6896 15.5562 76.4166 15.8292 76.1437 15.8292C75.5979 16.1021 75.5979 16.9208 75.8708 17.4667C75.8708 17.4667 76.1437 17.4667 76.4166 17.7396ZM58.95 109.167C58.4041 108.894 58.1312 108.894 57.5854 108.894H56.7666C55.4021 109.167 54.0375 109.167 52.6729 109.167C51.3083 109.167 50.2166 109.167 48.8521 108.894C47.7604 108.621 46.6687 108.621 45.5771 108.348C44.4854 108.075 43.3937 107.802 42.3021 107.256C41.4833 106.983 40.6646 106.437 39.8458 105.892L37.3896 104.254C36.5708 103.708 35.7521 102.89 34.9333 102.071C34.1146 101.252 33.2958 100.433 32.75 99.6146C32.2041 99.0687 31.9312 98.5229 31.3854 97.9771C30.8396 97.1583 30.5666 96.6125 30.0208 95.7937C29.2021 94.1562 28.3833 92.5187 27.8375 90.8812C27.2916 89.7896 27.0187 88.425 26.4729 87.3333C26.2 86.5146 25.9271 85.6958 25.3812 85.15C25.9271 85.4229 26.2 85.6958 26.7458 85.9687C28.3833 86.7875 29.7479 87.8791 31.1125 88.9708C31.9312 89.5166 33.0229 89.2437 33.2958 88.425C33.5687 88.1521 33.5687 87.6062 33.5687 87.0604C33.5687 86.5146 33.2958 86.2417 32.75 85.9687C31.1125 84.6041 29.2021 83.5125 27.5646 82.4208C26.7458 81.875 26.2 81.6021 25.3812 81.3291C24.8354 81.0562 24.2896 80.7833 23.7437 80.7833C23.1979 80.5104 22.6521 80.2375 21.8333 80.2375H21.0146C20.4687 80.2375 20.1958 80.5104 19.9229 80.5104C19.65 80.5104 19.1041 81.3291 18.8312 81.875C18.2854 82.9667 18.2854 84.0583 18.0125 85.15V87.6062C18.0125 88.6979 18.0125 89.5166 18.5583 90.3354V90.6083C18.5583 91.1542 19.1041 91.7 19.65 91.7C20.1958 91.7 20.7416 91.1542 20.7416 90.6083V90.3354C21.0146 89.7896 21.0146 89.5166 21.0146 88.9708C21.0146 88.425 21.2875 87.8792 21.2875 87.3333C21.5604 85.9687 21.5604 84.8771 22.1062 83.7854V83.5125C22.3791 83.5125 22.3791 83.5125 22.6521 83.7854C22.6521 84.0583 22.6521 84.0583 22.925 84.3312C22.925 84.6041 22.925 84.8771 23.1979 85.15C23.1979 85.6958 23.4708 86.2416 23.4708 86.7875C23.7437 87.8792 24.0166 88.6979 24.2896 89.7896C24.8354 91.9729 25.9271 94.1562 26.7458 96.0667C27.5646 97.9771 28.6562 99.6146 29.7479 101.252C30.2937 102.071 31.1125 102.89 31.9312 103.708L34.3875 106.165C36.025 107.529 37.6625 108.894 39.5729 109.985C40.6646 110.531 41.7562 110.804 42.575 111.35C43.3937 111.623 44.4854 111.896 45.5771 112.169C46.6687 112.442 47.4875 112.442 48.5791 112.715C49.6708 112.987 50.7625 112.987 51.8541 112.987C54.0375 112.987 56.4937 112.987 58.6771 112.442C59.4958 112.169 60.0416 111.077 59.7687 110.258C59.4958 109.712 59.2229 109.44 58.95 109.167ZM22.1062 83.7854C22.3791 83.7854 22.3791 83.7854 22.1062 83.7854V83.7854Z" fill="#8EFF01"/>
</g>
<defs>
<clipPath id="clip0_1_3591">
<rect width="131" height="131" fill="white"/>
</clipPath>
</defs>
</svg>
