<svg width="131" height="131" viewBox="0 0 131 131" fill="none" xmlns="http://www.w3.org/2000/svg">
<path d="M81.4643 15.6261C81.2247 15.6253 80.9921 15.5456 80.8022 15.3995C80.6123 15.2533 80.4758 15.0487 80.4138 14.8173C80.3517 14.5858 80.3675 14.3404 80.4587 14.1189C80.5499 13.8973 80.7115 13.7119 80.9185 13.5912L86.0232 10.6503C86.2726 10.5198 86.5629 10.4907 86.8333 10.5692C87.1037 10.6476 87.3334 10.8275 87.4743 11.0713C87.6152 11.3151 87.6565 11.6038 87.5895 11.8773C87.5225 12.1508 87.3524 12.3878 87.1148 12.5389L82.0102 15.4798C81.8442 15.5756 81.656 15.6261 81.4643 15.6261ZM59.2162 16.5562C59.0134 16.5562 58.8147 16.4998 58.6423 16.3932C58.4698 16.2866 58.3304 16.1341 58.2398 15.9527C58.1491 15.7714 58.1107 15.5684 58.1289 15.3665C58.1471 15.1646 58.2212 14.9717 58.3428 14.8095L61.0174 11.2856L60.9847 11.2289C60.8397 10.9784 60.8002 10.6806 60.8747 10.401C60.9492 10.1214 61.1317 9.88279 61.382 9.73766L63.0174 8.79227C63.2351 8.66567 63.4899 8.61824 63.7386 8.65803C63.9873 8.69782 64.2146 8.82239 64.3819 9.01061C64.5495 9.19965 64.6463 9.44094 64.6558 9.69335C64.6654 9.94576 64.5871 10.1937 64.4343 10.3948L63.3558 11.814L68.1198 9.06956C68.244 8.99674 68.3814 8.94922 68.524 8.92972C68.6667 8.91021 68.8118 8.91912 68.951 8.95592C69.0901 8.99271 69.2207 9.05668 69.335 9.14413C69.4494 9.23158 69.5453 9.34079 69.6173 9.46547C69.6893 9.59015 69.7359 9.72784 69.7545 9.87061C69.773 10.0134 69.7632 10.1584 69.7254 10.2973C69.6877 10.4363 69.6229 10.5664 69.5347 10.6802C69.4465 10.794 69.3366 10.8892 69.2115 10.9603L59.7707 16.4187C59.6018 16.514 59.4101 16.5616 59.2162 16.5562Z" fill="black"/>
<path d="M66.6484 55.5331C66.4144 55.5331 66.1866 55.458 65.9985 55.3188C65.8105 55.1796 65.6721 54.9836 65.6039 54.7598C65.5357 54.536 65.5411 54.2962 65.6195 54.0757C65.6979 53.8553 65.845 53.6658 66.0392 53.5353L80.2309 43.9876L60.9346 55.1226C60.6888 55.2651 60.3972 55.3062 60.1216 55.2371C59.846 55.168 59.6082 54.9943 59.4587 54.7527C59.3092 54.5111 59.2598 54.2207 59.3209 53.9433C59.3821 53.6658 59.549 53.4232 59.7862 53.2668L76.1983 42.3741L54.8016 54.7253C54.5559 54.8606 54.2675 54.8961 53.9963 54.8245C53.725 54.7529 53.4918 54.5796 53.3449 54.3406C53.198 54.1016 53.1488 53.8152 53.2074 53.5409C53.266 53.2666 53.428 53.0253 53.6597 52.8672L64.1528 46.0552L49.7079 54.3934C49.4631 54.535 49.173 54.5762 48.8985 54.5082C48.624 54.4402 48.3866 54.2683 48.2363 54.0288C48.0855 53.7894 48.0336 53.5008 48.0914 53.2238C48.1492 52.9468 48.3124 52.7032 48.5464 52.5441L66.1353 40.61L43.0116 53.9545C42.7647 54.0903 42.4749 54.1254 42.2027 54.0524C41.9306 53.9794 41.6972 53.804 41.5514 53.5628C41.4056 53.3217 41.3587 53.0336 41.4205 52.7587C41.4822 52.4837 41.6479 52.2434 41.8828 52.0878L46.4001 49.2233L38.693 53.6707C38.5714 53.7467 38.4361 53.798 38.2947 53.8217C38.1533 53.8453 38.0086 53.8409 37.8689 53.8087C37.5868 53.7436 37.3421 53.5691 37.1887 53.3236C37.0352 53.078 36.9856 52.7816 37.0507 52.4995C37.1158 52.2174 37.2903 51.9727 37.5358 51.8192L63.3646 34.4661L32.9006 52.0507C32.6534 52.1919 32.3608 52.231 32.0852 52.1597C31.8096 52.0883 31.5728 51.912 31.4252 51.6685C31.2777 51.425 31.2312 51.1335 31.2955 50.8562C31.3598 50.5788 31.53 50.3376 31.7696 50.1839L46.7604 40.6471L31.8897 49.232C31.6425 49.3743 31.3495 49.4142 31.0732 49.3432C30.797 49.2722 30.5595 49.096 30.4116 48.8521C30.2631 48.6076 30.2166 48.3146 30.2819 48.0362C30.3472 47.7577 30.5192 47.516 30.7609 47.3631L42.719 39.7891L30.9421 46.588C30.6975 46.7299 30.4074 46.7714 30.1328 46.7037C29.8582 46.636 29.6206 46.4643 29.47 46.2249C29.3195 45.9855 29.2677 45.697 29.3257 45.4202C29.3836 45.1434 29.5467 44.8998 29.7806 44.7409L48.1861 32.167L29.6147 42.8894C29.3708 43.0271 29.0833 43.0658 28.8117 42.9975C28.5401 42.9292 28.3051 42.7592 28.1554 42.5225C28.0057 42.2858 27.9526 42.0006 28.0072 41.726C28.0618 41.4513 28.2199 41.2081 28.4488 41.0467L47.7254 27.7283L28.2195 38.99C27.9781 39.1283 27.6929 39.1692 27.4224 39.1043C27.1518 39.0394 26.9162 38.8737 26.7637 38.6409C26.6113 38.4082 26.5534 38.126 26.602 37.852C26.6506 37.578 26.802 37.333 27.0252 37.1669L38.3262 28.8331L26.9335 35.4093C26.7122 35.5375 26.4528 35.5839 26.2008 35.5404C25.9487 35.497 25.7199 35.3663 25.5543 35.1714C25.3887 34.9764 25.2968 34.7295 25.2947 34.4737C25.2926 34.2179 25.3804 33.9695 25.5428 33.7718L29.5535 28.8811L25.4423 31.2522C25.2214 31.3781 24.9635 31.4229 24.7131 31.379C24.4627 31.3351 24.2355 31.2051 24.0707 31.0116C23.9058 30.818 23.8137 30.573 23.8102 30.3188C23.8067 30.0646 23.8921 29.8171 24.0515 29.6191L25.5013 27.8353L24.4358 28.4488C24.2223 28.5725 23.9733 28.6202 23.7292 28.5842C23.4851 28.5482 23.2605 28.4306 23.0918 28.2505C22.9232 28.0705 22.8205 27.8386 22.8005 27.5927C22.7805 27.3468 22.8444 27.1014 22.9817 26.8965L24.1978 25.0821C24.0981 24.9999 24.0145 24.9 23.9511 24.7874C23.8069 24.5371 23.7677 24.2399 23.8422 23.9608C23.9166 23.6817 24.0987 23.4435 24.3485 23.2983L26.272 22.1848C26.4855 22.0612 26.7345 22.0135 26.9786 22.0495C27.2226 22.0855 27.4473 22.2031 27.616 22.3831C27.7846 22.5632 27.8873 22.7951 27.9073 23.041C27.9273 23.2868 27.8634 23.5323 27.7261 23.7372L27.4051 24.2175L29.5383 22.9861C29.7592 22.859 30.0176 22.8131 30.2688 22.8566C30.5199 22.9 30.748 23.0299 30.9134 23.2238C31.0788 23.4178 31.1711 23.6635 31.1744 23.9183C31.1777 24.1732 31.0916 24.4212 30.9312 24.6193L29.4837 26.4009L33.6495 23.9992C33.8708 23.871 34.1302 23.8246 34.3822 23.8681C34.6343 23.9115 34.8631 24.0422 35.0287 24.2371C35.1943 24.4321 35.2862 24.679 35.2883 24.9348C35.2904 25.1906 35.2026 25.439 35.0403 25.6367L31.0295 30.5274L54.1073 17.209C54.3487 17.0707 54.6339 17.0298 54.9045 17.0947C55.175 17.1596 55.4106 17.3253 55.5631 17.5581C55.7156 17.7908 55.7734 18.073 55.7248 18.347C55.6762 18.621 55.5248 18.866 55.3016 19.0321L44.0028 27.3659L70.0085 12.3446C70.2535 12.1897 70.5499 12.1384 70.8326 12.2021C71.1154 12.2658 71.3612 12.4391 71.5161 12.6841C71.671 12.929 71.7223 13.2255 71.6586 13.5082C71.5949 13.7909 71.4215 14.0368 71.1766 14.1917L51.889 27.51L72.0499 15.8706C72.294 15.7349 72.5808 15.6979 72.8513 15.7672C73.1219 15.8364 73.3555 16.0068 73.5043 16.2431C73.6531 16.4794 73.7057 16.7638 73.6512 17.0377C73.5967 17.3116 73.4394 17.5542 73.2115 17.7156L54.8103 30.285L87.6258 11.3402C87.8737 11.1905 88.1708 11.1454 88.4519 11.2148C88.733 11.2842 88.975 11.4625 89.1247 11.7103C89.2744 11.9581 89.3195 12.2553 89.2501 12.5364C89.1807 12.8175 89.0025 13.0595 88.7546 13.2092L76.8074 20.7788L89.617 13.3838C89.8635 13.2503 90.1519 13.2166 90.4225 13.2899C90.6931 13.3632 90.9252 13.5378 91.0706 13.7775C91.216 14.0172 91.2636 14.3036 91.2035 14.5775C91.1435 14.8513 90.9804 15.0915 90.748 15.2484L75.7354 24.7983L90.0275 16.5497C90.273 16.3962 90.5694 16.3466 90.8516 16.4117C91.1337 16.4768 91.3784 16.6513 91.5318 16.8968C91.6853 17.1423 91.7349 17.4388 91.6698 17.7209C91.6047 18.003 91.4302 18.2477 91.1847 18.4011L65.3646 35.7499L90.6301 21.163C90.877 21.0273 91.1668 20.9922 91.439 21.0652C91.7111 21.1382 91.9445 21.3136 92.0903 21.5548C92.2361 21.7959 92.283 22.084 92.2213 22.3589C92.1595 22.6338 91.9938 22.8742 91.7589 23.0298L87.2241 25.9074L90.9663 23.7481C91.2113 23.603 91.5034 23.5593 91.7801 23.6264C92.0569 23.6935 92.2965 23.8662 92.4477 24.1075C92.599 24.3487 92.65 24.6396 92.5898 24.9179C92.5297 25.1963 92.3631 25.4401 92.1257 25.5974L74.552 37.5293L99.2477 23.27C99.4939 23.1324 99.7836 23.0955 100.056 23.1668C100.329 23.2381 100.564 23.4122 100.711 23.6527C100.858 23.8931 100.907 24.1811 100.847 24.4565C100.786 24.7319 100.622 24.9733 100.387 25.1302L89.879 31.9553L105.315 23.0429C105.561 22.9033 105.85 22.8642 106.124 22.9338C106.398 23.0034 106.634 23.1762 106.782 23.4161C106.931 23.6559 106.982 23.9441 106.922 24.2201C106.863 24.4962 106.7 24.7386 106.466 24.8965L90.0493 35.8067L106.656 26.2196C106.901 26.0775 107.192 26.0364 107.467 26.1048C107.742 26.1732 107.979 26.3459 108.129 26.5864C108.279 26.8268 108.33 27.1161 108.271 27.3932C108.211 27.6703 108.046 27.9134 107.811 28.0711L93.6191 37.6167L104.92 31.0929C105.163 30.9548 105.45 30.9154 105.722 30.9829C105.993 31.0503 106.229 31.2195 106.379 31.4553C106.53 31.6912 106.584 31.9759 106.53 32.2505C106.477 32.5251 106.32 32.7688 106.092 32.9312L95.0273 40.7039L103.173 36.001C103.415 35.8646 103.699 35.8254 103.969 35.8912C104.239 35.9571 104.473 36.1231 104.624 36.3555C104.776 36.5879 104.833 36.8694 104.785 37.1425C104.736 37.4157 104.586 37.6602 104.363 37.8263L98.1604 42.3567L101.628 40.3567C101.862 40.2212 102.138 40.1775 102.403 40.2341C102.667 40.2907 102.901 40.4436 103.06 40.6631C103.218 40.8826 103.289 41.153 103.259 41.422C103.229 41.6909 103.101 41.9392 102.898 42.1187L97.7914 46.66L99.7957 45.505C100.003 45.3856 100.243 45.3373 100.48 45.3675C100.717 45.3977 100.937 45.5048 101.107 45.6723C101.278 45.8398 101.388 46.0585 101.422 46.2949C101.456 46.5312 101.412 46.7723 101.296 46.981L99.2193 50.7057C99.3206 50.789 99.4063 50.8896 99.4726 51.0027C99.6174 51.2534 99.6566 51.5514 99.5817 51.831C99.5067 52.1107 99.3238 52.3491 99.0731 52.4939L97.5578 53.3672C97.3507 53.4841 97.1111 53.5302 96.8754 53.4985C96.6398 53.4667 96.4209 53.3589 96.2521 53.1913C96.0833 53.0238 95.9739 52.8057 95.9404 52.5703C95.9069 52.3348 95.9512 52.0949 96.0666 51.8869L97.4727 49.363L89.6301 53.8912C89.3959 54.0267 89.1197 54.0704 88.8551 54.0138C88.5905 53.9572 88.3563 53.8043 88.198 53.5849C88.0397 53.3654 87.9686 53.0949 87.9984 52.826C88.0283 52.557 88.1569 52.3087 88.3594 52.1293L93.4466 47.5967L81.6129 54.4261C81.3713 54.5625 81.0868 54.6018 80.8173 54.5359C80.5478 54.47 80.3134 54.304 80.1619 54.0716C80.0104 53.8392 79.953 53.5578 80.0015 53.2846C80.05 53.0114 80.2007 52.7669 80.423 52.6009L86.6324 48.0661L74.8315 54.8781C74.5882 55.0161 74.3011 55.0555 74.0296 54.9881C73.7581 54.9206 73.5228 54.7515 73.3724 54.5156C73.222 54.2797 73.1678 53.9951 73.2212 53.7204C73.2745 53.4458 73.4313 53.2021 73.659 53.0397L84.7329 45.2605L67.1942 55.3846C67.0285 55.4812 66.8402 55.5324 66.6484 55.5331Z" fill="black"/>
<path d="M39.4484 26.6192C39.2247 26.6185 39.0065 26.5492 38.8235 26.4204C38.6405 26.2917 38.5014 26.1098 38.4252 25.8995C38.3489 25.6891 38.3392 25.4604 38.3972 25.2443C38.4553 25.0282 38.5784 24.8351 38.7498 24.6913L40.7868 22.9883L40.4026 23.2066C40.1699 23.3458 39.8939 23.3935 39.6281 23.3404C39.3622 23.2873 39.1257 23.1372 38.9644 22.9193C38.8032 22.7014 38.7288 22.4313 38.7557 22.1615C38.7826 21.8918 38.9089 21.6417 39.11 21.46L41.0925 19.5954L40.8327 19.746C40.6214 19.8653 40.3765 19.9107 40.1365 19.8752C39.8966 19.8398 39.6753 19.7254 39.5076 19.5501C39.3398 19.3749 39.2352 19.1488 39.2103 18.9075C39.1854 18.6663 39.2415 18.4235 39.3698 18.2177L41.7191 14.5715L41.4593 14.72C41.2098 14.8505 40.9195 14.8796 40.6491 14.8011C40.3787 14.7227 40.149 14.5428 40.0081 14.299C39.8672 14.0553 39.826 13.7665 39.893 13.493C39.9599 13.2195 40.13 12.9825 40.3676 12.8314L44.5356 10.4298C44.7469 10.3106 44.9918 10.2651 45.2317 10.3006C45.4717 10.3361 45.693 10.4504 45.8607 10.6257C46.0284 10.8009 46.133 11.027 46.158 11.2683C46.1829 11.5096 46.1268 11.7523 45.9984 11.9581L43.6492 15.6043L48.1687 12.9974C48.4013 12.8582 48.6773 12.8105 48.9432 12.8636C49.209 12.9167 49.4455 13.0668 49.6068 13.2847C49.768 13.5026 49.8424 13.7727 49.8155 14.0425C49.7886 14.3122 49.6623 14.5623 49.4612 14.744L47.4831 16.6042L50.6642 14.768C50.9006 14.6348 51.1781 14.5943 51.4427 14.6545C51.7073 14.7147 51.94 14.8714 52.0954 15.0938C52.2508 15.3163 52.3177 15.5886 52.2832 15.8578C52.2487 16.1269 52.1152 16.3736 51.9087 16.5496L49.8629 18.257L53.02 16.4361C53.1442 16.3633 53.2816 16.3158 53.4243 16.2963C53.5669 16.2768 53.712 16.2857 53.8512 16.3225C53.9904 16.3593 54.1209 16.4232 54.2353 16.5107C54.3496 16.5981 54.4456 16.7074 54.5175 16.832C54.5895 16.9567 54.6361 17.0944 54.6547 17.2372C54.6733 17.3799 54.6634 17.525 54.6257 17.6639C54.5879 17.8028 54.5231 17.933 54.4349 18.0467C54.3467 18.1605 54.2369 18.2557 54.1117 18.3269L39.9943 26.4751C39.8285 26.571 39.64 26.6208 39.4484 26.6192Z" fill="black"/>
<path d="M123.592 129.749C123.41 129.749 123.232 129.704 123.072 129.618C122.912 129.532 122.777 129.408 122.677 129.256C122.578 129.104 122.518 128.93 122.502 128.749C122.487 128.569 122.517 128.387 122.59 128.221L123.9 125.192L118.978 128.031C118.755 128.159 118.493 128.205 118.24 128.159C117.986 128.114 117.757 127.98 117.592 127.782C117.428 127.583 117.339 127.333 117.341 127.075C117.344 126.818 117.437 126.569 117.605 126.374L119.69 123.952L114.736 126.815C114.511 126.944 114.247 126.99 113.992 126.942C113.736 126.895 113.506 126.758 113.343 126.557C113.179 126.355 113.093 126.101 113.099 125.842C113.106 125.582 113.205 125.333 113.378 125.14L117.446 120.612L109.118 125.415C108.882 125.553 108.602 125.597 108.335 125.538C108.067 125.48 107.832 125.323 107.675 125.099C107.517 124.874 107.45 124.599 107.486 124.328C107.522 124.057 107.659 123.809 107.869 123.633L111.144 120.893L104.813 124.544C104.575 124.682 104.293 124.724 104.025 124.663C103.756 124.603 103.521 124.442 103.365 124.215C103.21 123.988 103.146 123.711 103.186 123.438C103.227 123.166 103.369 122.919 103.584 122.747L110.376 117.311L99.3457 123.677C99.102 123.811 98.8163 123.847 98.5468 123.778C98.2774 123.709 98.0446 123.539 97.8961 123.304C97.7475 123.069 97.6944 122.785 97.7475 122.512C97.8007 122.239 97.9561 121.997 98.182 121.834L102.876 118.612L96.0402 122.559C95.7968 122.697 95.5098 122.737 95.2383 122.669C94.9668 122.602 94.7315 122.433 94.5811 122.197C94.4306 121.961 94.3765 121.676 94.4298 121.402C94.4832 121.127 94.6399 120.883 94.8677 120.721L107.769 111.653L94.4922 119.317C94.2501 119.458 93.963 119.501 93.6903 119.436C93.4176 119.372 93.1802 119.205 93.0273 118.97C92.8744 118.735 92.8176 118.45 92.8688 118.175C92.92 117.899 93.0752 117.654 93.3023 117.49L107.463 107.154L94.4769 114.649C94.2325 114.786 93.9445 114.825 93.6728 114.755C93.401 114.686 93.1663 114.515 93.0172 114.278C92.8681 114.04 92.8161 113.755 92.8721 113.48C92.928 113.205 93.0875 112.962 93.3176 112.802L96.4223 110.686L94.4704 111.813C94.2316 111.95 93.95 111.991 93.6819 111.929C93.4138 111.867 93.179 111.706 93.0244 111.479C92.8699 111.251 92.807 110.973 92.8484 110.701C92.8898 110.429 93.0324 110.183 93.2477 110.012L103.311 102.058L102.145 102.73C101.909 102.865 101.631 102.906 101.366 102.847C101.101 102.788 100.868 102.632 100.712 102.41C100.555 102.188 100.487 101.916 100.521 101.646C100.555 101.377 100.688 101.13 100.894 100.953L108.522 94.4816C108.486 94.2628 108.518 94.0382 108.613 93.8377C108.707 93.6372 108.861 93.4704 109.053 93.3593L111.62 91.8769C111.856 91.745 112.132 91.7051 112.395 91.7649C112.659 91.8246 112.89 91.9799 113.046 92.2005C113.201 92.4212 113.27 92.6917 113.238 92.9597C113.205 93.2278 113.075 93.4744 112.871 93.6519L111.542 94.7829L115.212 92.6629C115.451 92.5233 115.734 92.4796 116.004 92.5406C116.273 92.6016 116.51 92.7627 116.666 92.9915C116.821 93.2203 116.884 93.4995 116.842 93.7729C116.799 94.0463 116.654 94.2933 116.437 94.4641L106.37 102.422L120.78 94.1039C121.024 93.9619 121.314 93.9204 121.589 93.9881C121.863 94.0558 122.101 94.2275 122.252 94.4669C122.402 94.7063 122.454 94.9948 122.396 95.2716C122.338 95.5485 122.175 95.792 121.941 95.9509L118.819 98.0775L124.013 95.0929C124.255 94.9565 124.539 94.9173 124.809 94.9831C125.078 95.049 125.313 95.215 125.464 95.4474C125.616 95.6799 125.673 95.9613 125.624 96.2345C125.576 96.5076 125.425 96.7521 125.203 96.9182L111.046 107.254L127.919 97.5142C128.162 97.3762 128.449 97.3368 128.721 97.4043C128.992 97.4717 129.228 97.6408 129.378 97.8767C129.529 98.1126 129.583 98.3972 129.529 98.6719C129.476 98.9465 129.319 99.1902 129.091 99.3526L116.197 108.416L126.116 102.689C126.36 102.549 126.649 102.509 126.921 102.577C127.194 102.645 127.431 102.816 127.581 103.054C127.731 103.292 127.783 103.579 127.727 103.854C127.671 104.13 127.511 104.373 127.279 104.534L122.048 108.116C122.262 108.071 122.484 108.089 122.687 108.169C122.89 108.249 123.065 108.387 123.19 108.566C123.345 108.793 123.409 109.071 123.368 109.343C123.328 109.615 123.186 109.861 122.972 110.033L116.184 115.47L120.937 112.726C121.173 112.59 121.452 112.548 121.718 112.607C121.984 112.667 122.218 112.823 122.374 113.047C122.53 113.27 122.597 113.544 122.562 113.814C122.527 114.084 122.392 114.331 122.183 114.507L118.908 117.247L122.295 115.295C122.519 115.167 122.783 115.123 123.037 115.17C123.291 115.218 123.521 115.354 123.684 115.555C123.847 115.756 123.933 116.008 123.928 116.267C123.922 116.526 123.825 116.774 123.653 116.968L119.585 121.494L124.17 118.85C124.393 118.722 124.654 118.678 124.907 118.723C125.16 118.769 125.388 118.903 125.552 119.1C125.716 119.298 125.805 119.547 125.804 119.804C125.802 120.061 125.71 120.309 125.544 120.505L123.461 122.922L125.655 121.655C125.854 121.541 126.083 121.492 126.312 121.515C126.54 121.538 126.755 121.633 126.926 121.785C127.097 121.938 127.216 122.141 127.266 122.365C127.316 122.588 127.294 122.822 127.203 123.033L125.893 126.059L126.535 125.69C126.659 125.617 126.796 125.57 126.939 125.55C127.082 125.531 127.227 125.54 127.366 125.576C127.505 125.613 127.636 125.677 127.75 125.765C127.864 125.852 127.96 125.961 128.032 126.086C128.104 126.211 128.151 126.348 128.169 126.491C128.188 126.634 128.178 126.779 128.14 126.918C128.103 127.057 128.038 127.187 127.95 127.301C127.861 127.415 127.752 127.51 127.626 127.581L124.133 129.596C123.969 129.693 123.782 129.746 123.592 129.749ZM7.31388 129.769C7.07953 129.77 6.85108 129.695 6.66231 129.556C6.47354 129.417 6.33447 129.221 6.26567 128.997C6.19687 128.773 6.20199 128.533 6.28028 128.312C6.35856 128.091 6.50585 127.902 6.70036 127.771L10.8487 124.961L4.88383 128.408C4.64259 128.549 4.35675 128.591 4.08505 128.528C3.81335 128.464 3.57643 128.298 3.42296 128.065C3.2695 127.832 3.21116 127.549 3.25993 127.274C3.3087 126.999 3.46087 126.754 3.68518 126.587L17.8332 116.068L5.54101 123.164C5.30039 123.302 5.01632 123.343 4.74648 123.279C4.47664 123.215 4.24127 123.051 4.08814 122.82C3.93502 122.588 3.87563 122.308 3.92204 122.034C3.96844 121.761 4.11716 121.515 4.33799 121.347L15.5931 112.878L8.90335 116.747C8.66637 116.884 8.3867 116.927 8.1197 116.867C7.8527 116.807 7.61783 116.65 7.4616 116.425C7.30537 116.2 7.23917 115.925 7.27611 115.654C7.31304 115.383 7.45041 115.136 7.66103 114.961L16.8812 107.296L10.1304 111.193C9.89435 111.332 9.61465 111.377 9.34679 111.32C9.07894 111.262 8.84251 111.106 8.68444 110.882C8.52637 110.658 8.45822 110.383 8.49351 110.112C8.52881 109.84 8.66497 109.592 8.87496 109.416L14.8245 104.363L7.88809 108.363C7.65259 108.501 7.37397 108.546 7.10714 108.488C6.84031 108.431 6.60463 108.276 6.44655 108.054C6.28846 107.831 6.21944 107.557 6.25309 107.287C6.28673 107.016 6.4206 106.767 6.62831 106.59L12.4906 101.525L5.61961 105.496C5.38723 105.626 5.11554 105.666 4.85561 105.61C4.59567 105.553 4.36537 105.403 4.20799 105.189C4.0506 104.974 3.97696 104.71 4.0009 104.445C4.02484 104.18 4.14471 103.933 4.33799 103.75L9.48411 99.0556L3.35331 102.593C3.13947 102.716 2.8902 102.763 2.64615 102.726C2.40211 102.69 2.17769 102.571 2.0095 102.391C1.84131 102.21 1.73928 101.978 1.72004 101.732C1.70081 101.486 1.7655 101.24 1.90358 101.036L3.09131 99.2893C2.84167 99.4134 2.55398 99.4374 2.28726 99.3562C2.02053 99.275 1.79498 99.0948 1.65686 98.8526C1.51672 98.6035 1.47984 98.3094 1.55414 98.0335C1.62844 97.7575 1.80798 97.5217 2.05423 97.3767L6.11304 95.0208C6.32665 94.897 6.57594 94.8492 6.82022 94.8853C7.06449 94.9214 7.28931 95.0392 7.45798 95.2195C7.62626 95.4003 7.72825 95.6329 7.74728 95.8791C7.76632 96.1254 7.70128 96.3709 7.56278 96.5754L6.37723 98.3221L17.1127 92.1367C17.3451 92.0071 17.6167 91.9669 17.8767 92.0236C18.1366 92.0803 18.3669 92.2299 18.5243 92.4444C18.6817 92.6589 18.7553 92.9235 18.7314 93.1885C18.7075 93.4534 18.5876 93.7005 18.3943 93.8833L13.2504 98.5688L21.3964 93.8833C21.6319 93.7454 21.9105 93.7007 22.1773 93.758C22.4442 93.8154 22.6798 93.9705 22.8379 94.193C22.996 94.4155 23.065 94.6891 23.0314 94.9599C22.9977 95.2308 22.8639 95.4792 22.6562 95.6562L16.7874 100.704L24.1517 96.4531C24.3875 96.317 24.6655 96.2738 24.9314 96.3321C25.1973 96.3903 25.4318 96.5458 25.589 96.7681C25.7462 96.9903 25.8147 97.2632 25.781 97.5334C25.7474 97.8035 25.6141 98.0513 25.4072 98.2282L19.4532 103.289L26.8765 99.0011C27.1133 98.865 27.3924 98.8225 27.6588 98.8821C27.9253 98.9416 28.1598 99.0989 28.316 99.3228C28.4722 99.5467 28.5389 99.8211 28.5028 100.092C28.4667 100.362 28.3305 100.61 28.121 100.785L18.9074 108.451L30.0904 101.994C30.331 101.857 30.6151 101.815 30.8849 101.879C31.1548 101.943 31.3902 102.108 31.5433 102.339C31.6964 102.57 31.7558 102.851 31.7094 103.124C31.663 103.398 31.5143 103.643 31.2934 103.811L20.0405 112.274L33.0554 104.759C33.2965 104.621 33.5808 104.581 33.8504 104.646C34.1201 104.711 34.3549 104.876 34.5073 105.108C34.6596 105.34 34.7179 105.621 34.6705 105.894C34.6231 106.168 34.4734 106.413 34.2518 106.579L20.1017 117.101L36.2736 107.765C36.5186 107.62 36.8107 107.576 37.0874 107.643C37.3642 107.71 37.6037 107.883 37.755 108.124C37.9063 108.366 37.9573 108.656 37.8971 108.935C37.8369 109.213 37.6704 109.457 37.433 109.614L33.2977 112.411L36.505 110.562C36.7473 110.423 37.0337 110.382 37.3052 110.448C37.5767 110.513 37.8127 110.681 37.9646 110.915C38.1165 111.149 38.1727 111.433 38.1218 111.708C38.0708 111.982 37.9165 112.227 37.6906 112.391L35.4156 114.033L36.5072 113.402C36.7461 113.263 37.029 113.219 37.2988 113.28C37.5686 113.341 37.8052 113.502 37.9608 113.731C38.1164 113.96 38.1793 114.239 38.1368 114.512C38.0943 114.786 37.9497 115.033 37.7321 115.204L36.8587 115.904C37.0753 115.864 37.2991 115.89 37.5006 115.979C37.7022 116.068 37.8722 116.215 37.9882 116.403C38.1042 116.59 38.1607 116.808 38.1505 117.028C38.1403 117.248 38.0636 117.46 37.9308 117.636L36.5531 119.452C36.7826 119.476 36.9987 119.571 37.1705 119.725C37.3424 119.879 37.4611 120.083 37.5095 120.309C37.558 120.534 37.5339 120.769 37.4405 120.98C37.3471 121.191 37.1893 121.367 36.9897 121.483L33.2934 123.614C33.0754 123.738 32.8212 123.784 32.5736 123.743C32.326 123.701 32.1001 123.576 31.934 123.388C31.7679 123.2 31.6717 122.96 31.6616 122.71C31.6515 122.459 31.7281 122.212 31.8786 122.011L32.9266 120.627L25.5447 124.887C25.3062 125.023 25.0253 125.064 24.7578 125.002C24.4904 124.94 24.256 124.78 24.1015 124.553C23.9471 124.326 23.8837 124.049 23.9242 123.777C23.9646 123.506 24.1059 123.26 24.3199 123.088L24.8788 122.651L17.8659 126.684C17.6241 126.818 17.3402 126.856 17.0717 126.789C16.8031 126.722 16.5699 126.556 16.4193 126.324C16.2687 126.092 16.2119 125.811 16.2603 125.538C16.3088 125.266 16.4589 125.022 16.6804 124.856L18.951 123.219L7.85971 129.62C7.69397 129.717 7.50571 129.768 7.31388 129.769Z" fill="black"/>
<path d="M110.549 114.188C110.388 114.188 110.229 114.153 110.083 114.084C109.938 114.016 109.809 113.916 109.706 113.791C109.604 113.667 109.53 113.522 109.491 113.366C109.451 113.21 109.446 113.047 109.477 112.889L109.784 111.295L107.357 112.695C107.141 112.819 106.89 112.865 106.645 112.827C106.4 112.789 106.175 112.669 106.007 112.486C105.839 112.303 105.739 112.068 105.723 111.82C105.707 111.572 105.776 111.326 105.918 111.123L107.571 108.769L102.896 111.468C102.669 111.598 102.402 111.642 102.145 111.591C101.888 111.541 101.658 111.4 101.496 111.194C101.334 110.988 101.252 110.731 101.264 110.469C101.276 110.208 101.382 109.959 101.562 109.769L105.274 105.887L97.56 110.341C97.3256 110.475 97.0499 110.517 96.7861 110.46C96.5224 110.402 96.2893 110.249 96.1319 110.03C95.9745 109.811 95.9039 109.541 95.9338 109.272C95.9636 109.004 96.0919 108.756 96.2937 108.577L102.342 103.252L91.6716 109.411C91.431 109.546 91.1483 109.585 90.8803 109.52C90.6122 109.455 90.3787 109.291 90.2266 109.061C90.0745 108.831 90.0151 108.552 90.0604 108.28C90.1057 108.008 90.2523 107.763 90.4707 107.595L96.3657 103.154L86.5582 108.815C86.3138 108.96 86.0225 109.004 85.7463 108.937C85.47 108.871 85.2306 108.699 85.0788 108.459C84.927 108.219 84.8749 107.929 84.9334 107.651C84.9919 107.373 85.1565 107.129 85.3923 106.97L87.5145 105.514L82.4208 108.451C82.1782 108.591 81.8907 108.633 81.6181 108.568C81.3454 108.502 81.1084 108.334 80.9562 108.098C80.8041 107.863 80.7484 107.578 80.8007 107.302C80.8531 107.027 81.0094 106.782 81.2374 106.619L92.7654 98.3417L75.921 108.075C75.6785 108.212 75.3928 108.251 75.1224 108.184C74.852 108.118 74.6173 107.95 74.4664 107.716C74.3155 107.482 74.2597 107.199 74.3105 106.925C74.3614 106.652 74.5149 106.407 74.7398 106.243L92.0187 93.8702L67.7488 107.874C67.5047 108.01 67.2179 108.047 66.9474 107.978C66.6768 107.908 66.4431 107.738 66.2944 107.502C66.1456 107.265 66.093 106.981 66.1475 106.707C66.202 106.433 66.3593 106.191 66.5872 106.029L83.1937 94.6759L60.2294 107.937C59.9842 108.08 59.6933 108.121 59.4183 108.052C59.1433 107.984 58.9057 107.811 58.7557 107.571C58.6057 107.33 58.5551 107.041 58.6146 106.764C58.6741 106.487 58.8389 106.244 59.0744 106.086L75.5651 95.0056L52.6183 108.25C52.3723 108.389 52.0817 108.428 51.8076 108.358C51.5336 108.288 51.2975 108.114 51.1492 107.873C51.0008 107.632 50.9518 107.343 51.0124 107.067C51.0731 106.79 51.2386 106.548 51.4742 106.392L64.9454 97.5775L45.4722 108.822C45.2304 108.937 44.9548 108.959 44.6978 108.884C44.4408 108.809 44.2203 108.642 44.0783 108.415C43.9363 108.188 43.8826 107.917 43.9274 107.653C43.9723 107.389 44.1126 107.151 44.3216 106.983L67.0894 91.4576L34.2783 110.389C34.0317 110.53 33.7402 110.569 33.4655 110.498C33.1908 110.427 32.9545 110.252 32.8066 110.01C32.6587 109.768 32.6109 109.477 32.6733 109.201C32.7356 108.924 32.9033 108.682 33.1407 108.527L49.7515 97.7784L22.7939 113.341C22.548 113.475 22.2603 113.509 21.99 113.436C21.7198 113.363 21.4878 113.19 21.3418 112.951C21.1959 112.713 21.1471 112.427 21.2057 112.153C21.2642 111.88 21.4255 111.639 21.6564 111.481L43.5094 97.3483L20.2613 110.767C20.0146 110.899 19.7268 110.931 19.4571 110.857C19.1875 110.783 18.9566 110.608 18.812 110.368C18.6675 110.129 18.6204 109.843 18.6805 109.57C18.7405 109.297 18.9031 109.057 19.1347 108.9L26.8309 104.055L20.2613 107.857C20.0153 107.996 19.7247 108.035 19.4506 107.965C19.1766 107.895 18.9405 107.721 18.7922 107.48C18.6438 107.239 18.5948 106.95 18.6554 106.674C18.7161 106.397 18.8816 106.155 19.1172 105.999L36.6166 94.5252L20.2613 103.957C20.0157 104.089 19.7291 104.122 19.4601 104.049C19.1911 103.976 18.9601 103.804 18.8144 103.566C18.6687 103.329 18.6194 103.044 18.6765 102.772C18.7336 102.499 18.8928 102.258 19.1216 102.099L28.6016 95.9313L20.2613 100.75C20.0165 100.889 19.7272 100.929 19.454 100.86C19.1808 100.791 18.9448 100.619 18.7953 100.381C18.6458 100.142 18.5945 99.8543 18.6521 99.5785C18.7096 99.3027 18.8716 99.0598 19.1041 98.9006L31.5818 90.4337L20.2613 96.9684C20.0204 97.1044 19.737 97.1439 19.4682 97.0789C19.1993 97.014 18.9652 96.8494 18.813 96.6185C18.6608 96.3876 18.6019 96.1075 18.6483 95.8349C18.6946 95.5622 18.8427 95.3173 19.0626 95.1497L32.3809 85.198L20.2613 92.2C20.0206 92.3378 19.7366 92.379 19.4667 92.315C19.1969 92.251 18.9615 92.0867 18.8084 91.8555C18.6553 91.6243 18.5959 91.3435 18.6423 91.0701C18.6887 90.7967 18.8374 90.5512 19.0582 90.3834L25.1978 85.7722L20.2613 88.6215C20.0243 88.7582 19.7446 88.801 19.4776 88.7413C19.2106 88.6817 18.9757 88.5239 18.8195 88.2993C18.6633 88.0747 18.5971 87.7996 18.634 87.5286C18.671 87.2575 18.8083 87.0101 19.0189 86.8355L21.9031 84.4339L20.2613 85.3792C20.0357 85.5075 19.7718 85.5512 19.5169 85.5025C19.262 85.4538 19.0328 85.3159 18.8703 85.1135C18.7079 84.9112 18.6229 84.6575 18.6305 84.3981C18.6381 84.1388 18.7379 83.8906 18.912 83.6981L19.9818 82.53C19.7837 82.4618 19.6094 82.3381 19.4796 82.1736C19.3499 82.009 19.2703 81.8106 19.2503 81.6021C19.2303 81.3935 19.2707 81.1836 19.3667 80.9974C19.4627 80.8112 19.6103 80.6565 19.7918 80.5519L24.1891 78.0149C24.4149 77.8851 24.6797 77.8405 24.9356 77.8888C25.1915 77.9372 25.4217 78.0755 25.5846 78.2787C25.7475 78.482 25.8323 78.7367 25.8239 78.997C25.8154 79.2573 25.7141 79.506 25.5384 79.6982L25.32 79.9427L31.9552 76.1132C32.1922 75.9765 32.4718 75.9337 32.7388 75.9934C33.0058 76.053 33.2407 76.2108 33.3969 76.4354C33.5532 76.66 33.6194 76.935 33.5824 77.2061C33.5455 77.4772 33.4081 77.7245 33.1975 77.8991L30.3221 80.2855L39.7366 74.8512C39.9772 74.7134 40.2613 74.6722 40.5311 74.7362C40.801 74.8002 41.0363 74.9644 41.1895 75.1957C41.3426 75.4269 41.402 75.7077 41.3556 75.9811C41.3092 76.2545 41.1604 76.5 40.9396 76.6677L34.8001 81.2811L47.3368 74.0434C47.5775 73.9101 47.8596 73.8727 48.1268 73.9385C48.3939 74.0043 48.6263 74.1686 48.7775 74.3985C48.9287 74.6283 48.9876 74.9068 48.9423 75.1782C48.897 75.4495 48.7509 75.6938 48.5332 75.8621L35.2171 85.805L56.533 73.4975C56.7778 73.358 57.067 73.3186 57.3402 73.3874C57.6135 73.4563 57.8495 73.6281 57.9989 73.8669C58.1484 74.1058 58.1997 74.3932 58.1422 74.669C58.0846 74.9448 57.9226 75.1877 57.6901 75.3468L45.1949 83.84L63.3166 73.3753C63.5621 73.2435 63.8487 73.2106 64.1177 73.2833C64.3867 73.356 64.6177 73.5288 64.7634 73.7664C64.9091 74.0039 64.9585 74.2881 64.9014 74.5609C64.8443 74.8336 64.685 75.0742 64.4563 75.2333L54.9763 81.3947L68.8448 73.3884C69.0911 73.2409 69.3855 73.1964 69.6643 73.2644C69.9432 73.3324 70.1841 73.5075 70.3348 73.7518C70.4855 73.9961 70.5339 74.2899 70.4696 74.5696C70.4052 74.8493 70.2333 75.0925 69.991 75.2464L52.4851 86.7242L75.2507 73.5783C75.498 73.4397 75.7896 73.4028 76.0637 73.4754C76.3378 73.5479 76.5729 73.7243 76.7193 73.9671C76.8656 74.2099 76.9118 74.5002 76.848 74.7764C76.7842 75.0527 76.6153 75.2933 76.3773 75.4473L68.6876 80.2877L79.8619 73.8381C80.1089 73.687 80.4058 73.6402 80.6873 73.7079C80.9688 73.7757 81.2118 73.9525 81.3629 74.1995C81.5141 74.4465 81.5609 74.7433 81.4931 75.0248C81.4254 75.3063 81.2486 75.5494 81.0016 75.7005L59.1683 89.8289L85.9643 74.3578C86.2104 74.2203 86.5002 74.1833 86.773 74.2546C87.0458 74.326 87.2803 74.5001 87.4276 74.7405C87.5749 74.9809 87.6235 75.2689 87.5632 75.5443C87.5029 75.8198 87.3383 76.0612 87.104 76.218L70.4779 86.9753L91.2349 74.9931C91.4788 74.8606 91.764 74.826 92.0325 74.8963C92.301 74.9666 92.5326 75.1365 92.6803 75.3715C92.828 75.6065 92.8806 75.889 92.8275 76.1614C92.7743 76.4338 92.6194 76.6758 92.3942 76.838L69.6221 92.355L97.8133 76.0913C98.0584 75.9611 98.344 75.929 98.6119 76.0018C98.8798 76.0746 99.1099 76.2468 99.2554 76.4832C99.4009 76.7197 99.4508 77.0027 99.395 77.2746C99.3393 77.5466 99.182 77.7871 98.9552 77.9472L85.4883 86.7569L102.259 77.0717C102.503 76.9362 102.79 76.8997 103.061 76.9698C103.332 77.0399 103.565 77.2112 103.713 77.4483C103.862 77.6855 103.913 77.9705 103.857 78.2445C103.801 78.5185 103.643 78.7606 103.414 78.9209L86.9272 89.9992L106.983 78.421C107.228 78.279 107.518 78.2375 107.793 78.3052C108.067 78.373 108.305 78.5446 108.455 78.784C108.606 79.0234 108.658 79.3119 108.6 79.5887C108.542 79.8656 108.379 80.1091 108.145 80.2681L91.5296 91.6214L110.252 80.8139C110.494 80.6769 110.78 80.6377 111.05 80.7044C111.321 80.7711 111.555 80.9386 111.706 81.1727C111.857 81.4068 111.913 81.6897 111.862 81.9635C111.811 82.2373 111.658 82.4814 111.433 82.6457L94.1584 95.0187L110.741 85.4447C110.983 85.3041 111.271 85.2622 111.544 85.3277C111.816 85.3933 112.053 85.5612 112.205 85.7968C112.357 86.0323 112.413 86.3174 112.361 86.5929C112.308 86.8684 112.152 87.1132 111.924 87.2766L100.392 95.5558L110.745 89.5778C110.989 89.4382 111.278 89.3982 111.551 89.4663C111.824 89.5344 112.06 89.7052 112.21 89.9431C112.36 90.1811 112.413 90.4678 112.357 90.7434C112.3 91.0191 112.14 91.2624 111.909 91.4227L109.789 92.8768L110.747 92.3244C110.988 92.1894 111.271 92.1505 111.539 92.2154C111.807 92.2804 112.04 92.4443 112.192 92.6744C112.344 92.9045 112.404 93.1836 112.358 93.4557C112.313 93.7277 112.167 93.9726 111.948 94.141L106.053 98.5797L110.75 95.8702C110.984 95.7363 111.26 95.6941 111.523 95.7516C111.787 95.8091 112.02 95.9623 112.178 96.1816C112.335 96.4009 112.406 96.6707 112.376 96.939C112.346 97.2073 112.218 97.455 112.016 97.6343L105.966 102.959L110.754 100.198C110.981 100.069 111.247 100.026 111.502 100.077C111.758 100.128 111.988 100.268 112.149 100.473C112.31 100.678 112.393 100.934 112.382 101.195C112.37 101.456 112.266 101.704 112.088 101.894L108.376 105.776L110.745 104.407C110.96 104.282 111.212 104.234 111.458 104.272C111.704 104.31 111.93 104.43 112.098 104.614C112.266 104.797 112.366 105.032 112.382 105.281C112.399 105.529 112.329 105.775 112.186 105.979L110.531 108.335L110.75 108.208C110.931 108.103 111.139 108.052 111.348 108.062C111.558 108.071 111.76 108.141 111.931 108.263C112.102 108.384 112.234 108.552 112.312 108.747C112.39 108.942 112.41 109.155 112.37 109.361L111.909 111.75C112.062 111.853 112.186 111.994 112.27 112.159C112.354 112.324 112.395 112.507 112.388 112.692C112.382 112.877 112.328 113.057 112.233 113.216C112.138 113.374 112.004 113.506 111.843 113.599L111.081 114.035C110.92 114.131 110.736 114.184 110.549 114.188Z" fill="black"/>
<path d="M94.501 121.524C94.2788 121.524 94.0619 121.456 93.8794 121.329C93.6969 121.203 93.5573 121.023 93.4795 120.815C93.4016 120.607 93.3892 120.38 93.4437 120.165C93.4983 119.949 93.6173 119.756 93.7849 119.61L95.6909 117.952L94.4945 118.642C94.2791 118.766 94.028 118.812 93.7826 118.774C93.5373 118.736 93.3124 118.615 93.145 118.431C92.9776 118.248 92.8777 118.013 92.8619 117.765C92.846 117.517 92.9152 117.271 93.0579 117.068L95.6298 113.424L94.4945 114.079C94.3119 114.184 94.1027 114.235 93.8923 114.224C93.6818 114.213 93.479 114.141 93.3084 114.017C93.1378 113.893 93.0066 113.723 92.9308 113.526C92.855 113.33 92.8377 113.115 92.881 112.909L93.381 110.566C93.2247 110.472 93.0954 110.339 93.0054 110.18C92.8605 109.929 92.8209 109.631 92.8955 109.352C92.97 109.072 93.1525 108.834 93.4028 108.689L94.2521 108.199C94.4347 108.094 94.6439 108.044 94.8544 108.055C95.0648 108.066 95.2676 108.138 95.4382 108.262C95.6088 108.385 95.74 108.556 95.8158 108.752C95.8917 108.949 95.909 109.163 95.8656 109.37L95.5272 110.961L98.8415 109.049C99.0569 108.924 99.3085 108.877 99.5545 108.915C99.8005 108.953 100.026 109.073 100.194 109.257C100.362 109.441 100.462 109.676 100.478 109.925C100.493 110.173 100.424 110.42 100.28 110.623L97.7083 114.267L104.413 110.396C104.648 110.261 104.925 110.219 105.189 110.276C105.454 110.334 105.688 110.488 105.845 110.709C106.002 110.929 106.072 111.2 106.041 111.469C106.009 111.738 105.879 111.986 105.675 112.164L103.776 113.817L107.856 111.468C108.106 111.337 108.396 111.308 108.667 111.387C108.937 111.465 109.167 111.645 109.308 111.889C109.449 112.133 109.49 112.421 109.423 112.695C109.356 112.968 109.186 113.205 108.948 113.356L95.0556 121.378C94.8875 121.476 94.6958 121.527 94.501 121.524ZM33.9266 121.69C33.7404 121.69 33.5572 121.642 33.3947 121.551C33.2321 121.46 33.0955 121.329 32.9979 121.171C32.9003 121.012 32.845 120.831 32.8371 120.645C32.8292 120.459 32.869 120.274 32.9529 120.107L34.4288 117.184L30.4005 119.507C30.1709 119.636 29.9024 119.678 29.6444 119.624C29.3865 119.571 29.1565 119.426 28.9969 119.217C28.8373 119.007 28.7589 118.747 28.7761 118.484C28.7933 118.221 28.905 117.973 29.0905 117.786L30.2652 116.625L27.6452 118.131C27.4103 118.264 27.1346 118.305 26.8714 118.246C26.6081 118.188 26.3758 118.034 26.2193 117.814C26.0628 117.595 25.9932 117.325 26.0238 117.057C26.0545 116.789 26.1833 116.542 26.3854 116.363L27.1343 115.708L25.1278 116.865C24.9914 116.944 24.8394 116.993 24.6824 117.008C24.5254 117.022 24.3671 117.003 24.2184 116.951C24.0696 116.898 23.9339 116.814 23.8207 116.705C23.7074 116.595 23.6193 116.462 23.5623 116.315L22.5929 113.802L20.9249 114.763C20.8006 114.842 20.6617 114.895 20.5164 114.918C20.3711 114.942 20.2225 114.937 20.0795 114.902C19.9365 114.867 19.8021 114.803 19.6843 114.715C19.5665 114.626 19.4678 114.515 19.3941 114.388C19.3204 114.26 19.2733 114.119 19.2555 113.973C19.2378 113.827 19.2498 113.679 19.2908 113.537C19.3318 113.396 19.401 113.264 19.4942 113.15C19.5874 113.036 19.7028 112.942 19.8332 112.874L22.6039 111.276C22.7403 111.197 22.8922 111.148 23.0492 111.133C23.2062 111.119 23.3645 111.138 23.5133 111.19C23.6621 111.243 23.7977 111.327 23.911 111.436C24.0242 111.546 24.1124 111.679 24.1693 111.826L25.1409 114.339L35.9768 108.082C36.2117 107.947 36.4883 107.904 36.7529 107.962C37.0174 108.02 37.251 108.174 37.4083 108.395C37.5656 108.615 37.6354 108.886 37.6041 109.155C37.5727 109.424 37.4425 109.672 37.2387 109.85L36.4942 110.505C36.7238 110.376 36.9924 110.334 37.2504 110.388C37.5083 110.441 37.7383 110.586 37.8979 110.795C38.0575 111.005 38.1359 111.265 38.1187 111.528C38.1015 111.791 37.9898 112.039 37.8042 112.226L36.6078 113.409C36.8139 113.32 37.0423 113.298 37.2619 113.343C37.4814 113.389 37.6816 113.502 37.835 113.665C37.9884 113.829 38.0876 114.036 38.1193 114.258C38.1509 114.48 38.1133 114.707 38.0116 114.907L36.5335 117.837C36.7886 117.716 37.0804 117.699 37.3477 117.789C37.615 117.879 37.8372 118.069 37.9676 118.319C38.098 118.569 38.1266 118.86 38.0473 119.131C37.968 119.401 37.787 119.631 37.5422 119.771L34.4594 121.551C34.2966 121.642 34.1132 121.69 33.9266 121.69Z" fill="black"/>
<path d="M77.9799 66.5262C77.7508 66.5262 77.5275 66.4541 77.3416 66.3201C77.1557 66.1861 77.0167 65.9971 76.9443 65.7797C76.8718 65.5624 76.8696 65.3277 76.9379 65.109C77.0062 64.8903 77.1416 64.6986 77.3249 64.5612L79.3096 63.0961L73.6176 66.3733C73.3772 66.5132 73.0924 66.556 72.8215 66.493C72.5506 66.4301 72.3139 66.2661 72.1598 66.0345C72.0057 65.803 71.9458 65.5213 71.9924 65.2471C72.0389 64.9729 72.1884 64.7267 72.4102 64.559L75.6852 62.0787L68.2379 66.3733C68.0022 66.5073 67.7252 66.5488 67.4606 66.4897C67.1961 66.4307 66.963 66.2753 66.8066 66.0539C66.6503 65.8325 66.5819 65.5608 66.6148 65.2917C66.6477 65.0227 66.7795 64.7755 66.9846 64.5983L73.0805 59.4151L61.0219 66.3733C60.781 66.5124 60.4961 66.5542 60.2254 66.4903C59.9547 66.4263 59.7185 66.2615 59.5653 66.0293C59.412 65.7972 59.3531 65.5153 59.4007 65.2412C59.4482 64.9671 59.5986 64.7216 59.8211 64.5546L62.4913 62.5547L55.878 66.3733C55.6436 66.5072 55.3679 66.5494 55.1041 66.4919C54.8404 66.4344 54.6073 66.2812 54.4499 66.0619C54.2925 65.8426 54.2219 65.5728 54.2518 65.3045C54.2817 65.0362 54.4099 64.7885 54.6117 64.6092L61.0874 58.9151L48.1687 66.3733C47.9304 66.5111 47.6489 66.5539 47.3804 66.4929C47.112 66.432 46.8765 66.2719 46.7211 66.0447C46.5657 65.8175 46.5018 65.54 46.5423 65.2678C46.5828 64.9955 46.7246 64.7486 46.9395 64.5765L51.8563 60.6465L41.9396 66.3733C41.7074 66.4995 41.4372 66.5371 41.1793 66.4792C40.9214 66.4213 40.6933 66.2718 40.5373 66.0585C40.3813 65.8451 40.3079 65.5824 40.3309 65.3191C40.354 65.0558 40.4717 64.8097 40.6624 64.6267L47.3783 58.5679L33.8416 66.3733C33.6091 66.5084 33.3349 66.5528 33.0716 66.4982C32.8083 66.4436 32.5744 66.2937 32.4148 66.0773C32.2552 65.8608 32.1811 65.5931 32.2067 65.3254C32.2323 65.0578 32.3557 64.8089 32.5535 64.6267L39.4091 58.295L27.9051 64.9345C27.6682 65.0689 27.3897 65.1099 27.1241 65.0494C26.8585 64.9889 26.6252 64.8313 26.4698 64.6076C26.3145 64.3839 26.2484 64.1102 26.2845 63.8402C26.3206 63.5703 26.4563 63.3236 26.665 63.1486L30.5666 59.9128L26.8113 62.0809C26.5804 62.2199 26.3061 62.2686 26.0414 62.2176C25.7768 62.1665 25.5403 62.0193 25.3777 61.8043C25.215 61.5894 25.1377 61.3218 25.1605 61.0532C25.1833 60.7846 25.3047 60.534 25.5013 60.3495L28.0405 57.9086L26.8026 58.6247C26.5817 58.7506 26.3238 58.7954 26.0734 58.7515C25.823 58.7075 25.5958 58.5776 25.4309 58.384C25.2661 58.1905 25.174 57.9454 25.1705 57.6912C25.167 57.437 25.2523 57.1896 25.4118 56.9916L26.5449 55.5964C26.287 55.5145 26.0694 55.3383 25.9358 55.103C25.7915 54.8527 25.7524 54.5555 25.8268 54.2764C25.9013 53.9973 26.0834 53.7591 26.3331 53.6139L29.9509 51.5267C30.1718 51.4008 30.4297 51.356 30.6801 51.3999C30.9305 51.4438 31.1577 51.5738 31.3226 51.7673C31.4874 51.9609 31.5795 52.2059 31.583 52.4601C31.5865 52.7143 31.5012 52.9618 31.3417 53.1598L30.8461 53.769L34.7499 51.5267C34.9808 51.3876 35.2551 51.3389 35.5198 51.39C35.7844 51.4411 36.0209 51.5883 36.1835 51.8032C36.3462 52.0182 36.4235 52.2857 36.4007 52.5543C36.3779 52.8229 36.2565 53.0736 36.0599 53.258L33.5185 55.6968L40.7453 51.5267C40.9823 51.3899 41.262 51.3472 41.529 51.4068C41.796 51.4665 42.0308 51.6243 42.1871 51.8489C42.3433 52.0734 42.4095 52.3485 42.3726 52.6196C42.3356 52.8907 42.1983 53.138 41.9877 53.3126L38.0904 56.5352L46.7604 51.5267C46.993 51.3916 47.2672 51.3472 47.5305 51.4018C47.7938 51.4564 48.0276 51.6063 48.1872 51.8227C48.3468 52.0392 48.421 52.3069 48.3954 52.5746C48.3698 52.8422 48.2463 53.0911 48.0486 53.2733L41.1864 59.6225L55.2077 51.5267C55.44 51.4005 55.7101 51.3629 55.968 51.4208C56.2259 51.4787 56.4541 51.6282 56.6101 51.8415C56.7661 52.0549 56.8394 52.3176 56.8164 52.5809C56.7934 52.8442 56.6756 53.0903 56.485 53.2733L49.78 59.3343L63.3166 51.5267C63.5549 51.3889 63.8364 51.3461 64.1049 51.4071C64.3733 51.468 64.6088 51.6281 64.7642 51.8553C64.9196 52.0825 64.9835 52.36 64.943 52.6322C64.9025 52.9045 64.7607 53.1514 64.5458 53.3236L59.6333 57.2535L69.5391 51.5267C69.7736 51.3928 70.0493 51.3506 70.313 51.4081C70.5767 51.4656 70.8098 51.6188 70.9673 51.8381C71.1247 52.0574 71.1952 52.3272 71.1654 52.5955C71.1355 52.8638 71.0073 53.1115 70.8055 53.2908L64.3253 58.9871L77.2507 51.5267C77.4916 51.3876 77.7765 51.3458 78.0472 51.4097C78.318 51.4737 78.5541 51.6385 78.7073 51.8707C78.8606 52.1028 78.9195 52.3847 78.8719 52.6588C78.8244 52.9329 78.674 53.1784 78.4515 53.3454L75.7856 55.341L82.3924 51.5267C82.6281 51.3905 82.9062 51.3474 83.1721 51.4056C83.438 51.4639 83.6725 51.6194 83.8297 51.8416C83.9869 52.0639 84.0553 52.3368 84.0217 52.6069C83.9881 52.877 83.8547 53.1248 83.6478 53.3017L77.552 58.4806L89.6083 51.5267C89.8488 51.3868 90.1335 51.344 90.4044 51.407C90.6753 51.4699 90.912 51.6339 91.0661 51.8655C91.2202 52.097 91.2801 52.3787 91.2335 52.6529C91.187 52.9271 91.0376 53.1733 90.8157 53.341L87.5407 55.8256L94.9902 51.5267C95.2317 51.3884 95.5168 51.3475 95.7874 51.4123C96.058 51.4772 96.2936 51.643 96.446 51.8757C96.5985 52.1085 96.6563 52.3907 96.6077 52.6646C96.5591 52.9386 96.4078 53.1837 96.1845 53.3498L94.2195 54.806L99.8962 51.531C100.133 51.3977 100.41 51.3573 100.675 51.4175C100.939 51.4777 101.172 51.6343 101.327 51.8568C101.483 52.0793 101.55 52.3516 101.515 52.6208C101.481 52.8899 101.347 53.1366 101.141 53.3126L95.3374 58.1553L103.468 53.4611C103.702 53.326 103.978 53.2824 104.242 53.3389C104.506 53.3953 104.74 53.5477 104.899 53.7667C105.057 53.9856 105.128 54.2554 105.099 54.5241C105.07 54.7927 104.943 55.0409 104.741 55.2209L100.287 59.1945L104.191 56.9435C104.423 56.8043 104.699 56.7566 104.965 56.8098C105.231 56.8629 105.468 57.013 105.629 57.2309C105.79 57.4488 105.865 57.7189 105.838 57.9886C105.811 58.2584 105.684 58.5084 105.483 58.6902L104.283 59.8212C104.537 59.7082 104.825 59.6968 105.088 59.7891C105.35 59.8815 105.568 60.0707 105.695 60.3181C105.823 60.5655 105.851 60.8523 105.775 61.1199C105.698 61.3875 105.522 61.6157 105.282 61.7578L97.25 66.3733C97.0174 66.5148 96.7403 66.5642 96.4731 66.5119C96.2059 66.4596 95.9679 66.3094 95.8058 66.0907C95.6437 65.8719 95.5691 65.6005 95.5968 65.3297C95.6244 65.0588 95.7523 64.8081 95.9553 64.6267L97.1408 63.5132L92.1956 66.3733C91.9635 66.4964 91.6948 66.5316 91.4388 66.4725C91.1828 66.4135 90.9567 66.2641 90.802 66.0518C90.6473 65.8395 90.5743 65.5785 90.5965 65.3167C90.6187 65.0549 90.7345 64.8099 90.9227 64.6267L95.3767 60.6486L85.4403 66.3733C85.2039 66.5088 84.9253 66.551 84.6594 66.4916C84.3934 66.4321 84.1593 66.2754 84.0031 66.0521C83.8468 65.8288 83.7798 65.5552 83.815 65.2849C83.8503 65.0147 83.9854 64.7674 84.1937 64.5917L89.997 59.7513L78.5257 66.3733C78.3607 66.4721 78.1722 66.5249 77.9799 66.5262ZM20.5233 27.0231C20.3306 27.0231 20.1414 26.972 19.9748 26.8752C19.8082 26.7784 19.6702 26.6391 19.5749 26.4717C19.4795 26.3043 19.4302 26.1146 19.4319 25.9219C19.4335 25.7292 19.4862 25.5404 19.5845 25.3747L21.7285 21.7482L18.2024 23.7852C17.9831 23.9135 17.726 23.9613 17.4752 23.9203C17.2245 23.8794 16.9959 23.7522 16.8288 23.5608C16.6618 23.3695 16.5667 23.1258 16.56 22.8718C16.5532 22.6179 16.6353 22.3695 16.792 22.1696L17.936 20.6958C17.7183 20.6528 17.5189 20.5445 17.3643 20.3852C17.2098 20.226 17.1074 20.0234 17.0709 19.8045C17.0343 19.5856 17.0654 19.3608 17.1599 19.16C17.2544 18.9592 17.4079 18.792 17.5998 18.6806L21.2285 16.5933C21.4476 16.4674 21.7035 16.4213 21.9527 16.463C22.2019 16.5047 22.4289 16.6315 22.5951 16.8219C22.7612 17.0122 22.8562 17.2543 22.8638 17.5069C22.8714 17.7594 22.7912 18.0068 22.6368 18.2068L21.9315 19.1151L24.2481 17.7789C24.4564 17.6556 24.7003 17.606 24.9403 17.638C25.1803 17.6701 25.4025 17.782 25.5712 17.9557C25.7408 18.1272 25.8488 18.35 25.8785 18.5894C25.9081 18.8287 25.8576 19.0712 25.7349 19.2788L23.5909 22.9032L25.4751 21.8115C25.5993 21.7325 25.7383 21.6795 25.8836 21.6556C26.0289 21.6317 26.1775 21.6374 26.3205 21.6724C26.4635 21.7075 26.5979 21.7711 26.7157 21.8594C26.8335 21.9477 26.9322 22.059 27.0059 22.1865C27.0796 22.3139 27.1267 22.455 27.1445 22.6011C27.1622 22.7473 27.1502 22.8955 27.1092 23.0369C27.0682 23.1783 26.999 23.31 26.9057 23.4239C26.8125 23.5379 26.6972 23.6318 26.5668 23.7001L21.0779 26.8768C20.9094 26.9741 20.7179 27.0247 20.5233 27.0231ZM40.4484 13.9864C40.2584 13.9861 40.0719 13.9361 39.9071 13.8416C39.7424 13.747 39.6051 13.6111 39.509 13.4473C39.4129 13.2834 39.3611 13.0973 39.3589 12.9074C39.3567 12.7175 39.4041 12.5302 39.4965 12.3642L41.6056 8.57176L37.8721 10.7267C37.6534 10.853 37.3978 10.8995 37.1486 10.8585C36.8995 10.8174 36.6723 10.6913 36.5058 10.5016C36.3392 10.3118 36.2435 10.0702 36.2351 9.81786C36.2266 9.56552 36.3059 9.31805 36.4594 9.1176L37.621 7.58926C37.4002 7.55108 37.1965 7.44587 37.0375 7.28792C36.8786 7.12998 36.7721 6.92695 36.7325 6.70639C36.6929 6.48584 36.7222 6.25845 36.8163 6.05509C36.9104 5.85173 37.0648 5.68226 37.2586 5.56968L40.8785 3.49333C41.0971 3.36828 41.3523 3.32267 41.6007 3.36423C41.8491 3.40578 42.0755 3.53195 42.2415 3.72135C42.4075 3.91075 42.5029 4.15172 42.5116 4.40343C42.5202 4.65514 42.4416 4.9021 42.2889 5.10245L41.5292 6.09586L43.9308 4.70726C44.1376 4.58785 44.3779 4.53954 44.6148 4.56975C44.8517 4.59996 45.0721 4.70702 45.2424 4.87452C45.4126 5.04202 45.5232 5.26072 45.5572 5.49709C45.5912 5.73347 45.5468 5.97448 45.4308 6.1832L43.3217 9.97565L45.0683 8.97131C45.3189 8.82883 45.6157 8.79126 45.8939 8.86679C46.1721 8.94232 46.4092 9.12482 46.5533 9.37447C46.6974 9.62412 46.737 9.92065 46.6633 10.1993C46.5896 10.478 46.4087 10.7163 46.16 10.8621L40.9942 13.8401C40.8287 13.937 40.6402 13.9876 40.4484 13.9864ZM108.568 27.1781C108.38 27.1784 108.195 27.13 108.031 27.0376C107.867 26.9453 107.73 26.8121 107.633 26.6511C107.535 26.4901 107.481 26.3067 107.476 26.1186C107.47 25.9305 107.514 25.7442 107.601 25.5777L109.603 21.7831L105.614 24.0843C105.398 24.2072 105.147 24.2528 104.902 24.2134C104.656 24.1741 104.432 24.0522 104.265 23.8679C104.098 23.6837 103.999 23.448 103.985 23.1999C103.97 22.9519 104.04 22.7062 104.184 22.5036L105.47 20.7155C105.232 20.7114 105.002 20.6294 104.814 20.482C104.627 20.3346 104.493 20.13 104.433 19.8994C104.373 19.6687 104.39 19.4248 104.481 19.2047C104.573 18.9846 104.734 18.8005 104.94 18.6806L108.562 16.5933C108.778 16.4704 109.029 16.4249 109.275 16.4642C109.52 16.5036 109.745 16.6255 109.911 16.8097C110.078 16.994 110.177 17.2297 110.192 17.4777C110.206 17.7258 110.136 17.9714 109.992 18.1741L108.929 19.65L111.787 17.9994C111.992 17.8805 112.23 17.8315 112.465 17.8599C112.7 17.8883 112.92 17.9924 113.091 18.1566C113.262 18.3208 113.374 18.5362 113.412 18.7701C113.45 19.0041 113.41 19.2439 113.3 19.4535L111.295 23.2459L112.588 22.5014C112.712 22.4224 112.851 22.3694 112.996 22.3455C113.142 22.3216 113.29 22.3274 113.433 22.3624C113.576 22.3974 113.711 22.461 113.829 22.5493C113.946 22.6377 114.045 22.7489 114.119 22.8764C114.192 23.0039 114.24 23.1449 114.257 23.2911C114.275 23.4372 114.263 23.5855 114.222 23.7269C114.181 23.8683 114.112 23.9999 114.019 24.1139C113.925 24.2278 113.81 24.3218 113.68 24.39L109.108 27.0318C108.944 27.1266 108.758 27.177 108.568 27.1781ZM89.5778 14.1218C89.375 14.1218 89.1763 14.0653 89.0038 13.9588C88.8314 13.8522 88.692 13.6997 88.6013 13.5183C88.5107 13.337 88.4723 13.134 88.4905 12.9321C88.5087 12.7302 88.5828 12.5373 88.7044 12.3751L89.5363 11.2835L87.0189 12.7354C86.7911 12.8654 86.5241 12.909 86.2667 12.8582C86.0094 12.8075 85.7789 12.6657 85.6175 12.459C85.456 12.2522 85.3745 11.9943 85.3876 11.7323C85.4008 11.4703 85.5079 11.2219 85.6893 11.0324L86.2678 10.432L85.8792 10.6503C85.6597 10.7772 85.403 10.8237 85.1529 10.7819C84.9029 10.7401 84.6752 10.6126 84.5089 10.4213C84.3427 10.2299 84.2481 9.98669 84.2416 9.73328C84.2351 9.47988 84.3169 9.23209 84.4731 9.03245L85.5975 7.598C85.3829 7.55038 85.1876 7.43904 85.0372 7.27855C84.8869 7.11806 84.7885 6.91591 84.755 6.69858C84.7215 6.48124 84.7544 6.25885 84.8494 6.06053C84.9444 5.86221 85.0971 5.69721 85.2875 5.58715L88.9118 3.49333C89.1313 3.36771 89.3875 3.32217 89.6368 3.36447C89.8861 3.40677 90.113 3.5343 90.2787 3.72528C90.4444 3.91625 90.5387 4.15883 90.5455 4.4116C90.5522 4.66436 90.471 4.91163 90.3157 5.11118L89.6607 5.93648L91.8899 4.6505C92.1178 4.52051 92.3848 4.47691 92.6421 4.52766C92.8995 4.57841 93.1299 4.72013 93.2914 4.92688C93.4528 5.13363 93.5344 5.39159 93.5212 5.65356C93.508 5.91553 93.4009 6.16399 93.2196 6.3535L92.641 6.9561L93.106 6.68755C93.3238 6.56094 93.5786 6.51351 93.8273 6.5533C94.076 6.5931 94.3033 6.71766 94.4706 6.90588C94.6421 7.09356 94.7426 7.33518 94.755 7.58908C94.7673 7.84297 94.6907 8.09322 94.5383 8.29666L93.3506 9.86866C93.575 9.90072 93.7839 10.0019 93.9482 10.158C94.1125 10.3142 94.2242 10.5177 94.2676 10.7402C94.3111 10.9627 94.2842 11.1932 94.1906 11.3997C94.0971 11.6062 93.9416 11.7785 93.7458 11.8926L90.1236 13.9733C89.9583 14.0709 89.7697 14.1222 89.5778 14.1218ZM65.5611 11.9385C65.3645 11.9408 65.1709 11.89 65.0008 11.7914C64.8307 11.6928 64.6903 11.5501 64.5946 11.3783C64.4989 11.2065 64.4513 11.0121 64.457 10.8156C64.4626 10.619 64.5212 10.4277 64.6266 10.2617L66.1331 7.8469L62.511 9.93853C62.3068 10.061 62.0682 10.1134 61.8315 10.0877C61.5948 10.0619 61.373 9.95955 61.1999 9.79609C61.0268 9.63263 60.9119 9.41706 60.8727 9.18224C60.8335 8.94741 60.8721 8.70619 60.9826 8.49535L62.7555 5.0435L62.3472 5.2793C62.0977 5.40981 61.8075 5.43888 61.5371 5.36043C61.2666 5.28198 61.037 5.10208 60.8961 4.85831C60.7552 4.61454 60.7139 4.32575 60.7809 4.05227C60.8479 3.77879 61.0179 3.54177 61.2556 3.39071L64.8952 1.31C65.0992 1.19308 65.3355 1.14518 65.569 1.17341C65.8025 1.20164 66.0206 1.30451 66.1908 1.46669C66.3611 1.62887 66.4745 1.84171 66.514 2.07351C66.5536 2.30531 66.5173 2.5437 66.4104 2.75318L64.6397 6.19848L68.8361 3.77498C69.0475 3.65166 69.2941 3.60293 69.5365 3.63661C69.7789 3.67029 70.0029 3.78443 70.1726 3.9607C70.3424 4.13698 70.4479 4.36517 70.4724 4.60865C70.4969 4.85213 70.4389 5.09677 70.3077 5.30331L68.7793 7.74428C69.0359 7.64549 69.3203 7.64715 69.5757 7.74894C69.8311 7.85072 70.0387 8.04513 70.157 8.29331C70.2753 8.5415 70.2956 8.82519 70.2139 9.08769C70.1321 9.35019 69.9543 9.57217 69.716 9.70928L66.1069 11.79C65.9416 11.8876 65.7531 11.9388 65.5611 11.9385Z" fill="white"/>
<path d="M34.2434 53.4677C34.0188 53.4676 33.7996 53.3984 33.6159 53.2692C33.4321 53.1401 33.2926 52.9575 33.2164 52.7462C33.1403 52.5349 33.1311 52.3052 33.1903 52.0885C33.2494 51.8719 33.3739 51.6787 33.5469 51.5354L36.645 48.9722L32.6299 51.2887C32.3948 51.4217 32.1186 51.4628 31.8549 51.4041C31.5913 51.3454 31.3587 51.1909 31.2023 50.9707C31.0458 50.7504 30.9766 50.48 31.008 50.2117C31.0394 49.9433 31.1692 49.6962 31.3723 49.518L32.8024 48.2844L31.7675 48.8826C31.541 49.0124 31.2755 49.0567 31.0191 49.0075C30.7628 48.9583 30.5325 48.8189 30.3702 48.6145C30.2078 48.4101 30.124 48.1544 30.134 47.8935C30.144 47.6327 30.2471 47.3841 30.4247 47.1927L31.4072 46.136L30.8898 46.4351C30.7303 46.527 30.5501 46.5771 30.366 46.5807C30.182 46.5843 30 46.5413 29.837 46.4556C29.674 46.37 29.5354 46.2446 29.4339 46.091C29.3324 45.9374 29.2714 45.7606 29.2566 45.5771L29.0645 43.1623C28.8296 43.1498 28.605 43.0618 28.4242 42.9113C28.2433 42.7609 28.116 42.556 28.061 42.3273C28.006 42.0986 28.0264 41.8582 28.1191 41.642C28.2118 41.4258 28.3719 41.2453 28.5754 41.1274L29.4837 40.6034C29.6431 40.5116 29.823 40.4615 30.0069 40.4578C30.1908 40.4541 30.3727 40.4969 30.5356 40.5823C30.6985 40.6677 30.8372 40.7929 30.9388 40.9462C31.0405 41.0995 31.1017 41.276 31.1168 41.4593L31.2959 43.6798L36.6407 40.5947C36.8669 40.4665 37.1315 40.4232 37.3868 40.4727C37.6421 40.5222 37.8714 40.6612 38.0333 40.8647C38.1952 41.0683 38.2792 41.3229 38.27 41.5828C38.2609 41.8427 38.1592 42.0908 37.9834 42.2824L36.9987 43.3413L41.7693 40.5882C42.0044 40.4551 42.2806 40.414 42.5443 40.4727C42.8079 40.5315 43.0405 40.6859 43.1969 40.9062C43.3534 41.1264 43.4226 41.3969 43.3912 41.6652C43.3598 41.9335 43.23 42.1807 43.0269 42.3588L41.5968 43.5924L46.8106 40.5816C47.0473 40.4478 47.3253 40.4071 47.5904 40.4674C47.8554 40.5278 48.0885 40.6849 48.2438 40.908C48.3992 41.1311 48.4657 41.4041 48.4304 41.6736C48.3951 41.9432 48.2605 42.1898 48.053 42.3654L44.9548 44.9308L52.5004 40.5641C52.7375 40.4314 53.0156 40.3919 53.2803 40.4533C53.5449 40.5147 53.7772 40.6725 53.9317 40.8961C54.0862 41.1196 54.1518 41.3927 54.1156 41.662C54.0794 41.9313 53.9441 42.1774 53.7362 42.3523L50.8585 44.7081L58.0526 40.5598C58.2852 40.4206 58.5613 40.3729 58.8271 40.426C59.0929 40.4791 59.3295 40.6293 59.4907 40.8472C59.652 41.0651 59.7264 41.3352 59.6995 41.6049C59.6726 41.8746 59.5463 42.1247 59.3452 42.3065L54.6772 46.6731L65.2816 40.5598C65.5189 40.4224 65.7991 40.3793 66.0667 40.439C66.3343 40.4988 66.5696 40.657 66.7258 40.8823C66.882 41.1076 66.9478 41.3834 66.91 41.655C66.8722 41.9265 66.7336 42.1739 66.5218 42.3479L63.5699 44.7714L70.8775 40.5532C71.1101 40.414 71.3862 40.3664 71.652 40.4195C71.9178 40.4726 72.1544 40.6227 72.3156 40.8406C72.4769 41.0585 72.5513 41.3286 72.5244 41.5983C72.4975 41.8681 72.3712 42.1181 72.1701 42.2999L67.5152 46.6469L78.0803 40.5489C78.3126 40.4227 78.5827 40.3851 78.8406 40.443C79.0985 40.5009 79.3267 40.6504 79.4827 40.8637C79.6387 41.0771 79.712 41.3398 79.689 41.6031C79.666 41.8664 79.5482 42.1125 79.3576 42.2955L74.9909 46.2386L84.8749 40.5314C85.1101 40.3963 85.3871 40.3535 85.6521 40.4115C85.9171 40.4695 86.151 40.6241 86.3083 40.8451C86.4655 41.0661 86.5348 41.3377 86.5028 41.6071C86.4707 41.8764 86.3394 42.1242 86.1347 42.3021L82.2702 45.6426L91.1367 40.5248C91.3688 40.4018 91.6375 40.3666 91.8935 40.4256C92.1494 40.4847 92.3755 40.6341 92.5303 40.8464C92.685 41.0587 92.7579 41.3197 92.7358 41.5815C92.7136 41.8433 92.5978 42.0882 92.4096 42.2715L88.1499 46.0705L97.7915 40.5227C98.0283 40.3905 98.3058 40.3512 98.5701 40.4124C98.8343 40.4737 99.0662 40.6311 99.2207 40.854C99.3752 41.0769 99.4412 41.3493 99.4059 41.6182C99.3705 41.8871 99.2363 42.1333 99.0294 42.3086L95.9968 44.8085L101.066 41.8829C101.302 41.7494 101.578 41.7081 101.843 41.767C102.107 41.8259 102.339 41.9808 102.496 42.2016C102.652 42.4225 102.721 42.6935 102.689 42.9622C102.657 43.2309 102.526 43.478 102.322 43.6558L99.9835 45.66C100.189 45.6112 100.404 45.623 100.603 45.6941C100.802 45.7651 100.976 45.8924 101.104 46.0604C101.232 46.2285 101.309 46.43 101.325 46.6407C101.34 46.8514 101.295 47.0621 101.193 47.2473L99.274 50.7407C99.3994 50.857 99.4956 51.0013 99.5551 51.1617C99.6145 51.3221 99.6354 51.4942 99.616 51.6642C99.5967 51.8342 99.5377 51.9972 99.4437 52.1402C99.3498 52.2832 99.2236 52.4021 99.0753 52.4873L97.702 53.2799C97.4957 53.3984 97.2564 53.4462 97.0205 53.4162C96.7845 53.3862 96.5648 53.28 96.3948 53.1137C96.2248 52.9474 96.1137 52.7301 96.0785 52.4948C96.0433 52.2596 96.0859 52.0193 96.1998 51.8105L97.4007 49.6272L91.045 53.2843C90.8096 53.4177 90.533 53.459 90.2689 53.4001C90.0048 53.3412 89.772 53.1863 89.6156 52.9655C89.4592 52.7447 89.3904 52.4736 89.4226 52.2049C89.4547 51.9363 89.5855 51.6891 89.7896 51.5114L91.9423 49.6665L85.6696 53.2864C85.4328 53.4186 85.1552 53.4579 84.891 53.3967C84.6268 53.3354 84.3949 53.178 84.2404 52.9551C84.0858 52.7322 84.0198 52.4598 84.0552 52.1909C84.0906 51.922 84.2248 51.6758 84.4317 51.5005L87.4665 48.9984L80.0301 53.2908C79.7979 53.4139 79.5293 53.4491 79.2733 53.39C79.0173 53.3309 78.7912 53.1815 78.6365 52.9692C78.4818 52.7569 78.4088 52.4959 78.431 52.2342C78.4531 51.9724 78.5689 51.7274 78.7572 51.5441L83.0147 47.7451L73.3905 53.2952C73.1557 53.4278 72.88 53.4688 72.6167 53.4102C72.3534 53.3516 72.1211 53.1976 71.9646 52.9779C71.8081 52.7583 71.7385 52.4884 71.7692 52.2204C71.7999 51.9525 71.9287 51.7053 72.1307 51.5267L76.0018 48.1818L67.1331 53.2995C66.9008 53.4257 66.6307 53.4633 66.3728 53.4054C66.1149 53.3475 65.8868 53.198 65.7308 52.9847C65.5747 52.7713 65.5014 52.5086 65.5244 52.2453C65.5474 51.982 65.6652 51.7359 65.8559 51.5529L70.2225 47.6098L60.3473 53.3039C60.1147 53.4431 59.8386 53.4908 59.5728 53.4377C59.307 53.3845 59.0704 53.2344 58.9092 53.0165C58.748 52.7986 58.6735 52.5285 58.7005 52.2588C58.7274 51.9891 58.8537 51.739 59.0548 51.5572L63.7118 47.2102L53.151 53.3039C52.9138 53.4413 52.6335 53.4844 52.366 53.4246C52.0984 53.3649 51.8631 53.2066 51.7069 52.9814C51.5506 52.7561 51.4849 52.4802 51.5227 52.2087C51.5605 51.9372 51.6991 51.6898 51.9109 51.5157L54.8584 49.0966L47.5617 53.3083C47.3291 53.4475 47.053 53.4951 46.7872 53.442C46.5214 53.3889 46.2848 53.2388 46.1236 53.0209C45.9624 52.803 45.8879 52.5329 45.9149 52.2632C45.9418 51.9934 46.0681 51.7434 46.2692 51.5616L50.9393 47.1949L40.3349 53.3083C40.0977 53.4432 39.8186 53.4845 39.5525 53.4239C39.2864 53.3633 39.0527 53.2052 38.8973 52.9809C38.742 52.7565 38.6764 52.4821 38.7133 52.2117C38.7502 51.9413 38.8871 51.6946 39.0969 51.5201L41.9724 49.1643L34.7892 53.3126C34.6244 53.4121 34.4359 53.4656 34.2434 53.4677Z" fill="black"/>
<path d="M129.939 97.6518C125.808 93.3484 118.454 93.4685 112.931 91.7109C112.832 84.2876 114.695 79.0126 105.372 77.5738C87.6171 73.1264 68.9474 72.7705 50.7646 73.9429C41.694 74.384 32.7054 75.8773 23.9794 78.3926C16.6653 79.7026 18.0211 86.7133 18.0691 92.3812C0.641773 97.0339 -5.6768 95.4903 8.92534 111.95C7.32059 115.029 5.65034 118.118 4.04122 121.208C2.92991 123.317 1.00639 125.871 2.87751 128.153C5.33157 131.151 10.6218 128.295 13.5365 127.432C20.7743 124.841 28.6649 124.526 35.9135 122.315C36.1946 122.269 36.4605 122.156 36.6885 121.985C36.9166 121.814 37.1001 121.591 37.2235 121.334C39.992 118.151 38.2344 113.317 38.706 109.442C56.4804 106.917 74.5248 106.952 92.2894 109.544C91.1759 125.825 94.3592 122.815 107.935 125.636C113.69 126.398 119.267 129.869 125.02 129.806C134.297 126.749 123.95 116.832 122.212 111.45C124.653 107.112 131.716 103.138 129.939 97.6518ZM22.3004 124.013C17.2788 125.015 12.3335 126.801 7.48216 128.162C5.14381 128.101 5.01717 124.815 5.73549 123.358C12.1741 109.71 15.043 114.215 4.82067 101.903C-0.0918282 95.2217 14.2592 95.0383 18.0648 93.4903C18.4643 100.259 17.2875 108.029 18.4818 114.326L33.5795 121.874C29.8897 122.749 26.0012 123.066 22.3004 124.013ZM35.5358 117.878C35.5474 118.575 35.4547 119.27 35.2607 119.939L22.0144 113.317C26.4029 111.755 30.9306 110.615 35.5358 109.913V117.878ZM27.2915 110.199C25.237 110.701 23.212 111.317 21.2262 112.044V86.6128C21.2262 84.0125 20.735 81.2811 23.641 79.982C30.8424 77.7698 38.272 76.384 45.7866 75.8512C55.4675 74.6241 108.191 73.4495 109.758 84.1478V111.632C105.016 110.097 100.158 108.949 95.2303 108.197C94.9719 107.993 94.6635 107.862 94.3372 107.817C94.0109 107.772 93.6785 107.815 93.3745 107.942C71.6809 105.171 48.662 104.817 27.2915 110.199ZM102.636 111.695C104.875 112.226 107.066 112.943 109.186 113.837L96.2434 120.302C94.6321 117.245 95.7194 113.42 95.4661 110.073C97.8831 110.544 100.28 111.075 102.641 111.695H102.636ZM126.415 101.962C124.489 105.322 119.799 108.769 119.011 112.243L122.769 119.363C124.345 121.546 128.869 129.895 122.114 126.967C114.051 124.454 105.812 122.542 97.4661 121.249C102.355 118.383 108.693 116.446 112.942 113.103V94.1759C116.238 95.5754 130.629 96.2042 126.415 101.962ZM108.789 27.1192C112.904 27.2043 116.839 22.7918 114.356 18.9273C111.542 14.4711 103.117 16.8204 103.252 22.1324C103.212 22.3497 103.219 22.5729 103.272 22.7874L93.2282 25.3092L91.7654 13.5716C93.1018 13.1576 94.2191 12.2296 94.8714 10.9918C95.5236 9.75403 95.6575 8.30784 95.2434 6.97137C94.8294 5.63491 93.9014 4.51766 92.6637 3.8654C91.4259 3.21314 89.9797 3.0793 88.6432 3.49332C85.0604 4.00859 82.1871 8.07832 84.2329 11.4276L75.1066 17.9688C73.5054 15.1887 71.9145 12.4086 70.3338 9.62849C70.8467 8.9556 71.1933 8.17106 71.3455 7.3388C71.4977 6.50653 71.4511 5.65009 71.2096 4.83924C70.968 4.02839 70.5383 3.28607 69.9555 2.67277C69.3727 2.05947 68.6532 1.59253 67.8557 1.30999C62.7663 -0.764176 56.939 5.47142 60.7096 10.0433L56.3692 17.6588L46.7232 10.7616C49.3978 6.49104 44.2189 2.30777 40.075 4.12431C34.8546 4.99764 33.7215 12.4625 39.3457 13.5607L37.9287 24.9249L27.6671 22.353C28.7587 16.3553 20.1761 15.0039 17.0539 19.0343C16.4223 19.826 16.0504 20.7932 15.9888 21.8041C15.9272 22.815 16.179 23.8202 16.7099 24.6827C17.2407 25.5452 18.0246 26.2229 18.9548 26.6234C19.885 27.0239 20.9161 27.1276 21.9074 26.9205L30.763 51.7057C29.2701 51.6932 27.8237 52.2245 26.6939 53.2004C25.5641 54.1764 24.8282 55.5302 24.6235 57.009C24.3571 60.2665 24.1454 64.6769 27.8985 65.9607C38.6492 66.7707 49.6511 65.9978 60.4848 66.2576H99.7848C100.718 66.3116 101.651 66.1574 102.517 65.8063C103.382 65.4552 104.159 64.9159 104.791 64.2275C105.423 63.5391 105.894 62.7188 106.169 61.8261C106.445 60.9333 106.519 59.9904 106.385 59.0657C107.066 54.734 104.739 51.0987 100.036 51.6315L108.789 27.1192ZM107.178 19.2133C107.33 19.0369 107.494 18.8713 107.669 18.7177C108.994 17.364 111.134 19.4491 111.612 20.639C111.996 21.6174 112.022 22.7003 111.684 23.6957C110.907 25.8179 108.481 25.5537 107.278 24.0079C106.737 23.3308 106.434 22.4942 106.416 21.6276C106.397 20.761 106.665 19.9125 107.178 19.2133ZM87.3441 6.37751C87.6143 5.92332 88.0466 5.58849 88.5539 5.44059C89.0612 5.29268 89.6058 5.34272 90.0777 5.58059C92.7697 6.56527 93.1343 11.29 90.2414 12.076C90.0164 12.1 89.7896 12.1 89.5646 12.076C86.8966 11.9363 86.1935 8.20714 87.3441 6.37751ZM68.1439 7.64166C68.1046 7.76174 68.1264 7.70061 68.1439 7.64166V7.64166ZM64.5982 3.49332L64.4672 3.54354C64.5065 3.51708 64.5513 3.49991 64.5982 3.49332ZM62.738 6.20066C62.7369 5.95398 62.7744 5.70865 62.8493 5.47361C62.9934 4.81598 63.3871 4.23995 63.9475 3.86688C64.5079 3.49382 65.1913 3.35285 65.8536 3.47367C66.3476 3.63092 66.7998 3.89771 67.1763 4.25412C67.5528 4.61054 67.844 5.04739 68.0281 5.53206C68.2121 6.01674 68.2844 6.53673 68.2394 7.05323C68.1945 7.56974 68.0334 8.06942 67.7684 8.51499C66.1549 11.0367 62.7511 8.57612 62.738 6.20284V6.20066ZM40.5662 4.92341C40.5771 4.92341 40.6121 4.90812 40.588 4.92341C40.6579 4.88192 40.7933 4.84917 40.5662 4.92341ZM40.433 4.96926L40.3763 4.99546C40.3915 4.94961 40.2474 4.97362 40.433 4.96926ZM39.2322 6.30327C39.6165 5.66356 40.0466 4.95616 40.8872 4.99327C41.7314 5.11138 42.5057 5.52718 43.0705 6.16572C43.6731 6.78475 44.0681 7.57597 44.2008 8.42964C44.3334 9.2833 44.197 10.1571 43.8106 10.9298C43.7189 11.0006 43.6434 11.0902 43.5891 11.1927C43.5349 11.2951 43.5032 11.4079 43.4962 11.5236C43.2363 11.9103 42.8969 12.2371 42.5006 12.4821C41.8102 12.4173 41.1468 12.1816 40.5701 11.7964C39.9935 11.4112 39.5217 10.8885 39.1975 10.2755C38.8732 9.66252 38.7066 8.97846 38.7127 8.28501C38.7187 7.59156 38.8973 6.91051 39.2322 6.30327ZM20.5931 18.3989C20.6389 18.3662 20.6739 18.3378 20.5931 18.3989V18.3989ZM19.8158 23.8573C19.2154 23.0023 18.9708 21.9474 19.1338 20.9154C19.2967 19.8834 19.8545 18.9552 20.6891 18.3269C22.0777 17.4208 23.9139 19.6587 24.32 20.7526C24.5914 21.4626 24.6668 22.2326 24.5384 22.9818C24.4598 23.4184 24.0056 24.8965 23.4467 24.962C23.0139 25.0156 22.5985 25.1647 22.2306 25.3987C22.1629 25.3987 22.0603 25.3703 22.0013 25.3681C21.1213 25.1346 20.3492 24.6039 19.8158 23.866V23.8573ZM25.0165 25.89C25.8072 25.432 26.48 24.7958 26.9815 24.0319C43.1382 27.9991 40.3195 29.8134 42.4155 13.4515C43.1744 13.2775 43.9081 13.0075 44.5988 12.648C47.6446 13.958 55.9522 23.1499 58.2512 19.7264L62.869 11.6481C63.6554 11.9667 64.497 12.1273 65.3455 12.1205C66.194 12.1138 67.0329 11.9399 67.8142 11.6088L72.6503 20.0736C73.1416 20.936 74.8882 20.2417 75.4755 19.8225L85.342 12.7681C86.2395 13.546 87.3682 14.0064 88.5537 14.0781C90.9052 31.2238 87.2066 27.1279 103.49 23.7481C103.943 24.9516 104.84 25.9359 105.996 26.4991L101.018 40.4353H30.2085L25.0165 25.8987V25.89ZM103.219 57.8736C103.256 59.6618 103.822 64.5219 101.086 64.7424H34.7149C28.5732 65.7227 27.1343 62.0656 27.7828 56.664C27.7669 56.1893 27.8481 55.7164 28.0212 55.2741C28.1944 54.8318 28.4559 54.4294 28.7898 54.0917C29.1237 53.7539 29.523 53.4877 29.9632 53.3095C30.4035 53.1312 30.8755 53.0446 31.3504 53.055C31.704 53.2721 32.1122 53.3839 32.5271 53.3773C32.942 53.3707 33.3465 53.2461 33.6931 53.0179C54.8168 53.3585 75.9297 53.0856 97.0578 53.127C100.433 52.6729 103.355 54.0943 103.219 57.8736ZM90.1716 51.6424C71.5142 51.6424 52.8591 51.6344 34.2062 51.6184L30.9595 42.5313H100.269L97.0316 51.5987C94.7413 51.6053 92.4466 51.6424 90.1716 51.6424Z" fill="#8EFF01"/>
<path d="M110.324 25.1607C110.219 25.2044 110.243 25.2022 110.324 25.1607V25.1607ZM88.2609 5.57185C88.2216 5.60024 88.1802 5.62425 88.1387 5.65045C88.1387 5.65045 88.1758 5.63517 88.2653 5.56967L88.2609 5.57185ZM90.2412 12.076C90.2958 12.076 90.3198 12.0542 90.3722 12.0454C90.4246 12.0367 90.3373 12.0083 90.2412 12.076Z" fill="#8EFF01"/>
</svg>
