<svg width="1440" height="451" viewBox="0 0 1440 451" fill="none" xmlns="http://www.w3.org/2000/svg">
<mask id="path-1-outside-1_1_3492" maskUnits="userSpaceOnUse" x="10" y="198" width="1438" height="166" fill="black">
<rect fill="white" x="10" y="198" width="1438" height="166"/>
<path d="M87.258 359.977C75.808 359.977 65.5793 358.374 56.572 355.168C47.5647 351.809 39.9313 346.924 33.672 340.512C27.4127 333.947 22.6037 325.856 19.245 316.238C15.8863 306.62 14.207 295.628 14.207 283.262C14.207 270.438 15.8863 259.064 19.245 249.141C22.7563 239.218 27.6417 230.821 33.901 223.951C40.1603 216.928 47.641 211.661 56.343 208.15C65.045 204.639 74.7393 202.883 85.426 202.883C93.67 202.883 101.303 203.952 108.326 206.089C115.349 208.226 121.379 211.432 126.417 215.707C131.608 219.829 135.653 224.867 138.554 230.821C141.455 236.622 142.981 243.263 143.134 250.744L116.112 257.843C116.265 250.973 114.814 245.248 111.761 240.668C108.708 236.088 104.738 232.653 99.853 230.363C95.1203 228.073 90.006 226.928 84.51 226.928C79.6247 226.928 74.7393 227.92 69.854 229.905C65.1213 231.89 60.8467 235.019 57.03 239.294C53.2133 243.569 50.16 249.217 47.87 256.24C45.58 263.11 44.435 271.583 44.435 281.659C44.435 294.483 46.267 304.864 49.931 312.803C53.7477 320.742 58.9383 326.619 65.503 330.436C72.2203 334.1 79.7773 335.932 88.174 335.932C96.7233 335.932 103.517 334.253 108.555 330.894C113.593 327.383 117.257 322.803 119.547 317.154C121.837 311.353 123.135 305.093 123.44 298.376L148.859 302.727C148.706 310.666 147.485 318.146 145.195 325.169C142.905 332.192 139.317 338.298 134.432 343.489C129.699 348.68 123.44 352.725 115.654 355.626C107.868 358.527 98.4027 359.977 87.258 359.977ZM240.872 359.977C229.88 359.977 220.11 358.221 211.56 354.71C203.011 351.199 195.683 346.161 189.576 339.596C183.622 332.879 179.042 324.711 175.836 315.093C172.63 305.475 171.027 294.483 171.027 282.117C171.027 264.255 174.081 249.523 180.187 237.92C186.294 226.165 194.691 217.386 205.377 211.585C216.064 205.784 228.201 202.883 241.788 202.883C252.322 202.883 261.864 204.639 270.413 208.15C278.963 211.509 286.214 216.547 292.168 223.264C298.275 229.829 303.008 238.073 306.366 247.996C309.725 257.767 311.404 268.988 311.404 281.659C311.404 294.33 309.725 305.551 306.366 315.322C303.16 324.94 298.504 333.108 292.397 339.825C286.291 346.39 278.886 351.428 270.184 354.939C261.635 358.298 251.864 359.977 240.872 359.977ZM241.559 336.619C250.261 336.619 257.513 334.558 263.314 330.436C269.268 326.161 273.772 320.055 276.825 312.116C280.031 304.177 281.634 294.483 281.634 283.033C281.634 271.278 280.031 261.202 276.825 252.805C273.619 244.408 268.963 238.073 262.856 233.798C256.902 229.371 249.574 227.157 240.872 227.157C232.628 227.157 225.453 229.294 219.346 233.569C213.392 237.691 208.812 243.874 205.606 252.118C202.4 260.209 200.797 270.133 200.797 281.888C200.797 290.743 201.713 298.605 203.545 305.475C205.377 312.192 207.973 317.841 211.331 322.421C214.843 327.001 219.117 330.512 224.155 332.955C229.346 335.398 235.147 336.619 241.559 336.619ZM343.636 357V205.86H372.49V357H343.636ZM350.277 357V332.268H438.671V357H350.277ZM462.215 357V205.86H491.069V357H462.215ZM468.856 357V332.268H557.25V357H468.856ZM580.794 357V205.86H609.877V357H580.794ZM599.572 357V333.184H693.691V357H599.572ZM599.572 291.277V269.293H682.47V291.277H599.572ZM599.572 229.676V205.86H693.233V229.676H599.572ZM786.603 359.977C775.153 359.977 764.924 358.374 755.917 355.168C746.909 351.809 739.276 346.924 733.017 340.512C726.757 333.947 721.948 325.856 718.59 316.238C715.231 306.62 713.552 295.628 713.552 283.262C713.552 270.438 715.231 259.064 718.59 249.141C722.101 239.218 726.986 230.821 733.246 223.951C739.505 216.928 746.986 211.661 755.688 208.15C764.39 204.639 774.084 202.883 784.771 202.883C793.015 202.883 800.648 203.952 807.671 206.089C814.693 208.226 820.724 211.432 825.762 215.707C830.952 219.829 834.998 224.867 837.899 230.821C840.799 236.622 842.326 243.263 842.479 250.744L815.457 257.843C815.609 250.973 814.159 245.248 811.106 240.668C808.052 236.088 804.083 232.653 799.198 230.363C794.465 228.073 789.351 226.928 783.855 226.928C778.969 226.928 774.084 227.92 769.199 229.905C764.466 231.89 760.191 235.019 756.375 239.294C752.558 243.569 749.505 249.217 747.215 256.24C744.925 263.11 743.78 271.583 743.78 281.659C743.78 294.483 745.612 304.864 749.276 312.803C753.092 320.742 758.283 326.619 764.848 330.436C771.565 334.1 779.122 335.932 787.519 335.932C796.068 335.932 802.862 334.253 807.9 330.894C812.938 327.383 816.602 322.803 818.892 317.154C821.182 311.353 822.479 305.093 822.785 298.376L848.204 302.727C848.051 310.666 846.83 318.146 844.54 325.169C842.25 332.192 838.662 338.298 833.777 343.489C829.044 348.68 822.785 352.725 814.999 355.626C807.213 358.527 797.747 359.977 786.603 359.977ZM907.033 357V205.86H936.116V357H907.033ZM862.149 230.363V205.86H981.229V230.363H862.149ZM1065.06 359.977C1054.07 359.977 1044.29 358.221 1035.75 354.71C1027.2 351.199 1019.87 346.161 1013.76 339.596C1007.81 332.879 1003.23 324.711 1000.02 315.093C996.816 305.475 995.213 294.483 995.213 282.117C995.213 264.255 998.266 249.523 1004.37 237.92C1010.48 226.165 1018.88 217.386 1029.56 211.585C1040.25 205.784 1052.39 202.883 1065.97 202.883C1076.51 202.883 1086.05 204.639 1094.6 208.15C1103.15 211.509 1110.4 216.547 1116.35 223.264C1122.46 229.829 1127.19 238.073 1130.55 247.996C1133.91 257.767 1135.59 268.988 1135.59 281.659C1135.59 294.33 1133.91 305.551 1130.55 315.322C1127.35 324.94 1122.69 333.108 1116.58 339.825C1110.48 346.39 1103.07 351.428 1094.37 354.939C1085.82 358.298 1076.05 359.977 1065.06 359.977ZM1065.74 336.619C1074.45 336.619 1081.7 334.558 1087.5 330.436C1093.45 326.161 1097.96 320.055 1101.01 312.116C1104.22 304.177 1105.82 294.483 1105.82 283.033C1105.82 271.278 1104.22 261.202 1101.01 252.805C1097.8 244.408 1093.15 238.073 1087.04 233.798C1081.09 229.371 1073.76 227.157 1065.06 227.157C1056.81 227.157 1049.64 229.294 1043.53 233.569C1037.58 237.691 1033 243.874 1029.79 252.118C1026.59 260.209 1024.98 270.133 1024.98 281.888C1024.98 290.743 1025.9 298.605 1027.73 305.475C1029.56 312.192 1032.16 317.841 1035.52 322.421C1039.03 327.001 1043.3 330.512 1048.34 332.955C1053.53 335.398 1059.33 336.619 1065.74 336.619ZM1167.82 357V205.86H1226.22C1234.15 205.86 1241.41 206.547 1247.97 207.921C1254.69 209.142 1260.57 210.974 1265.6 213.417C1270.79 215.86 1275.15 218.913 1278.66 222.577C1282.17 226.088 1284.84 230.21 1286.67 234.943C1288.5 239.523 1289.42 244.637 1289.42 250.286C1289.42 255.629 1288.58 260.515 1286.9 264.942C1285.22 269.217 1282.7 272.957 1279.34 276.163C1276.14 279.369 1272.02 282.041 1266.98 284.178C1262.09 286.163 1256.37 287.613 1249.8 288.529V291.506C1256.83 292.422 1262.55 294.178 1266.98 296.773C1271.56 299.368 1275.22 302.956 1277.97 307.536C1280.72 312.116 1283.08 317.994 1285.07 325.169L1294.23 357H1262.4L1255.3 327.688C1253.93 321.581 1251.79 316.696 1248.89 313.032C1246.14 309.368 1242.63 306.773 1238.35 305.246C1234.08 303.719 1228.89 302.956 1222.78 302.956H1196.68V357H1167.82ZM1196.68 280.743H1224.16C1235.61 280.743 1244.31 278.606 1250.26 274.331C1256.37 270.056 1259.42 263.492 1259.42 254.637C1259.42 245.782 1256.52 239.218 1250.72 234.943C1245.07 230.668 1236.37 228.531 1224.61 228.531H1196.68V280.743ZM1379.86 359.977C1369.93 359.977 1361.08 358.985 1353.29 357C1345.51 355.168 1338.87 352.267 1333.37 348.298C1328.03 344.176 1323.91 339.214 1321 333.413C1318.1 327.459 1316.58 320.513 1316.42 312.574L1342.07 305.017C1341.92 312.345 1343.45 318.452 1346.65 323.337C1349.86 328.07 1354.44 331.581 1360.39 333.871C1366.5 336.161 1373.45 337.306 1381.23 337.306C1388.71 337.306 1394.97 336.39 1400.01 334.558C1405.2 332.726 1409.09 330.283 1411.69 327.23C1414.28 324.024 1415.58 320.436 1415.58 316.467C1415.58 312.04 1413.98 308.528 1410.77 305.933C1407.57 303.185 1403.22 300.971 1397.72 299.292C1392.38 297.46 1386.27 295.781 1379.4 294.254C1371.92 292.575 1364.59 290.743 1357.42 288.758C1350.39 286.773 1343.98 284.102 1338.18 280.743C1332.38 277.384 1327.72 273.11 1324.21 267.919C1320.85 262.576 1319.17 255.858 1319.17 247.767C1319.17 238.607 1321.46 230.745 1326.04 224.18C1330.62 217.463 1337.26 212.272 1345.97 208.608C1354.82 204.791 1365.35 202.883 1377.57 202.883C1389.63 202.883 1400.16 204.715 1409.17 208.379C1418.18 211.89 1425.2 217.081 1430.24 223.951C1435.28 230.821 1437.95 238.912 1438.25 248.225L1411.92 255.553C1411.92 250.515 1411.08 246.164 1409.4 242.5C1407.87 238.683 1405.58 235.554 1402.53 233.111C1399.48 230.516 1395.81 228.607 1391.54 227.386C1387.41 226.165 1382.68 225.554 1377.34 225.554C1371.08 225.554 1365.58 226.394 1360.85 228.073C1356.27 229.752 1352.76 232.119 1350.32 235.172C1347.87 238.073 1346.65 241.508 1346.65 245.477C1346.65 250.362 1348.48 254.255 1352.15 257.156C1355.81 260.057 1360.62 262.423 1366.58 264.255C1372.68 265.934 1379.32 267.614 1386.5 269.293C1393.06 270.667 1399.63 272.346 1406.19 274.331C1412.91 276.316 1419.09 278.911 1424.74 282.117C1430.39 285.323 1434.89 289.674 1438.25 295.17C1441.76 300.513 1443.52 307.307 1443.52 315.551C1443.52 324.406 1441.15 332.192 1436.42 338.909C1431.69 345.626 1424.59 350.817 1415.12 354.481C1405.66 358.145 1393.9 359.977 1379.86 359.977Z"/>
</mask>
<path d="M56.572 355.168L55.1745 358.916L55.2025 358.926L55.2307 358.936L56.572 355.168ZM33.672 340.512L30.7771 343.272L30.7933 343.289L30.8097 343.306L33.672 340.512ZM19.245 316.238L15.4686 317.557L19.245 316.238ZM19.245 249.141L15.4741 247.807L15.465 247.832L15.4561 247.858L19.245 249.141ZM33.901 223.951L36.8578 226.645L36.8725 226.629L36.8871 226.612L33.901 223.951ZM56.343 208.15L57.8398 211.859L56.343 208.15ZM108.326 206.089L107.161 209.916L108.326 206.089ZM126.417 215.707L123.829 218.757L123.879 218.799L123.929 218.839L126.417 215.707ZM138.554 230.821L134.958 232.573L134.967 232.591L134.976 232.61L138.554 230.821ZM143.134 250.744L144.15 254.613L147.197 253.812L147.133 250.662L143.134 250.744ZM116.112 257.843L112.113 257.754L111.995 263.06L117.128 261.712L116.112 257.843ZM111.761 240.668L115.089 238.449L111.761 240.668ZM99.853 230.363L98.1108 233.964L98.1329 233.974L98.1553 233.985L99.853 230.363ZM69.854 229.905L68.3485 226.199L68.3278 226.207L68.3071 226.216L69.854 229.905ZM57.03 239.294L60.0138 241.958L60.0138 241.958L57.03 239.294ZM47.87 256.24L51.6647 257.505L51.6689 257.492L51.6729 257.48L47.87 256.24ZM49.931 312.803L46.2992 314.479L46.3124 314.508L46.326 314.536L49.931 312.803ZM65.503 330.436L63.4925 333.894L63.5397 333.921L63.5876 333.947L65.503 330.436ZM108.555 330.894L110.774 334.222L110.808 334.199L110.842 334.175L108.555 330.894ZM119.547 317.154L123.254 318.657L123.261 318.64L123.268 318.623L119.547 317.154ZM123.44 298.376L124.115 294.433L119.65 293.669L119.444 298.194L123.44 298.376ZM148.859 302.727L152.858 302.804L152.924 299.365L149.534 298.784L148.859 302.727ZM145.195 325.169L141.392 323.929L145.195 325.169ZM134.432 343.489L131.519 340.747L131.498 340.77L131.476 340.794L134.432 343.489ZM115.654 355.626L114.258 351.878L115.654 355.626ZM87.258 355.977C76.1773 355.977 66.4145 354.425 57.9133 351.399L55.2307 358.936C64.7442 362.322 75.4388 363.977 87.258 363.977V355.977ZM57.9695 351.42C49.4738 348.252 42.3522 343.677 36.5343 337.718L30.8097 343.306C37.5105 350.17 45.6555 355.366 55.1745 358.916L57.9695 351.42ZM36.567 337.752C30.7466 331.647 26.2154 324.066 23.0214 314.919L15.4686 317.557C18.9919 327.646 24.0788 336.247 30.7771 343.272L36.567 337.752ZM23.0214 314.919C19.8385 305.805 18.207 295.272 18.207 283.262H10.207C10.207 295.984 11.9341 307.435 15.4686 317.557L23.0214 314.919ZM18.207 283.262C18.207 270.78 19.8423 259.853 23.0339 250.423L15.4561 247.858C11.9304 258.276 10.207 270.096 10.207 283.262H18.207ZM23.0159 250.475C26.3728 240.988 31.0024 233.071 36.8578 226.645L30.9442 221.257C24.2809 228.57 19.1399 237.447 15.4741 247.807L23.0159 250.475ZM36.8871 226.612C42.7382 220.048 49.7097 215.14 57.8398 211.859L54.8462 204.44C45.5724 208.183 37.5825 213.809 30.915 221.289L36.8871 226.612ZM57.8398 211.859C66.0047 208.565 75.1816 206.883 85.426 206.883V198.883C74.2971 198.883 64.0853 200.712 54.8462 204.44L57.8398 211.859ZM85.426 206.883C93.3232 206.883 100.559 207.906 107.161 209.916L109.491 202.262C102.047 199.997 94.0168 198.883 85.426 198.883V206.883ZM107.161 209.916C113.72 211.912 119.252 214.873 123.829 218.757L129.005 212.657C123.506 207.991 116.978 204.541 109.491 202.262L107.161 209.916ZM123.929 218.839C128.653 222.59 132.319 227.156 134.958 232.573L142.15 229.069C138.987 222.577 134.563 217.068 128.905 212.574L123.929 218.839ZM134.976 232.61C137.574 237.805 138.992 243.847 139.135 250.826L147.133 250.662C146.97 242.679 145.336 235.44 142.132 229.032L134.976 232.61ZM142.118 246.875L115.096 253.974L117.128 261.712L144.15 254.613L142.118 246.875ZM120.111 257.932C120.277 250.447 118.699 243.864 115.089 238.449L108.433 242.887C110.929 246.632 112.252 251.499 112.113 257.754L120.111 257.932ZM115.089 238.449C111.639 233.274 107.111 229.348 101.551 226.741L98.1553 233.985C102.365 235.958 105.776 238.902 108.433 242.887L115.089 238.449ZM101.595 226.762C96.2946 224.197 90.5813 222.928 84.51 222.928V230.928C89.4307 230.928 93.946 231.948 98.1108 233.964L101.595 226.762ZM84.51 222.928C79.0688 222.928 73.6737 224.036 68.3485 226.199L71.3595 233.611C75.8049 231.805 80.1805 230.928 84.51 230.928V222.928ZM68.3071 226.216C62.9641 228.457 58.213 231.963 54.0463 236.63L60.0138 241.958C63.4804 238.075 67.2786 235.322 71.4009 233.594L68.3071 226.216ZM54.0463 236.63C49.7709 241.418 46.4811 247.597 44.0671 255L51.6729 257.48C53.8389 250.838 56.6558 245.719 60.0138 241.958L54.0463 236.63ZM44.0753 254.975C41.6077 262.378 40.435 271.308 40.435 281.659H48.435C48.435 271.858 49.5524 263.842 51.6647 257.505L44.0753 254.975ZM40.435 281.659C40.435 294.814 42.3066 305.829 46.2992 314.479L53.5628 311.127C50.2274 303.9 48.435 294.152 48.435 281.659H40.435ZM46.326 314.536C50.4325 323.078 56.1301 329.613 63.4925 333.894L67.5135 326.978C61.7466 323.625 57.0628 318.405 53.536 311.07L46.326 314.536ZM63.5876 333.947C70.9484 337.962 79.1747 339.932 88.174 339.932V331.932C80.38 331.932 73.4923 330.237 67.4184 326.924L63.5876 333.947ZM88.174 339.932C97.2007 339.932 104.86 338.165 110.774 334.222L106.336 327.566C102.174 330.34 96.246 331.932 88.174 331.932V339.932ZM110.842 334.175C116.511 330.225 120.671 325.029 123.254 318.657L115.84 315.651C113.843 320.576 110.675 324.54 106.268 327.612L110.842 334.175ZM123.268 318.623C125.732 312.379 127.112 305.682 127.436 298.558L119.444 298.194C119.157 304.505 117.942 310.326 115.826 315.685L123.268 318.623ZM122.765 302.319L148.184 306.67L149.534 298.784L124.115 294.433L122.765 302.319ZM144.86 302.65C144.714 310.223 143.551 317.309 141.392 323.929L148.998 326.409C151.419 318.983 152.699 311.108 152.858 302.804L144.86 302.65ZM141.392 323.929C139.278 330.412 135.986 336.001 131.519 340.747L137.345 346.23C142.649 340.595 146.532 333.971 148.998 326.409L141.392 323.929ZM131.476 340.794C127.244 345.436 121.556 349.159 114.258 351.878L117.05 359.374C125.324 356.292 132.155 351.923 137.388 346.184L131.476 340.794ZM114.258 351.878C107.042 354.566 98.0786 355.977 87.258 355.977V363.977C98.7267 363.977 108.694 362.487 117.05 359.374L114.258 351.878ZM211.56 354.71L210.041 358.41L211.56 354.71ZM189.576 339.596L186.583 342.249L186.615 342.285L186.648 342.32L189.576 339.596ZM175.836 315.093L172.042 316.358L175.836 315.093ZM180.187 237.92L183.727 239.783L183.732 239.773L183.737 239.764L180.187 237.92ZM205.377 211.585L203.469 208.069L205.377 211.585ZM270.413 208.15L268.894 211.85L268.922 211.862L268.951 211.873L270.413 208.15ZM292.168 223.264L289.175 225.917L289.207 225.953L289.24 225.988L292.168 223.264ZM306.366 247.996L302.577 249.278L302.58 249.287L302.584 249.296L306.366 247.996ZM306.366 315.322L302.584 314.022L302.577 314.039L302.572 314.057L306.366 315.322ZM292.397 339.825L295.326 342.549L295.342 342.533L295.357 342.516L292.397 339.825ZM270.184 354.939L271.647 358.662L271.664 358.655L271.681 358.648L270.184 354.939ZM263.314 330.436L265.631 333.697L265.639 333.691L265.647 333.685L263.314 330.436ZM276.825 312.116L273.116 310.618L273.104 310.649L273.092 310.68L276.825 312.116ZM276.825 252.805L280.562 251.378L276.825 252.805ZM262.856 233.798L260.469 237.008L260.515 237.042L260.562 237.075L262.856 233.798ZM219.346 233.569L221.623 236.858L221.632 236.852L221.64 236.846L219.346 233.569ZM205.606 252.118L209.325 253.591L209.33 253.58L209.334 253.568L205.606 252.118ZM203.545 305.475L199.68 306.506L199.683 306.516L199.686 306.527L203.545 305.475ZM211.331 322.421L208.106 324.786L208.131 324.821L208.157 324.855L211.331 322.421ZM224.155 332.955L222.41 336.554L222.431 336.564L222.452 336.574L224.155 332.955ZM240.872 355.977C230.305 355.977 221.065 354.289 213.08 351.01L210.041 358.41C219.154 362.153 229.456 363.977 240.872 363.977V355.977ZM213.08 351.01C205.048 347.711 198.206 343 192.505 336.871L186.648 342.32C193.16 349.321 200.974 354.686 210.041 358.41L213.08 351.01ZM192.57 336.943C187.017 330.678 182.688 323 179.631 313.828L172.042 316.358C175.396 326.422 180.227 335.079 186.583 342.249L192.57 336.943ZM179.631 313.828C176.587 304.696 175.027 294.144 175.027 282.117H167.027C167.027 294.822 168.674 306.254 172.042 316.358L179.631 313.828ZM175.027 282.117C175.027 264.68 178.012 250.641 183.727 239.783L176.648 236.057C170.149 248.404 167.027 263.83 167.027 282.117H175.027ZM183.737 239.764C189.51 228.651 197.363 220.487 207.286 215.1L203.469 208.069C192.018 214.286 183.078 223.678 176.638 236.076L183.737 239.764ZM207.286 215.1C217.32 209.653 228.788 206.883 241.788 206.883V198.883C227.614 198.883 214.808 201.914 203.469 208.069L207.286 215.1ZM241.788 206.883C251.873 206.883 260.889 208.562 268.894 211.85L271.933 204.45C262.839 200.715 252.771 198.883 241.788 198.883V206.883ZM268.951 211.873C276.927 215.006 283.65 219.683 289.175 225.917L295.162 220.611C288.779 213.41 280.999 208.011 271.876 204.427L268.951 211.873ZM289.24 225.988C294.901 232.075 299.37 239.802 302.577 249.278L310.155 246.713C306.645 236.344 301.649 227.583 295.097 220.539L289.24 225.988ZM302.584 249.296C305.77 258.566 307.404 269.333 307.404 281.659H315.404C315.404 268.642 313.68 256.967 310.149 246.696L302.584 249.296ZM307.404 281.659C307.404 293.984 305.77 304.752 302.584 314.022L310.149 316.622C313.68 306.351 315.404 294.676 315.404 281.659H307.404ZM302.572 314.057C299.521 323.209 295.128 330.874 289.438 337.134L295.357 342.516C301.88 335.341 306.8 326.671 310.161 316.587L302.572 314.057ZM289.469 337.1C283.78 343.216 276.872 347.927 268.688 351.229L271.681 358.648C280.901 354.928 288.801 349.563 295.326 342.549L289.469 337.1ZM268.722 351.216C260.72 354.359 251.46 355.977 240.872 355.977V363.977C252.269 363.977 262.55 362.236 271.647 358.662L268.722 351.216ZM241.559 340.619C250.904 340.619 259.014 338.398 265.631 333.697L260.997 327.175C256.012 330.718 249.619 332.619 241.559 332.619V340.619ZM265.647 333.685C272.331 328.886 277.271 322.099 280.559 313.552L273.092 310.68C270.273 318.01 266.205 323.436 260.981 327.187L265.647 333.685ZM280.534 313.614C283.985 305.068 285.634 294.833 285.634 283.033H277.634C277.634 294.133 276.077 303.286 273.116 310.618L280.534 313.614ZM285.634 283.033C285.634 270.932 283.987 260.347 280.562 251.378L273.088 254.232C276.076 262.056 277.634 271.623 277.634 283.033H285.634ZM280.562 251.378C277.13 242.39 272.037 235.341 265.15 230.521L260.562 237.075C265.889 240.804 270.108 246.426 273.088 254.232L280.562 251.378ZM265.243 230.588C258.485 225.563 250.28 223.157 240.872 223.157V231.157C248.868 231.157 255.319 233.178 260.469 237.008L265.243 230.588ZM240.872 223.157C231.898 223.157 223.902 225.497 217.052 230.292L221.64 236.846C227.004 233.091 233.358 231.157 240.872 231.157V223.157ZM217.069 230.28C210.326 234.949 205.309 241.847 201.878 250.668L209.334 253.568C212.316 245.901 216.459 240.433 221.623 236.858L217.069 230.28ZM201.888 250.644C198.443 259.338 196.797 269.794 196.797 281.888H204.797C204.797 270.471 206.358 261.081 209.325 253.591L201.888 250.644ZM196.797 281.888C196.797 291.009 197.74 299.229 199.68 306.506L207.41 304.444C205.687 297.981 204.797 290.476 204.797 281.888H196.797ZM199.686 306.527C201.619 313.614 204.4 319.733 208.106 324.786L214.557 320.055C211.545 315.949 209.136 310.77 207.404 304.422L199.686 306.527ZM208.157 324.855C212.035 329.913 216.794 333.831 222.41 336.554L225.9 329.356C221.441 327.193 217.65 324.088 214.506 319.987L208.157 324.855ZM222.452 336.574C228.235 339.296 234.628 340.619 241.559 340.619V332.619C235.666 332.619 230.457 331.499 225.858 329.336L222.452 336.574ZM343.636 357H339.636V361H343.636V357ZM343.636 205.86V201.86H339.636V205.86H343.636ZM372.49 205.86H376.49V201.86H372.49V205.86ZM372.49 357V361H376.49V357H372.49ZM350.277 357H346.277V361H350.277V357ZM350.277 332.268V328.268H346.277V332.268H350.277ZM438.671 332.268H442.671V328.268H438.671V332.268ZM438.671 357V361H442.671V357H438.671ZM347.636 357V205.86H339.636V357H347.636ZM343.636 209.86H372.49V201.86H343.636V209.86ZM368.49 205.86V357H376.49V205.86H368.49ZM372.49 353H343.636V361H372.49V353ZM354.277 357V332.268H346.277V357H354.277ZM350.277 336.268H438.671V328.268H350.277V336.268ZM434.671 332.268V357H442.671V332.268H434.671ZM438.671 353H350.277V361H438.671V353ZM462.215 357H458.215V361H462.215V357ZM462.215 205.86V201.86H458.215V205.86H462.215ZM491.069 205.86H495.069V201.86H491.069V205.86ZM491.069 357V361H495.069V357H491.069ZM468.856 357H464.856V361H468.856V357ZM468.856 332.268V328.268H464.856V332.268H468.856ZM557.25 332.268H561.25V328.268H557.25V332.268ZM557.25 357V361H561.25V357H557.25ZM466.215 357V205.86H458.215V357H466.215ZM462.215 209.86H491.069V201.86H462.215V209.86ZM487.069 205.86V357H495.069V205.86H487.069ZM491.069 353H462.215V361H491.069V353ZM472.856 357V332.268H464.856V357H472.856ZM468.856 336.268H557.25V328.268H468.856V336.268ZM553.25 332.268V357H561.25V332.268H553.25ZM557.25 353H468.856V361H557.25V353ZM580.794 357H576.794V361H580.794V357ZM580.794 205.86V201.86H576.794V205.86H580.794ZM609.877 205.86H613.877V201.86H609.877V205.86ZM609.877 357V361H613.877V357H609.877ZM599.572 357H595.572V361H599.572V357ZM599.572 333.184V329.184H595.572V333.184H599.572ZM693.691 333.184H697.691V329.184H693.691V333.184ZM693.691 357V361H697.691V357H693.691ZM599.572 291.277H595.572V295.277H599.572V291.277ZM599.572 269.293V265.293H595.572V269.293H599.572ZM682.47 269.293H686.47V265.293H682.47V269.293ZM682.47 291.277V295.277H686.47V291.277H682.47ZM599.572 229.676H595.572V233.676H599.572V229.676ZM599.572 205.86V201.86H595.572V205.86H599.572ZM693.233 205.86H697.233V201.86H693.233V205.86ZM693.233 229.676V233.676H697.233V229.676H693.233ZM584.794 357V205.86H576.794V357H584.794ZM580.794 209.86H609.877V201.86H580.794V209.86ZM605.877 205.86V357H613.877V205.86H605.877ZM609.877 353H580.794V361H609.877V353ZM603.572 357V333.184H595.572V357H603.572ZM599.572 337.184H693.691V329.184H599.572V337.184ZM689.691 333.184V357H697.691V333.184H689.691ZM693.691 353H599.572V361H693.691V353ZM603.572 291.277V269.293H595.572V291.277H603.572ZM599.572 273.293H682.47V265.293H599.572V273.293ZM678.47 269.293V291.277H686.47V269.293H678.47ZM682.47 287.277H599.572V295.277H682.47V287.277ZM603.572 229.676V205.86H595.572V229.676H603.572ZM599.572 209.86H693.233V201.86H599.572V209.86ZM689.233 205.86V229.676H697.233V205.86H689.233ZM693.233 225.676H599.572V233.676H693.233V225.676ZM755.917 355.168L754.519 358.916L754.547 358.926L754.575 358.936L755.917 355.168ZM733.017 340.512L730.122 343.272L730.138 343.289L730.154 343.306L733.017 340.512ZM718.59 316.238L714.813 317.557L718.59 316.238ZM718.59 249.141L714.819 247.807L714.81 247.832L714.801 247.858L718.59 249.141ZM733.246 223.951L736.202 226.645L736.217 226.629L736.232 226.612L733.246 223.951ZM755.688 208.15L757.184 211.859L755.688 208.15ZM807.671 206.089L806.506 209.916L807.671 206.089ZM825.762 215.707L823.174 218.757L823.223 218.799L823.274 218.839L825.762 215.707ZM837.899 230.821L834.303 232.573L834.312 232.591L834.321 232.61L837.899 230.821ZM842.479 250.744L843.495 254.613L846.542 253.812L846.478 250.662L842.479 250.744ZM815.457 257.843L811.458 257.754L811.34 263.06L816.473 261.712L815.457 257.843ZM811.106 240.668L814.434 238.449L811.106 240.668ZM799.198 230.363L797.455 233.964L797.477 233.974L797.5 233.985L799.198 230.363ZM769.199 229.905L767.693 226.199L767.672 226.207L767.652 226.216L769.199 229.905ZM756.375 239.294L759.358 241.958V241.958L756.375 239.294ZM747.215 256.24L751.009 257.505L751.013 257.492L751.017 257.48L747.215 256.24ZM749.276 312.803L745.644 314.479L745.657 314.508L745.671 314.536L749.276 312.803ZM764.848 330.436L762.837 333.894L762.884 333.921L762.932 333.947L764.848 330.436ZM807.9 330.894L810.118 334.222L810.153 334.199L810.187 334.175L807.9 330.894ZM818.892 317.154L822.599 318.657L822.605 318.64L822.612 318.623L818.892 317.154ZM822.785 298.376L823.459 294.433L818.994 293.669L818.789 298.194L822.785 298.376ZM848.204 302.727L852.203 302.804L852.269 299.365L848.878 298.784L848.204 302.727ZM844.54 325.169L840.737 323.929L844.54 325.169ZM833.777 343.489L830.864 340.747L830.842 340.77L830.821 340.794L833.777 343.489ZM814.999 355.626L813.602 351.878L814.999 355.626ZM786.603 355.977C775.522 355.977 765.759 354.425 757.258 351.399L754.575 358.936C764.089 362.322 774.783 363.977 786.603 363.977V355.977ZM757.314 351.42C748.818 348.252 741.697 343.677 735.879 337.718L730.154 343.306C736.855 350.17 745 355.366 754.519 358.916L757.314 351.42ZM735.911 337.752C730.091 331.647 725.56 324.066 722.366 314.919L714.813 317.557C718.336 327.646 723.423 336.247 730.122 343.272L735.911 337.752ZM722.366 314.919C719.183 305.805 717.552 295.272 717.552 283.262H709.552C709.552 295.984 711.279 307.435 714.813 317.557L722.366 314.919ZM717.552 283.262C717.552 270.78 719.187 259.853 722.378 250.423L714.801 247.858C711.275 258.276 709.552 270.096 709.552 283.262H717.552ZM722.36 250.475C725.717 240.988 730.347 233.071 736.202 226.645L730.289 221.257C723.625 228.57 718.484 237.447 714.819 247.807L722.36 250.475ZM736.232 226.612C742.083 220.048 749.054 215.14 757.184 211.859L754.191 204.44C744.917 208.183 736.927 213.809 730.26 221.289L736.232 226.612ZM757.184 211.859C765.349 208.565 774.526 206.883 784.771 206.883V198.883C773.642 198.883 763.43 200.712 754.191 204.44L757.184 211.859ZM784.771 206.883C792.668 206.883 799.904 207.906 806.506 209.916L808.835 202.262C801.392 199.997 793.361 198.883 784.771 198.883V206.883ZM806.506 209.916C813.064 211.912 818.596 214.873 823.174 218.757L828.349 212.657C822.851 207.991 816.322 204.541 808.835 202.262L806.506 209.916ZM823.274 218.839C827.997 222.59 831.664 227.156 834.303 232.573L841.495 229.069C838.332 222.577 833.907 217.068 828.249 212.574L823.274 218.839ZM834.321 232.61C836.918 237.805 838.337 243.847 838.479 250.826L846.478 250.662C846.315 242.679 844.68 235.44 841.476 229.032L834.321 232.61ZM841.462 246.875L814.44 253.974L816.473 261.712L843.495 254.613L841.462 246.875ZM819.456 257.932C819.622 250.447 818.044 243.864 814.434 238.449L807.777 242.887C810.274 246.632 811.597 251.499 811.458 257.754L819.456 257.932ZM814.434 238.449C810.984 233.274 806.456 229.348 800.895 226.741L797.5 233.985C801.71 235.958 805.121 238.902 807.777 242.887L814.434 238.449ZM800.94 226.762C795.639 224.197 789.926 222.928 783.855 222.928V230.928C788.775 230.928 793.291 231.948 797.455 233.964L800.94 226.762ZM783.855 222.928C778.413 222.928 773.018 224.036 767.693 226.199L770.704 233.611C775.149 231.805 779.525 230.928 783.855 230.928V222.928ZM767.652 226.216C762.309 228.457 757.557 231.963 753.391 236.63L759.358 241.958C762.825 238.075 766.623 235.322 770.745 233.594L767.652 226.216ZM753.391 236.63C749.115 241.418 745.826 247.597 743.412 255L751.017 257.48C753.183 250.838 756 245.719 759.358 241.958L753.391 236.63ZM743.42 254.975C740.952 262.378 739.78 271.308 739.78 281.659H747.78C747.78 271.858 748.897 263.842 751.009 257.505L743.42 254.975ZM739.78 281.659C739.78 294.814 741.651 305.829 745.644 314.479L752.907 311.127C749.572 303.9 747.78 294.152 747.78 281.659H739.78ZM745.671 314.536C749.777 323.078 755.475 329.613 762.837 333.894L766.858 326.978C761.091 323.625 756.407 318.405 752.881 311.07L745.671 314.536ZM762.932 333.947C770.293 337.962 778.519 339.932 787.519 339.932V331.932C779.724 331.932 772.837 330.237 766.763 326.924L762.932 333.947ZM787.519 339.932C796.545 339.932 804.204 338.165 810.118 334.222L805.681 327.566C801.519 330.34 795.591 331.932 787.519 331.932V339.932ZM810.187 334.175C815.855 330.225 820.015 325.029 822.599 318.657L815.185 315.651C813.188 320.576 810.02 324.54 805.612 327.612L810.187 334.175ZM822.612 318.623C825.077 312.379 826.457 305.682 826.78 298.558L818.789 298.194C818.502 304.505 817.286 310.326 815.171 315.685L822.612 318.623ZM822.11 302.319L847.529 306.67L848.878 298.784L823.459 294.433L822.11 302.319ZM844.204 302.65C844.059 310.223 842.895 317.309 840.737 323.929L848.342 326.409C850.764 318.983 852.043 311.108 852.203 302.804L844.204 302.65ZM840.737 323.929C838.622 330.412 835.331 336.001 830.864 340.747L836.689 346.23C841.993 340.595 845.877 333.971 848.342 326.409L840.737 323.929ZM830.821 340.794C826.589 345.436 820.901 349.159 813.602 351.878L816.395 359.374C824.669 356.292 831.499 351.923 836.732 346.184L830.821 340.794ZM813.602 351.878C806.387 354.566 797.423 355.977 786.603 355.977V363.977C798.071 363.977 808.039 362.487 816.395 359.374L813.602 351.878ZM907.033 357H903.033V361H907.033V357ZM907.033 205.86V201.86H903.033V205.86H907.033ZM936.116 205.86H940.116V201.86H936.116V205.86ZM936.116 357V361H940.116V357H936.116ZM862.149 230.363H858.149V234.363H862.149V230.363ZM862.149 205.86V201.86H858.149V205.86H862.149ZM981.229 205.86H985.229V201.86H981.229V205.86ZM981.229 230.363V234.363H985.229V230.363H981.229ZM911.033 357V205.86H903.033V357H911.033ZM907.033 209.86H936.116V201.86H907.033V209.86ZM932.116 205.86V357H940.116V205.86H932.116ZM936.116 353H907.033V361H936.116V353ZM866.149 230.363V205.86H858.149V230.363H866.149ZM862.149 209.86H981.229V201.86H862.149V209.86ZM977.229 205.86V230.363H985.229V205.86H977.229ZM981.229 226.363H862.149V234.363H981.229V226.363ZM1035.75 354.71L1034.23 358.41L1035.75 354.71ZM1013.76 339.596L1010.77 342.249L1010.8 342.285L1010.83 342.32L1013.76 339.596ZM1000.02 315.093L996.227 316.358L1000.02 315.093ZM1004.37 237.92L1007.91 239.783L1007.92 239.773L1007.92 239.764L1004.37 237.92ZM1029.56 211.585L1027.65 208.069L1029.56 211.585ZM1094.6 208.15L1093.08 211.85L1093.11 211.862L1093.14 211.873L1094.6 208.15ZM1116.35 223.264L1113.36 225.917L1113.39 225.953L1113.42 225.988L1116.35 223.264ZM1130.55 247.996L1126.76 249.278L1126.77 249.287L1126.77 249.296L1130.55 247.996ZM1130.55 315.322L1126.77 314.022L1126.76 314.039L1126.76 314.057L1130.55 315.322ZM1116.58 339.825L1119.51 342.549L1119.53 342.533L1119.54 342.516L1116.58 339.825ZM1094.37 354.939L1095.83 358.662L1095.85 358.655L1095.87 358.648L1094.37 354.939ZM1087.5 330.436L1089.82 333.697L1089.82 333.691L1089.83 333.685L1087.5 330.436ZM1101.01 312.116L1097.3 310.618L1097.29 310.649L1097.28 310.68L1101.01 312.116ZM1101.01 252.805L1104.75 251.378L1101.01 252.805ZM1087.04 233.798L1084.65 237.008L1084.7 237.042L1084.75 237.075L1087.04 233.798ZM1043.53 233.569L1045.81 236.858L1045.82 236.852L1045.83 236.846L1043.53 233.569ZM1029.79 252.118L1033.51 253.591L1033.52 253.58L1033.52 253.568L1029.79 252.118ZM1027.73 305.475L1023.87 306.506L1023.87 306.516L1023.87 306.527L1027.73 305.475ZM1035.52 322.421L1032.29 324.786L1032.32 324.821L1032.34 324.855L1035.52 322.421ZM1048.34 332.955L1046.6 336.554L1046.62 336.564L1046.64 336.574L1048.34 332.955ZM1065.06 355.977C1054.49 355.977 1045.25 354.289 1037.27 351.01L1034.23 358.41C1043.34 362.153 1053.64 363.977 1065.06 363.977V355.977ZM1037.27 351.01C1029.23 347.711 1022.39 343 1016.69 336.871L1010.83 342.32C1017.35 349.321 1025.16 354.686 1034.23 358.41L1037.27 351.01ZM1016.76 336.943C1011.2 330.678 1006.87 323 1003.82 313.828L996.227 316.358C999.582 326.422 1004.41 335.079 1010.77 342.249L1016.76 336.943ZM1003.82 313.828C1000.77 304.696 999.213 294.144 999.213 282.117H991.213C991.213 294.822 992.859 306.254 996.227 316.358L1003.82 313.828ZM999.213 282.117C999.213 264.68 1002.2 250.641 1007.91 239.783L1000.83 236.057C994.334 248.404 991.213 263.83 991.213 282.117H999.213ZM1007.92 239.764C1013.7 228.651 1021.55 220.487 1031.47 215.1L1027.65 208.069C1016.2 214.286 1007.26 223.678 1000.82 236.076L1007.92 239.764ZM1031.47 215.1C1041.51 209.653 1052.97 206.883 1065.97 206.883V198.883C1051.8 198.883 1038.99 201.914 1027.65 208.069L1031.47 215.1ZM1065.97 206.883C1076.06 206.883 1085.07 208.562 1093.08 211.85L1096.12 204.45C1087.02 200.715 1076.96 198.883 1065.97 198.883V206.883ZM1093.14 211.873C1101.11 215.006 1107.83 219.683 1113.36 225.917L1119.35 220.611C1112.96 213.41 1105.18 208.011 1096.06 204.427L1093.14 211.873ZM1113.42 225.988C1119.09 232.075 1123.56 239.802 1126.76 249.278L1134.34 246.713C1130.83 236.344 1125.83 227.583 1119.28 220.539L1113.42 225.988ZM1126.77 249.296C1129.96 258.566 1131.59 269.333 1131.59 281.659H1139.59C1139.59 268.642 1137.87 256.967 1134.33 246.696L1126.77 249.296ZM1131.59 281.659C1131.59 293.984 1129.96 304.752 1126.77 314.022L1134.33 316.622C1137.87 306.351 1139.59 294.676 1139.59 281.659H1131.59ZM1126.76 314.057C1123.71 323.209 1119.31 330.874 1113.62 337.134L1119.54 342.516C1126.07 335.341 1130.98 326.671 1134.35 316.587L1126.76 314.057ZM1113.65 337.1C1107.97 343.216 1101.06 347.927 1092.87 351.229L1095.87 358.648C1105.09 354.928 1112.99 349.563 1119.51 342.549L1113.65 337.1ZM1092.91 351.216C1084.91 354.359 1075.65 355.977 1065.06 355.977V363.977C1076.45 363.977 1086.74 362.236 1095.83 358.662L1092.91 351.216ZM1065.74 340.619C1075.09 340.619 1083.2 338.398 1089.82 333.697L1085.18 327.175C1080.2 330.718 1073.8 332.619 1065.74 332.619V340.619ZM1089.83 333.685C1096.52 328.886 1101.46 322.099 1104.74 313.552L1097.28 310.68C1094.46 318.01 1090.39 323.436 1085.17 327.187L1089.83 333.685ZM1104.72 313.614C1108.17 305.068 1109.82 294.833 1109.82 283.033H1101.82C1101.82 294.133 1100.26 303.286 1097.3 310.618L1104.72 313.614ZM1109.82 283.033C1109.82 270.932 1108.17 260.347 1104.75 251.378L1097.27 254.232C1100.26 262.056 1101.82 271.623 1101.82 283.033H1109.82ZM1104.75 251.378C1101.32 242.39 1096.22 235.341 1089.34 230.521L1084.75 237.075C1090.07 240.804 1094.29 246.426 1097.27 254.232L1104.75 251.378ZM1089.43 230.588C1082.67 225.563 1074.47 223.157 1065.06 223.157V231.157C1073.05 231.157 1079.5 233.178 1084.65 237.008L1089.43 230.588ZM1065.06 223.157C1056.08 223.157 1048.09 225.497 1041.24 230.292L1045.83 236.846C1051.19 233.091 1057.54 231.157 1065.06 231.157V223.157ZM1041.25 230.28C1034.51 234.949 1029.49 241.847 1026.06 250.668L1033.52 253.568C1036.5 245.901 1040.64 240.433 1045.81 236.858L1041.25 230.28ZM1026.07 250.644C1022.63 259.338 1020.98 269.794 1020.98 281.888H1028.98C1028.98 270.471 1030.54 261.081 1033.51 253.591L1026.07 250.644ZM1020.98 281.888C1020.98 291.009 1021.93 299.229 1023.87 306.506L1031.6 304.444C1029.87 297.981 1028.98 290.476 1028.98 281.888H1020.98ZM1023.87 306.527C1025.8 313.614 1028.59 319.733 1032.29 324.786L1038.74 320.055C1035.73 315.949 1033.32 310.77 1031.59 304.422L1023.87 306.527ZM1032.34 324.855C1036.22 329.913 1040.98 333.831 1046.6 336.554L1050.09 329.356C1045.63 327.193 1041.84 324.088 1038.69 319.987L1032.34 324.855ZM1046.64 336.574C1052.42 339.296 1058.81 340.619 1065.74 340.619V332.619C1059.85 332.619 1054.64 331.499 1050.04 329.336L1046.64 336.574ZM1167.82 357H1163.82V361H1167.82V357ZM1167.82 205.86V201.86H1163.82V205.86H1167.82ZM1247.97 207.921L1247.15 211.836L1247.2 211.847L1247.26 211.856L1247.97 207.921ZM1265.6 213.417L1263.86 217.016L1263.88 217.026L1263.9 217.036L1265.6 213.417ZM1278.66 222.577L1275.77 225.344L1275.8 225.375L1275.83 225.405L1278.66 222.577ZM1286.67 234.943L1282.94 236.387L1282.95 236.408L1282.96 236.428L1286.67 234.943ZM1286.9 264.942L1290.62 266.404L1290.63 266.383L1290.64 266.36L1286.9 264.942ZM1279.34 276.163L1276.58 273.269L1276.55 273.302L1276.52 273.334L1279.34 276.163ZM1266.98 284.178L1268.48 287.884L1268.51 287.872L1268.54 287.86L1266.98 284.178ZM1249.8 288.529L1249.25 284.567L1245.8 285.048V288.529H1249.8ZM1249.8 291.506H1245.8V295.018L1249.29 295.472L1249.8 291.506ZM1266.98 296.773L1264.96 300.224L1264.98 300.238L1265.01 300.253L1266.98 296.773ZM1285.07 325.169L1281.21 326.235L1281.22 326.255L1281.23 326.275L1285.07 325.169ZM1294.23 357V361H1299.54L1298.07 355.894L1294.23 357ZM1262.4 357L1258.51 357.941L1259.25 361H1262.4V357ZM1255.3 327.688L1251.4 328.566L1251.4 328.598L1251.41 328.629L1255.3 327.688ZM1248.89 313.032L1245.69 315.432L1245.72 315.474L1245.75 315.515L1248.89 313.032ZM1238.35 305.246L1237.01 309.013L1238.35 305.246ZM1196.68 302.956V298.956H1192.68V302.956H1196.68ZM1196.68 357V361H1200.68V357H1196.68ZM1196.68 280.743H1192.68V284.743H1196.68V280.743ZM1250.26 274.331L1247.97 271.054L1247.95 271.068L1247.93 271.082L1250.26 274.331ZM1250.72 234.943L1248.31 238.132L1248.33 238.148L1248.35 238.163L1250.72 234.943ZM1196.68 228.531V224.531H1192.68V228.531H1196.68ZM1171.82 357V205.86H1163.82V357H1171.82ZM1167.82 209.86H1226.22V201.86H1167.82V209.86ZM1226.22 209.86C1233.93 209.86 1240.9 210.528 1247.15 211.836L1248.79 204.006C1241.91 202.566 1234.38 201.86 1226.22 201.86V209.86ZM1247.26 211.856C1253.69 213.026 1259.21 214.762 1263.86 217.016L1267.35 209.818C1261.92 207.187 1255.69 205.258 1248.69 203.985L1247.26 211.856ZM1263.9 217.036C1268.71 219.297 1272.64 222.078 1275.77 225.344L1281.55 219.809C1277.65 215.748 1272.88 212.422 1267.31 209.798L1263.9 217.036ZM1275.83 225.405C1278.94 228.514 1281.31 232.162 1282.94 236.387L1290.4 233.499C1288.37 228.259 1285.4 223.662 1281.49 219.748L1275.83 225.405ZM1282.96 236.428C1284.58 240.472 1285.42 245.073 1285.42 250.286H1293.42C1293.42 244.201 1292.43 238.573 1290.39 233.457L1282.96 236.428ZM1285.42 250.286C1285.42 255.206 1284.65 259.604 1283.16 263.523L1290.64 266.36C1292.51 261.426 1293.42 256.052 1293.42 250.286H1285.42ZM1283.18 263.479C1281.71 267.207 1279.53 270.46 1276.58 273.269L1282.11 279.056C1285.88 275.453 1288.73 271.226 1290.62 266.404L1283.18 263.479ZM1276.52 273.334C1273.74 276.11 1270.08 278.518 1265.42 280.496L1268.54 287.86C1273.96 285.563 1278.54 282.627 1282.17 278.991L1276.52 273.334ZM1265.47 280.472C1260.96 282.305 1255.57 283.686 1249.25 284.567L1250.36 292.49C1257.17 291.54 1263.23 290.02 1268.48 287.884L1265.47 280.472ZM1245.8 288.529V291.506H1253.8V288.529H1245.8ZM1249.29 295.472C1255.97 296.344 1261.13 297.981 1264.96 300.224L1269 293.322C1263.97 290.374 1257.69 288.5 1250.32 287.539L1249.29 295.472ZM1265.01 300.253C1268.98 302.503 1272.14 305.597 1274.54 309.594L1281.4 305.478C1278.3 300.315 1274.14 296.234 1268.95 293.293L1265.01 300.253ZM1274.54 309.594C1277.05 313.769 1279.29 319.282 1281.21 326.235L1288.92 324.103C1286.88 316.705 1284.39 310.463 1281.4 305.478L1274.54 309.594ZM1281.23 326.275L1290.39 358.106L1298.07 355.894L1288.91 324.063L1281.23 326.275ZM1294.23 353H1262.4V361H1294.23V353ZM1266.29 356.058L1259.19 326.746L1251.41 328.629L1258.51 357.941L1266.29 356.058ZM1259.2 326.81C1257.74 320.307 1255.4 314.815 1252.02 310.549L1245.75 315.515C1248.18 318.577 1250.11 322.856 1251.4 328.566L1259.2 326.81ZM1252.09 310.632C1248.87 306.346 1244.72 303.272 1239.7 301.479L1237.01 309.013C1240.54 310.273 1243.41 312.39 1245.69 315.432L1252.09 310.632ZM1239.7 301.479C1234.87 299.755 1229.2 298.956 1222.78 298.956V306.956C1228.58 306.956 1233.29 307.683 1237.01 309.013L1239.7 301.479ZM1222.78 298.956H1196.68V306.956H1222.78V298.956ZM1192.68 302.956V357H1200.68V302.956H1192.68ZM1196.68 353H1167.82V361H1196.68V353ZM1196.68 284.743H1224.16V276.743H1196.68V284.743ZM1224.16 284.743C1236 284.743 1245.67 282.548 1252.59 277.58L1247.93 271.082C1242.94 274.663 1235.21 276.743 1224.16 276.743V284.743ZM1252.56 277.608C1259.94 272.437 1263.42 264.517 1263.42 254.637H1255.42C1255.42 262.466 1252.79 267.675 1247.97 271.054L1252.56 277.608ZM1263.42 254.637C1263.42 244.837 1260.15 236.925 1253.09 231.723L1248.35 238.163C1252.89 241.51 1255.42 246.728 1255.42 254.637H1263.42ZM1253.13 231.753C1246.46 226.706 1236.72 224.531 1224.61 224.531V232.531C1236.02 232.531 1243.68 234.63 1248.31 238.132L1253.13 231.753ZM1224.61 224.531H1196.68V232.531H1224.61V224.531ZM1192.68 228.531V280.743H1200.68V228.531H1192.68ZM1353.29 357L1354.28 353.124L1354.25 353.115L1354.21 353.106L1353.29 357ZM1333.37 348.298L1330.93 351.465L1330.98 351.504L1331.03 351.541L1333.37 348.298ZM1321 333.413L1317.41 335.165L1317.42 335.183L1317.43 335.202L1321 333.413ZM1316.42 312.574L1315.29 308.737L1312.37 309.6L1312.43 312.651L1316.42 312.574ZM1342.07 305.017L1346.07 305.1L1346.19 299.635L1340.94 301.18L1342.07 305.017ZM1346.65 323.337L1343.31 325.532L1343.32 325.556L1343.34 325.58L1346.65 323.337ZM1360.39 333.871L1358.96 337.604L1358.97 337.61L1358.99 337.616L1360.39 333.871ZM1400.01 334.558L1398.68 330.786L1398.66 330.792L1398.64 330.799L1400.01 334.558ZM1411.69 327.23L1414.74 329.82L1414.77 329.784L1414.8 329.747L1411.69 327.23ZM1410.77 305.933L1408.17 308.97L1408.21 309.006L1408.26 309.042L1410.77 305.933ZM1397.72 299.292L1396.42 303.076L1396.49 303.098L1396.55 303.117L1397.72 299.292ZM1379.4 294.254L1378.52 298.157L1378.53 298.159L1379.4 294.254ZM1357.42 288.758L1356.33 292.607L1356.34 292.61L1356.35 292.613L1357.42 288.758ZM1338.18 280.743L1336.18 284.205V284.205L1338.18 280.743ZM1324.21 267.919L1320.82 270.048L1320.86 270.104L1320.9 270.16L1324.21 267.919ZM1326.04 224.18L1329.32 226.469L1329.34 226.451L1329.35 226.433L1326.04 224.18ZM1345.97 208.608L1347.52 212.294L1347.53 212.288L1347.55 212.281L1345.97 208.608ZM1409.17 208.379L1407.66 212.084L1407.69 212.095L1407.72 212.106L1409.17 208.379ZM1438.25 248.225L1439.32 252.078L1442.35 251.236L1442.25 248.094L1438.25 248.225ZM1411.92 255.553H1407.92V260.818L1412.99 259.406L1411.92 255.553ZM1409.4 242.5L1405.68 243.985L1405.72 244.077L1405.76 244.167L1409.4 242.5ZM1402.53 233.111L1399.94 236.159L1399.98 236.197L1400.03 236.234L1402.53 233.111ZM1391.54 227.386L1390.4 231.221L1390.42 231.227L1390.44 231.232L1391.54 227.386ZM1360.85 228.073L1359.51 224.303L1359.49 224.31L1359.47 224.317L1360.85 228.073ZM1350.32 235.172L1353.38 237.748L1353.41 237.71L1353.44 237.671L1350.32 235.172ZM1366.58 264.255L1365.4 268.078L1365.46 268.096L1365.51 268.112L1366.58 264.255ZM1386.5 269.293L1385.59 273.188L1385.63 273.198L1385.68 273.208L1386.5 269.293ZM1406.19 274.331L1405.03 278.16L1405.05 278.163L1405.06 278.167L1406.19 274.331ZM1424.74 282.117L1426.72 278.638L1424.74 282.117ZM1438.25 295.17L1434.84 297.256L1434.87 297.312L1434.91 297.367L1438.25 295.17ZM1436.42 338.909L1433.15 336.605L1436.42 338.909ZM1415.12 354.481L1413.68 350.751L1415.12 354.481ZM1379.86 355.977C1370.19 355.977 1361.68 355.01 1354.28 353.124L1352.31 360.876C1360.48 362.96 1369.68 363.977 1379.86 363.977V355.977ZM1354.21 353.106C1346.85 351.374 1340.71 348.665 1335.71 345.055L1331.03 351.541C1337.02 355.869 1344.17 358.962 1352.38 360.894L1354.21 353.106ZM1335.81 345.131C1330.93 341.362 1327.2 336.864 1324.58 331.624L1317.43 335.202C1320.61 341.564 1325.13 346.99 1330.93 351.465L1335.81 345.131ZM1324.6 331.661C1322 326.323 1320.57 319.968 1320.42 312.497L1312.43 312.651C1312.59 321.057 1314.21 328.595 1317.41 335.165L1324.6 331.661ZM1317.55 316.411L1343.2 308.854L1340.94 301.18L1315.29 308.737L1317.55 316.411ZM1338.07 304.934C1337.91 312.863 1339.56 319.816 1343.31 325.532L1350 321.142C1347.34 317.087 1345.93 311.826 1346.07 305.1L1338.07 304.934ZM1343.34 325.58C1347.06 331.067 1352.33 335.056 1358.96 337.604L1361.83 330.137C1356.54 328.105 1352.66 325.072 1349.96 321.093L1343.34 325.58ZM1358.99 337.616C1365.62 340.104 1373.06 341.306 1381.23 341.306V333.306C1373.83 333.306 1367.38 332.218 1361.8 330.126L1358.99 337.616ZM1381.23 341.306C1389.01 341.306 1395.76 340.358 1401.38 338.317L1398.64 330.799C1394.18 332.422 1388.42 333.306 1381.23 333.306V341.306ZM1401.34 338.33C1406.96 336.347 1411.54 333.577 1414.74 329.82L1408.64 324.639C1406.64 326.99 1403.44 329.105 1398.68 330.786L1401.34 338.33ZM1414.8 329.747C1417.94 325.859 1419.58 321.391 1419.58 316.467H1411.58C1411.58 319.482 1410.62 322.189 1408.58 324.713L1414.8 329.747ZM1419.58 316.467C1419.58 310.934 1417.51 306.24 1413.29 302.824L1408.26 309.042C1410.45 310.816 1411.58 313.145 1411.58 316.467H1419.58ZM1413.38 302.896C1409.63 299.684 1404.73 297.252 1398.89 295.466L1396.55 303.117C1401.7 304.69 1405.5 306.685 1408.17 308.97L1413.38 302.896ZM1399.02 295.508C1393.5 293.618 1387.25 291.901 1380.27 290.349L1378.53 298.159C1385.29 299.66 1391.25 301.302 1396.42 303.076L1399.02 295.508ZM1380.28 290.351C1372.86 288.686 1365.59 286.869 1358.48 284.903L1356.35 292.613C1363.59 294.616 1370.98 296.464 1378.52 298.157L1380.28 290.351ZM1358.5 284.909C1351.77 283.007 1345.67 280.459 1340.18 277.281L1336.18 284.205C1342.29 287.744 1349.01 290.54 1356.33 292.607L1358.5 284.909ZM1340.18 277.281C1334.87 274.204 1330.67 270.333 1327.52 265.678L1320.9 270.16C1324.77 275.886 1329.89 280.565 1336.18 284.205L1340.18 277.281ZM1327.6 265.79C1324.74 261.241 1323.17 255.315 1323.17 247.767H1315.17C1315.17 256.402 1316.97 263.91 1320.82 270.048L1327.6 265.79ZM1323.17 247.767C1323.17 239.303 1325.28 232.268 1329.32 226.469L1322.76 221.891C1317.65 229.221 1315.17 237.911 1315.17 247.767H1323.17ZM1329.35 226.433C1333.43 220.45 1339.41 215.709 1347.52 212.294L1344.41 204.921C1335.12 208.835 1327.82 214.475 1322.74 221.927L1329.35 226.433ZM1347.55 212.281C1355.79 208.729 1365.76 206.883 1377.57 206.883V198.883C1364.95 198.883 1353.85 200.853 1344.38 204.935L1347.55 212.281ZM1377.57 206.883C1389.23 206.883 1399.23 208.655 1407.66 212.084L1410.68 204.674C1401.09 200.774 1390.02 198.883 1377.57 198.883V206.883ZM1407.72 212.106C1416.11 215.379 1422.48 220.139 1427.01 226.316L1433.46 221.585C1427.92 214.023 1420.24 208.401 1410.62 204.652L1407.72 212.106ZM1427.01 226.316C1431.53 232.475 1433.97 239.77 1434.25 248.356L1442.25 248.094C1441.92 238.055 1439.02 229.166 1433.46 221.585L1427.01 226.316ZM1437.18 244.371L1410.85 251.699L1412.99 259.406L1439.32 252.078L1437.18 244.371ZM1415.92 255.553C1415.92 250.079 1415.01 245.134 1413.03 240.833L1405.76 244.167C1407.15 247.194 1407.92 250.95 1407.92 255.553H1415.92ZM1413.11 241.014C1411.34 236.59 1408.65 232.884 1405.03 229.987L1400.03 236.234C1402.52 238.223 1404.4 240.776 1405.68 243.985L1413.11 241.014ZM1405.12 230.063C1401.59 227.06 1397.4 224.901 1392.64 223.54L1390.44 231.232C1394.22 232.314 1397.36 233.971 1399.94 236.159L1405.12 230.063ZM1392.67 223.551C1388.11 222.197 1382.98 221.554 1377.34 221.554V229.554C1382.39 229.554 1386.72 230.132 1390.4 231.221L1392.67 223.551ZM1377.34 221.554C1370.73 221.554 1364.77 222.439 1359.51 224.303L1362.19 231.843C1366.4 230.348 1371.43 229.554 1377.34 229.554V221.554ZM1359.47 224.317C1354.38 226.186 1350.19 228.924 1347.19 232.673L1353.44 237.671C1355.33 235.313 1358.16 233.318 1362.23 231.828L1359.47 224.317ZM1347.26 232.595C1344.18 236.253 1342.65 240.613 1342.65 245.477H1350.65C1350.65 242.403 1351.57 239.892 1353.38 237.748L1347.26 232.595ZM1342.65 245.477C1342.65 251.52 1344.99 256.594 1349.67 260.292L1354.63 254.02C1351.97 251.917 1350.65 249.204 1350.65 245.477H1342.65ZM1349.67 260.292C1353.82 263.585 1359.12 266.146 1365.4 268.078L1367.75 260.432C1362.12 258.7 1357.8 256.529 1354.63 254.02L1349.67 260.292ZM1365.51 268.112C1371.68 269.807 1378.37 271.498 1385.59 273.188L1387.41 265.398C1380.28 263.729 1373.69 262.062 1367.64 260.398L1365.51 268.112ZM1385.68 273.208C1392.13 274.558 1398.58 276.208 1405.03 278.16L1407.35 270.502C1400.68 268.484 1394 266.776 1387.32 265.378L1385.68 273.208ZM1405.06 278.167C1411.51 280.072 1417.4 282.552 1422.77 285.596L1426.72 278.638C1420.78 275.27 1414.31 272.559 1407.33 270.495L1405.06 278.167ZM1422.77 285.596C1427.83 288.47 1431.84 292.344 1434.84 297.256L1441.67 293.084C1437.95 287.004 1432.95 282.176 1426.72 278.638L1422.77 285.596ZM1434.91 297.367C1437.88 301.893 1439.52 307.864 1439.52 315.551H1447.52C1447.52 306.75 1445.64 299.134 1441.6 292.973L1434.91 297.367ZM1439.52 315.551C1439.52 323.648 1437.37 330.615 1433.15 336.605L1439.69 341.213C1444.94 333.768 1447.52 325.163 1447.52 315.551H1439.52ZM1433.15 336.605C1428.97 342.54 1422.58 347.304 1413.68 350.751L1416.57 358.211C1426.59 354.33 1434.41 348.713 1439.69 341.213L1433.15 336.605ZM1413.68 350.751C1404.81 354.182 1393.59 355.977 1379.86 355.977V363.977C1394.22 363.977 1406.5 362.108 1416.57 358.211L1413.68 350.751Z" fill="#8EFF01" fill-opacity="0.16" mask="url(#path-1-outside-1_1_3492)"/>
<mask id="path-3-outside-2_1_3492" maskUnits="userSpaceOnUse" x="169" y="52" width="292" height="112" fill="black">
<rect fill="white" x="169" y="52" width="292" height="112"/>
<path d="M173.243 158V58.104H192.314V158H173.243ZM181.871 118.798V102.906H239.84V118.798H181.871ZM181.871 74.602V58.104H245.895V74.602H181.871ZM304.197 159.968C296.932 159.968 290.474 158.807 284.823 156.486C279.173 154.166 274.329 150.836 270.293 146.497C266.358 142.057 263.33 136.659 261.211 130.302C259.092 123.945 258.033 116.679 258.033 108.506C258.033 96.7002 260.051 86.9629 264.087 79.2941C268.123 71.5244 273.673 65.7224 280.737 61.888C287.8 58.0536 295.822 56.1364 304.802 56.1364C311.765 56.1364 318.071 57.2968 323.722 59.6176C329.373 61.8375 334.166 65.1674 338.101 69.6072C342.137 73.9461 345.265 79.395 347.485 85.9538C349.705 92.4117 350.815 99.8283 350.815 108.203C350.815 116.578 349.705 123.995 347.485 130.453C345.366 136.81 342.289 142.208 338.252 146.648C334.216 150.987 329.322 154.317 323.571 156.638C317.92 158.858 311.462 159.968 304.197 159.968ZM304.651 144.529C310.403 144.529 315.196 143.167 319.03 140.443C322.965 137.617 325.942 133.581 327.96 128.334C330.079 123.087 331.139 116.679 331.139 109.112C331.139 101.342 330.079 94.6821 327.96 89.1323C325.841 83.5825 322.764 79.395 318.727 76.5696C314.792 73.6434 309.949 72.1803 304.197 72.1803C298.748 72.1803 294.006 73.5929 289.969 76.4183C286.034 79.1427 283.007 83.2294 280.888 88.6782C278.769 94.0262 277.709 100.585 277.709 108.355C277.709 114.207 278.315 119.404 279.526 123.945C280.737 128.384 282.452 132.118 284.672 135.145C286.993 138.172 289.818 140.493 293.148 142.107C296.579 143.722 300.413 144.529 304.651 144.529ZM372.119 158V58.104H410.715C415.962 58.104 420.755 58.5581 425.094 59.4662C429.534 60.2735 433.418 61.4843 436.748 63.0988C440.179 64.7133 443.055 66.7314 445.376 69.1531C447.697 71.4739 449.462 74.1984 450.673 77.3264C451.884 80.3536 452.49 83.7339 452.49 87.4674C452.49 90.9991 451.935 94.228 450.825 97.1543C449.715 99.9796 448.05 102.452 445.83 104.571C443.711 106.69 440.986 108.456 437.657 109.868C434.428 111.18 430.644 112.139 426.305 112.744V114.712C430.946 115.317 434.73 116.478 437.657 118.193C440.684 119.908 443.105 122.28 444.922 125.307C446.738 128.334 448.302 132.219 449.614 136.961L455.668 158H434.629L429.937 138.626C429.029 134.59 427.616 131.361 425.699 128.939C423.883 126.518 421.562 124.802 418.737 123.793C415.911 122.784 412.481 122.28 408.445 122.28H391.19V158H372.119ZM391.19 107.598H409.353C416.921 107.598 422.672 106.185 426.607 103.36C430.644 100.535 432.662 96.1957 432.662 90.3432C432.662 84.4907 430.745 80.1518 426.91 77.3264C423.177 74.5011 417.425 73.0884 409.655 73.0884H391.19V107.598Z"/>
</mask>
<path d="M173.243 158H169.243V162H173.243V158ZM173.243 58.104V54.104H169.243V58.104H173.243ZM192.314 58.104H196.314V54.104H192.314V58.104ZM192.314 158V162H196.314V158H192.314ZM181.871 118.798H177.871V122.798H181.871V118.798ZM181.871 102.906V98.9059H177.871V102.906H181.871ZM239.84 102.906H243.84V98.9059H239.84V102.906ZM239.84 118.798V122.798H243.84V118.798H239.84ZM181.871 74.602H177.871V78.602H181.871V74.602ZM181.871 58.104V54.104H177.871V58.104H181.871ZM245.895 58.104H249.895V54.104H245.895V58.104ZM245.895 74.602V78.602H249.895V74.602H245.895ZM177.243 158V58.104H169.243V158H177.243ZM173.243 62.104H192.314V54.104H173.243V62.104ZM188.314 58.104V158H196.314V58.104H188.314ZM192.314 154H173.243V162H192.314V154ZM185.871 118.798V102.906H177.871V118.798H185.871ZM181.871 106.906H239.84V98.9059H181.871V106.906ZM235.84 102.906V118.798H243.84V102.906H235.84ZM239.84 114.798H181.871V122.798H239.84V114.798ZM185.871 74.602V58.104H177.871V74.602H185.871ZM181.871 62.104H245.895V54.104H181.871V62.104ZM241.895 58.104V74.602H249.895V58.104H241.895ZM245.895 70.602H181.871V78.602H245.895V70.602ZM284.823 156.486L283.304 160.187L284.823 156.486ZM270.293 146.497L267.3 149.15L267.331 149.186L267.364 149.221L270.293 146.497ZM261.211 130.302L257.417 131.566L261.211 130.302ZM264.087 79.2941L267.627 81.1571L267.632 81.1476L267.637 81.138L264.087 79.2941ZM280.737 61.888L278.828 58.3725H278.828L280.737 61.888ZM323.722 59.6176L322.202 63.3177L322.231 63.3294L322.26 63.3406L323.722 59.6176ZM338.101 69.6072L335.108 72.2604L335.14 72.2964L335.172 72.3316L338.101 69.6072ZM347.485 85.9538L343.696 87.2362L343.699 87.2452L343.703 87.2541L347.485 85.9538ZM347.485 130.453L343.703 129.153L343.696 129.17L343.691 129.188L347.485 130.453ZM338.252 146.648L341.181 149.373L341.197 149.356L341.212 149.339L338.252 146.648ZM323.571 156.638L325.033 160.361L325.05 160.354L325.068 160.347L323.571 156.638ZM319.03 140.443L321.347 143.703L321.355 143.698L321.363 143.692L319.03 140.443ZM327.96 128.334L324.251 126.836L324.239 126.867L324.227 126.898L327.96 128.334ZM327.96 89.1323L331.697 87.7055V87.7055L327.96 89.1323ZM318.727 76.5696L316.341 79.7795L316.387 79.8137L316.433 79.8466L318.727 76.5696ZM289.969 76.4183L292.246 79.7071L292.255 79.7012L292.263 79.6952L289.969 76.4183ZM280.888 88.6782L284.607 90.1517L284.611 90.1399L284.616 90.128L280.888 88.6782ZM279.526 123.945L275.661 124.975L275.664 124.986L275.667 124.997L279.526 123.945ZM284.672 135.145L281.446 137.51L281.471 137.545L281.497 137.579L284.672 135.145ZM293.148 142.107L291.403 145.707L291.424 145.717L291.445 145.727L293.148 142.107ZM304.197 155.968C297.356 155.968 291.429 154.875 286.343 152.786L283.304 160.187C289.519 162.739 296.507 163.968 304.197 163.968V155.968ZM286.343 152.786C281.21 150.678 276.852 147.675 273.222 143.772L267.364 149.221C271.806 153.997 277.135 157.653 283.304 160.187L286.343 152.786ZM273.286 143.844C269.753 139.857 266.977 134.948 265.006 129.037L257.417 131.566C259.684 138.369 262.963 144.257 267.3 149.15L273.286 143.844ZM265.006 129.037C263.049 123.166 262.033 116.341 262.033 108.506H254.033C254.033 117.018 255.136 124.723 257.417 131.566L265.006 129.037ZM262.033 108.506C262.033 97.1254 263.983 88.0814 267.627 81.1571L260.548 77.4311C256.12 85.8443 254.033 96.275 254.033 108.506H262.033ZM267.637 81.138C271.339 74.0106 276.346 68.8228 282.645 65.4034L278.828 58.3725C271 62.6219 264.907 69.0382 260.538 77.4501L267.637 81.138ZM282.645 65.4034C289.056 61.9229 296.409 60.1364 304.802 60.1364V52.1364C295.235 52.1364 286.544 54.1842 278.828 58.3725L282.645 65.4034ZM304.802 60.1364C311.316 60.1364 317.097 61.2207 322.202 63.3177L325.242 55.9175C319.046 53.3729 312.214 52.1364 304.802 52.1364V60.1364ZM322.26 63.3406C327.337 65.3353 331.601 68.3043 335.108 72.2604L341.094 66.954C336.73 62.0305 331.409 58.3397 325.185 55.8946L322.26 63.3406ZM335.172 72.3316C338.764 76.1921 341.628 81.124 343.696 87.2362L351.274 84.6714C348.903 77.666 345.511 71.7001 341.03 66.8828L335.172 72.3316ZM343.703 87.2541C345.75 93.2112 346.815 100.174 346.815 108.203H354.815C354.815 99.4823 353.66 91.6123 351.268 84.6535L343.703 87.2541ZM346.815 108.203C346.815 116.233 345.75 123.196 343.703 129.153L351.268 131.753C353.66 124.794 354.815 116.924 354.815 108.203H346.815ZM343.691 129.188C341.727 135.079 338.913 139.975 335.293 143.957L341.212 149.339C345.664 144.441 349.006 138.541 351.28 131.718L343.691 129.188ZM335.324 143.924C331.706 147.813 327.308 150.816 322.074 152.928L325.068 160.347C331.337 157.817 336.727 154.161 341.181 149.373L335.324 143.924ZM322.108 152.915C317.005 154.92 311.058 155.968 304.197 155.968V163.968C311.867 163.968 318.835 162.796 325.033 160.361L322.108 152.915ZM304.651 148.529C311.045 148.529 316.697 147.007 321.347 143.703L316.713 137.182C313.694 139.327 309.76 140.529 304.651 140.529V148.529ZM321.363 143.692C326.028 140.342 329.441 135.625 331.694 129.77L324.227 126.898C322.443 131.537 319.902 134.892 316.697 137.193L321.363 143.692ZM331.669 129.832C334.033 123.978 335.139 117.029 335.139 109.112H327.139C327.139 116.329 326.125 122.196 324.251 126.836L331.669 129.832ZM335.139 109.112C335.139 100.996 334.034 93.8272 331.697 87.7055L324.223 90.5591C326.124 95.537 327.139 101.687 327.139 109.112H335.139ZM331.697 87.7055C329.352 81.5647 325.837 76.6639 321.021 73.2927L316.433 79.8466C319.69 82.1261 322.33 85.6004 324.223 90.5591L331.697 87.7055ZM321.114 73.3598C316.375 69.8357 310.655 68.1803 304.197 68.1803V76.1803C309.242 76.1803 313.209 77.4511 316.341 79.7795L321.114 73.3598ZM304.197 68.1803C298.018 68.1803 292.455 69.7958 287.676 73.1414L292.263 79.6952C295.556 77.3901 299.478 76.1803 304.197 76.1803V68.1803ZM287.693 73.1295C282.968 76.4005 279.504 81.2021 277.16 87.2285L284.616 90.128C286.51 85.2567 289.1 81.885 292.246 79.7071L287.693 73.1295ZM277.169 87.2048C274.812 93.1547 273.709 100.247 273.709 108.355H281.709C281.709 100.923 282.726 94.8977 284.607 90.1517L277.169 87.2048ZM273.709 108.355C273.709 114.474 274.342 120.028 275.661 124.975L283.391 122.914C282.288 118.78 281.709 113.94 281.709 108.355H273.709ZM275.667 124.997C276.978 129.806 278.879 134.01 281.446 137.51L287.897 132.78C286.025 130.226 284.495 126.963 283.385 122.892L275.667 124.997ZM281.497 137.579C284.185 141.085 287.495 143.812 291.403 145.707L294.893 138.508C292.141 137.174 289.8 135.26 287.846 132.711L281.497 137.579ZM291.445 145.727C295.468 147.62 299.894 148.529 304.651 148.529V140.529C300.932 140.529 297.689 139.824 294.851 138.488L291.445 145.727ZM372.119 158H368.119V162H372.119V158ZM372.119 58.104V54.104H368.119V58.104H372.119ZM425.094 59.4662L424.274 63.3814L424.326 63.3923L424.378 63.4017L425.094 59.4662ZM436.748 63.0988L435.003 66.6981L435.024 66.7082L435.045 66.7181L436.748 63.0988ZM445.376 69.1531L442.488 71.9208L442.517 71.9515L442.547 71.9816L445.376 69.1531ZM450.673 77.3264L446.943 78.7704L446.951 78.7912L446.959 78.812L450.673 77.3264ZM450.825 97.1543L454.548 98.6169L454.556 98.5949L454.565 98.5729L450.825 97.1543ZM445.83 104.571L443.068 101.677L443.034 101.709L443.001 101.742L445.83 104.571ZM437.656 109.868L439.162 113.574L439.19 113.563L439.219 113.551L437.656 109.868ZM426.305 112.744L425.752 108.782L422.305 109.263V112.744H426.305ZM426.305 114.712H422.305V118.224L425.787 118.678L426.305 114.712ZM437.656 118.193L435.634 121.644L435.659 121.659L435.684 121.673L437.656 118.193ZM444.922 125.307L441.492 127.365L444.922 125.307ZM449.614 136.961L445.759 138.028L445.764 138.048L445.77 138.067L449.614 136.961ZM455.668 158V162H460.981L459.512 156.894L455.668 158ZM434.629 158L430.742 158.942L431.482 162H434.629V158ZM429.937 138.626L426.035 139.504L426.042 139.536L426.05 139.568L429.937 138.626ZM425.699 128.939L422.499 131.339L422.531 131.381L422.563 131.422L425.699 128.939ZM418.737 123.793L417.391 127.56L418.737 123.793ZM391.19 122.28V118.28H387.19V122.28H391.19ZM391.19 158V162H395.19V158H391.19ZM391.19 107.598H387.19V111.598H391.19V107.598ZM426.607 103.36L424.314 100.083L424.294 100.097L424.275 100.111L426.607 103.36ZM426.91 77.3264L424.496 80.5161L424.517 80.5315L424.537 80.5467L426.91 77.3264ZM391.19 73.0884V69.0884H387.19V73.0884H391.19ZM376.119 158V58.104H368.119V158H376.119ZM372.119 62.104H410.715V54.104H372.119V62.104ZM410.715 62.104C415.735 62.104 420.249 62.5388 424.274 63.3814L425.913 55.5511C421.261 54.5774 416.189 54.104 410.715 54.104V62.104ZM424.378 63.4017C428.536 64.1577 432.062 65.272 435.003 66.6981L438.493 59.4996C434.775 57.6967 430.531 56.3892 425.809 55.5308L424.378 63.4017ZM435.045 66.7181C438.09 68.1508 440.548 69.8963 442.488 71.9208L448.264 66.3855C445.562 63.5666 442.269 61.2759 438.452 59.4795L435.045 66.7181ZM442.547 71.9816C444.466 73.8999 445.929 76.1498 446.943 78.7704L454.404 75.8825C452.996 72.2469 450.927 69.048 448.204 66.3247L442.547 71.9816ZM446.959 78.812C447.956 81.3032 448.49 84.1696 448.49 87.4674H456.49C456.49 83.2982 455.812 79.404 454.387 75.8409L446.959 78.812ZM448.49 87.4674C448.49 90.5761 448.002 93.317 447.085 95.7357L454.565 98.5729C455.867 95.139 456.49 91.422 456.49 87.4674H448.49ZM447.102 95.6917C446.207 97.9698 444.872 99.9552 443.068 101.677L448.592 107.464C451.227 104.948 453.223 101.989 454.548 98.6169L447.102 95.6917ZM443.001 101.742C441.312 103.431 439.047 104.933 436.094 106.186L439.219 113.551C442.926 111.978 446.109 109.948 448.658 107.399L443.001 101.742ZM436.151 106.162C433.294 107.323 429.844 108.212 425.752 108.782L426.857 116.706C431.444 116.066 435.561 115.037 439.162 113.574L436.151 106.162ZM422.305 112.744V114.712H430.305V112.744H422.305ZM425.787 118.678C430.086 119.239 433.31 120.281 435.634 121.644L439.679 114.742C436.151 112.674 431.806 111.395 426.822 110.745L425.787 118.678ZM435.684 121.673C438.102 123.043 440.025 124.92 441.492 127.365L448.352 123.249C446.186 119.639 443.265 116.774 439.629 114.713L435.684 121.673ZM441.492 127.365C443.065 129.987 444.508 133.508 445.759 138.028L453.469 135.895C452.096 130.93 450.411 126.681 448.352 123.249L441.492 127.365ZM445.77 138.067L451.824 159.106L459.512 156.894L453.458 135.855L445.77 138.067ZM455.668 154H434.629V162H455.668V154ZM438.517 157.058L433.825 137.685L426.05 139.568L430.742 158.942L438.517 157.058ZM433.84 137.748C432.842 133.316 431.229 129.48 428.835 126.457L422.563 131.422C424.004 133.242 425.216 135.864 426.035 139.504L433.84 137.748ZM428.899 126.539C426.617 123.496 423.653 121.302 420.082 120.026L417.391 127.56C419.471 128.303 421.149 129.539 422.499 131.339L428.899 126.539ZM420.082 120.026C416.705 118.82 412.791 118.28 408.445 118.28V126.28C412.17 126.28 415.118 126.748 417.391 127.56L420.082 120.026ZM408.445 118.28H391.19V126.28H408.445V118.28ZM387.19 122.28V158H395.19V122.28H387.19ZM391.19 154H372.119V162H391.19V154ZM391.19 111.598H409.353V103.598H391.19V111.598ZM409.353 111.598C417.32 111.598 424.04 110.128 428.94 106.609L424.275 100.111C421.305 102.243 416.521 103.598 409.353 103.598V111.598ZM428.901 106.637C434.217 102.916 436.662 97.2208 436.662 90.3432H428.662C428.662 95.1705 427.07 98.1536 424.314 100.083L428.901 106.637ZM436.662 90.3432C436.662 83.5451 434.377 77.8597 429.283 74.1062L424.537 80.5467C427.112 82.4439 428.662 85.4363 428.662 90.3432H436.662ZM429.324 74.1368C424.569 70.5388 417.772 69.0884 409.655 69.0884V77.0884C417.078 77.0884 421.784 78.4633 424.496 80.5161L429.324 74.1368ZM409.655 69.0884H391.19V77.0884H409.655V69.0884ZM387.19 73.0884V107.598H395.19V73.0884H387.19Z" fill="#8EFF01" fill-opacity="0.16" mask="url(#path-3-outside-2_1_3492)"/>
</svg>
