<svg width="1440" height="474" viewBox="0 0 1440 474" fill="none" xmlns="http://www.w3.org/2000/svg">
<mask id="path-1-outside-1_1_3489" maskUnits="userSpaceOnUse" x="0" y="203" width="1460" height="203" fill="black">
<rect fill="white" y="203" width="1460" height="203"/>
<path d="M94.8998 401.679C80.7498 401.679 68.1091 399.698 56.9778 395.736C45.8464 391.585 36.4131 385.548 28.6778 377.624C20.9424 369.511 14.9994 359.512 10.8488 347.626C6.69811 335.74 4.62278 322.156 4.62278 306.874C4.62278 291.026 6.69811 276.97 10.8488 264.707C15.1881 252.444 21.2254 242.067 28.9608 233.577C36.6961 224.898 45.9408 218.389 56.6948 214.05C67.4488 209.711 79.4291 207.541 92.6358 207.541C102.824 207.541 112.257 208.862 120.936 211.503C129.614 214.144 137.067 218.106 143.293 223.389C149.707 228.483 154.707 234.709 158.292 242.067C161.876 249.236 163.763 257.443 163.952 266.688L130.558 275.461C130.746 266.971 128.954 259.896 125.181 254.236C121.407 248.576 116.502 244.331 110.465 241.501C104.616 238.671 98.2958 237.256 91.5038 237.256C85.4664 237.256 79.4291 238.482 73.3918 240.935C67.5431 243.388 62.2604 247.255 57.5438 252.538C52.8271 257.821 49.0538 264.801 46.2238 273.48C43.3938 281.97 41.9788 292.441 41.9788 304.893C41.9788 320.741 44.2428 333.57 48.7708 343.381C53.4874 353.192 59.9021 360.455 68.0148 365.172C76.3161 369.7 85.6551 371.964 96.0318 371.964C106.597 371.964 114.993 369.889 121.219 365.738C127.445 361.399 131.973 355.739 134.803 348.758C137.633 341.589 139.236 333.853 139.614 325.552L171.027 330.929C170.838 340.74 169.329 349.984 166.499 358.663C163.669 367.342 159.235 374.888 153.198 381.303C147.349 387.718 139.614 392.717 129.992 396.302C120.37 399.887 108.672 401.679 94.8998 401.679ZM205.498 398V211.22H277.663C287.473 211.22 296.435 212.069 304.548 213.767C312.849 215.276 320.113 217.54 326.339 220.559C332.753 223.578 338.13 227.351 342.47 231.879C346.809 236.218 350.111 241.312 352.375 247.161C354.639 252.821 355.771 259.141 355.771 266.122C355.771 272.725 354.733 278.763 352.658 284.234C350.582 289.517 347.469 294.139 343.319 298.101C339.357 302.063 334.263 305.365 328.037 308.006C321.999 310.459 314.924 312.251 306.812 313.383V317.062C315.49 318.194 322.565 320.364 328.037 323.571C333.697 326.778 338.225 331.212 341.621 336.872C345.017 342.532 347.941 349.796 350.394 358.663L361.714 398H322.377L313.604 361.776C311.906 354.229 309.264 348.192 305.68 343.664C302.284 339.136 297.944 335.929 292.662 334.042C287.379 332.155 280.964 331.212 273.418 331.212H241.156V398H205.498ZM241.156 303.761H275.116C289.266 303.761 300.02 301.12 307.378 295.837C314.924 290.554 318.698 282.442 318.698 271.499C318.698 260.556 315.113 252.444 307.944 247.161C300.963 241.878 290.209 239.237 275.682 239.237H241.156V303.761ZM397.639 398V211.22H433.58V398H397.639ZM420.845 398V368.568H537.158V398H420.845ZM420.845 316.779V289.611H523.291V316.779H420.845ZM420.845 240.652V211.22H536.592V240.652H420.845ZM559.561 398L624.085 211.22H676.44L740.964 398H701.91L652.385 239.803H648.423L598.332 398H559.561ZM593.804 359.512V334.325H711.532V359.512H593.804ZM792.517 398V211.22H828.458V398H792.517ZM737.049 241.501V211.22H884.209V241.501H737.049ZM987.805 401.679C974.221 401.679 962.146 399.509 951.581 395.17C941.015 390.831 931.959 384.605 924.413 376.492C917.055 368.191 911.395 358.097 907.433 346.211C903.471 334.325 901.49 320.741 901.49 305.459C901.49 283.385 905.263 265.179 912.81 250.84C920.356 236.313 930.733 225.464 943.94 218.295C957.146 211.126 972.145 207.541 988.937 207.541C1001.95 207.541 1013.75 209.711 1024.31 214.05C1034.88 218.201 1043.84 224.427 1051.2 232.728C1058.74 240.841 1064.59 251.029 1068.74 263.292C1072.89 275.367 1074.97 289.234 1074.97 304.893C1074.97 320.552 1072.89 334.419 1068.74 346.494C1064.78 358.38 1059.03 368.474 1051.48 376.775C1043.93 384.888 1034.78 391.114 1024.03 395.453C1013.46 399.604 1001.39 401.679 987.805 401.679ZM988.654 372.813C999.408 372.813 1008.37 370.266 1015.54 365.172C1022.9 359.889 1028.46 352.343 1032.24 342.532C1036.2 332.721 1038.18 320.741 1038.18 306.591C1038.18 292.064 1036.2 279.612 1032.24 269.235C1028.27 258.858 1022.52 251.029 1014.97 245.746C1007.61 240.275 998.559 237.539 987.805 237.539C977.617 237.539 968.749 240.18 961.203 245.463C953.845 250.557 948.185 258.198 944.223 268.386C940.261 278.385 938.28 290.649 938.28 305.176C938.28 316.119 939.412 325.835 941.676 334.325C943.94 342.626 947.147 349.607 951.298 355.267C955.637 360.927 960.92 365.266 967.146 368.285C973.56 371.304 980.73 372.813 988.654 372.813ZM1114.8 398V211.22H1186.97C1196.78 211.22 1205.74 212.069 1213.85 213.767C1222.15 215.276 1229.42 217.54 1235.64 220.559C1242.06 223.578 1247.43 227.351 1251.77 231.879C1256.11 236.218 1259.41 241.312 1261.68 247.161C1263.94 252.821 1265.07 259.141 1265.07 266.122C1265.07 272.725 1264.04 278.763 1261.96 284.234C1259.89 289.517 1256.77 294.139 1252.62 298.101C1248.66 302.063 1243.57 305.365 1237.34 308.006C1231.3 310.459 1224.23 312.251 1216.11 313.383V317.062C1224.79 318.194 1231.87 320.364 1237.34 323.571C1243 326.778 1247.53 331.212 1250.92 336.872C1254.32 342.532 1257.24 349.796 1259.7 358.663L1271.02 398H1231.68L1222.91 361.776C1221.21 354.229 1218.57 348.192 1214.98 343.664C1211.59 339.136 1207.25 335.929 1201.96 334.042C1196.68 332.155 1190.27 331.212 1182.72 331.212H1150.46V398H1114.8ZM1150.46 303.761H1184.42C1198.57 303.761 1209.32 301.12 1216.68 295.837C1224.23 290.554 1228 282.442 1228 271.499C1228 260.556 1224.42 252.444 1217.25 247.161C1210.27 241.878 1199.51 239.237 1184.98 239.237H1150.46V303.761ZM1376.84 401.679C1364.57 401.679 1353.63 400.453 1344.01 398C1334.39 395.736 1326.18 392.151 1319.39 387.246C1312.78 382.152 1307.69 376.02 1304.11 368.851C1300.52 361.493 1298.63 352.909 1298.45 343.098L1330.14 333.759C1329.95 342.815 1331.84 350.362 1335.8 356.399C1339.76 362.248 1345.42 366.587 1352.78 369.417C1360.33 372.247 1368.91 373.662 1378.53 373.662C1387.78 373.662 1395.51 372.53 1401.74 370.266C1408.16 368.002 1412.97 364.983 1416.17 361.21C1419.38 357.248 1420.98 352.814 1420.98 347.909C1420.98 342.438 1419 338.098 1415.04 334.891C1411.08 331.495 1405.7 328.759 1398.91 326.684C1392.31 324.42 1384.76 322.345 1376.27 320.458C1367.03 318.383 1357.97 316.119 1349.1 313.666C1340.42 311.213 1332.5 307.912 1325.33 303.761C1318.16 299.61 1312.41 294.328 1308.07 287.913C1303.92 281.31 1301.84 273.008 1301.84 263.009C1301.84 251.689 1304.67 241.973 1310.33 233.86C1315.99 225.559 1324.2 219.144 1334.95 214.616C1345.9 209.899 1358.91 207.541 1374.01 207.541C1388.91 207.541 1401.93 209.805 1413.06 214.333C1424.19 218.672 1432.87 225.087 1439.1 233.577C1445.32 242.067 1448.62 252.066 1449 263.575L1416.46 272.631C1416.46 266.405 1415.42 261.028 1413.34 256.5C1411.46 251.783 1408.63 247.916 1404.85 244.897C1401.08 241.69 1396.55 239.331 1391.27 237.822C1386.18 236.313 1380.33 235.558 1373.72 235.558C1365.99 235.558 1359.2 236.596 1353.35 238.671C1347.69 240.746 1343.35 243.671 1340.33 247.444C1337.31 251.029 1335.8 255.274 1335.8 260.179C1335.8 266.216 1338.07 271.027 1342.59 274.612C1347.12 278.197 1353.06 281.121 1360.42 283.385C1367.97 285.46 1376.18 287.536 1385.04 289.611C1393.16 291.309 1401.27 293.384 1409.38 295.837C1417.68 298.29 1425.32 301.497 1432.3 305.459C1439.29 309.421 1444.85 314.798 1449 321.59C1453.34 328.193 1455.51 336.589 1455.51 346.777C1455.51 357.72 1452.59 367.342 1446.74 375.643C1440.89 383.944 1432.12 390.359 1420.42 394.887C1408.72 399.415 1394.19 401.679 1376.84 401.679Z"/>
</mask>
<path d="M56.9778 395.736L55.5803 399.484L55.6083 399.494L55.6365 399.504L56.9778 395.736ZM28.6778 377.624L25.7828 380.384L25.7991 380.401L25.8155 380.418L28.6778 377.624ZM10.8488 347.626L7.07241 348.945L10.8488 347.626ZM10.8488 264.707L7.07789 263.373L7.06873 263.399L7.05992 263.425L10.8488 264.707ZM28.9608 233.577L31.9176 236.271L31.9323 236.255L31.9468 236.238L28.9608 233.577ZM56.6948 214.05L58.1916 217.759L56.6948 214.05ZM120.936 211.503L119.771 215.33L120.936 211.503ZM143.293 223.389L140.705 226.439L140.754 226.481L140.805 226.521L143.293 223.389ZM158.292 242.067L154.696 243.819L154.705 243.837L154.714 243.856L158.292 242.067ZM163.952 266.688L164.968 270.557L168.015 269.756L167.951 266.606L163.952 266.688ZM130.558 275.461L126.559 275.372L126.441 280.678L131.574 279.33L130.558 275.461ZM125.181 254.236L128.509 252.017L125.181 254.236ZM110.465 241.501L108.723 245.102L108.745 245.112L108.767 245.123L110.465 241.501ZM73.3918 240.935L71.8863 237.229L71.8655 237.238L71.8449 237.246L73.3918 240.935ZM57.5438 252.538L60.5275 255.202L57.5438 252.538ZM46.2238 273.48L50.0185 274.745L50.0226 274.732L50.0267 274.72L46.2238 273.48ZM48.7708 343.381L45.1389 345.057L45.1521 345.086L45.1658 345.114L48.7708 343.381ZM68.0148 365.172L66.0043 368.63L66.0515 368.657L66.0994 368.684L68.0148 365.172ZM121.219 365.738L123.438 369.066L123.472 369.043L123.506 369.02L121.219 365.738ZM134.803 348.758L138.51 350.261L138.517 350.244L138.523 350.227L134.803 348.758ZM139.614 325.552L140.289 321.609L135.824 320.845L135.618 325.37L139.614 325.552ZM171.027 330.929L175.026 331.006L175.092 327.567L171.702 326.986L171.027 330.929ZM166.499 358.663L162.696 357.423L166.499 358.663ZM153.198 381.303L150.285 378.562L150.263 378.585L150.242 378.608L153.198 381.303ZM129.992 396.302L128.595 392.554L129.992 396.302ZM94.8998 397.679C81.119 397.679 68.9442 395.749 58.3191 391.968L55.6365 399.504C67.274 403.647 80.3805 405.679 94.8998 405.679V397.679ZM58.3753 391.988C47.7556 388.028 38.8339 382.302 31.5401 374.83L25.8155 380.418C33.9923 388.794 43.9373 395.142 55.5803 399.484L58.3753 391.988ZM31.5727 374.864C24.2763 367.211 18.6112 357.722 14.6251 346.307L7.07241 348.945C11.3877 361.302 17.6086 371.811 25.7828 380.384L31.5727 374.864ZM14.6251 346.307C10.6503 334.925 8.62278 321.8 8.62278 306.874H0.62278C0.62278 322.512 2.74592 336.555 7.07241 348.945L14.6251 346.307ZM8.62278 306.874C8.62278 291.368 10.6541 277.759 14.6376 265.989L7.05992 263.425C2.74214 276.182 0.62278 290.684 0.62278 306.874H8.62278ZM14.6197 266.041C18.8045 254.214 24.5862 244.318 31.9176 236.271L26.004 230.883C17.8647 239.816 11.5717 250.673 7.07789 263.373L14.6197 266.041ZM31.9468 236.238C39.274 228.018 48.0094 221.868 58.1916 217.759L55.198 210.341C43.8721 214.911 34.1182 221.779 25.9747 230.916L31.9468 236.238ZM58.1916 217.759C68.4084 213.637 79.8714 211.541 92.6358 211.541V203.541C78.9869 203.541 66.4891 205.785 55.198 210.341L58.1916 217.759ZM92.6358 211.541C102.477 211.541 111.513 212.816 119.771 215.33L122.1 207.676C113.001 204.907 103.171 203.541 92.6358 203.541V211.541ZM119.771 215.33C127.986 217.83 134.939 221.547 140.705 226.439L145.881 220.339C139.194 214.666 131.243 210.459 122.1 207.676L119.771 215.33ZM140.805 226.521C146.752 231.244 151.373 236.999 154.696 243.819L161.888 240.315C158.041 232.419 152.663 225.722 145.78 220.257L140.805 226.521ZM154.714 243.856C157.995 250.419 159.774 258.027 159.953 266.77L167.951 266.606C167.752 256.859 165.757 248.054 161.869 240.278L154.714 243.856ZM162.935 262.819L129.541 271.592L131.574 279.33L164.968 270.557L162.935 262.819ZM134.557 275.55C134.759 266.445 132.839 258.512 128.509 252.017L121.853 256.455C125.069 261.28 126.734 267.497 126.559 275.372L134.557 275.55ZM128.509 252.017C124.339 245.762 118.875 241.026 112.163 237.879L108.767 245.123C114.129 247.636 118.476 251.39 121.853 256.455L128.509 252.017ZM112.207 237.9C105.79 234.796 98.8711 233.256 91.5038 233.256V241.256C97.7205 241.256 103.442 242.546 108.723 245.102L112.207 237.9ZM91.5038 233.256C84.9106 233.256 78.3635 234.598 71.8863 237.229L74.8973 244.641C80.4947 242.367 86.0223 241.256 91.5038 241.256V233.256ZM71.8449 237.246C65.3858 239.955 59.6267 244.199 54.56 249.874L60.5275 255.202C64.8942 250.311 69.7004 246.82 74.9387 244.624L71.8449 237.246ZM54.56 249.874C49.3847 255.67 45.3749 263.181 42.4209 272.24L50.0267 274.72C52.7327 266.422 56.2695 259.971 60.5275 255.202L54.56 249.874ZM42.429 272.215C39.4214 281.238 37.9788 292.166 37.9788 304.893H45.9788C45.9788 292.716 47.3661 282.702 50.0185 274.745L42.429 272.215ZM37.9788 304.893C37.9788 321.072 40.2824 334.535 45.1389 345.057L52.4026 341.705C48.2032 332.606 45.9788 320.41 45.9788 304.893H37.9788ZM45.1658 345.114C50.1723 355.528 57.0938 363.45 66.0043 368.63L70.0253 361.714C62.7104 357.461 56.8026 350.856 52.3758 341.648L45.1658 345.114ZM66.0994 368.684C75.0441 373.563 85.0525 375.964 96.0318 375.964V367.964C86.2577 367.964 77.5881 365.837 69.9302 361.66L66.0994 368.684ZM96.0318 375.964C107.074 375.964 116.335 373.801 123.438 369.066L119 362.41C113.65 365.976 106.12 367.964 96.0318 367.964V375.964ZM123.506 369.02C130.362 364.241 135.386 357.965 138.51 350.261L131.096 347.255C128.559 353.512 124.527 358.556 118.932 362.456L123.506 369.02ZM138.523 350.227C141.528 342.616 143.214 334.442 143.61 325.734L135.618 325.37C135.259 333.265 133.738 340.562 131.082 347.289L138.523 350.227ZM138.939 329.495L170.352 334.872L171.702 326.986L140.289 321.609L138.939 329.495ZM167.028 330.852C166.846 340.297 165.394 349.147 162.696 357.423L170.302 359.903C173.263 350.821 174.83 341.182 175.026 331.006L167.028 330.852ZM162.696 357.423C160.042 365.563 155.904 372.591 150.285 378.562L156.111 384.044C162.566 377.185 167.296 369.121 170.302 359.903L162.696 357.423ZM150.242 378.608C144.894 384.474 137.73 389.151 128.595 392.554L131.388 400.05C141.498 396.284 149.805 390.962 156.154 383.998L150.242 378.608ZM128.595 392.554C119.544 395.926 108.348 397.679 94.8998 397.679V405.679C108.997 405.679 121.196 403.848 131.388 400.05L128.595 392.554ZM205.498 398H201.498V402H205.498V398ZM205.498 211.22V207.22H201.498V211.22H205.498ZM304.548 213.767L303.728 217.682L303.78 217.693L303.832 217.702L304.548 213.767ZM326.339 220.559L324.593 224.158L324.614 224.168L324.635 224.178L326.339 220.559ZM342.47 231.879L339.582 234.647L339.611 234.677L339.641 234.707L342.47 231.879ZM352.375 247.161L348.644 248.605L348.652 248.626L348.661 248.647L352.375 247.161ZM352.658 284.234L356.381 285.697L356.389 285.675L356.398 285.653L352.658 284.234ZM343.319 298.101L340.557 295.208L340.523 295.24L340.49 295.273L343.319 298.101ZM328.037 308.006L329.542 311.712L329.57 311.7L329.599 311.688L328.037 308.006ZM306.812 313.383L306.259 309.421L302.812 309.902V313.383H306.812ZM306.812 317.062H302.812V320.574L306.294 321.028L306.812 317.062ZM328.037 323.571L326.014 327.022L326.039 327.037L326.064 327.051L328.037 323.571ZM341.621 336.872L338.191 338.93L341.621 336.872ZM350.394 358.663L346.538 359.729L346.544 359.749L346.55 359.769L350.394 358.663ZM361.714 398V402H367.027L365.558 396.894L361.714 398ZM322.377 398L318.489 398.942L319.23 402H322.377V398ZM313.604 361.776L309.701 362.654L309.708 362.686L309.716 362.718L313.604 361.776ZM305.68 343.664L302.48 346.064L302.511 346.106L302.543 346.147L305.68 343.664ZM292.661 334.042L291.316 337.809L292.661 334.042ZM241.156 331.212V327.212H237.156V331.212H241.156ZM241.156 398V402H245.156V398H241.156ZM241.156 303.761H237.156V307.761H241.156V303.761ZM307.378 295.837L305.084 292.56L305.064 292.574L305.045 292.588L307.378 295.837ZM307.944 247.161L305.53 250.351L305.55 250.366L305.571 250.381L307.944 247.161ZM241.156 239.237V235.237H237.156V239.237H241.156ZM209.498 398V211.22H201.498V398H209.498ZM205.498 215.22H277.663V207.22H205.498V215.22ZM277.663 215.22C287.246 215.22 295.929 216.05 303.728 217.682L305.367 209.852C296.941 208.088 287.7 207.22 277.663 207.22V215.22ZM303.832 217.702C311.852 219.161 318.756 221.328 324.593 224.158L328.084 216.96C321.469 213.753 313.846 211.392 305.263 209.832L303.832 217.702ZM324.635 224.178C330.664 227.015 335.623 230.516 339.582 234.647L345.357 229.111C340.637 224.186 334.843 220.14 328.042 216.94L324.635 224.178ZM339.641 234.707C343.578 238.644 346.577 243.264 348.644 248.605L356.105 245.717C353.644 239.361 350.04 233.792 345.298 229.051L339.641 234.707ZM348.661 248.647C350.71 253.771 351.771 259.577 351.771 266.122H359.771C359.771 258.706 358.567 251.871 356.088 245.675L348.661 248.647ZM351.771 266.122C351.771 272.302 350.8 277.852 348.918 282.815L356.398 285.653C358.665 279.674 359.771 273.148 359.771 266.122H351.771ZM348.935 282.771C347.074 287.507 344.292 291.642 340.557 295.208L346.08 300.994C350.647 296.636 354.09 291.527 356.381 285.697L348.935 282.771ZM340.49 295.273C336.958 298.804 332.323 301.842 326.474 304.324L329.599 311.688C336.202 308.887 341.755 305.322 346.147 300.929L340.49 295.273ZM326.531 304.3C320.866 306.602 314.124 308.324 306.259 309.421L307.364 317.345C315.724 316.178 323.132 314.316 329.542 311.712L326.531 304.3ZM302.812 313.383V317.062H310.812V313.383H302.812ZM306.294 321.028C314.63 322.116 321.144 324.167 326.014 327.022L330.059 320.12C323.986 316.56 316.35 314.272 307.329 313.096L306.294 321.028ZM326.064 327.051C331.115 329.913 335.144 333.853 338.191 338.93L345.05 334.814C341.305 328.571 336.278 323.644 330.009 320.091L326.064 327.051ZM338.191 338.93C341.344 344.185 344.147 351.085 346.538 359.729L354.249 357.597C351.735 348.507 348.689 340.879 345.05 334.814L338.191 338.93ZM346.55 359.769L357.87 399.106L365.558 396.894L354.238 357.557L346.55 359.769ZM361.714 394H322.377V402H361.714V394ZM326.264 397.058L317.491 360.834L309.716 362.718L318.489 398.942L326.264 397.058ZM317.506 360.898C315.719 352.955 312.877 346.311 308.816 341.181L302.543 346.147C305.651 350.073 308.092 355.504 309.701 362.654L317.506 360.898ZM308.88 341.264C305.017 336.114 300.035 332.428 294.007 330.275L291.316 337.809C295.853 339.429 299.55 342.158 302.48 346.064L308.88 341.264ZM294.007 330.275C288.172 328.191 281.275 327.212 273.418 327.212V335.212C280.654 335.212 286.586 336.12 291.316 337.809L294.007 330.275ZM273.418 327.212H241.156V335.212H273.418V327.212ZM237.156 331.212V398H245.156V331.212H237.156ZM241.156 394H205.498V402H241.156V394ZM241.156 307.761H275.116V299.761H241.156V307.761ZM275.116 307.761C289.665 307.761 301.387 305.062 309.71 299.086L305.045 292.588C298.652 297.177 288.866 299.761 275.116 299.761V307.761ZM309.671 299.114C318.498 292.935 322.698 283.467 322.698 271.499H314.698C314.698 281.417 311.35 288.173 305.084 292.56L309.671 299.114ZM322.698 271.499C322.698 259.611 318.745 250.152 310.316 243.941L305.571 250.381C311.48 254.736 314.698 261.502 314.698 271.499H322.698ZM310.357 243.971C302.356 237.916 290.556 235.237 275.682 235.237V243.237C289.862 243.237 299.57 245.841 305.53 250.351L310.357 243.971ZM275.682 235.237H241.156V243.237H275.682V235.237ZM237.156 239.237V303.761H245.156V239.237H237.156ZM397.639 398H393.639V402H397.639V398ZM397.639 211.22V207.22H393.639V211.22H397.639ZM433.58 211.22H437.58V207.22H433.58V211.22ZM433.58 398V402H437.58V398H433.58ZM420.845 398H416.845V402H420.845V398ZM420.845 368.568V364.568H416.845V368.568H420.845ZM537.158 368.568H541.158V364.568H537.158V368.568ZM537.158 398V402H541.158V398H537.158ZM420.845 316.779H416.845V320.779H420.845V316.779ZM420.845 289.611V285.611H416.845V289.611H420.845ZM523.291 289.611H527.291V285.611H523.291V289.611ZM523.291 316.779V320.779H527.291V316.779H523.291ZM420.845 240.652H416.845V244.652H420.845V240.652ZM420.845 211.22V207.22H416.845V211.22H420.845ZM536.592 211.22H540.592V207.22H536.592V211.22ZM536.592 240.652V244.652H540.592V240.652H536.592ZM401.639 398V211.22H393.639V398H401.639ZM397.639 215.22H433.58V207.22H397.639V215.22ZM429.58 211.22V398H437.58V211.22H429.58ZM433.58 394H397.639V402H433.58V394ZM424.845 398V368.568H416.845V398H424.845ZM420.845 372.568H537.158V364.568H420.845V372.568ZM533.158 368.568V398H541.158V368.568H533.158ZM537.158 394H420.845V402H537.158V394ZM424.845 316.779V289.611H416.845V316.779H424.845ZM420.845 293.611H523.291V285.611H420.845V293.611ZM519.291 289.611V316.779H527.291V289.611H519.291ZM523.291 312.779H420.845V320.779H523.291V312.779ZM424.845 240.652V211.22H416.845V240.652H424.845ZM420.845 215.22H536.592V207.22H420.845V215.22ZM532.592 211.22V240.652H540.592V211.22H532.592ZM536.592 236.652H420.845V244.652H536.592V236.652ZM559.561 398L555.781 396.694L553.948 402H559.561V398ZM624.085 211.22V207.22H621.235L620.305 209.914L624.085 211.22ZM676.44 211.22L680.221 209.914L679.291 207.22H676.44V211.22ZM740.964 398V402H746.578L744.745 396.694L740.964 398ZM701.91 398L698.093 399.195L698.971 402H701.91V398ZM652.385 239.803L656.203 238.608L655.325 235.803H652.385V239.803ZM648.423 239.803V235.803H645.494L644.61 238.596L648.423 239.803ZM598.332 398V402H601.262L602.146 399.207L598.332 398ZM593.804 359.512H589.804V363.512H593.804V359.512ZM593.804 334.325V330.325H589.804V334.325H593.804ZM711.532 334.325H715.532V330.325H711.532V334.325ZM711.532 359.512V363.512H715.532V359.512H711.532ZM563.342 399.306L627.866 212.526L620.305 209.914L555.781 396.694L563.342 399.306ZM624.085 215.22H676.44V207.22H624.085V215.22ZM672.66 212.526L737.184 399.306L744.745 396.694L680.221 209.914L672.66 212.526ZM740.964 394H701.91V402H740.964V394ZM705.728 396.805L656.203 238.608L648.568 240.998L698.093 399.195L705.728 396.805ZM652.385 235.803H648.423V243.803H652.385V235.803ZM644.61 238.596L594.519 396.793L602.146 399.207L652.237 241.01L644.61 238.596ZM598.332 394H559.561V402H598.332V394ZM597.804 359.512V334.325H589.804V359.512H597.804ZM593.804 338.325H711.532V330.325H593.804V338.325ZM707.532 334.325V359.512H715.532V334.325H707.532ZM711.532 355.512H593.804V363.512H711.532V355.512ZM792.517 398H788.517V402H792.517V398ZM792.517 211.22V207.22H788.517V211.22H792.517ZM828.458 211.22H832.458V207.22H828.458V211.22ZM828.458 398V402H832.458V398H828.458ZM737.049 241.501H733.049V245.501H737.049V241.501ZM737.049 211.22V207.22H733.049V211.22H737.049ZM884.209 211.22H888.209V207.22H884.209V211.22ZM884.209 241.501V245.501H888.209V241.501H884.209ZM796.517 398V211.22H788.517V398H796.517ZM792.517 215.22H828.458V207.22H792.517V215.22ZM824.458 211.22V398H832.458V211.22H824.458ZM828.458 394H792.517V402H828.458V394ZM741.049 241.501V211.22H733.049V241.501H741.049ZM737.049 215.22H884.209V207.22H737.049V215.22ZM880.209 211.22V241.501H888.209V211.22H880.209ZM884.209 237.501H737.049V245.501H884.209V237.501ZM951.581 395.17L950.061 398.87L951.581 395.17ZM924.413 376.492L921.419 379.145L921.451 379.181L921.484 379.216L924.413 376.492ZM907.433 346.211L903.638 347.476L907.433 346.211ZM912.81 250.84L916.349 252.703L916.354 252.693L916.359 252.684L912.81 250.84ZM943.94 218.295L942.031 214.78L943.94 218.295ZM1024.31 214.05L1022.79 217.75L1022.82 217.762L1022.85 217.773L1024.31 214.05ZM1051.2 232.728L1048.2 235.381L1048.24 235.417L1048.27 235.452L1051.2 232.728ZM1068.74 263.292L1064.95 264.574L1064.96 264.583L1064.96 264.592L1068.74 263.292ZM1068.74 346.494L1064.96 345.194L1064.95 345.211L1064.95 345.229L1068.74 346.494ZM1051.48 376.775L1054.41 379.499L1054.42 379.483L1054.44 379.466L1051.48 376.775ZM1024.03 395.453L1025.49 399.176L1025.51 399.169L1025.53 399.162L1024.03 395.453ZM1015.54 365.172L1017.86 368.433L1017.86 368.427L1017.87 368.421L1015.54 365.172ZM1032.24 342.532L1028.53 341.034L1028.51 341.065L1028.5 341.096L1032.24 342.532ZM1032.24 269.235L1035.97 267.808V267.808L1032.24 269.235ZM1014.97 245.746L1012.59 248.956L1012.63 248.99L1012.68 249.023L1014.97 245.746ZM961.203 245.463L963.479 248.752L963.488 248.746L963.496 248.74L961.203 245.463ZM944.223 268.386L947.941 269.859L947.946 269.848L947.951 269.836L944.223 268.386ZM941.676 334.325L937.811 335.356L937.814 335.367L937.817 335.377L941.676 334.325ZM951.298 355.267L948.072 357.632L948.097 357.667L948.123 357.701L951.298 355.267ZM967.146 368.285L965.401 371.884L965.421 371.894L965.442 371.904L967.146 368.285ZM987.805 397.679C974.645 397.679 963.101 395.578 953.1 391.47L950.061 398.87C961.191 403.441 973.796 405.679 987.805 405.679V397.679ZM953.1 391.47C943.053 387.343 934.482 381.444 927.341 373.768L921.484 379.216C929.437 387.766 938.978 394.318 950.061 398.87L953.1 391.47ZM927.406 373.839C920.45 365.991 915.041 356.386 911.227 344.946L903.638 347.476C907.749 359.808 913.66 370.391 921.419 379.145L927.406 373.839ZM911.227 344.946C907.427 333.546 905.49 320.402 905.49 305.459H897.49C897.49 321.08 899.514 335.104 903.638 347.476L911.227 344.946ZM905.49 305.459C905.49 283.81 909.194 266.297 916.349 252.703L909.27 248.977C901.331 264.06 897.49 282.96 897.49 305.459H905.49ZM916.359 252.684C923.572 238.799 933.406 228.565 945.848 221.81L942.031 214.78C928.06 222.364 917.14 233.826 909.26 248.996L916.359 252.684ZM945.848 221.81C958.403 214.995 972.732 211.541 988.937 211.541V203.541C971.558 203.541 955.89 207.256 942.031 214.78L945.848 221.81ZM988.937 211.541C1001.51 211.541 1012.77 213.635 1022.79 217.75L1025.83 210.35C1014.72 205.787 1002.4 203.541 988.937 203.541V211.541ZM1022.85 217.773C1032.84 221.698 1041.27 227.564 1048.2 235.381L1054.19 230.075C1046.4 221.29 1036.91 214.703 1025.77 210.327L1022.85 217.773ZM1048.27 235.452C1055.37 243.087 1060.95 252.758 1064.95 264.574L1072.53 262.01C1068.23 249.3 1062.12 238.595 1054.13 230.004L1048.27 235.452ZM1064.96 264.592C1068.94 276.166 1070.97 289.58 1070.97 304.893H1078.97C1078.97 288.888 1076.85 274.567 1072.53 261.992L1064.96 264.592ZM1070.97 304.893C1070.97 320.206 1068.94 333.62 1064.96 345.194L1072.53 347.794C1076.85 335.219 1078.97 320.898 1078.97 304.893H1070.97ZM1064.95 345.229C1061.14 356.649 1055.65 366.241 1048.52 374.084L1054.44 379.466C1062.4 370.707 1068.42 360.111 1072.54 347.759L1064.95 345.229ZM1048.55 374.051C1041.42 381.714 1032.77 387.613 1022.53 391.744L1025.53 399.162C1036.8 394.614 1046.44 388.061 1054.41 379.499L1048.55 374.051ZM1022.57 391.73C1012.55 395.665 1000.98 397.679 987.805 397.679V405.679C1001.79 405.679 1014.38 403.542 1025.49 399.176L1022.57 391.73ZM988.654 376.813C1000.05 376.813 1009.87 374.106 1017.86 368.433L1013.22 361.911C1006.87 366.426 998.765 368.813 988.654 368.813V376.813ZM1017.87 368.421C1025.96 362.614 1031.96 354.387 1035.97 343.968L1028.5 341.096C1024.96 350.298 1019.83 357.164 1013.21 361.923L1017.87 368.421ZM1035.94 344.03C1040.15 333.612 1042.18 321.091 1042.18 306.591H1034.18C1034.18 320.391 1032.24 331.831 1028.53 341.034L1035.94 344.03ZM1042.18 306.591C1042.18 291.718 1040.15 278.757 1035.97 267.808L1028.5 270.662C1032.24 280.467 1034.18 292.409 1034.18 306.591H1042.18ZM1035.97 267.808C1031.78 256.84 1025.59 248.298 1017.27 242.469L1012.68 249.023C1019.45 253.76 1024.76 260.876 1028.5 270.662L1035.97 267.808ZM1017.36 242.536C1009.2 236.467 999.265 233.539 987.805 233.539V241.539C997.853 241.539 1006.03 244.082 1012.59 248.956L1017.36 242.536ZM987.805 233.539C976.887 233.539 967.199 236.383 958.909 242.186L963.496 248.74C970.3 243.977 978.346 241.539 987.805 241.539V233.539ZM958.926 242.174C950.778 247.815 944.681 256.171 940.495 266.936L947.951 269.836C951.688 260.225 956.911 253.299 963.479 248.752L958.926 242.174ZM940.504 266.913C936.303 277.514 934.28 290.31 934.28 305.176H942.28C942.28 290.987 944.218 279.257 947.941 269.859L940.504 266.913ZM934.28 305.176C934.28 316.385 935.438 326.459 937.811 335.356L945.541 333.294C943.385 325.211 942.28 315.852 942.28 305.176H934.28ZM937.817 335.377C940.181 344.048 943.574 351.499 948.072 357.632L954.523 352.902C950.72 347.715 947.698 341.204 945.535 333.273L937.817 335.377ZM948.123 357.701C952.83 363.84 958.596 368.585 965.401 371.884L968.891 364.686C963.243 361.947 958.444 358.014 954.472 352.833L948.123 357.701ZM965.442 371.904C972.45 375.202 980.211 376.813 988.654 376.813V368.813C981.249 368.813 974.671 367.406 968.849 364.666L965.442 371.904ZM1114.8 398H1110.8V402H1114.8V398ZM1114.8 211.22V207.22H1110.8V211.22H1114.8ZM1213.85 213.767L1213.03 217.682L1213.08 217.693L1213.14 217.702L1213.85 213.767ZM1235.64 220.559L1233.9 224.158L1233.92 224.168L1233.94 224.178L1235.64 220.559ZM1251.77 231.879L1248.88 234.647L1248.91 234.677L1248.94 234.707L1251.77 231.879ZM1261.68 247.161L1257.95 248.605L1257.96 248.626L1257.96 248.647L1261.68 247.161ZM1261.96 284.234L1265.68 285.697L1265.69 285.675L1265.7 285.653L1261.96 284.234ZM1252.62 298.101L1249.86 295.208L1249.83 295.24L1249.79 295.273L1252.62 298.101ZM1237.34 308.006L1238.85 311.712L1238.87 311.7L1238.9 311.688L1237.34 308.006ZM1216.11 313.383L1215.56 309.421L1212.11 309.902V313.383H1216.11ZM1216.11 317.062H1212.11V320.574L1215.6 321.028L1216.11 317.062ZM1237.34 323.571L1235.32 327.022L1235.34 327.037L1235.37 327.051L1237.34 323.571ZM1250.92 336.872L1247.49 338.93L1250.92 336.872ZM1259.7 358.663L1255.84 359.729L1255.85 359.749L1255.85 359.769L1259.7 358.663ZM1271.02 398V402H1276.33L1274.86 396.894L1271.02 398ZM1231.68 398L1227.79 398.942L1228.53 402H1231.68V398ZM1222.91 361.776L1219 362.654L1219.01 362.686L1219.02 362.718L1222.91 361.776ZM1214.98 343.664L1211.78 346.064L1211.81 346.106L1211.85 346.147L1214.98 343.664ZM1201.96 334.042L1200.62 337.809L1201.96 334.042ZM1150.46 331.212V327.212H1146.46V331.212H1150.46ZM1150.46 398V402H1154.46V398H1150.46ZM1150.46 303.761H1146.46V307.761H1150.46V303.761ZM1216.68 295.837L1214.39 292.56L1214.37 292.574L1214.35 292.588L1216.68 295.837ZM1217.25 247.161L1214.83 250.351L1214.85 250.366L1214.87 250.381L1217.25 247.161ZM1150.46 239.237V235.237H1146.46V239.237H1150.46ZM1118.8 398V211.22H1110.8V398H1118.8ZM1114.8 215.22H1186.97V207.22H1114.8V215.22ZM1186.97 215.22C1196.55 215.22 1205.23 216.05 1213.03 217.682L1214.67 209.852C1206.24 208.088 1197 207.22 1186.97 207.22V215.22ZM1213.14 217.702C1221.15 219.161 1228.06 221.328 1233.9 224.158L1237.39 216.96C1230.77 213.753 1223.15 211.392 1214.57 209.832L1213.14 217.702ZM1233.94 224.178C1239.97 227.015 1244.93 230.516 1248.88 234.647L1254.66 229.111C1249.94 224.186 1244.15 220.14 1237.34 216.94L1233.94 224.178ZM1248.94 234.707C1252.88 238.644 1255.88 243.264 1257.95 248.605L1265.41 245.717C1262.95 239.361 1259.34 233.792 1254.6 229.051L1248.94 234.707ZM1257.96 248.647C1260.01 253.771 1261.07 259.577 1261.07 266.122H1269.07C1269.07 258.706 1267.87 251.871 1265.39 245.675L1257.96 248.647ZM1261.07 266.122C1261.07 272.302 1260.1 277.852 1258.22 282.815L1265.7 285.653C1267.97 279.674 1269.07 273.148 1269.07 266.122H1261.07ZM1258.24 282.771C1256.38 287.507 1253.59 291.642 1249.86 295.208L1255.38 300.994C1259.95 296.636 1263.39 291.527 1265.68 285.697L1258.24 282.771ZM1249.79 295.273C1246.26 298.804 1241.63 301.842 1235.78 304.324L1238.9 311.688C1245.51 308.887 1251.06 305.322 1255.45 300.929L1249.79 295.273ZM1235.83 304.3C1230.17 306.602 1223.43 308.324 1215.56 309.421L1216.67 317.345C1225.03 316.178 1232.44 314.316 1238.85 311.712L1235.83 304.3ZM1212.11 313.383V317.062H1220.11V313.383H1212.11ZM1215.6 321.028C1223.93 322.116 1230.45 324.167 1235.32 327.022L1239.36 320.12C1233.29 316.56 1225.65 314.272 1216.63 313.096L1215.6 321.028ZM1235.37 327.051C1240.42 329.913 1244.45 333.853 1247.49 338.93L1254.35 334.814C1250.61 328.571 1245.58 323.644 1239.31 320.091L1235.37 327.051ZM1247.49 338.93C1250.65 344.185 1253.45 351.085 1255.84 359.729L1263.55 357.597C1261.04 348.507 1257.99 340.879 1254.35 334.814L1247.49 338.93ZM1255.85 359.769L1267.17 399.106L1274.86 396.894L1263.54 357.557L1255.85 359.769ZM1271.02 394H1231.68V402H1271.02V394ZM1235.57 397.058L1226.79 360.834L1219.02 362.718L1227.79 398.942L1235.57 397.058ZM1226.81 360.898C1225.02 352.955 1222.18 346.311 1218.12 341.181L1211.85 346.147C1214.95 350.073 1217.4 355.504 1219 362.654L1226.81 360.898ZM1218.18 341.264C1214.32 336.114 1209.34 332.428 1203.31 330.275L1200.62 337.809C1205.16 339.429 1208.85 342.158 1211.78 346.064L1218.18 341.264ZM1203.31 330.275C1197.48 328.191 1190.58 327.212 1182.72 327.212V335.212C1189.96 335.212 1195.89 336.12 1200.62 337.809L1203.31 330.275ZM1182.72 327.212H1150.46V335.212H1182.72V327.212ZM1146.46 331.212V398H1154.46V331.212H1146.46ZM1150.46 394H1114.8V402H1150.46V394ZM1150.46 307.761H1184.42V299.761H1150.46V307.761ZM1184.42 307.761C1198.97 307.761 1210.69 305.062 1219.01 299.086L1214.35 292.588C1207.96 297.177 1198.17 299.761 1184.42 299.761V307.761ZM1218.97 299.114C1227.8 292.935 1232 283.467 1232 271.499H1224C1224 281.417 1220.65 288.173 1214.39 292.56L1218.97 299.114ZM1232 271.499C1232 259.611 1228.05 250.152 1219.62 243.941L1214.87 250.381C1220.78 254.736 1224 261.502 1224 271.499H1232ZM1219.66 243.971C1211.66 237.916 1199.86 235.237 1184.98 235.237V243.237C1199.17 243.237 1208.87 245.841 1214.83 250.351L1219.66 243.971ZM1184.98 235.237H1150.46V243.237H1184.98V235.237ZM1146.46 239.237V303.761H1154.46V239.237H1146.46ZM1344.01 398L1345 394.124L1344.96 394.115L1344.92 394.106L1344.01 398ZM1319.39 387.246L1316.94 390.413L1316.99 390.452L1317.05 390.489L1319.39 387.246ZM1304.11 368.851L1300.51 370.603L1300.52 370.621L1300.53 370.64L1304.11 368.851ZM1298.45 343.098L1297.32 339.261L1294.39 340.124L1294.45 343.175L1298.45 343.098ZM1330.14 333.759L1334.14 333.842L1334.25 328.377L1329.01 329.922L1330.14 333.759ZM1335.8 356.399L1332.46 358.594L1332.47 358.618L1332.49 358.642L1335.8 356.399ZM1352.78 369.417L1351.35 373.15L1351.36 373.156L1351.38 373.162L1352.78 369.417ZM1401.74 370.266L1400.41 366.494L1400.39 366.5L1400.37 366.507L1401.74 370.266ZM1416.17 361.21L1419.22 363.801L1419.25 363.764L1419.28 363.727L1416.17 361.21ZM1415.04 334.891L1412.44 337.928L1412.48 337.965L1412.53 338L1415.04 334.891ZM1398.91 326.684L1397.61 330.468L1397.68 330.49L1397.74 330.509L1398.91 326.684ZM1376.27 320.458L1375.39 324.361L1375.4 324.363L1376.27 320.458ZM1349.1 313.666L1348.01 317.515L1348.03 317.518L1348.04 317.521L1349.1 313.666ZM1325.33 303.761L1323.33 307.223L1325.33 303.761ZM1308.07 287.913L1304.68 290.042L1304.72 290.099L1304.75 290.154L1308.07 287.913ZM1310.33 233.86L1313.61 236.149L1313.62 236.131L1313.64 236.113L1310.33 233.86ZM1334.95 214.616L1336.51 218.303L1336.52 218.296L1336.54 218.289L1334.95 214.616ZM1413.06 214.333L1411.55 218.038L1411.58 218.049L1411.61 218.06L1413.06 214.333ZM1449 263.575L1450.07 267.429L1453.1 266.586L1453 263.444L1449 263.575ZM1416.46 272.631H1412.46V277.896L1417.53 276.485L1416.46 272.631ZM1413.34 256.5L1409.63 257.986L1409.67 258.077L1409.71 258.167L1413.34 256.5ZM1404.85 244.897L1402.26 247.945L1402.31 247.983L1402.35 248.02L1404.85 244.897ZM1391.27 237.822L1390.13 241.657L1390.15 241.663L1390.17 241.668L1391.27 237.822ZM1353.35 238.671L1352.01 234.901L1351.99 234.908L1351.97 234.915L1353.35 238.671ZM1340.33 247.444L1343.39 250.021L1343.42 249.982L1343.45 249.943L1340.33 247.444ZM1360.42 283.385L1359.25 287.208L1359.3 287.226L1359.36 287.242L1360.42 283.385ZM1385.04 289.611L1384.13 293.506L1384.18 293.516L1384.22 293.526L1385.04 289.611ZM1409.38 295.837L1408.22 299.666L1408.24 299.669L1408.25 299.673L1409.38 295.837ZM1432.3 305.459L1434.28 301.98L1432.3 305.459ZM1449 321.59L1445.59 323.676L1445.62 323.732L1445.66 323.787L1449 321.59ZM1446.74 375.643L1443.47 373.339L1446.74 375.643ZM1420.42 394.887L1418.97 391.157L1420.42 394.887ZM1376.84 397.679C1364.83 397.679 1354.23 396.478 1345 394.124L1343.02 401.876C1353.03 404.428 1364.31 405.679 1376.84 405.679V397.679ZM1344.92 394.106C1335.73 391.942 1328.02 388.549 1321.73 384.003L1317.05 390.489C1324.34 395.753 1333.05 399.53 1343.09 401.894L1344.92 394.106ZM1321.83 384.079C1315.68 379.338 1310.99 373.67 1307.68 367.062L1300.53 370.64C1304.39 378.37 1309.88 384.966 1316.94 390.413L1321.83 384.079ZM1307.7 367.099C1304.42 360.357 1302.62 352.365 1302.45 343.021L1294.45 343.175C1294.64 353.453 1296.63 362.629 1300.51 370.603L1307.7 367.099ZM1299.58 346.935L1331.27 337.596L1329.01 329.922L1297.32 339.261L1299.58 346.935ZM1326.14 333.676C1325.94 343.333 1327.95 351.727 1332.46 358.594L1339.15 354.204C1335.73 348.997 1333.96 342.297 1334.14 333.842L1326.14 333.676ZM1332.49 358.642C1336.96 365.245 1343.32 370.062 1351.35 373.15L1354.22 365.684C1347.53 363.112 1342.56 359.25 1339.11 354.156L1332.49 358.642ZM1351.38 373.162C1359.45 376.19 1368.52 377.662 1378.53 377.662V369.662C1369.3 369.662 1361.21 368.304 1354.19 365.672L1351.38 373.162ZM1378.53 377.662C1388.08 377.662 1396.31 376.498 1403.11 374.025L1400.37 366.507C1394.72 368.562 1387.48 369.662 1378.53 369.662V377.662ZM1403.07 374.038C1409.91 371.623 1415.42 368.277 1419.22 363.801L1413.13 358.619C1410.52 361.69 1406.4 364.381 1400.41 366.494L1403.07 374.038ZM1419.28 363.727C1423.04 359.083 1424.98 353.769 1424.98 347.909H1416.98C1416.98 351.86 1415.72 355.413 1413.06 358.693L1419.28 363.727ZM1424.98 347.909C1424.98 341.332 1422.53 335.81 1417.56 331.782L1412.53 338C1415.47 340.386 1416.98 343.543 1416.98 347.909H1424.98ZM1417.64 331.854C1413.14 327.995 1407.22 325.04 1400.08 322.859L1397.74 330.509C1404.19 332.478 1409.02 334.995 1412.44 337.928L1417.64 331.854ZM1400.21 322.9C1393.43 320.578 1385.74 318.465 1377.14 316.553L1375.4 324.363C1383.78 326.225 1391.18 328.262 1397.61 330.468L1400.21 322.9ZM1377.15 316.555C1367.96 314.494 1358.97 312.245 1350.17 309.811L1348.04 317.521C1356.97 319.992 1366.09 322.272 1375.39 324.361L1377.15 316.555ZM1350.19 309.817C1341.8 307.447 1334.19 304.269 1327.33 300.299L1323.33 307.223C1330.81 311.554 1339.04 314.98 1348.01 317.515L1350.19 309.817ZM1327.33 300.299C1320.65 296.43 1315.36 291.552 1311.38 285.672L1304.75 290.154C1309.46 297.104 1315.67 302.791 1323.33 307.223L1327.33 300.299ZM1311.45 285.784C1307.8 279.976 1305.84 272.465 1305.84 263.009H1297.84C1297.84 273.552 1300.03 282.644 1304.68 290.042L1311.45 285.784ZM1305.84 263.009C1305.84 252.385 1308.49 243.496 1313.61 236.149L1307.05 231.571C1300.86 240.449 1297.84 250.993 1297.84 263.009H1305.84ZM1313.64 236.113C1318.8 228.546 1326.34 222.581 1336.51 218.303L1333.4 210.929C1322.05 215.707 1313.19 222.571 1307.03 231.607L1313.64 236.113ZM1336.54 218.289C1346.86 213.837 1359.32 211.541 1374.01 211.541V203.541C1358.51 203.541 1344.93 205.961 1333.37 210.943L1336.54 218.289ZM1374.01 211.541C1388.51 211.541 1401 213.746 1411.55 218.038L1414.57 210.628C1402.86 205.864 1389.31 203.541 1374.01 203.541V211.541ZM1411.61 218.06C1422.13 222.161 1430.15 228.145 1435.87 235.942L1442.32 231.212C1435.59 222.029 1426.26 215.183 1414.51 210.606L1411.61 218.06ZM1435.87 235.942C1441.58 243.722 1444.65 252.924 1445 263.706L1453 263.444C1452.6 251.209 1449.07 240.412 1442.32 231.212L1435.87 235.942ZM1447.93 259.721L1415.38 268.777L1417.53 276.485L1450.07 267.429L1447.93 259.721ZM1420.46 272.631C1420.46 265.969 1419.35 259.998 1416.98 254.833L1409.71 258.167C1411.49 262.058 1412.46 266.841 1412.46 272.631H1420.46ZM1417.06 255.014C1414.93 249.69 1411.69 245.246 1407.35 241.774L1402.35 248.02C1405.56 250.585 1407.99 253.877 1409.63 257.986L1417.06 255.014ZM1407.44 241.849C1403.19 238.234 1398.14 235.625 1392.37 233.976L1390.17 241.668C1394.97 243.038 1398.97 245.145 1402.26 247.945L1407.44 241.849ZM1392.41 233.987C1386.87 232.345 1380.62 231.558 1373.72 231.558V239.558C1380.03 239.558 1385.49 240.28 1390.13 241.657L1392.41 233.987ZM1373.72 231.558C1365.64 231.558 1358.38 232.641 1352.01 234.901L1354.69 242.441C1360.01 240.55 1366.34 239.558 1373.72 239.558V231.558ZM1351.97 234.915C1345.79 237.181 1340.78 240.476 1337.21 244.945L1343.45 249.943C1345.92 246.866 1349.58 244.312 1354.72 242.426L1351.97 234.915ZM1337.27 244.867C1333.61 249.209 1331.8 254.379 1331.8 260.179H1339.8C1339.8 256.169 1341.01 252.848 1343.39 250.021L1337.27 244.867ZM1331.8 260.179C1331.8 267.374 1334.58 273.366 1340.11 277.748L1345.08 271.476C1341.56 268.689 1339.8 265.058 1339.8 260.179H1331.8ZM1340.11 277.748C1345.13 281.725 1351.56 284.844 1359.25 287.208L1361.6 279.562C1354.57 277.398 1349.11 274.669 1345.08 271.476L1340.11 277.748ZM1359.36 287.242C1366.97 289.333 1375.22 291.421 1384.13 293.506L1385.96 285.716C1377.13 283.651 1368.97 281.588 1361.48 279.528L1359.36 287.242ZM1384.22 293.526C1392.22 295.2 1400.22 297.246 1408.22 299.666L1410.54 292.008C1402.32 289.523 1394.09 287.418 1385.86 285.696L1384.22 293.526ZM1408.25 299.673C1416.28 302.046 1423.64 305.138 1430.33 308.938L1434.28 301.98C1427.01 297.856 1419.09 294.533 1410.52 292.001L1408.25 299.673ZM1430.33 308.938C1436.73 312.568 1441.79 317.468 1445.59 323.676L1452.41 319.504C1447.91 312.128 1441.84 306.274 1434.28 301.98L1430.33 308.938ZM1445.66 323.787C1449.46 329.573 1451.51 337.146 1451.51 346.777H1459.51C1459.51 336.032 1457.22 326.814 1452.34 319.393L1445.66 323.787ZM1451.51 346.777C1451.51 356.962 1448.8 365.765 1443.47 373.339L1450.01 377.947C1456.37 368.918 1459.51 358.477 1459.51 346.777H1451.51ZM1443.47 373.339C1438.17 380.858 1430.11 386.846 1418.97 391.157L1421.86 398.617C1434.12 393.872 1443.61 387.031 1450.01 377.947L1443.47 373.339ZM1418.97 391.157C1407.88 395.452 1393.88 397.679 1376.84 397.679V405.679C1394.51 405.679 1409.57 403.378 1421.86 398.617L1418.97 391.157Z" fill="#8EFF01" fill-opacity="0.16" mask="url(#path-1-outside-1_1_3489)"/>
<mask id="path-3-outside-2_1_3489" maskUnits="userSpaceOnUse" x="162" y="47" width="298" height="122" fill="black">
<rect fill="white" x="162" y="47" width="298" height="122"/>
<path d="M166.346 163V52.9218H232.349V64.7466H179.675V101.941H227.405V113.766H179.675V163H166.346ZM349.571 107.961C349.571 119.571 347.475 129.604 343.283 138.06C339.09 146.517 333.339 153.038 326.029 157.625C318.719 162.212 310.37 164.505 300.982 164.505C291.594 164.505 283.245 162.212 275.935 157.625C268.625 153.038 262.874 146.517 258.682 138.06C254.489 129.604 252.393 119.571 252.393 107.961C252.393 96.3511 254.489 86.3179 258.682 77.8614C262.874 69.4049 268.625 62.8833 275.935 58.2967C283.245 53.7101 291.594 51.4168 300.982 51.4168C310.37 51.4168 318.719 53.7101 326.029 58.2967C333.339 62.8833 339.09 69.4049 343.283 77.8614C347.475 86.3179 349.571 96.3511 349.571 107.961ZM336.672 107.961C336.672 98.4294 335.077 90.3849 331.888 83.8275C328.735 77.2701 324.453 72.3073 319.042 68.939C313.667 65.5708 307.647 63.8866 300.982 63.8866C294.317 63.8866 288.28 65.5708 282.869 68.939C277.494 72.3073 273.212 77.2701 270.023 83.8275C266.869 90.3849 265.293 98.4294 265.293 107.961C265.293 117.492 266.869 125.537 270.023 132.094C273.212 138.652 277.494 143.614 282.869 146.983C288.28 150.351 294.317 152.035 300.982 152.035C307.647 152.035 313.667 150.351 319.042 146.983C324.453 143.614 328.735 138.652 331.888 132.094C335.077 125.537 336.672 117.492 336.672 107.961ZM373.498 163V52.9218H410.693C419.293 52.9218 426.352 54.3909 431.87 57.3292C437.388 60.2317 441.473 64.227 444.125 69.3153C446.776 74.4035 448.102 80.1905 448.102 86.6762C448.102 93.162 446.776 98.9131 444.125 103.93C441.473 108.946 437.406 112.888 431.924 115.755C426.441 118.585 419.436 120.001 410.908 120.001H380.808V107.961H410.478C416.354 107.961 421.084 107.101 424.668 105.381C428.287 103.661 430.902 101.224 432.515 98.0711C434.163 94.8819 434.987 91.0837 434.987 86.6762C434.987 82.2688 434.163 78.4168 432.515 75.1202C430.867 71.8236 428.233 69.2794 424.614 67.4878C420.995 65.6603 416.211 64.7466 410.263 64.7466H386.828V163H373.498ZM425.313 113.551L452.402 163H436.922L410.263 113.551H425.313Z"/>
</mask>
<path d="M166.346 163H162.346V167H166.346V163ZM166.346 52.9218V48.9218H162.346V52.9218H166.346ZM232.349 52.9218H236.349V48.9218H232.349V52.9218ZM232.349 64.7466V68.7466H236.349V64.7466H232.349ZM179.675 64.7466V60.7466H175.675V64.7466H179.675ZM179.675 101.941H175.675V105.941H179.675V101.941ZM227.405 101.941H231.405V97.941H227.405V101.941ZM227.405 113.766V117.766H231.405V113.766H227.405ZM179.675 113.766V109.766H175.675V113.766H179.675ZM179.675 163V167H183.675V163H179.675ZM170.346 163V52.9218H162.346V163H170.346ZM166.346 56.9218H232.349V48.9218H166.346V56.9218ZM228.349 52.9218V64.7466H236.349V52.9218H228.349ZM232.349 60.7466H179.675V68.7466H232.349V60.7466ZM175.675 64.7466V101.941H183.675V64.7466H175.675ZM179.675 105.941H227.405V97.941H179.675V105.941ZM223.405 101.941V113.766H231.405V101.941H223.405ZM227.405 109.766H179.675V117.766H227.405V109.766ZM175.675 113.766V163H183.675V113.766H175.675ZM179.675 159H166.346V167H179.675V159ZM343.283 138.06L339.699 136.284L339.699 136.284L343.283 138.06ZM326.029 157.625L328.155 161.013L328.155 161.013L326.029 157.625ZM275.935 157.625L273.809 161.013L273.809 161.013L275.935 157.625ZM258.682 138.06L262.265 136.284L262.265 136.284L258.682 138.06ZM258.682 77.8614L255.098 76.0847L258.682 77.8614ZM326.029 58.2967L328.155 54.9085L328.155 54.9085L326.029 58.2967ZM343.283 77.8614L339.699 79.6381L339.699 79.6381L343.283 77.8614ZM331.888 83.8275L328.283 85.561L328.287 85.569L328.291 85.577L331.888 83.8275ZM319.042 68.939L316.918 72.3285L316.928 72.3348L319.042 68.939ZM282.869 68.939L280.755 65.5432L280.745 65.5496L282.869 68.939ZM270.023 83.8275L266.426 82.0781L266.422 82.0861L266.418 82.0941L270.023 83.8275ZM270.023 132.094L266.418 133.828L266.422 133.836L266.426 133.844L270.023 132.094ZM282.869 146.983L280.745 150.372L280.755 150.379L282.869 146.983ZM319.042 146.983L316.928 143.587L316.918 143.593L319.042 146.983ZM331.888 132.094L328.291 130.345L328.287 130.353L328.283 130.361L331.888 132.094ZM345.571 107.961C345.571 119.093 343.562 128.492 339.699 136.284L346.867 139.837C351.389 130.716 353.571 120.048 353.571 107.961H345.571ZM339.699 136.284C335.803 144.143 330.53 150.079 323.903 154.237L328.155 161.013C336.149 155.998 342.378 148.891 346.867 139.837L339.699 136.284ZM323.903 154.237C317.286 158.389 309.687 160.505 300.982 160.505V168.505C311.054 168.505 320.153 166.035 328.155 161.013L323.903 154.237ZM300.982 160.505C292.278 160.505 284.678 158.389 278.061 154.237L273.809 161.013C281.812 166.035 290.911 168.505 300.982 168.505V160.505ZM278.061 154.237C271.435 150.079 266.162 144.143 262.265 136.284L255.098 139.837C259.586 148.891 265.816 155.998 273.809 161.013L278.061 154.237ZM262.265 136.284C258.403 128.492 256.393 119.093 256.393 107.961H248.393C248.393 120.048 250.576 130.716 255.098 139.837L262.265 136.284ZM256.393 107.961C256.393 96.8283 258.403 87.4299 262.265 79.6381L255.098 76.0847C250.576 85.2059 248.393 95.8738 248.393 107.961H256.393ZM262.265 79.6381C266.162 71.7788 271.435 65.8428 278.061 61.685L273.809 54.9085C265.816 59.9238 259.586 67.0309 255.098 76.0847L262.265 79.6381ZM278.061 61.685C284.678 57.5331 292.278 55.4168 300.982 55.4168V47.4168C290.911 47.4168 281.812 49.8872 273.809 54.9085L278.061 61.685ZM300.982 55.4168C309.687 55.4168 317.286 57.5331 323.903 61.685L328.155 54.9085C320.153 49.8872 311.054 47.4168 300.982 47.4168V55.4168ZM323.903 61.685C330.53 65.8428 335.803 71.7788 339.699 79.6381L346.867 76.0847C342.378 67.0309 336.149 59.9238 328.155 54.9085L323.903 61.685ZM339.699 79.6381C343.562 87.4299 345.571 96.8283 345.571 107.961H353.571C353.571 95.8738 351.389 85.2059 346.867 76.0847L339.699 79.6381ZM340.672 107.961C340.672 98.0021 339.008 89.3214 335.485 82.0781L328.291 85.577C331.146 91.4485 332.672 98.8567 332.672 107.961H340.672ZM335.493 82.0941C332.058 74.9517 327.299 69.3674 321.156 65.5433L316.928 72.3348C321.606 75.2472 325.411 79.5886 328.283 85.561L335.493 82.0941ZM321.166 65.5496C315.121 61.7617 308.359 59.8866 300.982 59.8866V67.8866C306.936 67.8866 312.213 69.3799 316.918 72.3285L321.166 65.5496ZM300.982 59.8866C293.606 59.8866 286.83 61.7616 280.755 65.5433L284.983 72.3348C289.729 69.38 295.029 67.8866 300.982 67.8866V59.8866ZM280.745 65.5496C274.644 69.3725 269.892 74.9498 266.426 82.0781L273.62 85.577C276.531 79.5905 280.343 75.2422 284.993 72.3285L280.745 65.5496ZM266.418 82.0941C262.937 89.3329 261.293 98.0077 261.293 107.961H269.293C269.293 98.8511 270.802 91.4369 273.628 85.561L266.418 82.0941ZM261.293 107.961C261.293 117.914 262.937 126.589 266.418 133.828L273.628 130.361C270.802 124.485 269.293 117.071 269.293 107.961H261.293ZM266.426 133.844C269.892 140.972 274.644 146.549 280.745 150.372L284.993 143.593C280.343 140.68 276.531 136.331 273.62 130.345L266.426 133.844ZM280.755 150.379C286.83 154.16 293.606 156.035 300.982 156.035V148.035C295.029 148.035 289.729 146.542 284.983 143.587L280.755 150.379ZM300.982 156.035C308.359 156.035 315.121 154.16 321.166 150.372L316.918 143.593C312.213 146.542 306.936 148.035 300.982 148.035V156.035ZM321.156 150.379C327.299 146.554 332.058 140.97 335.493 133.828L328.283 130.361C325.411 136.333 321.606 140.675 316.928 143.587L321.156 150.379ZM335.485 133.844C339.008 126.6 340.672 117.92 340.672 107.961H332.672C332.672 117.065 331.146 124.473 328.291 130.345L335.485 133.844ZM373.498 163H369.498V167H373.498V163ZM373.498 52.9218V48.9218H369.498V52.9218H373.498ZM431.87 57.3292L429.99 60.8599L429.999 60.8647L430.008 60.8694L431.87 57.3292ZM444.125 69.3153L440.578 71.1638L440.578 71.1638L444.125 69.3153ZM444.125 103.93L440.588 102.06L440.588 102.06L444.125 103.93ZM431.924 115.755L433.759 119.309L433.768 119.304L433.777 119.299L431.924 115.755ZM380.808 120.001H376.808V124.001H380.808V120.001ZM380.808 107.961V103.961H376.808V107.961H380.808ZM424.668 105.381L422.951 101.768L422.944 101.771L422.937 101.775L424.668 105.381ZM432.515 98.0711L428.962 96.2345L428.958 96.2422L428.954 96.2499L432.515 98.0711ZM424.614 67.4878L422.811 71.0584L422.825 71.0656L422.839 71.0726L424.614 67.4878ZM386.828 64.7466V60.7466H382.828V64.7466H386.828ZM386.828 163V167H390.828V163H386.828ZM425.313 113.551L428.821 111.629L427.682 109.551H425.313V113.551ZM452.402 163V167H459.154L455.91 161.078L452.402 163ZM436.922 163L433.401 164.898L434.535 167H436.922V163ZM410.263 113.551V109.551H403.562L406.742 115.449L410.263 113.551ZM377.498 163V52.9218H369.498V163H377.498ZM373.498 56.9218H410.693V48.9218H373.498V56.9218ZM410.693 56.9218C418.871 56.9218 425.227 58.3236 429.99 60.8599L433.75 53.7985C427.477 50.4583 419.714 48.9218 410.693 48.9218V56.9218ZM430.008 60.8694C434.871 63.4272 438.335 66.8609 440.578 71.1638L447.672 67.4667C444.611 61.5932 439.906 57.0362 433.732 53.789L430.008 60.8694ZM440.578 71.1638C442.895 75.6106 444.102 80.7493 444.102 86.6762H452.102C452.102 79.6317 450.658 73.1965 447.672 67.4667L440.578 71.1638ZM444.102 86.6762C444.102 92.6044 442.894 97.6976 440.588 102.06L447.661 105.799C450.658 100.129 452.102 93.7195 452.102 86.6762H444.102ZM440.588 102.06C438.349 106.296 434.903 109.683 430.07 112.21L433.777 119.299C439.909 116.093 444.597 111.596 447.661 105.799L440.588 102.06ZM430.089 112.2C425.348 114.648 419.028 116.001 410.908 116.001V124.001C419.844 124.001 427.534 122.523 433.759 119.309L430.089 112.2ZM410.908 116.001H380.808V124.001H410.908V116.001ZM384.808 120.001V107.961H376.808V120.001H384.808ZM380.808 111.961H410.478V103.961H380.808V111.961ZM410.478 111.961C416.69 111.961 422.079 111.06 426.399 108.987L422.937 101.775C420.089 103.142 416.018 103.961 410.478 103.961V111.961ZM426.385 108.994C430.689 106.948 434.011 103.931 436.076 99.8922L428.954 96.2499C427.794 98.5176 425.884 100.374 422.951 101.768L426.385 108.994ZM436.068 99.9077C438.07 96.0358 438.987 91.5794 438.987 86.6762H430.987C430.987 90.5879 430.257 93.728 428.962 96.2345L436.068 99.9077ZM438.987 86.6762C438.987 81.7683 438.068 77.2819 436.093 73.3313L428.937 76.909C430.259 79.5517 430.987 82.7693 430.987 86.6762H438.987ZM436.093 73.3313C434.017 69.1804 430.709 66.042 426.388 63.903L422.839 71.0726C425.757 72.5169 427.716 74.4667 428.937 76.909L436.093 73.3313ZM426.417 63.9172C422.039 61.7066 416.567 60.7466 410.263 60.7466V68.7466C415.855 68.7466 419.95 69.614 422.811 71.0584L426.417 63.9172ZM410.263 60.7466H386.828V68.7466H410.263V60.7466ZM382.828 64.7466V163H390.828V64.7466H382.828ZM386.828 159H373.498V167H386.828V159ZM421.805 115.473L448.894 164.922L455.91 161.078L428.821 111.629L421.805 115.473ZM452.402 159H436.922V167H452.402V159ZM440.443 161.102L413.784 111.653L406.742 115.449L433.401 164.898L440.443 161.102ZM410.263 117.551H425.313V109.551H410.263V117.551Z" fill="#8EFF01" fill-opacity="0.16" mask="url(#path-3-outside-2_1_3489)"/>
</svg>
