<svg width="131" height="131" viewBox="0 0 131 131" fill="none" xmlns="http://www.w3.org/2000/svg">
<g clip-path="url(#clip0_1_3557)">
<path d="M55.97 115.367C55.7409 115.367 55.5176 115.295 55.3317 115.161C55.1458 115.027 55.0068 114.838 54.9344 114.621C54.8619 114.404 54.8597 114.169 54.928 113.95C54.9963 113.731 55.1317 113.54 55.315 113.402L64.485 106.595L50.4156 114.719C50.1741 114.861 49.8872 114.904 49.6144 114.841C49.3416 114.777 49.1038 114.611 48.9501 114.377C48.7964 114.142 48.7386 113.858 48.7887 113.582C48.8388 113.307 48.9929 113.061 49.2192 112.896L63.9829 101.962L51.2147 109.333C50.9701 109.475 50.68 109.516 50.4054 109.448C50.1308 109.381 49.8932 109.209 49.7426 108.97C49.5921 108.73 49.5403 108.442 49.5982 108.165C49.6562 107.888 49.8193 107.644 50.0532 107.486L56.363 103.169L49.8567 106.927C49.6135 107.067 49.3257 107.108 49.0531 107.042C48.7804 106.975 48.5437 106.806 48.3923 106.57C48.2408 106.334 48.1862 106.048 48.2398 105.773C48.2933 105.497 48.4509 105.253 48.6799 105.09L60.6751 96.6016L48.6668 103.538C48.4236 103.678 48.1358 103.719 47.8631 103.653C47.5904 103.587 47.3538 103.418 47.2024 103.181C47.0509 102.945 46.9963 102.66 47.0498 102.384C47.1034 102.109 47.261 101.864 47.49 101.702L59.7166 93.0668L50.3108 98.4945C50.0673 98.6258 49.783 98.6597 49.5154 98.5893C49.2479 98.519 49.017 98.3497 48.8695 98.1156C48.7219 97.8816 48.6688 97.6003 48.7207 97.3285C48.7727 97.0568 48.9258 96.8149 49.1493 96.6518L54.5378 92.962L51.813 94.534C51.5708 94.6697 51.2861 94.7081 51.0166 94.6413C50.7472 94.5745 50.5133 94.4076 50.3625 94.1746C50.2118 93.9415 50.1555 93.6597 50.2051 93.3866C50.2547 93.1135 50.4065 92.8695 50.6296 92.7043L58.5922 86.9644L51.3086 91.1651C51.0678 91.3011 50.7843 91.3406 50.5155 91.2756C50.2467 91.2107 50.0125 91.0462 49.8603 90.8152C49.7081 90.5843 49.6493 90.3043 49.6956 90.0316C49.7419 89.759 49.89 89.514 50.11 89.3464L58.7123 82.9186L50.8523 87.4512C50.6086 87.5911 50.3204 87.6316 50.0476 87.5643C49.7748 87.4971 49.5384 87.3272 49.3877 87.0901C49.2369 86.8531 49.1834 86.567 49.2382 86.2914C49.2931 86.0158 49.452 85.772 49.682 85.6107L50.7388 84.8705C50.4945 84.9543 50.2285 84.9488 49.988 84.855C49.7474 84.7612 49.5479 84.5852 49.4248 84.3582C49.3018 84.1312 49.2632 83.8679 49.3159 83.6152C49.3685 83.3624 49.5091 83.1365 49.7126 82.9776L54.8718 78.9559L52.0051 80.6109C51.7711 80.746 51.4953 80.7895 51.2311 80.7331C50.9669 80.6766 50.733 80.5242 50.5746 80.3053C50.4163 80.0864 50.3448 79.8165 50.3739 79.5479C50.403 79.2793 50.5306 79.031 50.7322 78.8511L54.5836 75.4211C54.3361 75.336 54.1281 75.1637 53.9985 74.9364C53.8544 74.6858 53.8156 74.3884 53.8905 74.1093C53.9654 73.8301 54.1479 73.5921 54.398 73.4473L61.3105 69.4562C61.5426 69.3332 61.8113 69.2979 62.0672 69.357C62.3232 69.4161 62.5493 69.5655 62.704 69.7778C62.8588 69.9901 62.9317 70.2511 62.9096 70.5128C62.8874 70.7746 62.7716 71.0196 62.5833 71.2029L60.1293 73.3862L67.4063 69.2117C67.6457 69.0731 67.9287 69.0305 68.1982 69.0925C68.4677 69.1545 68.7036 69.3165 68.8583 69.5458C69.013 69.775 69.0749 70.0545 69.0315 70.3276C68.9882 70.6007 68.8427 70.8472 68.6246 71.0173L63.461 75.0412L71.3734 70.4736C71.6173 70.3288 71.9079 70.2846 72.1838 70.3503C72.4597 70.4161 72.6992 70.5866 72.8515 70.8258C73.0039 71.065 73.0572 71.3541 73.0002 71.6319C72.9431 71.9097 72.7802 72.1544 72.5459 72.3142L71.6726 72.9277L73.6092 71.812C73.85 71.676 74.1334 71.6365 74.4023 71.7015C74.6711 71.7664 74.9053 71.9309 75.0574 72.1619C75.2096 72.3928 75.2685 72.6729 75.2222 72.9455C75.1758 73.2182 75.0278 73.4631 74.8078 73.6307L66.212 80.0541L76.2554 74.2552C76.4975 74.1194 76.7823 74.0811 77.0517 74.1478C77.3211 74.2146 77.555 74.3815 77.7058 74.6146C77.8565 74.8477 77.9128 75.1294 77.8632 75.4025C77.8136 75.6757 77.6618 75.9196 77.4387 76.0848L69.4739 81.8248L78.0785 76.8533C78.3225 76.7176 78.6093 76.6806 78.8798 76.7498C79.1504 76.8191 79.3841 76.9894 79.5329 77.2258C79.6816 77.4621 79.7342 77.7464 79.6797 78.0203C79.6253 78.2942 79.4679 78.5368 79.24 78.6982L73.8537 82.3859L79.2051 79.2965C79.4482 79.1563 79.736 79.1151 80.0087 79.1815C80.2814 79.2479 80.518 79.4168 80.6695 79.6531C80.8209 79.8894 80.8755 80.175 80.822 80.4505C80.7684 80.726 80.6108 80.9703 80.3819 81.1327L68.1552 89.7699L80.0587 82.899C80.3019 82.7588 80.5897 82.7176 80.8624 82.784C81.1351 82.8504 81.3717 83.0193 81.5232 83.2556C81.6746 83.4919 81.7292 83.7775 81.6757 84.053C81.6221 84.3285 81.4645 84.5728 81.2356 84.7352L69.2272 93.2262L79.9976 87.0102C80.2418 86.8706 80.5305 86.8307 80.8035 86.8987C81.0765 86.9668 81.3126 87.1376 81.4627 87.3755C81.6128 87.6135 81.6652 87.9002 81.6091 88.1758C81.5529 88.4515 81.3925 88.6948 81.1613 88.8551L74.8886 93.1497L79.5195 90.4773C79.761 90.3355 80.0479 90.2919 80.3206 90.3556C80.5934 90.4193 80.8313 90.5855 80.985 90.8197C81.1387 91.0539 81.1965 91.3382 81.1464 91.6138C81.0963 91.8894 80.9422 92.1353 80.7159 92.3004L65.9544 103.217L79.8055 95.2217C80.0466 95.0846 80.3309 95.0445 80.6005 95.1094C80.8702 95.1743 81.105 95.3395 81.2573 95.5713C81.4097 95.8031 81.468 96.0842 81.4206 96.3574C81.3732 96.6307 81.2235 96.8757 81.0019 97.0426L71.8319 103.85L81.6788 98.1736C81.9157 98.0392 82.1943 97.9982 82.4598 98.0587C82.7254 98.1192 82.9587 98.2768 83.1141 98.5005C83.2694 98.7242 83.3355 98.9979 83.2994 99.2679C83.2633 99.5378 83.1276 99.7845 82.9189 99.9596L74.7139 106.708L82.2814 102.342C82.5159 102.206 82.7925 102.162 83.0575 102.219C83.3226 102.275 83.557 102.429 83.7152 102.649C83.8735 102.869 83.9442 103.14 83.9136 103.409C83.8831 103.678 83.7534 103.927 83.5499 104.106L79.2553 107.885L79.7269 107.614C79.9419 107.49 80.1928 107.443 80.4381 107.481C80.6834 107.519 80.9086 107.639 81.0764 107.822C81.2443 108.005 81.3448 108.239 81.3614 108.487C81.3781 108.735 81.3098 108.98 81.1679 109.184L79.9452 110.931C80.2026 110.847 80.4818 110.863 80.7286 110.973C80.9754 111.084 81.1723 111.283 81.2811 111.53C81.3899 111.778 81.4028 112.058 81.3173 112.314C81.2318 112.571 81.0541 112.787 80.8185 112.92L76.834 115.217C76.6192 115.341 76.3685 115.388 76.1233 115.351C75.878 115.314 75.6528 115.194 75.4847 115.011C75.3168 114.829 75.2162 114.594 75.1995 114.346C75.1828 114.099 75.2511 113.853 75.393 113.649L76.5741 111.955L70.9215 115.217C70.6873 115.35 70.412 115.392 70.1487 115.335C69.8853 115.278 69.6525 115.125 69.495 114.906C69.3375 114.687 69.2665 114.418 69.2957 114.15C69.3249 113.882 69.4521 113.634 69.653 113.455L73.9345 109.673L64.3278 115.217C64.0909 115.351 63.8123 115.392 63.5468 115.332C63.2812 115.271 63.0479 115.114 62.8925 114.89C62.7372 114.666 62.6711 114.392 62.7072 114.122C62.7433 113.852 62.879 113.606 63.0877 113.431L71.2927 106.682L56.5115 115.217C56.3475 115.314 56.1607 115.366 55.97 115.367Z" fill="white"/>
<path d="M87.2262 129.847C86.9971 129.847 86.7738 129.775 86.5879 129.641C86.402 129.507 86.263 129.318 86.1906 129.101C86.1181 128.883 86.1159 128.649 86.1842 128.43C86.2525 128.211 86.3879 128.02 86.5712 127.882L94.2718 122.068L86.0669 126.804C85.8307 126.939 85.5527 126.981 85.2872 126.921C85.0217 126.862 84.788 126.706 84.6317 126.483C84.4754 126.26 84.4079 125.987 84.4424 125.718C84.4769 125.448 84.6108 125.2 84.818 125.024L91.4815 119.404L86.5232 122.267C86.2993 122.4 86.0352 122.448 85.7787 122.403C85.5221 122.359 85.2901 122.224 85.1243 122.023C84.9585 121.822 84.87 121.568 84.8747 121.308C84.8794 121.048 84.977 120.798 85.1499 120.603L87.3332 118.118C87.0782 118.181 86.8093 118.149 86.5757 118.029C86.3421 117.91 86.1595 117.71 86.0613 117.466C85.9632 117.223 85.9561 116.952 86.0413 116.704C86.1265 116.455 86.2984 116.246 86.5254 116.114L91.8942 113.014C92.1181 112.885 92.3803 112.84 92.6342 112.887C92.8881 112.933 93.1174 113.068 93.2813 113.267C93.4451 113.467 93.533 113.718 93.5293 113.976C93.5256 114.234 93.4305 114.483 93.261 114.677L91.1628 117.066L101.088 111.35C101.325 111.212 101.604 111.168 101.872 111.227C102.139 111.285 102.375 111.442 102.532 111.666C102.689 111.891 102.756 112.166 102.72 112.437C102.684 112.708 102.547 112.956 102.337 113.132L95.6626 118.754L108.481 111.35C108.722 111.212 109.006 111.171 109.276 111.235C109.545 111.299 109.781 111.463 109.934 111.694C110.087 111.926 110.146 112.206 110.1 112.48C110.054 112.753 109.905 112.999 109.684 113.167L101.994 118.974L115.206 111.35C115.45 111.212 115.737 111.174 116.009 111.242C116.28 111.31 116.515 111.48 116.665 111.717C116.815 111.954 116.868 112.239 116.813 112.513C116.759 112.788 116.6 113.031 116.372 113.193L114.514 114.479L118.387 112.243C118.628 112.105 118.913 112.064 119.184 112.129C119.454 112.194 119.69 112.359 119.843 112.592C119.995 112.825 120.053 113.107 120.004 113.381C119.956 113.655 119.804 113.9 119.581 114.066L114.188 118.035L122.232 113.391C122.467 113.255 122.745 113.212 123.011 113.27C123.277 113.329 123.512 113.484 123.669 113.706C123.826 113.929 123.895 114.202 123.861 114.472C123.827 114.742 123.694 114.99 123.487 115.166L115.671 121.826L126.085 115.813C126.316 115.671 126.592 115.621 126.858 115.671C127.125 115.722 127.363 115.869 127.526 116.086C127.689 116.302 127.767 116.571 127.742 116.841C127.718 117.111 127.594 117.363 127.395 117.546L121.415 123.26L127.991 119.463C128.207 119.339 128.459 119.293 128.705 119.332C128.951 119.371 129.177 119.492 129.344 119.677C129.511 119.862 129.61 120.098 129.625 120.346C129.639 120.595 129.568 120.841 129.424 121.044L126.389 125.271L128.245 124.201C128.444 124.086 128.674 124.037 128.902 124.061C129.131 124.085 129.346 124.18 129.517 124.333C129.688 124.486 129.807 124.69 129.856 124.914C129.905 125.138 129.882 125.373 129.79 125.583L129.249 126.823C129.435 126.903 129.595 127.033 129.711 127.199C129.827 127.365 129.895 127.559 129.907 127.761C129.919 127.963 129.875 128.165 129.779 128.343C129.683 128.521 129.54 128.669 129.365 128.771L127.762 129.694C127.563 129.809 127.333 129.857 127.105 129.834C126.877 129.81 126.662 129.715 126.491 129.562C126.32 129.409 126.201 129.207 126.152 128.983C126.103 128.759 126.125 128.525 126.216 128.315L126.461 127.751L123.092 129.694C122.876 129.818 122.624 129.865 122.378 129.826C122.132 129.787 121.907 129.665 121.739 129.481C121.572 129.296 121.473 129.06 121.458 128.811C121.444 128.563 121.515 128.316 121.66 128.114L124.694 123.887L114.625 129.69C114.394 129.831 114.118 129.882 113.852 129.831C113.586 129.781 113.348 129.633 113.184 129.417C113.021 129.201 112.944 128.931 112.968 128.662C112.992 128.392 113.116 128.14 113.315 127.956L119.297 122.243L106.4 129.69C106.165 129.824 105.888 129.865 105.623 129.806C105.358 129.747 105.125 129.592 104.969 129.371C104.813 129.149 104.744 128.877 104.777 128.608C104.81 128.339 104.942 128.092 105.147 127.915L112.961 121.258L98.3547 129.69C98.1132 129.828 97.8281 129.869 97.5575 129.804C97.287 129.739 97.0514 129.574 96.8989 129.341C96.7464 129.108 96.6886 128.826 96.7372 128.552C96.7858 128.278 96.9372 128.033 97.1604 127.867L102.558 123.889L92.5077 129.69C92.2643 129.823 91.9795 129.858 91.7111 129.789C91.4426 129.719 91.2107 129.55 91.0623 129.316C90.9139 129.082 90.8602 128.8 90.9121 128.528C90.964 128.255 91.1177 128.013 91.3418 127.849L93.1976 126.566L87.7699 129.69C87.6059 129.79 87.4182 129.844 87.2262 129.847Z" fill="black"/>
<path d="M6.69632 129.908C6.47006 129.908 6.24948 129.837 6.06508 129.706C5.88069 129.575 5.74159 129.39 5.66703 129.176C5.59247 128.963 5.58612 128.731 5.64887 128.514C5.71162 128.297 5.84037 128.104 6.0173 127.963L15.327 120.54L2.7947 127.773C2.55653 127.919 2.27135 127.969 1.9979 127.911C1.72446 127.853 1.48357 127.693 1.32489 127.463C1.1662 127.233 1.10178 126.95 1.14492 126.674C1.18806 126.398 1.33546 126.149 1.55675 125.978L8.9517 119.915L2.7947 123.476C2.57256 123.603 2.31308 123.647 2.06148 123.602C1.80989 123.557 1.58214 123.425 1.41793 123.229C1.25373 123.033 1.16347 122.786 1.16291 122.53C1.16234 122.274 1.2515 122.027 1.41484 121.83L4.62652 118.022C4.37394 118.149 4.08184 118.174 3.81175 118.09C3.54166 118.006 3.31465 117.821 3.17853 117.573C3.04241 117.325 3.00781 117.034 3.08201 116.761C3.15622 116.488 3.33343 116.255 3.57634 116.11L8.93642 113.014C9.1588 112.886 9.41904 112.841 9.6715 112.886C9.92396 112.931 10.1525 113.063 10.3171 113.26C10.4817 113.456 10.5719 113.705 10.5717 113.961C10.5715 114.217 10.4811 114.466 10.3163 114.662L7.1046 118.468L19.4448 111.35C19.682 111.213 19.9623 111.169 20.2299 111.229C20.4974 111.289 20.7327 111.447 20.889 111.673C21.0452 111.898 21.111 112.174 21.0732 112.445C21.0354 112.717 20.8968 112.964 20.6849 113.138L13.2813 119.21L26.89 111.35C27.1282 111.215 27.4085 111.174 27.6753 111.236C27.9422 111.298 28.1761 111.457 28.3305 111.684C28.485 111.91 28.5488 112.186 28.5092 112.457C28.4697 112.728 28.3297 112.974 28.117 113.147L18.8029 120.57L33.9771 111.811C34.2195 111.674 34.5052 111.634 34.7756 111.701C35.046 111.768 35.2807 111.935 35.4316 112.169C35.5826 112.404 35.6383 112.686 35.5875 112.96C35.5367 113.234 35.3831 113.478 35.1583 113.642L30.9553 116.649L37.5053 112.87C37.7441 112.733 38.0257 112.691 38.2938 112.753C38.5619 112.815 38.7967 112.976 38.9513 113.204C39.1058 113.431 39.1687 113.709 39.1273 113.981C39.0859 114.253 38.9433 114.499 38.728 114.671L31.4248 120.474L41.6864 114.553C41.926 114.413 42.2098 114.37 42.4801 114.432C42.7504 114.494 42.987 114.657 43.1418 114.887C43.2966 115.117 43.358 115.397 43.3136 115.671C43.2691 115.945 43.1222 116.191 42.9025 116.361L38.4616 119.797L43.8217 116.704C44.0583 116.563 44.3391 116.517 44.6081 116.575C44.8771 116.633 45.1144 116.79 45.2725 117.015C45.4306 117.24 45.4979 117.517 45.4608 117.789C45.4238 118.062 45.2852 118.31 45.0728 118.485L41.2912 121.671L44.4462 119.85C44.6627 119.726 44.915 119.681 45.1611 119.721C45.4072 119.76 45.6322 119.883 45.7988 120.069C45.9653 120.254 46.0634 120.491 46.0767 120.74C46.09 120.989 46.0177 121.235 45.8719 121.437L43.0947 125.232L44.9178 124.179C45.0988 124.074 45.3061 124.024 45.5151 124.033C45.7241 124.043 45.926 124.112 46.0967 124.233C46.2674 124.354 46.3997 124.522 46.4779 124.716C46.5561 124.91 46.5769 125.122 46.5378 125.328L46.1885 127.146C46.3811 127.22 46.5489 127.347 46.6723 127.512C46.7958 127.678 46.87 127.874 46.8862 128.08C46.9024 128.286 46.8601 128.492 46.764 128.674C46.6679 128.857 46.5221 129.008 46.3435 129.111L45.3151 129.703C45.1333 129.806 44.9261 129.855 44.7174 129.845C44.5088 129.835 44.3073 129.766 44.1361 129.646C43.9668 129.525 43.8356 129.358 43.7583 129.164C43.6809 128.971 43.6605 128.759 43.6995 128.555L43.9462 127.262L39.704 129.712C39.4873 129.836 39.2346 129.883 38.9878 129.844C38.7411 129.804 38.5153 129.681 38.3482 129.496C38.1811 129.31 38.0827 129.072 38.0696 128.823C38.0565 128.573 38.1294 128.327 38.2761 128.125L41.0467 124.319L31.702 129.716C31.4658 129.853 31.1867 129.897 30.9198 129.839C30.6529 129.78 30.4177 129.624 30.2605 129.4C30.1034 129.177 30.0358 128.902 30.071 128.631C30.1063 128.36 30.2419 128.113 30.451 127.937L34.2369 124.749L25.6149 129.725C25.3753 129.865 25.0915 129.908 24.8212 129.846C24.5509 129.784 24.3143 129.621 24.1595 129.391C24.0047 129.161 23.9433 128.881 23.9878 128.607C24.0322 128.333 24.1791 128.086 24.3988 127.917L28.8375 124.481L19.7286 129.734C19.4902 129.867 19.2104 129.906 18.9445 129.844C18.6786 129.781 18.4458 129.621 18.2922 129.395C18.1386 129.169 18.0754 128.894 18.1149 128.623C18.1545 128.353 18.294 128.107 18.506 127.935L25.807 122.131L12.6197 129.747C12.3772 129.884 12.0916 129.923 11.8211 129.856C11.5507 129.79 11.3161 129.622 11.1651 129.388C11.0142 129.154 10.9584 128.871 11.0093 128.597C11.0601 128.323 11.2136 128.079 11.4385 127.915L15.6502 124.902L7.24215 129.755C7.07722 129.854 6.88868 129.907 6.69632 129.908Z" fill="black"/>
<path d="M46.7432 129.908C46.5141 129.908 46.2908 129.836 46.1049 129.702C45.9191 129.568 45.7801 129.379 45.7076 129.162C45.6351 128.944 45.6329 128.71 45.7012 128.491C45.7696 128.272 45.9049 128.081 46.0882 127.943L52.8566 122.954L44.2783 127.895C44.0403 128.03 43.7606 128.07 43.4943 128.008C43.2281 127.947 42.9946 127.787 42.8402 127.562C42.6857 127.336 42.6215 127.061 42.6602 126.791C42.6988 126.52 42.8376 126.274 43.049 126.101L50.2955 120.256L44.2783 123.729C44.0569 123.856 43.7982 123.902 43.5469 123.858C43.2956 123.814 43.0676 123.683 42.9026 123.488C42.7376 123.294 42.646 123.048 42.6436 122.793C42.6412 122.537 42.7283 122.29 42.8897 122.092L46.3371 117.887L46.1559 117.992C46.0317 118.071 45.8927 118.124 45.7475 118.148C45.6022 118.171 45.4536 118.166 45.3106 118.131C45.1676 118.096 45.0331 118.032 44.9153 117.944C44.7975 117.855 44.6988 117.744 44.6251 117.617C44.5515 117.489 44.5043 117.348 44.4866 117.202C44.4688 117.056 44.4808 116.908 44.5218 116.766C44.5629 116.625 44.6321 116.493 44.7253 116.379C44.8185 116.265 44.9338 116.171 45.0643 116.103L50.4353 113.003C50.6566 112.876 50.9154 112.83 51.1667 112.874C51.418 112.918 51.6459 113.049 51.8109 113.244C51.9759 113.438 52.0676 113.685 52.0699 113.94C52.0723 114.195 51.9852 114.443 51.8239 114.64L48.3764 118.843L61.3738 111.35C61.6118 111.213 61.8927 111.171 62.1604 111.232C62.4282 111.292 62.6633 111.452 62.8186 111.678C62.974 111.905 63.0383 112.182 62.9988 112.453C62.9592 112.725 62.8187 112.972 62.6052 113.145L55.3587 118.989L68.5897 111.348C68.8311 111.209 69.1163 111.169 69.3868 111.233C69.6574 111.298 69.893 111.464 70.0455 111.697C70.1979 111.93 70.2558 112.212 70.2072 112.486C70.1586 112.76 70.0072 113.005 69.784 113.171L63.0156 118.162L74.5131 111.525C74.7534 111.388 75.0367 111.347 75.3057 111.411C75.5747 111.475 75.8094 111.639 75.9624 111.869C76.1154 112.1 76.1753 112.379 76.13 112.652C76.0847 112.925 75.9375 113.17 75.7183 113.339L68.153 119.059L78.9147 112.848C79.1532 112.709 79.4354 112.666 79.7045 112.727C79.9736 112.788 80.2097 112.948 80.3651 113.176C80.5206 113.404 80.584 113.683 80.5425 113.956C80.5011 114.228 80.3579 114.475 80.1417 114.647L72.7686 120.52L83.1307 114.538C83.3674 114.402 83.6465 114.359 83.913 114.419C84.1794 114.478 84.4139 114.635 84.5701 114.859C84.7264 115.083 84.793 115.358 84.7569 115.628C84.7208 115.899 84.5846 116.146 84.3752 116.321L78.2444 121.393L85.5869 117.16C85.8193 117.032 86.0902 116.993 86.3491 117.05C86.608 117.108 86.8372 117.257 86.9938 117.471C87.1505 117.685 87.224 117.949 87.2006 118.213C87.1771 118.477 87.0583 118.724 86.8664 118.906L82.6809 122.703L86.6611 120.406C86.8937 120.271 87.1679 120.227 87.4312 120.282C87.6945 120.336 87.9283 120.486 88.088 120.702C88.2476 120.919 88.3217 121.187 88.2961 121.454C88.2705 121.722 88.147 121.971 87.9493 122.153L86.9668 123.066C87.1793 123.001 87.4065 123.002 87.6182 123.07C87.8299 123.137 88.0159 123.268 88.1514 123.444C88.2869 123.62 88.3654 123.833 88.3765 124.055C88.3876 124.277 88.3307 124.497 88.2135 124.686L87.4078 125.996C87.6393 126.015 87.8585 126.108 88.0334 126.261C88.2084 126.414 88.3301 126.619 88.3807 126.845C88.4314 127.072 88.4084 127.309 88.3151 127.522C88.2218 127.735 88.0631 127.912 87.862 128.028L84.9559 129.705C84.7446 129.83 84.4975 129.879 84.2545 129.846C84.0115 129.813 83.7867 129.699 83.6165 129.522C83.4462 129.346 83.3404 129.117 83.316 128.873C83.2917 128.629 83.3502 128.384 83.4822 128.177L84.0739 127.223L79.7727 129.705C79.5402 129.84 79.266 129.885 79.0027 129.83C78.7394 129.775 78.5055 129.626 78.3459 129.409C78.1863 129.193 78.1122 128.925 78.1378 128.657C78.1633 128.39 78.2868 128.141 78.4845 127.959L79.3732 127.133L74.9104 129.71C74.6781 129.837 74.4072 129.876 74.1483 129.819C73.8894 129.762 73.6602 129.612 73.5035 129.398C73.3468 129.184 73.2734 128.921 73.2968 128.657C73.3203 128.392 73.4391 128.146 73.631 127.963L77.8186 124.168L68.188 129.727C67.9513 129.861 67.6733 129.902 67.4082 129.841C67.1431 129.781 66.9101 129.624 66.7548 129.401C66.5994 129.178 66.5329 128.905 66.5682 128.635C66.6035 128.366 66.7381 128.119 66.9456 127.943L73.0743 122.856L61.1532 129.738C60.9147 129.877 60.6325 129.92 60.3634 129.859C60.0943 129.798 59.8582 129.637 59.7028 129.409C59.5473 129.181 59.4839 128.903 59.5254 128.63C59.5668 128.357 59.71 128.11 59.9262 127.939L67.3102 122.064L53.9919 129.749C53.7517 129.883 53.4697 129.921 53.2024 129.856C52.9351 129.792 52.7021 129.628 52.5501 129.399C52.3981 129.17 52.3382 128.891 52.3825 128.62C52.4268 128.348 52.5719 128.104 52.7889 127.935L60.3476 122.219L47.2847 129.76C47.1206 129.857 46.9337 129.908 46.7432 129.908Z" fill="white"/>
<path d="M107.444 118.907C107.238 118.907 107.036 118.849 106.862 118.74C106.687 118.63 106.547 118.474 106.458 118.288C106.369 118.102 106.334 117.895 106.357 117.691C106.381 117.486 106.462 117.292 106.59 117.131L109.093 114.007L102.599 117.756C102.371 117.888 102.103 117.932 101.844 117.882C101.585 117.831 101.354 117.688 101.192 117.48C101.03 117.272 100.949 117.013 100.964 116.75C100.979 116.486 101.088 116.237 101.272 116.049L105.073 112.134L99.6409 115.28C99.4297 115.398 99.1852 115.443 98.9458 115.407C98.7065 115.371 98.4858 115.257 98.3186 115.082C98.1514 114.907 98.047 114.681 98.022 114.44C97.9969 114.2 98.0526 113.957 98.1803 113.752L101.905 108.025C101.835 107.955 101.774 107.876 101.726 107.789C101.582 107.539 101.543 107.241 101.617 106.962C101.692 106.683 101.874 106.445 102.123 106.3L103.798 105.333C104.009 105.215 104.254 105.17 104.493 105.206C104.732 105.242 104.953 105.356 105.12 105.531C105.288 105.706 105.392 105.932 105.417 106.172C105.442 106.413 105.386 106.655 105.259 106.861L102.495 111.112L110.78 106.328C111.009 106.195 111.278 106.149 111.537 106.199C111.797 106.249 112.03 106.392 112.192 106.6C112.355 106.809 112.436 107.069 112.421 107.333C112.406 107.597 112.295 107.847 112.11 108.036L108.307 111.94L113.02 109.217C113.241 109.089 113.499 109.043 113.75 109.086C114.001 109.129 114.229 109.258 114.395 109.451C114.561 109.645 114.654 109.89 114.658 110.144C114.662 110.399 114.577 110.647 114.418 110.846L111.916 113.97L115.033 112.171C115.158 112.092 115.297 112.039 115.442 112.015C115.587 111.991 115.736 111.997 115.879 112.032C116.022 112.067 116.156 112.131 116.274 112.219C116.392 112.307 116.491 112.418 116.564 112.546C116.638 112.673 116.685 112.814 116.703 112.961C116.721 113.107 116.709 113.255 116.668 113.396C116.626 113.538 116.557 113.669 116.464 113.783C116.371 113.897 116.256 113.991 116.125 114.06L107.99 118.758C107.824 118.855 107.636 118.906 107.444 118.907Z" fill="black"/>
<path d="M103.671 92.0886C103.444 92.0888 103.222 92.0178 103.036 91.8856C102.851 91.7534 102.712 91.5665 102.638 91.3511C102.564 91.1358 102.559 90.9027 102.624 90.6846C102.69 90.4664 102.821 90.2741 103.001 90.1345L108.523 85.8334L99.1236 91.2633C98.8836 91.3991 98.601 91.4391 98.3328 91.3751C98.0645 91.3111 97.8304 91.148 97.6775 90.9185C97.5246 90.689 97.4642 90.4101 97.5085 90.1379C97.5527 89.8657 97.6984 89.6203 97.9162 89.4511L105.909 83.3378L94.2657 90.0603C94.0266 90.198 93.7443 90.24 93.4755 90.178C93.2067 90.116 92.9714 89.9546 92.8168 89.7261C92.6622 89.4977 92.5998 89.2192 92.6422 88.9466C92.6845 88.674 92.8285 88.4276 93.0452 88.2569L102.735 80.6698L92.3552 86.6521C92.1158 86.7938 91.8313 86.8388 91.5599 86.7778C91.2885 86.7168 91.0506 86.5545 90.8948 86.324C90.739 86.0935 90.677 85.8122 90.7216 85.5376C90.7663 85.263 90.914 85.0158 91.1348 84.8465L99.9707 77.921L92.3072 82.3466C92.0653 82.4842 91.7799 82.5242 91.5094 82.4584C91.2389 82.3926 91.0038 82.226 90.8521 81.9926C90.7004 81.7592 90.6436 81.4767 90.6933 81.2028C90.743 80.9289 90.8955 80.6844 91.1195 80.5191L92.5146 79.5061L92.4055 79.5672C92.1794 79.6969 91.9144 79.7415 91.6583 79.6928C91.4023 79.6441 91.1721 79.5055 91.0094 79.3019C90.8466 79.0983 90.7621 78.8432 90.7711 78.5827C90.7801 78.3222 90.882 78.0736 91.0583 77.8817L95.5538 73.0216L95.2089 73.2202C94.9594 73.3508 94.6691 73.3798 94.3987 73.3014C94.1283 73.2229 93.8986 73.043 93.7577 72.7993C93.6168 72.5555 93.5755 72.2667 93.6425 71.9932C93.7095 71.7197 93.8796 71.4827 94.1172 71.3317L100.7 67.5327C100.926 67.4029 101.191 67.3584 101.447 67.407C101.703 67.4557 101.933 67.5944 102.096 67.798C102.259 68.0016 102.343 68.2567 102.334 68.5171C102.325 68.7776 102.223 69.0263 102.047 69.2182L97.5538 74.0761L109.51 67.1746C109.752 67.037 110.037 66.997 110.307 67.0628C110.578 67.1286 110.813 67.2952 110.965 67.5286C111.116 67.762 111.173 68.0445 111.124 68.3184C111.074 68.5923 110.921 68.8368 110.697 69.002L109.307 70.0086L112.254 68.3099C112.493 68.1723 112.775 68.1302 113.044 68.1922C113.313 68.2542 113.548 68.4157 113.703 68.6441C113.858 68.8725 113.92 69.1511 113.878 69.4236C113.835 69.6962 113.691 69.9426 113.475 70.1134L104.636 77.0389L115.062 71.0282C115.301 70.8905 115.583 70.8485 115.852 70.9105C116.121 70.9724 116.356 71.1339 116.511 71.3623C116.665 71.5908 116.728 71.8693 116.685 72.1419C116.643 72.4144 116.499 72.6609 116.282 72.8316L106.593 80.4187L119.372 73.0412C119.612 72.9025 119.896 72.8604 120.166 72.9234C120.436 72.9864 120.672 73.1498 120.826 73.3804C120.98 73.6111 121.04 73.8917 120.995 74.1652C120.949 74.4388 120.802 74.6848 120.581 74.8534L112.586 80.9667L121.112 76.0455C121.351 75.9097 121.633 75.8692 121.901 75.9321C122.168 75.9951 122.403 76.1568 122.556 76.385C122.71 76.6132 122.772 76.891 122.73 77.1628C122.687 77.4346 122.544 77.6805 122.328 77.8511L116.809 82.1523L121.66 79.3532C121.887 79.2234 122.153 79.1794 122.41 79.2291C122.666 79.2788 122.896 79.419 123.059 79.6242C123.221 79.8293 123.304 80.0858 123.293 80.347C123.282 80.6082 123.177 80.8568 122.998 81.0475L118.195 86.1128L121.638 84.126C121.849 84.0068 122.094 83.9613 122.334 83.9968C122.574 84.0323 122.796 84.1467 122.963 84.3219C123.131 84.4971 123.236 84.7232 123.26 84.9645C123.285 85.2058 123.229 85.4485 123.101 85.6543L122.304 86.8901C122.544 86.9769 122.744 87.1465 122.87 87.3682C123.014 87.6185 123.053 87.9158 122.978 88.1949C122.904 88.474 122.722 88.7122 122.472 88.8573L119.944 90.3179C119.733 90.4371 119.488 90.4826 119.248 90.4471C119.008 90.4116 118.786 90.2973 118.619 90.122C118.451 89.9468 118.346 89.7207 118.321 89.4794C118.297 89.2381 118.353 88.9954 118.481 88.7896L118.809 88.2831L112.769 91.7655C112.542 91.8953 112.276 91.9393 112.02 91.8896C111.763 91.8399 111.533 91.6997 111.371 91.4945C111.209 91.2894 111.126 91.0329 111.137 90.7717C111.148 90.5105 111.252 90.2619 111.431 90.0712L116.234 85.0015L104.217 91.9401C104.052 92.0374 103.863 92.0887 103.671 92.0886ZM22.6152 95.5252C22.3861 95.5252 22.1628 95.4531 21.9769 95.3191C21.791 95.1851 21.652 94.9961 21.5796 94.7787C21.5071 94.5614 21.5049 94.3267 21.5732 94.108C21.6415 93.8893 21.7769 93.6977 21.9602 93.5602L25.6326 90.7218L18.8642 94.6344C18.6211 94.7746 18.3333 94.8157 18.0606 94.7493C17.7879 94.6829 17.5513 94.514 17.3998 94.2777C17.2484 94.0414 17.1938 93.7559 17.2473 93.4804C17.3009 93.2048 17.4585 92.9605 17.6874 92.7982L19.2463 91.7L15.9167 93.6213C15.6731 93.7612 15.3848 93.8017 15.112 93.7344C14.8392 93.6672 14.6029 93.4973 14.4521 93.2602C14.3014 93.0231 14.2479 92.737 14.3027 92.4615C14.3575 92.1859 14.5165 91.9421 14.7465 91.7808L16.7289 90.3987L13.395 92.3222C13.1537 92.4626 12.8679 92.5052 12.5962 92.4414C12.3245 92.3775 12.0876 92.212 11.9341 91.9789C11.7807 91.7458 11.7223 91.4627 11.7711 91.1879C11.8199 90.9131 11.972 90.6674 12.1963 90.5013L20.124 84.6063L10.454 90.1826C10.2098 90.3222 9.9211 90.3621 9.64814 90.294C9.37518 90.226 9.13903 90.0552 8.98894 89.8172C8.83886 89.5793 8.78642 89.2926 8.84257 89.0169C8.89872 88.7413 9.05912 88.4979 9.29032 88.3376L9.51957 88.1804C9.27928 88.3104 8.99899 88.3456 8.73404 88.279C8.46909 88.2124 8.23873 88.0489 8.08846 87.8208C7.93819 87.5926 7.87892 87.3164 7.92236 87.0467C7.9658 86.777 8.10879 86.5333 8.3231 86.3639L16.7137 79.8314L9.3449 84.0867C9.11067 84.2222 8.83447 84.2659 8.56985 84.2093C8.30523 84.1527 8.07107 83.9998 7.91279 83.7803C7.7545 83.5609 7.68337 83.2904 7.7132 83.0215C7.74302 82.7525 7.87167 82.5042 8.0742 82.3247L15.205 75.9931L9.6069 79.2222C9.37452 79.3517 9.10283 79.392 8.84289 79.3353C8.58296 79.2786 8.35266 79.129 8.19528 78.9145C8.03789 78.7 7.96425 78.4354 7.98819 78.1704C8.01213 77.9055 8.132 77.6584 8.32528 77.4756L11.2531 74.7879C11.0792 74.7813 10.9094 74.7332 10.7578 74.6476C10.6063 74.5621 10.4774 74.4415 10.3819 74.296C10.2864 74.1505 10.227 73.9843 10.2088 73.8112C10.1906 73.6381 10.2141 73.4632 10.2772 73.301L11.5719 69.9714C11.3551 69.9266 11.157 69.8168 11.0041 69.6568C10.8511 69.4967 10.7504 69.2939 10.7153 69.0753C10.6802 68.8567 10.7125 68.6325 10.8078 68.4327C10.9031 68.2328 11.0569 68.0667 11.2488 67.9562L12.9954 66.9453C13.1912 66.8327 13.417 66.7836 13.6419 66.8047C13.8667 66.8258 14.0795 66.9162 14.2509 67.0632C14.4223 67.2102 14.544 67.4067 14.5991 67.6256C14.6543 67.8446 14.6401 68.0753 14.5587 68.2859L13.4299 71.1963L18.1961 68.4475C18.4286 68.3162 18.7011 68.2746 18.9621 68.3306C19.2231 68.3867 19.4545 68.5364 19.6126 68.7515C19.7707 68.9666 19.8445 69.2322 19.8201 69.498C19.7956 69.7638 19.6746 70.0115 19.4799 70.1941L17.1132 72.3775L23.4056 68.7444C23.6398 68.6089 23.916 68.5652 24.1806 68.6218C24.4452 68.6784 24.6794 68.8313 24.8377 69.0508C24.996 69.2702 25.0671 69.5407 25.0373 69.8096C25.0074 70.0786 24.8788 70.3269 24.6763 70.5064L17.5455 76.838L29.3355 70.0304C29.5745 69.8793 29.8628 69.8268 30.1397 69.8839C30.4167 69.9411 30.6606 70.1035 30.8202 70.337C30.9798 70.5704 31.0425 70.8566 30.9953 71.1354C30.9481 71.4142 30.7945 71.6638 30.5669 71.8316L22.1633 78.3598L32.5756 72.3491C32.8193 72.2149 33.105 72.1788 33.3745 72.2481C33.6439 72.3175 33.8767 72.4872 34.0253 72.7224C34.1738 72.9577 34.2269 73.2408 34.1738 73.5139C34.1206 73.787 33.9652 74.0295 33.7393 74.1918L33.5013 74.3578L35.3004 73.3185C35.5416 73.1781 35.8274 73.1355 36.0991 73.1993C36.3708 73.2632 36.6078 73.4287 36.7612 73.6618C36.9147 73.8949 36.973 74.178 36.9243 74.4528C36.8755 74.7276 36.7233 74.9733 36.499 75.1394L28.5713 81.0344L37.7413 75.7354C37.985 75.5956 38.2732 75.5551 38.546 75.6223C38.8188 75.6896 39.0552 75.8594 39.2059 76.0965C39.3567 76.3336 39.4102 76.6197 39.3554 76.8953C39.3006 77.1708 39.1416 77.4146 38.9116 77.576L36.9466 78.9515L38.5688 78.0148C38.812 77.8746 39.0998 77.8335 39.3725 77.8999C39.6452 77.9663 39.8818 78.1352 40.0332 78.3715C40.1847 78.6078 40.2393 78.8934 40.1857 79.1689C40.1322 79.4444 39.9746 79.6887 39.7456 79.851L38.1649 80.9689L38.6867 80.6698C38.9262 80.5357 39.2073 80.4967 39.4742 80.5606C39.7411 80.6245 39.9741 80.7865 40.1269 81.0145C40.2797 81.2424 40.341 81.5195 40.2987 81.7907C40.2564 82.0618 40.1135 82.3071 39.8985 82.4776L36.2283 85.3159L38.6714 83.9077C38.9013 83.7768 39.1709 83.7338 39.4301 83.7868C39.6892 83.8397 39.9204 83.985 40.0805 84.1956C40.2406 84.4061 40.3188 84.6676 40.3006 84.9315C40.2824 85.1954 40.169 85.4438 39.9814 85.6303L37.2697 88.2962L38.1802 87.7722C38.3044 87.6932 38.4434 87.6401 38.5887 87.6162C38.7339 87.5923 38.8826 87.5981 39.0256 87.6331C39.1686 87.6681 39.303 87.7317 39.4208 87.8201C39.5386 87.9084 39.6373 88.0196 39.711 88.1471C39.7846 88.2746 39.8318 88.4156 39.8495 88.5618C39.8673 88.708 39.8553 88.8562 39.8143 88.9976C39.7733 89.139 39.7041 89.2706 39.6108 89.3846C39.5176 89.4986 39.4023 89.5925 39.2718 89.6607L30.9512 94.4641C30.7213 94.595 30.4517 94.6379 30.1925 94.585C29.9333 94.532 29.7022 94.3868 29.5421 94.1762C29.382 93.9656 29.3038 93.7041 29.322 93.4402C29.3402 93.1763 29.4536 92.928 29.6412 92.7414L32.3594 90.0647L23.1632 95.3745C22.9971 95.4722 22.808 95.5242 22.6152 95.5252Z" fill="black"/>
<path d="M24.8508 118.891C24.6399 118.891 24.4335 118.83 24.2566 118.715C24.0797 118.6 23.9399 118.437 23.854 118.244C23.768 118.052 23.7398 117.838 23.7725 117.63C23.8053 117.422 23.8977 117.227 24.0386 117.07L25.7852 115.105L20.5452 118.127C20.3139 118.261 20.0416 118.305 19.7798 118.251C19.518 118.198 19.285 118.05 19.1249 117.836C18.9648 117.622 18.8887 117.357 18.9111 117.091C18.9334 116.824 19.0526 116.576 19.2461 116.391L21.7875 113.972L17.6283 116.374C17.3976 116.511 17.1246 116.558 16.8615 116.506C16.5983 116.455 16.3633 116.308 16.2013 116.094C16.0394 115.88 15.9618 115.614 15.9834 115.347C16.0049 115.08 16.1242 114.83 16.3183 114.645L19.4514 111.619L15.8096 113.721C15.5828 113.852 15.3164 113.898 15.059 113.849C14.8016 113.8 14.5703 113.66 14.4074 113.455C14.2446 113.25 14.1609 112.993 14.1718 112.731C14.1827 112.469 14.2875 112.22 14.4668 112.029L18.6523 107.553C18.5752 107.316 18.5819 107.059 18.6713 106.826C18.7607 106.592 18.9274 106.397 19.1435 106.272L20.8181 105.304C21.0449 105.173 21.3113 105.128 21.5687 105.177C21.8262 105.225 22.0574 105.365 22.2203 105.571C22.3832 105.776 22.4668 106.033 22.4559 106.295C22.445 106.556 22.3403 106.805 22.1609 106.996L21.0692 108.162L26.0603 105.283C26.291 105.146 26.564 105.099 26.8272 105.15C27.0904 105.202 27.3253 105.349 27.4873 105.562C27.6492 105.776 27.7268 106.042 27.7053 106.309C27.6837 106.577 27.5645 106.827 27.3703 107.012L24.2351 110.04L28.6236 107.507C28.8549 107.374 29.1272 107.329 29.389 107.383C29.6508 107.437 29.8838 107.584 30.0439 107.798C30.204 108.012 30.2801 108.278 30.2577 108.544C30.2354 108.81 30.1162 109.059 29.9226 109.243L27.3791 111.664L30.6148 109.798C30.8397 109.668 31.1036 109.623 31.359 109.67C31.6144 109.717 31.8445 109.854 32.0081 110.056C32.1717 110.257 32.258 110.511 32.2515 110.771C32.245 111.03 32.1462 111.279 31.9728 111.472L30.2261 113.437L31.9269 112.457C32.0512 112.378 32.1901 112.325 32.3354 112.301C32.4807 112.277 32.6293 112.283 32.7723 112.318C32.9153 112.353 33.0498 112.417 33.1676 112.505C33.2853 112.593 33.3841 112.704 33.4577 112.832C33.5314 112.959 33.5785 113.1 33.5963 113.247C33.6141 113.393 33.6021 113.541 33.561 113.682C33.52 113.824 33.4508 113.955 33.3576 114.069C33.2644 114.183 33.1491 114.277 33.0186 114.346L25.3944 118.747C25.2293 118.843 25.0416 118.893 24.8508 118.891Z" fill="black"/>
<path d="M67.7839 118.738C67.5779 118.739 67.376 118.681 67.2015 118.572C67.027 118.462 66.887 118.306 66.7977 118.12C66.7084 117.934 66.6735 117.727 66.6969 117.522C66.7204 117.318 66.8013 117.124 66.9302 116.963L68.548 114.944L62.6618 118.337C62.4398 118.465 62.1799 118.51 61.9276 118.466C61.6753 118.422 61.4467 118.29 61.2817 118.094C61.1167 117.898 61.0259 117.65 61.0251 117.394C61.0244 117.138 61.1137 116.89 61.2775 116.693L65.3888 111.787L58.5244 115.752C58.292 115.879 58.0211 115.918 57.7622 115.861C57.5033 115.804 57.2741 115.654 57.1175 115.44C56.9608 115.226 56.8873 114.963 56.9107 114.699C56.9342 114.434 57.053 114.188 57.2449 114.005L59.1073 112.317L57.1882 113.422C56.9591 113.548 56.6925 113.587 56.4368 113.533C56.1811 113.479 55.9533 113.335 55.7947 113.128C55.6362 112.92 55.5574 112.662 55.5727 112.401C55.588 112.14 55.6964 111.894 55.8782 111.706L60.1248 107.47C60.0768 107.245 60.1014 107.01 60.1952 106.799C60.2889 106.589 60.4469 106.413 60.6466 106.298L62.3212 105.331C62.5502 105.205 62.8168 105.165 63.0725 105.219C63.3282 105.273 63.556 105.417 63.7146 105.625C63.8732 105.833 63.952 106.09 63.9367 106.351C63.9214 106.612 63.813 106.859 63.6312 107.047L63.3168 107.35L66.8778 105.296C67.1101 105.168 67.381 105.129 67.6399 105.186C67.8988 105.243 68.128 105.393 68.2847 105.607C68.4414 105.821 68.5149 106.085 68.4914 106.349C68.468 106.613 68.3492 106.859 68.1572 107.042L66.2927 108.732L69.631 106.806C69.8529 106.68 70.1122 106.635 70.3637 106.68C70.6153 106.725 70.8431 106.857 71.0075 107.052C71.1719 107.248 71.2625 107.495 71.2635 107.75C71.2645 108.006 71.1759 108.254 71.013 108.451L66.9062 113.37L72.4868 110.154C72.7071 110.026 72.965 109.979 73.216 110.022C73.467 110.064 73.6952 110.193 73.8613 110.386C74.0273 110.579 74.1207 110.824 74.1252 111.079C74.1298 111.333 74.0453 111.581 73.8863 111.78L72.2641 113.806L72.7575 113.522C72.8818 113.443 73.0207 113.39 73.166 113.366C73.3113 113.343 73.4599 113.348 73.6029 113.383C73.7459 113.418 73.8803 113.482 73.9981 113.57C74.1159 113.659 74.2146 113.77 74.2883 113.897C74.362 114.025 74.4091 114.166 74.4269 114.312C74.4446 114.458 74.4326 114.606 74.3916 114.748C74.3506 114.889 74.2814 115.021 74.1882 115.135C74.0949 115.249 73.9796 115.343 73.8492 115.411L68.3384 118.59C68.1706 118.689 67.9788 118.74 67.7839 118.738Z" fill="black"/>
<path d="M117.745 96.4728C117.505 96.4728 117.271 96.3935 117.08 96.2472C116.89 96.1009 116.753 95.8958 116.691 95.6637C116.628 95.4316 116.644 95.1854 116.736 94.9634C116.828 94.7414 116.991 94.5559 117.199 94.4357L121.28 92.0799C121.529 91.9494 121.82 91.9203 122.09 91.9988C122.36 92.0772 122.59 92.2572 122.731 92.5009C122.872 92.7447 122.913 93.0335 122.846 93.307C122.779 93.5804 122.609 93.8175 122.371 93.9685L118.291 96.3243C118.125 96.4209 117.937 96.4721 117.745 96.4728Z" fill="black"/>
<path d="M106.621 107.985C106.407 107.985 106.198 107.922 106.02 107.804C105.842 107.686 105.702 107.518 105.618 107.321C105.535 107.125 105.511 106.908 105.549 106.697C105.588 106.487 105.687 106.293 105.835 106.138L111.012 100.739L101.903 105.999C101.665 106.137 101.384 106.18 101.116 106.12C100.848 106.061 100.612 105.902 100.456 105.676C100.3 105.45 100.234 105.173 100.273 104.901C100.312 104.629 100.452 104.382 100.665 104.208L110.557 96.1125L98.9858 102.785C98.7476 102.92 98.4673 102.961 98.2004 102.899C97.9336 102.837 97.6997 102.677 97.5452 102.451C97.3908 102.225 97.327 101.949 97.3665 101.678C97.4061 101.407 97.5461 101.16 97.7588 100.988L105.514 94.7959L97.6452 99.3416C97.4057 99.4783 97.1233 99.5193 96.8548 99.4563C96.5863 99.3933 96.3516 99.231 96.1978 99.0021C96.0441 98.7731 95.9827 98.4944 96.026 98.2221C96.0693 97.9497 96.2141 97.7038 96.4313 97.5338L103.167 92.3309L95.9903 96.4793C95.749 96.6196 95.4632 96.6623 95.1915 96.5984C94.9198 96.5346 94.6829 96.3691 94.5294 96.136C94.3759 95.9028 94.3176 95.6198 94.3664 95.345C94.4151 95.0702 94.5673 94.8245 94.7916 94.6584L98.9399 91.5755L93.1257 94.9313C92.8831 95.072 92.5957 95.1139 92.323 95.0483C92.0504 94.9828 91.8134 94.8148 91.6612 94.5792C91.509 94.3437 91.4533 94.0586 91.5057 93.7831C91.558 93.5076 91.7144 93.2628 91.9424 93.0995L92.379 92.7829C92.1629 92.8904 91.9172 92.9232 91.6804 92.8762C91.4436 92.8292 91.229 92.705 91.0703 92.5231C90.9116 92.3412 90.8177 92.1118 90.8032 91.8708C90.7888 91.6298 90.8546 91.3908 90.9904 91.1912L91.7284 90.1105C91.5176 90.0582 91.3272 89.9443 91.1815 89.7833C91.0358 89.6222 90.9414 89.4214 90.9105 89.2064C90.8795 88.9915 90.9134 88.7722 91.0078 88.5766C91.1021 88.381 91.2527 88.218 91.4402 88.1084L94.3921 86.401C94.6063 86.2761 94.8567 86.2279 95.1021 86.2642C95.3474 86.3006 95.573 86.4195 95.7418 86.6012C95.9106 86.783 96.0125 87.0168 96.0306 87.2641C96.0488 87.5115 95.9822 87.7576 95.8418 87.9621L95.4968 88.4664L110.311 79.91C110.553 79.7693 110.841 79.7274 111.113 79.7929C111.386 79.8585 111.623 80.0264 111.775 80.262C111.927 80.4975 111.983 80.7826 111.931 81.0581C111.878 81.3337 111.722 81.5784 111.494 81.7418L111.081 82.0365L113.985 80.3619C114.226 80.2259 114.51 80.1864 114.778 80.2513C115.047 80.3163 115.281 80.4808 115.434 80.7118C115.586 80.9427 115.645 81.2227 115.598 81.4954C115.552 81.768 115.404 82.0129 115.184 82.1806L111.036 85.2679L116.153 82.3116C116.393 82.1749 116.675 82.1339 116.944 82.1969C117.212 82.2599 117.447 82.4222 117.601 82.6512C117.755 82.8801 117.816 83.1588 117.773 83.4312C117.729 83.7036 117.584 83.9494 117.367 84.1194L110.638 89.3179L116.99 85.6499C117.228 85.5139 117.509 85.4728 117.776 85.5347C118.044 85.5966 118.278 85.757 118.433 85.9839C118.587 86.2108 118.651 86.4876 118.61 86.7591C118.57 87.0307 118.428 87.277 118.214 87.449L110.477 93.6409L121.09 87.5123C121.327 87.3796 121.605 87.3401 121.87 87.4014C122.134 87.4628 122.367 87.6207 122.521 87.8442C122.676 88.0678 122.741 88.3409 122.705 88.6102C122.669 88.8795 122.534 89.1256 122.326 89.3005L112.435 97.3985L116.583 95.0121C116.812 94.8864 117.078 94.8466 117.333 94.8999C117.588 94.9531 117.816 95.0959 117.975 95.3024C118.134 95.509 118.214 95.7655 118.2 96.0258C118.186 96.2861 118.08 96.5329 117.9 96.7216L112.719 102.114L115.011 100.791C115.261 100.661 115.551 100.632 115.822 100.71C116.092 100.789 116.322 100.969 116.463 101.212C116.604 101.456 116.645 101.745 116.578 102.018C116.511 102.292 116.341 102.529 116.103 102.68L107.167 107.839C107.001 107.936 106.813 107.987 106.621 107.985Z" fill="black"/>
<path d="M96.4247 88.2351C96.2219 88.2351 96.0232 88.1786 95.8508 88.072C95.6783 87.9654 95.5389 87.8129 95.4483 87.6316C95.3576 87.4503 95.3192 87.2473 95.3374 87.0454C95.3556 86.8434 95.4297 86.6506 95.5513 86.4884L97.298 84.1719C97.064 84.1573 96.8409 84.0678 96.6617 83.9165C96.4825 83.7652 96.3568 83.5603 96.3031 83.332C96.2495 83.1038 96.2708 82.8643 96.3639 82.6491C96.4569 82.4338 96.6168 82.2543 96.8199 82.137L100.604 79.9537C100.822 79.8283 101.077 79.7821 101.325 79.8231C101.573 79.864 101.8 79.9895 101.966 80.1783C102.133 80.3671 102.229 80.6076 102.238 80.8591C102.248 81.1106 102.17 81.3576 102.018 81.5584L100.547 83.5038L106.776 79.91C106.9 79.831 107.039 79.778 107.184 79.7541C107.33 79.7302 107.478 79.7359 107.621 79.771C107.764 79.806 107.899 79.8696 108.016 79.9579C108.134 80.0463 108.233 80.1575 108.307 80.285C108.38 80.4124 108.427 80.5535 108.445 80.6997C108.463 80.8458 108.451 80.9941 108.41 81.1355C108.369 81.2769 108.3 81.4085 108.207 81.5225C108.113 81.6364 107.998 81.7304 107.868 81.7986L96.9705 88.091C96.8048 88.1871 96.6163 88.2369 96.4247 88.2351Z" fill="black"/>
<path d="M114.575 46.9417C114.335 46.9417 114.101 46.8624 113.91 46.7161C113.72 46.5698 113.583 46.3647 113.521 46.1326C113.458 45.9004 113.475 45.6543 113.566 45.4323C113.658 45.2103 113.821 45.0248 114.029 44.9046L128.206 36.7193C128.433 36.5878 128.701 36.5429 128.959 36.5928C129.217 36.6427 129.448 36.784 129.611 36.9909C129.773 37.1977 129.855 37.4562 129.842 37.7188C129.829 37.9813 129.722 38.2304 129.54 38.4201L127.042 41.027L127.802 40.5904C127.926 40.5114 128.065 40.4583 128.21 40.4344C128.355 40.4105 128.504 40.4163 128.647 40.4513C128.79 40.4863 128.924 40.5499 129.042 40.6383C129.16 40.7266 129.259 40.8378 129.332 40.9653C129.406 41.0928 129.453 41.2338 129.471 41.38C129.489 41.5262 129.477 41.6744 129.436 41.8158C129.395 41.9572 129.326 42.0888 129.232 42.2028C129.139 42.3168 129.024 42.4107 128.893 42.4789L121.496 46.7495C121.269 46.8794 121.002 46.9232 120.745 46.873C120.488 46.8227 120.258 46.6818 120.096 46.4759C119.934 46.2699 119.852 46.0127 119.864 45.7511C119.876 45.4895 119.982 45.241 120.162 45.0509L122.662 42.444L115.121 46.7976C114.955 46.8926 114.766 46.9423 114.575 46.9417Z" fill="white"/>
<path d="M110.721 57.7645C110.527 57.7646 110.337 57.7132 110.17 57.6156C110.003 57.518 109.865 57.3777 109.769 57.209C109.674 57.0403 109.626 56.8494 109.629 56.6558C109.632 56.4622 109.686 56.2729 109.787 56.1073L110.337 55.1969L108.723 56.1291C108.509 56.2529 108.259 56.3003 108.014 56.2634C107.77 56.2266 107.545 56.1077 107.377 55.9262C107.208 55.7448 107.107 55.5116 107.088 55.2648C107.07 55.018 107.136 54.7724 107.276 54.5681L109.854 50.8018L105.269 53.4458C105.029 53.5835 104.746 53.625 104.477 53.562C104.208 53.499 103.973 53.3361 103.819 53.1064C103.665 52.8766 103.604 52.597 103.648 52.324C103.693 52.0511 103.839 51.8051 104.058 51.6358L114.843 43.361L101.898 50.8346C101.656 50.9758 101.369 51.0185 101.096 50.9538C100.824 50.8892 100.586 50.7221 100.433 50.4873C100.28 50.2524 100.224 49.9678 100.275 49.6922C100.326 49.4167 100.481 49.1714 100.708 49.0071L111.487 41.1471L98.8372 48.4504C98.5944 48.5889 98.3077 48.6289 98.0362 48.5624C97.7647 48.4958 97.5291 48.3276 97.378 48.0924C97.2268 47.8573 97.1716 47.5732 97.2237 47.2985C97.2759 47.0239 97.4314 46.7797 97.6582 46.6164L108.754 38.7673L94.9749 46.7233C94.7295 46.8568 94.4423 46.8912 94.1724 46.8194C93.9025 46.7476 93.6704 46.5751 93.5238 46.3373C93.3772 46.0996 93.3274 45.8147 93.3845 45.5412C93.4416 45.2678 93.6013 45.0267 93.8308 44.8675L96.3416 43.2191L90.2589 46.7364C90.0151 46.8707 89.7294 46.9068 89.4599 46.8374C89.1905 46.768 88.9577 46.5984 88.8092 46.3631C88.6606 46.1279 88.6075 45.8448 88.6606 45.5717C88.7138 45.2986 88.8692 45.0561 89.0951 44.8937L105.416 33.6604L82.7482 46.7452C82.5025 46.8753 82.2164 46.9068 81.9483 46.8332C81.6801 46.7597 81.4502 46.5865 81.3053 46.3492C81.1605 46.1119 81.1117 45.8282 81.1688 45.5561C81.226 45.284 81.3848 45.044 81.6129 44.885L90.3047 39.2847L77.3706 46.7517C77.1211 46.8822 76.8309 46.9113 76.5605 46.8328C76.29 46.7544 76.0604 46.5745 75.9195 46.3307C75.7786 46.087 75.7373 45.7982 75.8043 45.5247C75.8713 45.2512 76.0414 45.0142 76.279 44.8631L128.205 14.8838C128.451 14.7483 128.741 14.7131 129.012 14.7854C129.284 14.8578 129.517 15.0321 129.663 15.2721C129.81 15.5121 129.858 15.7993 129.798 16.0739C129.738 16.3485 129.574 16.5893 129.341 16.7462L120.653 22.342L128.205 17.9754C128.449 17.8358 128.738 17.7958 129.011 17.8639C129.284 17.932 129.52 18.1028 129.67 18.3407C129.82 18.5787 129.873 18.8654 129.817 19.141C129.76 19.4167 129.6 19.66 129.369 19.8203L113.044 31.0535L128.205 22.3027C128.451 22.1692 128.738 22.1349 129.008 22.2067C129.278 22.2785 129.51 22.451 129.656 22.6888C129.803 22.9265 129.853 23.2114 129.796 23.4848C129.738 23.7582 129.579 23.9994 129.349 24.1586L126.832 25.8135L128.205 25.021C128.448 24.8808 128.736 24.8396 129.009 24.906C129.282 24.9725 129.518 25.1413 129.67 25.3776C129.821 25.614 129.876 25.8995 129.822 26.175C129.769 26.4505 129.611 26.6948 129.382 26.8572L118.286 34.715L128.205 28.9903C128.447 28.8491 128.734 28.8064 129.007 28.871C129.28 28.9357 129.517 29.1027 129.67 29.3376C129.823 29.5724 129.88 29.8571 129.829 30.1326C129.777 30.4082 129.622 30.6535 129.395 30.8177L118.614 38.6777L128.205 33.143C128.445 33.0081 128.727 32.9686 128.994 33.0326C129.262 33.0965 129.495 33.2591 129.648 33.4878C129.801 33.7165 129.862 33.9945 129.819 34.2662C129.775 34.5378 129.631 34.7831 129.415 34.953L114.188 46.6251C114.219 46.6513 114.247 46.6819 114.278 46.7124C114.446 46.8939 114.547 47.1271 114.566 47.3739C114.584 47.6206 114.518 47.8662 114.378 48.0704L111.787 51.8367L112.917 51.1817C113.127 51.0613 113.371 51.0139 113.611 51.0471C113.85 51.0803 114.072 51.1921 114.241 51.365C114.41 51.5379 114.517 51.7621 114.545 52.0024C114.573 52.2427 114.521 52.4855 114.396 52.6926L113.568 54.0637C113.788 54.1038 113.99 54.2105 114.148 54.3693C114.305 54.5281 114.41 54.7313 114.448 54.9516C114.486 55.1718 114.455 55.3984 114.361 55.6008C114.266 55.8032 114.111 55.9716 113.917 56.0833L111.263 57.6116C111.099 57.7101 110.912 57.7628 110.721 57.7645Z" fill="white"/>
<path d="M64.6465 57.64C64.4286 57.64 64.2157 57.5748 64.0352 57.4528C63.8546 57.3308 63.7147 57.1576 63.6335 56.9554C63.5522 56.7532 63.5334 56.5313 63.5793 56.3183C63.6252 56.1053 63.7338 55.9109 63.8911 55.7601L68.0984 51.7231L62.5942 54.8999C62.3472 55.0447 62.0531 55.0866 61.7755 55.0166C61.4978 54.9466 61.2588 54.7704 61.1098 54.5258C60.9609 54.2812 60.9141 53.9879 60.9793 53.7091C61.0446 53.4303 61.2169 53.1883 61.4589 53.0353L87.7397 36.2237L60.2602 52.0856C60.0124 52.2356 59.7151 52.2809 59.4338 52.2117C59.1525 52.1425 58.9103 51.9644 58.7603 51.7166C58.6103 51.4688 58.5649 51.1715 58.6341 50.8902C58.7033 50.6089 58.8814 50.3666 59.1293 50.2166L67.1181 45.2714L58.638 50.1686C58.3915 50.309 58.1 50.3478 57.8252 50.2769C57.5505 50.2061 57.3142 50.031 57.1663 49.7889C57.0185 49.5468 56.9706 49.2566 57.033 48.9799C57.0954 48.7031 57.2631 48.4615 57.5005 48.3062L89.8422 27.4183L55.9678 46.9744C55.7208 47.1255 55.4239 47.1724 55.1424 47.1046C54.8609 47.0368 54.6179 46.86 54.4668 46.6131C54.3156 46.3661 54.2688 46.0692 54.3365 45.7877C54.4043 45.5062 54.5811 45.2631 54.8281 45.112L86.4602 24.6258L48.1711 46.7342C47.9246 46.8678 47.6362 46.9014 47.3656 46.8281C47.095 46.7549 46.863 46.5803 46.7176 46.3406C46.5722 46.1009 46.5246 45.8144 46.5846 45.5406C46.6447 45.2668 46.8078 45.0265 47.0401 44.8697L73.8427 27.7654L40.977 46.7386C40.7293 46.8729 40.4393 46.9062 40.1676 46.8316C39.8959 46.757 39.6636 46.5803 39.5192 46.3383C39.3748 46.0964 39.3296 45.808 39.393 45.5334C39.4563 45.2589 39.6234 45.0195 39.8592 44.8653L41.0403 44.1404L36.5318 46.7408C36.2823 46.8713 35.992 46.9004 35.7216 46.8219C35.4512 46.7435 35.2215 46.5636 35.0806 46.3198C34.9397 46.076 34.8984 45.7872 34.9654 45.5137C35.0324 45.2403 35.2025 45.0032 35.4401 44.8522L110.868 1.30997C111.115 1.17566 111.405 1.14232 111.677 1.21692C111.949 1.29152 112.181 1.46827 112.326 1.71022C112.47 1.95217 112.515 2.24057 112.452 2.51511C112.388 2.78965 112.221 3.02906 111.986 3.18327L110.813 3.90158L115.306 1.30997C115.553 1.17206 115.844 1.13522 116.117 1.2072C116.39 1.27918 116.625 1.45438 116.772 1.69592C116.919 1.93747 116.966 2.22653 116.904 2.50231C116.842 2.77808 116.676 3.01905 116.44 3.17453L89.661 20.2591L122.411 1.34927C122.658 1.19813 122.955 1.1513 123.236 1.21906C123.518 1.28683 123.761 1.46364 123.912 1.71061C124.063 1.95758 124.11 2.25447 124.042 2.53597C123.974 2.81747 123.798 3.06052 123.551 3.21165L91.8924 23.711L126.684 3.6243C126.931 3.47317 127.228 3.42633 127.509 3.4941C127.791 3.56186 128.034 3.73868 128.185 3.98564C128.336 4.23261 128.383 4.5295 128.315 4.811C128.247 5.0925 128.07 5.33555 127.823 5.48668L95.4949 26.3659L128.186 7.49317C128.433 7.36111 128.722 7.32922 128.992 7.4041C129.262 7.47898 129.493 7.65489 129.637 7.8954C129.781 8.13591 129.827 8.42258 129.765 8.69603C129.704 8.96948 129.539 9.20875 129.306 9.36429L121.302 14.3183L128.206 10.3315C128.452 10.1936 128.743 10.1568 129.016 10.2287C129.29 10.3007 129.524 10.4759 129.671 10.7175C129.818 10.959 129.865 11.2481 129.803 11.5238C129.741 11.7996 129.575 12.0406 129.339 12.1961L76.4169 46.0465C76.4534 46.2268 76.4437 46.4134 76.3887 46.589C76.3337 46.7646 76.2353 46.9235 76.1025 47.0508L69.5197 53.3672C69.5937 53.4399 69.6576 53.5221 69.7097 53.6117C69.8538 53.8623 69.8926 54.1597 69.8177 54.4388C69.7428 54.718 69.5603 54.956 69.3102 55.1008L65.1858 57.4828C65.0233 57.5823 64.8371 57.6365 64.6465 57.64Z" fill="white"/>
<path d="M18.3226 57.2229C18.0839 57.2237 17.8515 57.1461 17.661 57.0021C17.4705 56.8581 17.3325 56.6557 17.2681 56.4258C17.2037 56.1959 17.2164 55.9512 17.3044 55.7292C17.3923 55.5073 17.5506 55.3202 17.755 55.1968L21.9404 52.6576L18.0737 54.889C17.9503 54.9619 17.8137 55.0099 17.6717 55.03C17.5298 55.0502 17.3852 55.0423 17.2463 55.0066C16.9659 54.9345 16.7255 54.754 16.5781 54.5047C16.4308 54.2554 16.3885 53.9578 16.4605 53.6773C16.5326 53.3968 16.7131 53.1565 16.9624 53.0091L18.9274 51.817L18.0541 52.3192C17.8054 52.4674 17.508 52.5108 17.2273 52.4397C16.9466 52.3687 16.7056 52.1891 16.5574 51.9404C16.4092 51.6917 16.3658 51.3943 16.4368 51.1136C16.5079 50.8329 16.6875 50.5919 16.9362 50.4437L29.6716 42.6143L18.0322 49.3433C17.7844 49.4862 17.4903 49.5261 17.2133 49.4544C16.9363 49.3827 16.6986 49.2051 16.5512 48.9599C16.4038 48.7146 16.3586 48.4213 16.4253 48.1431C16.492 47.8649 16.6653 47.624 16.9078 47.4722L38.2827 34.1036L16.3991 46.7233C16.1535 46.8419 15.8723 46.8643 15.611 46.786C15.3497 46.7077 15.1272 46.5345 14.9872 46.3003C14.8473 46.0662 14.8001 45.7881 14.8549 45.5209C14.9097 45.2537 15.0626 45.0167 15.2834 44.8565L26.2001 38.0882L11.2312 46.7233C10.9838 46.8619 10.6922 46.8988 10.4182 46.8262C10.1441 46.7537 9.90898 46.5773 9.7626 46.3345C9.61623 46.0917 9.57007 45.8014 9.63389 45.5252C9.69771 45.2489 9.8665 45.0084 10.1046 44.8544L28.8812 33.0818L6.41691 46.053C6.29419 46.1271 6.15808 46.1763 6.01634 46.1979C5.8746 46.2194 5.73001 46.2128 5.59083 46.1784C5.45165 46.144 5.3206 46.0826 5.20516 45.9976C5.08973 45.9126 4.99216 45.8056 4.91805 45.6829C4.84393 45.5602 4.79471 45.4241 4.7732 45.2824C4.75168 45.1406 4.7583 44.996 4.79266 44.8569C4.82703 44.7177 4.88847 44.5866 4.97348 44.4712C5.05849 44.3558 5.16541 44.2582 5.28812 44.1841L27.1367 30.3745L3.86896 43.8042C3.61909 43.9524 3.32058 43.9953 3.03908 43.9235C2.75758 43.8516 2.51615 43.6709 2.36791 43.421C2.21968 43.1711 2.17677 42.8726 2.24863 42.5911C2.32048 42.3096 2.50123 42.0682 2.75109 41.92L6.46276 39.6253L2.96942 41.647C2.72364 41.7895 2.43199 41.8306 2.15642 41.7615C1.88084 41.6925 1.64305 41.5187 1.49355 41.2771C1.34405 41.0355 1.29462 40.7452 1.35576 40.4677C1.4169 40.1903 1.58379 39.9476 1.82099 39.7912L30.2043 21.0145L2.79476 36.8306C2.54828 36.9642 2.25986 36.9978 1.98926 36.9245C1.71866 36.8512 1.48662 36.6767 1.34123 36.437C1.19584 36.1973 1.14824 35.9108 1.20829 35.637C1.26834 35.3631 1.43144 35.1229 1.66379 34.966L12.5171 28.0449L2.79476 33.6582C2.54836 33.8015 2.2557 33.8427 1.97931 33.7731C1.70292 33.7035 1.46471 33.5285 1.3156 33.2856C1.16649 33.0427 1.1183 32.7511 1.18132 32.4732C1.24434 32.1952 1.41358 31.9529 1.65287 31.798L14.8468 23.1891L2.79476 30.1474C2.54978 30.2848 2.2613 30.3224 1.98929 30.2525C1.71728 30.1826 1.48267 30.0106 1.33423 29.7722C1.18579 29.5338 1.13494 29.2473 1.19225 28.9724C1.24956 28.6975 1.41062 28.4552 1.64196 28.296L14.8882 19.4098L2.79476 26.3965C2.55142 26.5345 2.26437 26.5739 1.99286 26.5064C1.72134 26.439 1.48609 26.2698 1.33565 26.034C1.18522 25.7981 1.13108 25.5135 1.18442 25.2388C1.23776 24.9642 1.39451 24.7205 1.62231 24.5581L14.3075 15.6719L2.79476 22.3114C2.55015 22.4534 2.25999 22.4949 1.9854 22.4272C1.71081 22.3595 1.47321 22.1878 1.32266 21.9484C1.17211 21.709 1.12034 21.4205 1.17827 21.1437C1.2362 20.8668 1.3993 20.6233 1.63322 20.4643L6.02609 17.4666L2.79476 19.3334C2.55542 19.472 2.27241 19.5146 2.00289 19.4525C1.73337 19.3905 1.49744 19.2285 1.34275 18.9993C1.18806 18.77 1.12616 18.4906 1.16954 18.2174C1.21292 17.9443 1.35835 17.6978 1.57646 17.5278L9.99102 10.9275L2.78602 15.0759C2.55287 15.1968 2.28393 15.2296 2.02854 15.1683C1.77315 15.107 1.54843 14.9556 1.3956 14.742C1.24276 14.5284 1.17206 14.2669 1.19645 14.0054C1.22085 13.7439 1.33871 13.4999 1.52842 13.3183L6.61996 8.89922L2.79476 11.1088C2.57795 11.2331 2.32504 11.2793 2.07828 11.2396C1.83151 11.1999 1.60583 11.0768 1.43895 10.8907C1.27206 10.7047 1.17407 10.467 1.16135 10.2174C1.14862 9.96777 1.22194 9.72135 1.36904 9.51929L4.06327 5.82946C3.81261 5.97178 3.51583 6.00919 3.23768 5.93352C2.95954 5.85785 2.72262 5.67524 2.57861 5.42554C2.50616 5.30133 2.45896 5.16404 2.43972 5.02154C2.42049 4.87904 2.42959 4.73415 2.46651 4.59518C2.50344 4.45621 2.56745 4.3259 2.65488 4.21174C2.74231 4.09758 2.85143 4.00182 2.97597 3.92996L7.44744 1.35362C7.66424 1.22927 7.91715 1.18307 8.16392 1.22275C8.41068 1.26243 8.63636 1.38559 8.80325 1.57164C8.97013 1.7577 9.06813 1.99539 9.08085 2.245C9.09357 2.49461 9.02026 2.74103 8.87316 2.94309L6.17892 6.63511L15.4122 1.30996C15.6471 1.17733 15.9228 1.13636 16.1861 1.19493C16.4494 1.25351 16.6816 1.40748 16.8381 1.62717C16.9946 1.84686 17.0643 2.11671 17.0336 2.38469C17.0029 2.65267 16.8741 2.89981 16.672 3.07846L11.587 7.48661L22.2919 1.30996C22.531 1.1723 22.8133 1.13024 23.082 1.19224C23.3508 1.25423 23.5862 1.41568 23.7408 1.64413C23.8954 1.87258 23.9578 2.15108 23.9154 2.42365C23.873 2.69622 23.7291 2.94265 23.5124 3.11339L15.0935 9.70269L29.641 1.30996C29.8851 1.17423 30.1719 1.13719 30.4424 1.20647C30.7129 1.27574 30.9466 1.44606 31.0954 1.68238C31.2442 1.91871 31.2968 2.20307 31.2423 2.47697C31.1878 2.75086 31.0305 2.99347 30.8026 3.15487L26.4184 6.15259L34.8133 1.30996C35.0562 1.17657 35.3407 1.14052 35.6091 1.2091C35.8775 1.27769 36.1099 1.44577 36.259 1.67929C36.4081 1.91281 36.4628 2.19429 36.4121 2.46667C36.3614 2.73905 36.209 2.98195 35.9858 3.14614L23.2941 12.0367L41.883 1.30996C42.1274 1.17779 42.413 1.14381 42.6816 1.21493C42.9502 1.28605 43.1816 1.45693 43.3286 1.69273C43.4756 1.92853 43.5272 2.21152 43.4727 2.484C43.4183 2.75649 43.2621 2.99798 43.0358 3.15924L29.7895 12.0432L48.3893 1.30996C48.6353 1.17013 48.9259 1.13125 49.1999 1.20151C49.474 1.27178 49.7101 1.44569 49.8584 1.6866C50.0068 1.92751 50.0558 2.2166 49.9951 2.49294C49.9345 2.76929 49.769 3.0113 49.5334 3.16797L36.357 11.7616L54.4677 1.30996C54.7144 1.17205 55.005 1.13521 55.2784 1.20719C55.5517 1.27917 55.7865 1.45437 55.9333 1.69591C56.08 1.93746 56.1274 2.22652 56.0654 2.50229C56.0034 2.77806 55.8369 3.01904 55.6009 3.17452L44.7322 10.0979L59.9653 1.30996C60.2105 1.17461 60.4983 1.13866 60.7692 1.20953C61.0401 1.2804 61.2735 1.45267 61.4209 1.69072C61.5684 1.92877 61.6188 2.21439 61.5616 2.48853C61.5045 2.76267 61.3441 3.00435 61.1138 3.16361L32.7304 21.9577L68.4956 1.30996C68.7436 1.17024 69.0364 1.13292 69.3115 1.20594C69.5866 1.27896 69.8223 1.45656 69.9684 1.70086C70.1145 1.94517 70.1594 2.23687 70.0935 2.51378C70.0276 2.7907 69.8561 3.03092 69.6157 3.18326L65.9368 5.45829L73.1199 1.30996C73.3671 1.16869 73.6597 1.12958 73.9353 1.20097C74.2109 1.27236 74.4478 1.44859 74.5953 1.6921C74.7428 1.9356 74.7894 2.2271 74.725 2.50444C74.6607 2.78178 74.4906 3.02302 74.2509 3.17671L52.4176 16.9819L79.5586 1.30996C79.8059 1.17137 80.0975 1.13444 80.3716 1.207C80.6457 1.27956 80.8808 1.45591 81.0271 1.69873C81.1735 1.94155 81.2197 2.2318 81.1559 2.50805C81.092 2.7843 80.9232 3.02488 80.6852 3.17889L61.9085 14.9689L85.5453 1.30996C85.7925 1.1779 86.0811 1.14601 86.3512 1.22089C86.6213 1.29577 86.8523 1.47168 86.9963 1.71219C87.1402 1.95269 87.1862 2.23936 87.1246 2.51281C87.063 2.78626 86.8985 3.02554 86.6653 3.18107L75.7334 9.94941L90.7154 1.30996C90.9622 1.17977 91.2496 1.14906 91.5183 1.22412C91.7871 1.29918 92.0169 1.47433 92.1606 1.71357C92.3043 1.95281 92.3508 2.23799 92.2908 2.51051C92.2307 2.78303 92.0686 3.0222 91.8377 3.17889L70.4737 16.5409L96.8593 1.30996C97.107 1.17565 97.397 1.14231 97.6687 1.21691C97.9404 1.2915 98.1728 1.46826 98.3171 1.71021C98.4615 1.95216 98.5068 2.24056 98.4434 2.5151C98.38 2.78964 98.213 3.02905 97.9772 3.18326L85.292 10.9821L102.049 1.30996C102.298 1.16823 102.592 1.12986 102.869 1.20312C103.146 1.27637 103.383 1.45539 103.529 1.7016C103.675 1.94782 103.718 2.24153 103.65 2.51948C103.581 2.79743 103.406 3.03737 103.163 3.18762L101.165 4.40156L106.521 1.30996C106.769 1.16823 107.064 1.12986 107.34 1.20312C107.617 1.27637 107.854 1.45539 108 1.7016C108.146 1.94782 108.19 2.24153 108.121 2.51948C108.053 2.79743 107.878 3.03737 107.634 3.18762L32.1366 49.0202C32.1022 49.1651 32.0386 49.3014 31.9496 49.4208C31.8606 49.5402 31.7482 49.6401 31.6191 49.7145L18.8685 57.0767C18.7025 57.1725 18.5143 57.2229 18.3226 57.2229Z" fill="white"/>
<path d="M34.7781 96.4728C34.5378 96.4728 34.3043 96.3935 34.1136 96.2472C33.923 96.1009 33.7859 95.8958 33.7237 95.6637C33.6615 95.4316 33.6777 95.1854 33.7696 94.9634C33.8616 94.7414 34.0242 94.5559 34.2323 94.4357L38.313 92.0799C38.5625 91.9494 38.8527 91.9203 39.1231 91.9988C39.3936 92.0772 39.6232 92.2572 39.7641 92.5009C39.905 92.7447 39.9463 93.0335 39.8793 93.307C39.8123 93.5804 39.6422 93.8175 39.4046 93.9685L35.324 96.3243C35.1582 96.4209 34.97 96.4721 34.7781 96.4728Z" fill="black"/>
<path d="M25.711 107.835C25.4952 107.835 25.2843 107.771 25.1049 107.651C24.9255 107.531 24.7856 107.361 24.7029 107.162C24.6202 106.962 24.5984 106.743 24.6403 106.531C24.6821 106.32 24.7857 106.125 24.9381 105.972L27.3397 103.549L21.0495 107.182C20.8106 107.317 20.5295 107.357 20.2624 107.294C19.9952 107.231 19.7616 107.07 19.6079 106.843C19.4543 106.615 19.392 106.338 19.4333 106.067C19.4747 105.796 19.6168 105.55 19.8312 105.379L26.2 100.387L17.9383 105.162C17.6971 105.303 17.4112 105.345 17.1395 105.282C16.8678 105.218 16.6309 105.052 16.4774 104.819C16.324 104.586 16.2656 104.303 16.3144 104.028C16.3632 103.753 16.5153 103.508 16.7396 103.341L22.96 98.7106L15.9929 102.732C15.7512 102.872 15.4651 102.914 15.1935 102.849C14.922 102.784 14.6855 102.618 14.5329 102.384C14.3802 102.15 14.3229 101.867 14.3727 101.592C14.4226 101.317 14.5758 101.072 14.8008 100.907L17.9427 98.5993L14.9428 100.331C14.6993 100.473 14.4102 100.515 14.1361 100.449C13.862 100.383 13.6241 100.213 13.4722 99.9758C13.3204 99.7382 13.2664 99.4511 13.3216 99.1745C13.3767 98.898 13.5368 98.6535 13.7681 98.4923L14.2048 98.1866C13.9832 98.24 13.7506 98.2236 13.5387 98.1395C13.3268 98.0555 13.1462 97.908 13.0214 97.7172C12.8696 97.4811 12.8146 97.1955 12.8678 96.9198C12.9211 96.6441 13.0786 96.3995 13.3074 96.2369L14.0978 95.6736L12.7048 96.4771C12.4689 96.6115 12.1914 96.6532 11.9264 96.594C11.6614 96.5348 11.428 96.379 11.2717 96.157C11.1154 95.935 11.0474 95.6627 11.0811 95.3932C11.1148 95.1238 11.2477 94.8766 11.4538 94.6999L19.4863 87.8988L9.62853 93.5907C9.42246 93.7095 9.18322 93.7578 8.94722 93.7281C8.71121 93.6985 8.49134 93.5926 8.32106 93.4265C8.15078 93.2604 8.0394 93.0432 8.00387 92.8081C7.96834 92.5729 8.01059 92.3325 8.12421 92.1235L9.21588 90.1236C8.99381 90.1616 8.76545 90.1314 8.56085 90.0371C8.35625 89.9428 8.185 89.7887 8.06963 89.5952C7.92556 89.3447 7.88672 89.0473 7.96162 88.7681C8.03652 88.489 8.21904 88.251 8.46918 88.1062L11.421 86.3988C11.6271 86.2791 11.8668 86.2301 12.1033 86.2593C12.3399 86.2885 12.5604 86.3944 12.7311 86.5607C12.9019 86.727 13.0135 86.9446 13.049 87.1803C13.0845 87.416 13.0418 87.6568 12.9275 87.866L11.8948 89.7633L28.9357 79.9252C29.172 79.788 29.4511 79.7443 29.718 79.8028C29.9849 79.8613 30.2201 80.0178 30.3772 80.2413C30.5344 80.4648 30.602 80.7391 30.5667 81.01C30.5315 81.281 30.3959 81.5288 30.1868 81.7047L22.1543 88.5036L33.1103 82.1719C33.3525 82.0407 33.6353 82.0059 33.9021 82.0745C34.1688 82.1431 34.3998 82.31 34.5487 82.5417C34.6976 82.7735 34.7533 83.0529 34.7048 83.3241C34.6563 83.5952 34.5071 83.838 34.2871 84.0037L33.5011 84.5648L33.8919 84.3465C34.1356 84.1982 34.4276 84.1512 34.7055 84.2155C34.9834 84.2797 35.2251 84.4502 35.3789 84.6905C35.5327 84.9307 35.5863 85.2216 35.5283 85.5009C35.4704 85.7802 35.3054 86.0257 35.0687 86.1849L34.3788 86.6674C34.6232 86.6232 34.8753 86.6637 35.0936 86.7821C35.3119 86.9006 35.4833 87.0899 35.5795 87.3189C35.6756 87.5479 35.6909 87.8028 35.6226 88.0416C35.5544 88.2804 35.4067 88.4888 35.2041 88.6324L32.0601 90.9358L38.0752 87.4643C38.3164 87.3239 38.6023 87.2813 38.874 87.3451C39.1457 87.409 39.3826 87.5745 39.536 87.8076C39.6895 88.0407 39.7478 88.3238 39.6991 88.5986C39.6503 88.8734 39.4981 89.1191 39.2738 89.2852L33.0622 93.9117L38.5861 90.7218C38.8249 90.5892 39.1048 90.551 39.3705 90.6148C39.6361 90.6785 39.8682 90.8395 40.021 91.066C40.1737 91.2925 40.236 91.568 40.1955 91.8382C40.155 92.1083 40.0146 92.3535 39.8022 92.5253L33.405 97.5295C33.6375 97.4205 33.9009 97.3971 34.149 97.4631C34.3971 97.5292 34.614 97.6805 34.7615 97.8907C34.9091 98.1008 34.9779 98.3561 34.9558 98.6119C34.9337 98.8677 34.8222 99.1075 34.6408 99.2892L31.5055 102.453C31.7226 102.497 31.9211 102.606 32.0747 102.766C32.2282 102.926 32.3294 103.129 32.365 103.347C32.4005 103.566 32.3687 103.79 32.2736 103.991C32.1786 104.191 32.025 104.357 31.833 104.468L26.2568 107.686C26.0915 107.784 25.9029 107.835 25.711 107.835Z" fill="black"/>
<path d="M13.4558 87.8224C13.249 87.823 13.0463 87.7649 12.8713 87.6548C12.6962 87.5447 12.5561 87.3872 12.4671 87.2005C12.3781 87.0139 12.344 86.8058 12.3686 86.6005C12.3933 86.3951 12.4758 86.2011 12.6065 86.0408L14.1523 84.1391C13.9403 84.0877 13.7486 83.9739 13.6018 83.8125C13.4551 83.6511 13.3601 83.4494 13.3291 83.2334C13.298 83.0175 13.3324 82.7972 13.4278 82.601C13.5232 82.4048 13.6751 82.2417 13.8641 82.1326L17.6478 79.9493C17.8681 79.8195 18.1273 79.7722 18.3793 79.8158C18.6312 79.8594 18.8595 79.991 19.0233 80.1873C19.1889 80.381 19.2815 80.6265 19.2851 80.8813C19.2887 81.1361 19.2031 81.3842 19.043 81.5825L18.0255 82.8335L23.0931 79.91C23.2173 79.831 23.3563 79.778 23.5015 79.7541C23.6468 79.7302 23.7954 79.7359 23.9384 79.771C24.0814 79.806 24.2159 79.8696 24.3337 79.9579C24.4515 80.0463 24.5502 80.1575 24.6238 80.285C24.6975 80.4124 24.7447 80.5535 24.7624 80.6997C24.7802 80.8458 24.7682 80.9941 24.7271 81.1355C24.6861 81.2769 24.6169 81.4085 24.5237 81.5225C24.4305 81.6364 24.3152 81.7304 24.1847 81.7986L14.0017 87.6739C13.8363 87.7715 13.6478 87.8228 13.4558 87.8224Z" fill="black"/>
<path d="M76.2615 96.4728C76.0212 96.4728 75.7877 96.3935 75.597 96.2472C75.4064 96.1009 75.2693 95.8958 75.2071 95.6637C75.1449 95.4316 75.1611 95.1854 75.253 94.9634C75.345 94.7414 75.5076 94.5559 75.7157 94.4357L79.7964 92.0799C80.0458 91.9494 80.3361 91.9203 80.6065 91.9988C80.8769 92.0772 81.1066 92.2572 81.2475 92.5009C81.3884 92.7447 81.4297 93.0335 81.3627 93.307C81.2957 93.5804 81.1256 93.8175 80.888 93.9685L76.8074 96.3243C76.6416 96.4209 76.4534 96.4721 76.2615 96.4728Z" fill="black"/>
<path d="M67.1945 107.835C66.978 107.835 66.7663 107.77 66.5865 107.65C66.4067 107.529 66.2668 107.358 66.1846 107.157C66.1025 106.957 66.0818 106.737 66.1251 106.525C66.1685 106.312 66.274 106.118 66.4282 105.966L68.5198 103.896L62.7165 107.245C62.4786 107.38 62.1988 107.42 61.9326 107.359C61.6663 107.297 61.4329 107.137 61.2784 106.912C61.124 106.686 61.0597 106.411 61.0984 106.141C61.1371 105.87 61.2758 105.624 61.4873 105.451L68.7927 99.5906L59.3192 105.06C59.0802 105.197 58.7979 105.24 58.5291 105.178C58.2603 105.116 58.025 104.954 57.8704 104.726C57.7157 104.497 57.6534 104.219 57.6957 103.946C57.7381 103.674 57.8821 103.427 58.0987 103.256L66.7644 96.4531L57.1075 102.025C56.8652 102.159 56.581 102.196 56.3125 102.128C56.044 102.06 55.8113 101.893 55.6615 101.66C55.5116 101.428 55.4558 101.146 55.5054 100.874C55.555 100.602 55.7062 100.358 55.9285 100.193L56.3062 99.9246C56.07 100.06 55.792 100.101 55.5265 100.042C55.2611 99.9829 55.0273 99.8266 54.8711 99.6039C54.7148 99.3813 54.6473 99.1083 54.6817 98.8385C54.7162 98.5687 54.8501 98.3214 55.0574 98.1452L63.5352 90.8878L53.8893 96.4553C53.6548 96.5912 53.3781 96.6351 53.1131 96.5783C52.8481 96.5216 52.6136 96.3682 52.4554 96.1482C52.2972 95.9281 52.2265 95.6571 52.257 95.3878C52.2876 95.1185 52.4172 94.8702 52.6208 94.6912L60.5943 87.6608L51.0073 93.1956C50.7973 93.3178 50.5525 93.3664 50.3117 93.3337C50.071 93.3011 49.848 93.1891 49.678 93.0154C49.5081 92.8417 49.401 92.6163 49.3736 92.3749C49.3463 92.1335 49.4002 91.8898 49.527 91.6825L50.4658 90.1411C50.2282 90.1352 49.9991 90.0519 49.8131 89.9038C49.6272 89.7558 49.4946 89.5512 49.4356 89.3209C49.3766 89.0907 49.3943 88.8475 49.486 88.6283C49.5778 88.4091 49.7386 88.2258 49.944 88.1062L52.8959 86.3989C53.1059 86.2767 53.3506 86.2281 53.5914 86.2607C53.8322 86.2934 54.0552 86.4054 54.2251 86.5791C54.395 86.7527 54.5021 86.9781 54.5295 87.2196C54.5568 87.461 54.5029 87.7046 54.3762 87.9119L53.6098 89.1717L68.9696 80.303C69.204 80.1671 69.4807 80.1232 69.7457 80.18C70.0107 80.2367 70.2452 80.3901 70.4034 80.6101C70.5616 80.8302 70.6324 81.1012 70.6018 81.3705C70.5712 81.6398 70.4416 81.8881 70.2381 82.0671L62.2689 89.0996L72.6856 83.0868C72.921 82.9533 73.1975 82.912 73.4617 82.9709C73.7258 83.0298 73.9586 83.1847 74.115 83.4055C74.2714 83.6263 74.3402 83.8974 74.308 84.1661C74.2759 84.4347 74.1451 84.6819 73.941 84.8596L65.4588 92.117L75.2838 86.4404C75.5266 86.3018 75.8132 86.2618 76.0847 86.3283C76.3562 86.3949 76.5918 86.5631 76.7429 86.7983C76.8941 87.0334 76.9493 87.3176 76.8972 87.5922C76.8451 87.8668 76.6896 88.111 76.4628 88.2744L76.0763 88.5495L78.9605 86.8836C79.1995 86.7459 79.4818 86.7039 79.7506 86.7658C80.0194 86.8278 80.2547 86.9893 80.4094 87.2177C80.564 87.4462 80.6263 87.7247 80.584 87.9973C80.5416 88.2698 80.3976 88.5163 80.181 88.687L71.511 95.499L80.0936 90.5472C80.3315 90.4149 80.6101 90.3763 80.875 90.4388C81.1398 90.5013 81.3718 90.6605 81.5254 90.8851C81.679 91.1098 81.7431 91.3837 81.7053 91.6532C81.6674 91.9227 81.5302 92.1683 81.3207 92.3419L74.0152 98.1954L74.7423 97.7762C74.9719 97.6471 75.2404 97.6054 75.4984 97.6587C75.7564 97.712 75.9864 97.8568 76.1459 98.0664C76.3055 98.276 76.3839 98.5362 76.3667 98.7991C76.3495 99.0619 76.2378 99.3097 76.0523 99.4967L73.0502 102.47C73.2577 102.528 73.4436 102.645 73.5846 102.808C73.7256 102.97 73.8154 103.171 73.8427 103.384C73.87 103.598 73.8336 103.815 73.738 104.007C73.6425 104.2 73.492 104.361 73.3057 104.468L67.7294 107.686C67.5673 107.782 67.3828 107.833 67.1945 107.835Z" fill="black"/>
<path d="M0.602652 129.24C14.2441 129.88 28.3943 129.24 42.2039 129.459C57.6305 130.564 73.1164 130.564 88.543 129.459C102.187 128.524 117.544 131.314 130.4 128.395C132.107 118.57 127.168 112.846 117.463 111.664C115.508 110.229 113.872 108.403 112.66 106.302C114.328 105.253 115.735 103.837 116.773 102.162C117.812 100.487 118.455 98.5972 118.653 96.6365C125.053 96.1846 123.334 89.4315 123.815 85.1522C124.278 79.6786 123.795 72.0325 117.009 71.2247C108.403 60.7054 87.1827 69.5195 90.1062 83.6697C90.8835 88.0866 88.067 96.8439 95.2262 96.6081C95.2555 98.6937 95.8436 100.733 96.9292 102.514C98.0148 104.295 99.5581 105.753 101.398 106.734C98.8199 113.298 91.1542 111.929 86.5343 115.918C85.4826 114.816 84.2104 113.95 82.8008 113.374C78.8708 105.627 89.4621 104.597 81.3096 94.1606C91.3485 65.2816 46.4199 59.4172 48.9286 89.3158C48.6676 90.2127 48.5932 91.1536 48.71 92.0803C48.8268 93.0071 49.1322 93.9001 49.6076 94.7043C41.6013 104.769 51.8564 106.058 48.2976 113.514C47.0367 114.06 45.8833 114.827 44.8916 115.778C40.4223 111.481 32.4466 113.031 29.7851 106.442C31.4212 105.369 32.7987 103.947 33.8182 102.277C34.8377 100.608 35.4736 98.7325 35.6801 96.7872C39.8677 96.7457 41.8502 91.6629 40.4507 88.2416C40.9921 82.7527 42.372 73.7443 34.7587 72.9015C30.1366 67.1026 21.8771 70.1287 15.7965 67.6025C10.694 64.9039 9.01504 70.9212 9.70934 74.9123C5.99767 77.6393 4.906 98.3068 12.2595 96.7457C12.3192 98.8175 12.9217 100.837 14.0067 102.603C15.0918 104.369 16.6214 105.819 18.4427 106.809C11.7639 117.616 -2.16145 110.317 0.602652 129.24ZM93.283 80.0541C92.4096 69.5457 108.407 64.2926 114.136 72.4736C120.815 73.4801 121.313 80.7528 120.481 86.3792C120.063 86.315 119.639 86.2967 119.217 86.3246C120.49 76.6568 94.1891 77.0083 94.8048 86.2613C94.3806 86.2907 93.9606 86.3638 93.5515 86.4796C93.2904 84.3484 93.2006 82.1997 93.283 80.0541ZM98.3789 95.0077C98.3789 93.7676 96.4248 94.1235 95.7763 94.5907C93.4489 95.2828 91.8791 86.9709 95.1541 88.5363C95.9903 89.0647 98.1191 88.4818 97.975 87.2831C97.4837 84.1937 99.4029 81.1545 102.778 81.7964C106.708 82.3357 111.776 80.3838 114.911 83.2985C116.822 84.9972 114.623 90.3485 118.573 88.2874C118.538 88.3114 118.501 88.3326 118.463 88.3508C121.789 87.508 121.035 95.7872 118.411 94.3418C117.756 93.868 115.573 94.3113 115.573 95.3352C116.21 109.577 97.9182 108.691 98.3789 95.0077ZM103.763 107.619C105.73 108.126 107.796 108.1 109.75 107.544C110.915 109.548 112.475 111.295 114.335 112.677C112.547 119.169 101.538 118.116 99.6736 112.06C101.273 110.815 102.655 109.315 103.763 107.619ZM89.3901 116.153C89.9151 115.728 90.5047 115.389 91.1368 115.149C92.9817 114.573 94.8484 114.046 96.689 113.479C100.233 120.952 113.081 120.286 116.994 113.459C125.055 114.332 128.603 120.568 127.275 128.179H88.9491C88.9949 124.788 89.3661 121.007 87.8901 117.917C88.2928 117.253 88.7992 116.658 89.3901 116.153ZM81.0934 104.272C79.9887 106.728 77.6678 109.075 78.6372 111.992C76.9944 111.712 75.4464 111.03 74.1307 110.007C72.815 108.985 71.7725 107.653 71.0959 106.13C72.8459 105.155 74.3222 103.756 75.3884 102.061C76.4545 100.365 77.0763 98.4283 77.1962 96.4291C77.6736 96.3797 78.1444 96.2787 78.6001 96.1278C80.0498 98.5644 82.2637 101.23 81.0934 104.267V104.272ZM72.5784 113.223C69.9584 118.824 60.2426 117.887 58.2296 112.208C59.8892 110.894 61.314 109.308 62.4434 107.518C64.3268 107.937 66.2848 107.883 68.1419 107.359C69.3334 109.427 70.9211 111.241 72.8142 112.695L72.7531 112.885C72.8273 112.66 72.6548 113.097 72.5872 113.23L72.5784 113.223ZM54.0507 94.975C54.5965 94.582 54.2952 94.975 53.9852 94.7326C53.5312 94.5503 53.1287 94.2599 52.8125 93.8866C52.4963 93.5134 52.276 93.0685 52.1708 92.5908C51.8564 91.6061 51.3717 87.008 53.4371 88.3115C57.9042 88.7481 61.1902 82.5649 65.8254 81.8793C69.4279 80.6741 72.919 85.436 74.5085 88.1368C74.9626 88.9119 76.456 88.4905 77.0521 88.115C80.1699 88.3813 79.3337 92.8004 78.1154 94.5994C70.692 92.8397 76.7551 102.721 67.9891 105.881C54.5834 107.913 59.5439 90.9184 54.0507 94.975ZM54.2362 76.8533C61.5308 63.8625 80.4362 73.2836 79.1655 86.5517C78.5198 86.448 77.8616 86.448 77.2158 86.5517C72.2182 76.4647 61.474 80.4056 54.8432 86.5517C53.8542 86.3838 52.839 86.4649 51.8892 86.7875C51.575 83.3093 52.3987 79.8231 54.2362 76.8533ZM52.2516 108.178C49.5268 104.313 48.5858 100.099 52.0988 96.3221C52.641 96.4322 53.1968 96.4594 53.7472 96.4029C53.7361 98.5082 54.3039 100.576 55.3886 102.38C56.4733 104.185 58.0331 105.656 59.8976 106.634C59.1954 108.156 58.1092 109.47 56.7456 110.445C55.3821 111.421 53.7882 112.024 52.1206 112.197C52.6289 110.909 52.6751 109.485 52.2516 108.167V108.178ZM49.8128 115.474C51.5981 114.756 53.4418 114.193 55.3235 113.791C59.0701 120.957 71.3514 120.524 75.3425 113.819C82.8728 114.538 87.2286 120.027 85.7527 127.601H45.2496C44.9549 123.002 44.7846 117.273 49.8128 115.463V115.474ZM10.4386 78.5389C10.8442 76.922 11.6943 75.451 12.8926 74.2923C12.7477 72.522 12.8654 70.74 13.242 69.0042C19.4055 71.3208 27.414 68.5523 32.0186 74.2028C38.1778 74.4844 38.0883 81.6261 37.5971 86.2766C37.1531 86.1935 36.701 86.1627 36.2499 86.1849C37.3089 76.5782 11.2792 76.7966 11.8446 86.1085C11.3922 86.1282 10.9436 86.2015 10.5084 86.3268C10.1991 83.7413 10.1757 81.1295 10.4386 78.5389ZM15.4231 95.0536C15.4231 93.6934 13.5345 93.8964 12.7704 94.4466C10.2443 95.0361 9.08709 87.2045 12.2093 88.6215C14.0345 89.5516 15.4188 87.8923 15.0127 86.1106C13.9712 80.0388 29.2043 81.089 31.9684 83.3422C33.8679 85.0474 31.6628 90.4751 35.6561 88.4315C38.4944 87.5058 38.2542 95.5361 35.4377 94.2567C34.6758 93.7087 32.6169 94.1235 32.6169 95.2916C33.2479 109.285 14.9428 108.64 15.4231 95.0536ZM20.6959 107.717C22.7178 108.295 24.8615 108.295 26.8834 107.717C28.0421 109.648 29.5741 111.328 31.3898 112.66C29.5711 119.481 18.4383 118.169 16.6654 111.964C18.2402 110.784 19.6031 109.345 20.6959 107.708V107.717ZM5.05447 117.5C6.85135 114.721 10.4451 113.95 13.6022 113.134C16.7484 120.775 29.6257 120.155 33.7631 113.743C37.0381 114.885 41.1253 115.156 43.051 118.448C42.0287 121.58 41.687 124.895 42.0489 128.17H3.75975C3.73355 124.734 3.12004 120.494 5.05447 117.5ZM120.302 1.30999H16.8772C7.84695 -0.0676973 -1.82958 3.22695 0.602652 14.1414C1.69432 27.1716 -5.55217 51.507 15.886 46.7495C13.0477 66.9017 27.7502 53.0201 35.4072 46.7211C41.6188 46.7386 47.8522 46.6862 54.0485 46.7473C63.57 60.4587 67.0175 60.3342 76.563 46.7211C82.6611 46.6993 88.7678 46.7583 94.8593 46.7211C102.759 52.7821 117.241 67.382 115.125 46.7626C121.57 46.8958 130.26 47.0748 130.408 38.6843C127.996 27.5449 137.987 0.545819 120.302 1.30999ZM94.9096 46.7102C95.224 46.8456 95.5253 46.6862 94.9096 46.7102V46.7102ZM126.904 41.5794C122.426 50.6752 109.173 37.6494 111.953 53.1947C111.953 54.1052 112.317 55.8147 110.861 55.5964C103.547 49.8586 97.2872 42.8261 87.0889 44.981C74.0587 43.8086 73.7924 45.933 66.262 55.4894C61.5963 54.4349 59.9653 45.3587 54.7144 44.9788C36.5272 44.4963 34.4247 43.3544 20.4885 55.8628C17.4034 54.4152 19.7112 48.422 19.0475 45.4264C13.5367 44.0793 3.2554 47.3347 3.76412 37.8983C5.45839 29.8112 -0.768481 5.34042 8.2334 3.05665C38.752 3.00644 69.3274 3.09377 99.8635 3.05665C137.921 1.13532 125.657 5.95612 126.904 41.5794Z" fill="#8EFF01"/>
<path d="M17.3093 14.1916H113.376C115.136 14.1916 115.843 12.0083 113.69 12.0083H17.6237C15.8639 12.0083 15.1565 14.1916 17.3093 14.1916ZM81.7111 23.2023H18.104C17.0123 23.2023 14.7111 24.831 16.8289 24.831C37.8894 25.4445 172.819 24.283 81.7111 23.2023ZM26.6627 34.0884C-11.5457 36.2935 79.829 35.8634 86.7043 35.7783C87.8266 35.7783 90.0841 34.0884 87.9619 34.0884H26.6627Z" fill="black"/>
</g>
<defs>
<clipPath id="clip0_1_3557">
<rect width="131" height="131" fill="white"/>
</clipPath>
</defs>
</svg>
