<svg width="131" height="131" viewBox="0 0 131 131" fill="none" xmlns="http://www.w3.org/2000/svg">
<path d="M78.1282 121.422C77.9151 121.421 77.7069 121.359 77.529 121.242C77.3512 121.124 77.2115 120.958 77.1273 120.762C77.043 120.566 77.0178 120.35 77.0549 120.14C77.0919 119.931 77.1895 119.736 77.3356 119.581L78.936 117.9L76.3575 119.389C76.2332 119.468 76.0943 119.521 75.949 119.545C75.8037 119.569 75.6551 119.563 75.5121 119.528C75.3691 119.493 75.2347 119.43 75.1169 119.341C74.9991 119.253 74.9004 119.142 74.8267 119.014C74.753 118.887 74.7059 118.746 74.6881 118.599C74.6704 118.453 74.6824 118.305 74.7234 118.164C74.7644 118.022 74.8336 117.891 74.9268 117.777C75.0201 117.663 75.1354 117.569 75.2658 117.501L84.3332 112.261C84.5601 112.131 84.8261 112.087 85.0828 112.136C85.3395 112.186 85.5698 112.326 85.7318 112.531C85.8939 112.737 85.9769 112.993 85.9659 113.254C85.9548 113.515 85.8504 113.764 85.6716 113.955L84.0712 115.649L85.0188 115.101C85.143 115.022 85.282 114.969 85.4272 114.945C85.5725 114.921 85.7211 114.927 85.8642 114.962C86.0072 114.997 86.1416 115.061 86.2594 115.149C86.3772 115.237 86.4759 115.349 86.5496 115.476C86.6232 115.603 86.6704 115.745 86.6881 115.891C86.7059 116.037 86.6939 116.185 86.6529 116.326C86.6118 116.468 86.5426 116.6 86.4494 116.713C86.3562 116.827 86.2409 116.921 86.1104 116.99L78.674 121.284C78.5076 121.378 78.3192 121.426 78.1282 121.422Z" fill="black"/>
<path d="M89.453 115.92C89.2423 115.92 89.0361 115.859 88.8594 115.744C88.6826 115.63 88.5427 115.467 88.4566 115.274C88.3705 115.082 88.3419 114.869 88.3742 114.661C88.4065 114.453 88.4983 114.258 88.6386 114.101L88.9224 113.782L86.8963 114.95C86.6637 115.097 86.3843 115.15 86.1141 115.1C85.8438 115.049 85.6026 114.899 85.4385 114.678C85.2744 114.458 85.1996 114.183 85.2291 113.91C85.2585 113.637 85.39 113.384 85.5972 113.204L86.1649 112.664L85.0557 113.304C84.9315 113.383 84.7925 113.436 84.6473 113.46C84.502 113.484 84.3534 113.478 84.2104 113.443C84.0674 113.408 83.9329 113.345 83.8151 113.256C83.6973 113.168 83.5986 113.057 83.525 112.929C83.4513 112.802 83.4041 112.661 83.3864 112.514C83.3686 112.368 83.3806 112.22 83.4216 112.079C83.4627 111.937 83.5319 111.806 83.6251 111.692C83.7183 111.578 83.8336 111.484 83.9641 111.416L93.0096 106.2C93.2422 106.056 93.5204 106.004 93.7891 106.056C94.0577 106.107 94.2973 106.258 94.4604 106.477C94.6234 106.697 94.6981 106.97 94.6696 107.242C94.6411 107.514 94.5115 107.765 94.3065 107.946L93.7367 108.488C93.9632 108.369 94.2242 108.333 94.4742 108.387C94.7242 108.442 94.9473 108.582 95.1045 108.783C95.2618 108.985 95.3432 109.236 95.3347 109.491C95.3261 109.747 95.228 109.991 95.0576 110.182L93.8327 111.553C94.0179 111.634 94.177 111.764 94.2924 111.93C94.4079 112.096 94.4751 112.29 94.4866 112.492C94.4982 112.693 94.4536 112.894 94.3578 113.072C94.262 113.249 94.1188 113.397 93.9441 113.498L89.9901 115.782C89.8262 115.874 89.641 115.922 89.453 115.92Z" fill="black"/>
<path d="M95.1429 106.983C94.9359 106.983 94.7331 106.925 94.5582 106.814C94.3834 106.703 94.2436 106.545 94.1553 106.358C94.0669 106.17 94.0336 105.962 94.0593 105.756C94.0849 105.551 94.1685 105.357 94.3001 105.197L95.2149 104.09L92.2805 105.785C92.1563 105.864 92.0173 105.917 91.872 105.941C91.7268 105.965 91.5782 105.959 91.4352 105.924C91.2922 105.889 91.1577 105.825 91.0399 105.737C90.9221 105.648 90.8234 105.537 90.7497 105.41C90.6761 105.282 90.6289 105.141 90.6112 104.995C90.5934 104.849 90.6054 104.701 90.6464 104.559C90.6875 104.418 90.7567 104.286 90.8499 104.172C90.9431 104.058 91.0584 103.964 91.1889 103.896L99.3742 99.1692C99.5957 99.0424 99.8547 98.9973 100.106 99.0416C100.357 99.0859 100.585 99.2169 100.75 99.4118C100.915 99.6067 101.006 99.8532 101.008 100.108C101.01 100.364 100.922 100.612 100.761 100.809L99.3283 102.542C99.5435 102.589 99.7394 102.7 99.8906 102.86C100.042 103.02 100.141 103.222 100.175 103.439C100.209 103.657 100.177 103.88 100.082 104.078C99.9878 104.277 99.8353 104.443 99.6449 104.553L95.6887 106.837C95.5228 106.933 95.3345 106.983 95.1429 106.983ZM46.8716 55.2929C46.6319 55.2921 46.3993 55.2125 46.2094 55.0663C46.0195 54.9201 45.883 54.7155 45.821 54.4841C45.7589 54.2527 45.7747 54.0073 45.8659 53.7857C45.9571 53.5641 46.1187 53.3787 46.3257 53.2581L52.998 49.4045C53.1222 49.3255 53.2612 49.2725 53.4065 49.2486C53.5517 49.2247 53.7004 49.2304 53.8434 49.2654C53.9864 49.3005 54.1208 49.3641 54.2386 49.4524C54.3564 49.5407 54.4551 49.652 54.5288 49.7794C54.6025 49.9069 54.6496 50.048 54.6673 50.1941C54.6851 50.3403 54.6731 50.4885 54.6321 50.6299C54.5911 50.7713 54.5219 50.903 54.4286 51.0169C54.3354 51.1309 54.2201 51.2248 54.0897 51.2931L47.4174 55.1467C47.2517 55.2431 47.0633 55.2936 46.8716 55.2929Z" fill="black"/>
<path d="M71.1306 128.005C70.924 128.005 70.7215 127.946 70.5468 127.836C70.3721 127.726 70.2323 127.568 70.1435 127.382C70.0548 127.195 70.0209 126.987 70.0456 126.782C70.0704 126.577 70.1529 126.383 70.2834 126.223L72.0061 124.116L68.4494 126.168C68.2077 126.308 67.9216 126.35 67.65 126.285C67.3784 126.22 67.142 126.054 66.9893 125.82C66.8367 125.586 66.7794 125.303 66.8292 125.028C66.8791 124.753 67.0323 124.508 67.2573 124.343L76.5605 117.511L65.8622 123.69C65.619 123.825 65.3336 123.862 65.0642 123.793C64.7948 123.725 64.5617 123.556 64.4125 123.321C64.2632 123.087 64.209 122.804 64.2609 122.531C64.3128 122.258 64.467 122.015 64.6919 121.852L77.9971 112.573L62.8994 121.289C62.6557 121.428 62.3675 121.469 62.0947 121.402C61.8219 121.334 61.5856 121.165 61.4348 120.927C61.2841 120.69 61.2305 120.404 61.2853 120.129C61.3402 119.853 61.4991 119.609 61.7291 119.448L77.5539 108.429L59.5698 118.81C59.3267 118.951 59.0389 118.992 58.7662 118.925C58.4935 118.859 58.2568 118.69 58.1054 118.454C57.9539 118.218 57.8993 117.932 57.9529 117.656C58.0064 117.381 58.1641 117.137 58.393 116.974L77.0714 103.73L55.8079 116.007C55.5607 116.158 55.2636 116.204 54.9821 116.136C54.7006 116.068 54.4577 115.891 54.3069 115.644C54.156 115.396 54.1096 115.099 54.1778 114.818C54.2459 114.536 54.4232 114.293 54.6704 114.143L55.8101 113.413L53.8451 114.546C53.5998 114.686 53.3099 114.725 53.0363 114.656C52.7627 114.586 52.5267 114.413 52.3779 114.173C52.229 113.933 52.1788 113.645 52.2378 113.369C52.2969 113.093 52.4605 112.851 52.6945 112.693L64.4976 104.833L51.1531 112.536C50.9061 112.687 50.6092 112.734 50.3277 112.666C50.0462 112.598 49.8032 112.421 49.652 112.174C49.5009 111.927 49.4541 111.63 49.5218 111.349C49.5896 111.067 49.7664 110.824 50.0134 110.673L54.6333 107.691L49.009 110.937C48.7655 111.073 48.4791 111.111 48.2087 111.043C47.9383 110.974 47.7043 110.805 47.5548 110.569C47.4053 110.334 47.3517 110.05 47.4049 109.776C47.4581 109.502 47.6141 109.259 47.8409 109.097L67.5324 95.4379L45.3716 108.23C45.1275 108.366 44.8407 108.403 44.5702 108.334C44.2997 108.264 44.066 108.094 43.9172 107.858C43.7684 107.621 43.7158 107.337 43.7703 107.063C43.8248 106.789 43.9822 106.547 44.2101 106.385L63.3361 93.2851L41.9197 105.673C41.6737 105.805 41.3865 105.838 41.1172 105.764C40.8479 105.691 40.617 105.517 40.4719 105.278C40.3268 105.04 40.2786 104.755 40.3371 104.482C40.3956 104.209 40.5565 103.969 40.7866 103.811L44.4328 101.484L39.8478 104.128C39.6022 104.259 39.3156 104.292 39.0466 104.22C38.7776 104.147 38.5466 103.974 38.4009 103.736C38.2552 103.499 38.2059 103.215 38.263 102.942C38.3201 102.669 38.4793 102.429 38.7081 102.27L49.6247 95.1606L37.3347 102.248C37.09 102.389 36.7998 102.431 36.5253 102.363C36.2509 102.295 36.0135 102.123 35.8632 101.883C35.7126 101.643 35.661 101.355 35.7192 101.078C35.7775 100.801 35.941 100.557 36.1754 100.398L56.4149 86.6806L33.8807 99.6823C33.6357 99.8196 33.3473 99.8573 33.0752 99.7874C32.8032 99.7175 32.5686 99.5455 32.4202 99.3071C32.2717 99.0687 32.2209 98.7822 32.2782 98.5073C32.3355 98.2323 32.4966 97.9901 32.7279 97.8308L50.9107 85.7221L30.1297 97.726C29.884 97.8685 29.5923 97.9096 29.3167 97.8405C29.0412 97.7715 28.8034 97.5977 28.6539 97.3561C28.5044 97.1145 28.4549 96.8241 28.5161 96.5467C28.5772 96.2693 28.7441 96.0266 28.9813 95.8702L47.6357 83.5147L25.0229 96.5645C24.7777 96.7066 24.4869 96.7478 24.2119 96.6794C23.9369 96.6109 23.6993 96.4382 23.5493 96.1978C23.3993 95.9574 23.3487 95.668 23.4082 95.3909C23.4676 95.1139 23.6325 94.8708 23.8679 94.713L48.6029 78.052L21.1912 93.8834C20.9451 94.0151 20.6579 94.0476 20.3886 93.9741C20.1193 93.9007 19.8884 93.7268 19.7433 93.4884C19.5982 93.2499 19.55 92.965 19.6085 92.692C19.6671 92.4191 19.8279 92.179 20.058 92.021L32.1581 84.2767L20.1868 91.1935C19.9405 91.3368 19.6478 91.378 19.3714 91.3084C19.095 91.2388 18.8568 91.0638 18.7077 90.8209C18.5586 90.578 18.5104 90.2864 18.5734 90.0084C18.6364 89.7305 18.8057 89.4882 19.045 89.3333L37.3195 77.4232L20.9597 86.864C20.7142 87.0013 20.4251 87.0385 20.1528 86.9679C19.8804 86.8973 19.6459 86.7242 19.498 86.4849C19.3502 86.2455 19.3005 85.9583 19.3593 85.6832C19.418 85.408 19.5808 85.1662 19.8135 85.0081L36.2671 74.2225L21.7261 82.6196C21.4811 82.7569 21.1926 82.7945 20.9206 82.7246C20.6486 82.6547 20.414 82.4827 20.2656 82.2443C20.1171 82.0059 20.0663 81.7195 20.1236 81.4445C20.1809 81.1696 20.342 80.9273 20.5733 80.7681L36.4854 70.1134L22.5121 78.1765C22.2651 78.3276 21.9682 78.3744 21.6867 78.3067C21.4052 78.2389 21.1622 78.0621 21.0111 77.8151C20.8599 77.5682 20.8131 77.2713 20.8808 76.9898C20.9486 76.7083 21.1254 76.4652 21.3724 76.3141L25.1343 73.8775L23.0732 75.0652C22.8284 75.2047 22.5392 75.2442 22.2659 75.1753C21.9927 75.1065 21.7567 74.9347 21.6073 74.6958C21.4578 74.457 21.4065 74.1696 21.464 73.8938C21.5216 73.618 21.6835 73.3751 21.916 73.2159L31.2258 66.9127L23.7719 71.2204C23.5488 71.3492 23.2875 71.395 23.0339 71.3497C22.7804 71.3043 22.551 71.1709 22.3864 70.9728C22.2218 70.7747 22.1325 70.5248 22.1343 70.2673C22.1361 70.0097 22.229 69.7611 22.3964 69.5654L24.3876 67.2467C24.1318 67.3598 23.8424 67.3705 23.579 67.2764C23.3156 67.1824 23.0983 66.9909 22.972 66.7413C22.8457 66.4918 22.82 66.2033 22.9002 65.9354C22.9803 65.6674 23.1603 65.4405 23.4029 65.3014L28.8197 62.1726C29.0425 62.0451 29.3032 62.0002 29.5558 62.0457C29.8084 62.0913 30.0369 62.2244 30.2011 62.4218C30.3653 62.6191 30.4548 62.868 30.4537 63.1247C30.4526 63.3814 30.3611 63.6295 30.1952 63.8254L28.2171 66.1332L56.5481 49.78C56.7923 49.6461 57.0785 49.6107 57.348 49.6809C57.6176 49.7511 57.8501 49.9217 57.998 50.1577C58.1458 50.3938 58.1979 50.6774 58.1435 50.9506C58.0891 51.2237 57.9323 51.4658 57.7052 51.6271L48.3999 57.9282L60.6069 50.8826C60.853 50.7451 61.1428 50.7081 61.4156 50.7795C61.6883 50.8508 61.9229 51.0249 62.0702 51.2653C62.2175 51.5057 62.2661 51.7938 62.2058 52.0692C62.1454 52.3446 61.9809 52.586 61.7466 52.7428L57.9454 55.2078L63.8928 51.7756C64.1372 51.6434 64.4229 51.6095 64.6915 51.6806C64.9601 51.7517 65.1915 51.9226 65.3385 52.1584C65.4855 52.3942 65.537 52.6772 65.4826 52.9497C65.4282 53.2221 65.2719 53.4636 65.0456 53.6249L49.1553 64.2665L68.587 53.0485C68.8325 52.9111 69.1216 52.8739 69.394 52.9445C69.6663 53.0152 69.9008 53.1882 70.0487 53.4276C70.1965 53.6669 70.2462 53.9542 70.1875 54.2293C70.1287 54.5044 69.966 54.7462 69.7332 54.9043L53.2643 65.7009L71.2092 55.341C71.4551 55.2012 71.7457 55.1623 72.0198 55.2325C72.2939 55.3028 72.5299 55.4767 72.6783 55.7176C72.8266 55.9585 72.8756 56.2476 72.815 56.524C72.7544 56.8003 72.5888 57.0423 72.3532 57.199L54.0831 69.1069L73.1851 58.0811C73.4312 57.9493 73.7184 57.9169 73.9876 57.9903C74.2569 58.0638 74.4878 58.2376 74.6329 58.4761C74.778 58.7145 74.8263 58.9995 74.7677 59.2724C74.7092 59.5453 74.5483 59.7855 74.3182 59.9435L62.2247 67.6681L74.8313 60.3889C75.0768 60.2354 75.3733 60.1858 75.6554 60.2509C75.9375 60.316 76.1822 60.4905 76.3356 60.736C76.4891 60.9815 76.5387 61.2779 76.4736 61.5601C76.4085 61.8422 76.234 62.0869 75.9885 62.2403L51.2448 78.9035L77.3203 63.8385C77.5661 63.696 77.8577 63.6549 78.1333 63.724C78.4089 63.7931 78.6467 63.9669 78.7962 64.2085C78.9457 64.4501 78.9951 64.7404 78.934 65.0179C78.8728 65.2953 78.7059 65.538 78.4687 65.6944L59.8078 78.0542L79.4076 66.738C79.6529 66.5984 79.9428 66.5593 80.2164 66.6289C80.49 66.6985 80.726 66.8713 80.8748 67.1112C81.0237 67.351 81.0739 67.6392 81.0149 67.9152C80.9558 68.1912 80.7921 68.4337 80.5582 68.5916L62.371 80.7026L81.5079 69.6549C81.7527 69.5154 82.042 69.476 82.3152 69.5448C82.5884 69.6136 82.8244 69.7855 82.9739 70.0243C83.1234 70.2631 83.1747 70.5505 83.1171 70.8264C83.0596 71.1022 82.8976 71.3451 82.6651 71.5042L62.4431 85.2308L83.8398 72.8819C84.0853 72.7501 84.3719 72.7172 84.6409 72.7899C84.9099 72.8626 85.1409 73.0354 85.2866 73.273C85.4323 73.5105 85.4816 73.7947 85.4245 74.0675C85.3674 74.3402 85.2082 74.5808 84.9795 74.7399L74.0628 81.8423L85.5209 75.229C85.768 75.0842 86.062 75.0423 86.3397 75.1123C86.6173 75.1822 86.8564 75.3585 87.0053 75.6031C87.1542 75.8476 87.2011 76.1409 87.1358 76.4197C87.0705 76.6985 86.8983 76.9405 86.6562 77.0935L83.0101 79.4188L86.9095 77.1678C87.1536 77.032 87.4404 76.995 87.7109 77.0643C87.9814 77.1336 88.2151 77.3039 88.3639 77.5402C88.5127 77.7765 88.5653 78.0609 88.5108 78.3348C88.4563 78.6087 88.2989 78.8513 88.0711 79.0127L68.9341 92.1127L89.2391 80.3947C89.4832 80.2527 89.7728 80.2108 90.0471 80.2777C90.3214 80.3447 90.5591 80.5153 90.7102 80.7538C90.8614 80.9923 90.9143 81.2801 90.8578 81.5567C90.8013 81.8334 90.6398 82.0774 90.4072 82.2375L70.731 95.8877L91.691 83.7898C91.8133 83.715 91.9491 83.665 92.0907 83.6426C92.2324 83.6203 92.377 83.6261 92.5164 83.6596C92.6558 83.6932 92.7872 83.7539 92.9031 83.8382C93.019 83.9225 93.1172 84.0289 93.1921 84.1512C93.2669 84.2734 93.3169 84.4093 93.3392 84.5509C93.3616 84.6925 93.3558 84.8371 93.3223 84.9765C93.2887 85.1159 93.228 85.2473 93.1437 85.3632C93.0593 85.4792 92.953 85.5774 92.8307 85.6522L88.178 88.6434L93.1189 85.7898C93.3645 85.6439 93.6575 85.6001 93.9351 85.6677C94.2126 85.7354 94.4526 85.9092 94.6034 86.1518C94.7543 86.3944 94.8041 86.6865 94.7421 86.9653C94.68 87.2442 94.5112 87.4876 94.2717 87.6434L82.4533 95.5034L94.9289 88.2984C95.1773 88.1476 95.4755 88.1016 95.7578 88.1706C96.0401 88.2396 96.2835 88.4179 96.4343 88.6663C96.5852 88.9147 96.6311 89.2129 96.5621 89.4952C96.4931 89.7775 96.3148 90.0209 96.0664 90.1717L94.9376 90.8944L96.2476 90.139C96.4908 89.9988 96.7786 89.9576 97.0513 90.024C97.324 90.0904 97.5606 90.2593 97.7121 90.4956C97.8635 90.7319 97.9181 91.0175 97.8646 91.293C97.811 91.5685 97.6534 91.8128 97.4245 91.9751L78.7504 105.215L98.7781 93.6432C99.0213 93.5086 99.3067 93.4717 99.5761 93.5403C99.8455 93.6088 100.079 93.7775 100.228 94.012C100.377 94.2465 100.431 94.5291 100.379 94.8022C100.327 95.0753 100.173 95.3182 99.9484 95.4816L84.1149 106.507L99.0292 97.8985C99.273 97.7537 99.5637 97.7095 99.8396 97.7752C100.115 97.841 100.355 98.0115 100.507 98.2507C100.66 98.4899 100.713 98.779 100.656 99.0568C100.599 99.3346 100.436 99.5793 100.202 99.7391L86.8964 109.02L92.6844 105.673C92.9276 105.514 93.224 105.459 93.5084 105.518C93.6492 105.548 93.7828 105.605 93.9016 105.686C94.0204 105.767 94.1221 105.871 94.2008 105.991C94.2795 106.111 94.3337 106.246 94.3603 106.388C94.3869 106.529 94.3855 106.674 94.356 106.815C94.3265 106.956 94.2695 107.089 94.1884 107.208C94.1072 107.327 94.0035 107.429 93.8831 107.507L77.5081 119.533C77.6542 119.728 77.7308 119.967 77.7257 120.211C77.7205 120.454 77.6339 120.689 77.4797 120.878L75.7549 122.989L75.9361 122.885C76.0603 122.806 76.1993 122.753 76.3446 122.729C76.4898 122.705 76.6385 122.711 76.7815 122.746C76.9245 122.781 77.0589 122.844 77.1767 122.932C77.2945 123.021 77.3932 123.132 77.4669 123.26C77.5405 123.387 77.5877 123.528 77.6054 123.674C77.6232 123.82 77.6112 123.969 77.5702 124.11C77.5292 124.251 77.46 124.383 77.3667 124.497C77.2735 124.611 77.1582 124.705 77.0277 124.773L71.6873 127.858C71.5182 127.956 71.3259 128.006 71.1306 128.005Z" fill="black"/>
<path d="M75.8795 39.8437C75.7024 39.8438 75.5279 39.8007 75.3712 39.7183C75.2144 39.6359 75.0801 39.5166 74.9797 39.3707C74.8793 39.2248 74.816 39.0566 74.7951 38.8808C74.7742 38.7049 74.7964 38.5266 74.8598 38.3612L75.2485 37.3482L73.6656 38.2608C73.449 38.3842 73.1967 38.4298 72.9506 38.3899C72.7046 38.3501 72.4795 38.2272 72.313 38.0418C72.1464 37.8563 72.0483 37.6195 72.035 37.3705C72.0217 37.1216 72.094 36.8757 72.2399 36.6735L72.9669 35.6757L70.943 36.8438C70.7269 36.9678 70.475 37.0143 70.229 36.9754C69.983 36.9365 69.7576 36.8147 69.5904 36.6301C69.4231 36.4455 69.324 36.2093 69.3095 35.9606C69.295 35.712 69.366 35.4658 69.5107 35.2631L72.3294 31.3331L66.6527 34.6081C66.4155 34.7455 66.1352 34.7886 65.8676 34.7288C65.6001 34.6691 65.3648 34.5108 65.2085 34.2855C65.0523 34.0603 64.9866 33.7844 65.0244 33.5129C65.0622 33.2414 65.2007 32.994 65.4126 32.8199L67.0937 31.4357L53.6095 39.2215C53.4898 39.3009 53.3556 39.356 53.2146 39.3835C53.0736 39.4111 52.9286 39.4106 52.7878 39.3821C52.647 39.3536 52.5132 39.2977 52.394 39.2175C52.2748 39.1373 52.1726 39.0344 52.0931 38.9147C52.0137 38.795 51.9587 38.6608 51.9311 38.5198C51.9035 38.3789 51.904 38.2338 51.9325 38.093C51.961 37.9522 52.0169 37.8184 52.0971 37.6992C52.1773 37.58 52.2802 37.4778 52.3999 37.3984L67.3557 26.3878L54.4981 33.8112C54.2551 33.9477 53.9691 33.9861 53.6987 33.9185C53.4283 33.8509 53.194 33.6825 53.0438 33.4477C52.8936 33.2129 52.8389 32.9296 52.8909 32.6557C52.9429 32.3819 53.0977 32.1384 53.3235 31.975L58.891 28.0559L55.1094 30.2392C54.8701 30.3778 54.5871 30.4204 54.3176 30.3584C54.048 30.2964 53.8121 30.1344 53.6574 29.9051C53.5027 29.6759 53.4408 29.3964 53.4842 29.1233C53.5276 28.8502 53.673 28.6037 53.8911 28.4336L61.0765 22.7919L55.0745 26.2525C54.8376 26.3868 54.559 26.4278 54.2934 26.3673C54.0279 26.3068 53.7945 26.1493 53.6392 25.9256C53.4838 25.7018 53.4177 25.4281 53.4538 25.1582C53.49 24.8882 53.6257 24.6415 53.8344 24.4665L60.0831 19.3095L52.4414 23.7154C52.2053 23.8482 51.9282 23.8885 51.6641 23.8284C51.4 23.7683 51.1676 23.6122 51.0122 23.3903C50.8568 23.1685 50.7894 22.8968 50.8231 22.628C50.8568 22.3592 50.9893 22.1126 51.1947 21.936L58.8211 15.5432L49.5419 20.9011C49.394 20.9868 49.2281 21.0366 49.0574 21.0465C48.8868 21.0564 48.7162 21.026 48.5594 20.9579C48.4027 20.8892 48.2644 20.7846 48.1556 20.6527C48.0467 20.5207 47.9704 20.365 47.9328 20.1981L47.2516 17.1873L46.47 17.6392C46.2189 17.784 45.9207 17.8231 45.6408 17.748C45.361 17.6728 45.1224 17.4896 44.9777 17.2386C44.8329 16.9876 44.7938 16.6893 44.8689 16.4094C44.944 16.1296 45.1273 15.891 45.3783 15.7463L47.4416 14.5563C47.5904 14.4718 47.7568 14.423 47.9277 14.4139C48.0986 14.4048 48.2693 14.4357 48.4262 14.5039C48.5827 14.5724 48.7208 14.6766 48.8297 14.8082C48.9385 14.9398 49.0149 15.0951 49.0529 15.2616L49.7341 18.2702L68.5784 7.39283C68.8145 7.26004 69.0915 7.21978 69.3557 7.27987C69.6198 7.33995 69.8522 7.49609 70.0076 7.71794C70.163 7.93979 70.2304 8.21151 70.1967 8.48028C70.163 8.74905 70.0305 8.99569 69.8251 9.17225L62.1987 15.5672L70.3251 10.8752C70.5623 10.7378 70.8426 10.6947 71.1101 10.7545C71.3777 10.8143 71.613 10.9725 71.7692 11.1978C71.9255 11.4231 71.9912 11.6989 71.9534 11.9704C71.9156 12.242 71.777 12.4894 71.5652 12.6634L65.3187 17.8182L73.2595 13.2332C73.4984 13.0982 73.7795 13.0582 74.0466 13.1211C74.3138 13.184 74.5474 13.3452 74.7011 13.5726C74.8547 13.8 74.917 14.077 74.8757 14.3483C74.8343 14.6196 74.6922 14.8654 74.4778 15.0367L67.2968 20.6828L78.8182 14.0345C79.0617 13.8923 79.3508 13.8498 79.6249 13.916C79.899 13.9821 80.1369 14.1518 80.2888 14.3894C80.4406 14.627 80.4946 14.9142 80.4394 15.1907C80.3843 15.4672 80.2242 15.7117 79.9929 15.8729L74.4145 19.8029L83.2875 14.683C83.5288 14.5477 83.8125 14.5092 84.0812 14.575C84.3498 14.6409 84.5835 14.8063 84.7349 15.0379C84.8863 15.2694 84.9441 15.5497 84.8967 15.8223C84.8494 16.0948 84.7003 16.3392 84.4796 16.5061L69.5238 27.5101L77.3838 22.9709C77.6208 22.8342 77.9004 22.7914 78.1674 22.8511C78.4344 22.9108 78.6693 23.0685 78.8255 23.2931C78.9818 23.5177 79.048 23.7928 79.011 24.0638C78.9741 24.3349 78.8367 24.5823 78.6261 24.7569L76.1851 26.7677C76.3831 26.7735 76.5758 26.8329 76.7425 26.9397C76.9093 27.0466 77.0438 27.1968 77.1317 27.3742C77.2197 27.5516 77.2577 27.7497 77.2417 27.9471C77.2257 28.1444 77.1563 28.3338 77.041 28.4947L74.2332 32.4291L76.362 31.1999C76.5788 31.0755 76.8317 31.0293 77.0785 31.069C77.3252 31.1087 77.5509 31.2319 77.7178 31.4179C77.8847 31.604 77.9827 31.8417 77.9954 32.0913C78.0081 32.3409 77.9348 32.5873 77.7877 32.7894L77.0301 33.8264C77.2264 33.7605 77.4374 33.7518 77.6384 33.8013C77.8395 33.8508 78.0223 33.9564 78.1656 34.1059C78.3089 34.2554 78.4067 34.4425 78.4476 34.6454C78.4886 34.8484 78.471 35.0588 78.3969 35.2522L77.91 36.525C78.1444 36.5378 78.3684 36.6258 78.5489 36.776C78.7293 36.9261 78.8566 37.1305 78.9117 37.3587C78.9669 37.5868 78.947 37.8267 78.855 38.0427C78.7631 38.2587 78.6039 38.4393 78.4012 38.5577L76.4362 39.6974C76.2671 39.7951 76.0748 39.8456 75.8795 39.8437Z" fill="white"/>
<path d="M61.2032 10.8119C61.0059 10.8119 60.8123 10.7585 60.6429 10.6573C60.4736 10.556 60.3348 10.4108 60.2414 10.237C60.148 10.0632 60.1035 9.86732 60.1125 9.67022C60.1215 9.47312 60.1838 9.28216 60.2927 9.11763L63.5677 4.16365C63.5048 4.09704 63.4491 4.02384 63.4018 3.94532C63.3302 3.82104 63.2838 3.68387 63.2653 3.54165C63.2467 3.39943 63.2564 3.25495 63.2937 3.11647C63.331 2.97798 63.3952 2.8482 63.4827 2.73455C63.5702 2.6209 63.6792 2.5256 63.8035 2.4541L65.4803 1.48688C65.6934 1.36379 65.9418 1.3163 66.1853 1.3521C66.4287 1.38791 66.6529 1.50491 66.8215 1.68414C66.9902 1.86336 67.0933 2.09429 67.1142 2.33947C67.135 2.58465 67.0725 2.8297 66.9366 3.03487L64.6769 6.45397L67.3384 4.92563C67.5879 4.79512 67.8781 4.76606 68.1485 4.8445C68.419 4.92295 68.6486 5.10285 68.7895 5.34662C68.9304 5.59039 68.9717 5.87918 68.9047 6.15266C68.8377 6.42614 68.6676 6.66316 68.43 6.81422L61.749 10.6722C61.5829 10.7668 61.3944 10.815 61.2032 10.8119ZM36.9922 48.4438C36.8169 48.4435 36.6442 48.401 36.4888 48.3198C36.3333 48.2387 36.1997 48.1213 36.0993 47.9776C35.9988 47.8339 35.9345 47.6681 35.9117 47.4942C35.8889 47.3204 35.9083 47.1436 35.9682 46.9788L36.2324 46.2496L35.0556 46.9264C34.8406 47.0504 34.5897 47.0974 34.3444 47.0597C34.099 47.022 33.8739 46.9018 33.706 46.7189C33.5382 46.5361 33.4377 46.3015 33.421 46.0538C33.4044 45.8062 33.4727 45.5602 33.6146 45.3566L34.143 44.6034L32.5251 45.5335C32.2993 45.6617 32.0352 45.7053 31.7801 45.6563C31.5251 45.6073 31.2959 45.4691 31.1336 45.2663C30.9714 45.0635 30.8867 44.8096 30.8948 44.55C30.903 44.2905 31.0034 44.0423 31.178 43.8501L33.1736 41.6908L22.925 47.5967C22.6855 47.7334 22.4031 47.7744 22.1346 47.7114C21.866 47.6484 21.6313 47.4861 21.4776 47.2572C21.3238 47.0282 21.2624 46.7495 21.3058 46.4771C21.3491 46.2048 21.4939 45.9589 21.7111 45.7889L28.761 40.3437L23.6106 43.3174C23.3794 43.4588 23.1038 43.5093 22.8375 43.4588C22.5712 43.4083 22.3332 43.2606 22.1698 43.0444C22.0064 42.8281 21.9292 42.5588 21.9534 42.2889C21.9776 42.0189 22.1013 41.7676 22.3006 41.5838L28.4139 35.7128L23.3835 38.645C23.151 38.7763 22.8786 38.8179 22.6175 38.7619C22.3565 38.7059 22.1251 38.5561 21.967 38.341C21.8089 38.1259 21.7351 37.8603 21.7595 37.5945C21.784 37.3287 21.905 37.081 22.0997 36.8984L25.593 33.6976L21.0866 36.2914C20.9421 36.3752 20.7803 36.4248 20.6137 36.4362C20.447 36.4476 20.28 36.4207 20.1254 36.3574C19.9708 36.2942 19.8328 36.1962 19.722 36.0712C19.6111 35.9462 19.5305 35.7975 19.4862 35.6364L18.7395 32.8352L18.1217 33.1867C17.9974 33.2657 17.8585 33.3187 17.7132 33.3426C17.5679 33.3665 17.4193 33.3608 17.2763 33.3257C17.1333 33.2907 16.9988 33.2271 16.881 33.1388C16.7633 33.0505 16.6646 32.9392 16.5909 32.8117C16.5172 32.6843 16.4701 32.5432 16.4523 32.3971C16.4345 32.2509 16.4465 32.1027 16.4876 31.9613C16.5286 31.8199 16.5978 31.6882 16.691 31.5743C16.7842 31.4603 16.8995 31.3664 17.03 31.2981L18.8793 30.2305C19.0243 30.1461 19.1868 30.0964 19.3541 30.085C19.5215 30.0736 19.6892 30.101 19.8443 30.165C19.9993 30.229 20.1374 30.328 20.248 30.4541C20.3585 30.5801 20.4386 30.73 20.4818 30.892L21.2285 33.6932L33.1605 26.8026C33.3929 26.6713 33.6654 26.6298 33.9264 26.6858C34.1874 26.7418 34.4189 26.8915 34.577 27.1066C34.7351 27.3217 34.8089 27.5873 34.7844 27.8532C34.76 28.119 34.6389 28.3666 34.4443 28.5493L30.9509 31.7501L35.1626 29.3178C35.3938 29.1764 35.6693 29.1259 35.9356 29.1764C36.2019 29.2269 36.4399 29.3746 36.6034 29.5908C36.7668 29.8071 36.8439 30.0764 36.8197 30.3463C36.7955 30.6163 36.6718 30.8676 36.4726 31.0514L30.3592 36.9224L41.7934 30.3244C42.0328 30.1903 42.3139 30.1513 42.5808 30.2152C42.8477 30.279 43.0807 30.4411 43.2335 30.669C43.3863 30.897 43.4477 31.1741 43.4053 31.4452C43.363 31.7164 43.2201 31.9616 43.0051 32.1322L35.966 37.5665L38.3328 36.2019C38.5588 36.0722 38.8238 36.0276 39.0799 36.0763C39.3359 36.1249 39.5661 36.2636 39.7289 36.4672C39.8916 36.6708 39.9761 36.9259 39.9671 37.1864C39.9581 37.4468 39.8562 37.6955 39.6799 37.8874L37.597 40.1428C37.8128 40.0864 38.0408 40.0975 38.2501 40.1746C38.4594 40.2518 38.6401 40.3911 38.7679 40.574C38.8956 40.7569 38.9642 40.9746 38.9645 41.1977C38.9648 41.4207 38.8967 41.6386 38.7694 41.8218L38.1385 42.7257C38.2913 42.7031 38.4473 42.7132 38.5959 42.7553C38.7446 42.7975 38.8826 42.8707 39.0009 42.9702C39.1722 43.1139 39.2953 43.3068 39.3535 43.5227C39.4117 43.7387 39.4022 43.9673 39.3262 44.1776L38.9201 45.2933C39.139 45.3346 39.3401 45.4418 39.4963 45.6007C39.6525 45.7596 39.7564 45.9624 39.7939 46.1821C39.8315 46.4017 39.8009 46.6275 39.7064 46.8293C39.6119 47.031 39.4578 47.199 39.2651 47.3107L37.5577 48.2954C37.3862 48.3954 37.1907 48.4467 36.9922 48.4438Z" fill="white"/>
<path d="M26.938 29.9117C26.7435 29.912 26.5524 29.8603 26.3845 29.7619C26.2166 29.6635 26.0781 29.5221 25.9832 29.3522C25.8884 29.1823 25.8407 28.9902 25.845 28.7956C25.8493 28.6011 25.9056 28.4113 26.0079 28.2458L28.8594 23.628C28.8222 23.5827 28.7886 23.5345 28.7589 23.4839C28.6869 23.3597 28.6401 23.2225 28.6212 23.0801C28.6023 22.9378 28.6117 22.7931 28.6488 22.6543C28.686 22.5156 28.7501 22.3856 28.8375 22.2717C28.925 22.1578 29.0341 22.0622 29.1585 21.9905L30.4991 21.2198C30.7105 21.0944 30.958 21.0439 31.2016 21.0767C31.4453 21.1094 31.6707 21.2235 31.8415 21.4003C32.0122 21.5771 32.1183 21.8064 32.1426 22.051C32.1668 22.2956 32.1078 22.5413 31.975 22.7482L30.1301 25.7197L32.0951 24.5843C32.2193 24.5054 32.3583 24.4523 32.5036 24.4284C32.6488 24.4045 32.7974 24.4103 32.9405 24.4453C33.0835 24.4803 33.2179 24.5439 33.3357 24.6323C33.4535 24.7206 33.5522 24.8318 33.6259 24.9593C33.6995 25.0868 33.7467 25.2278 33.7644 25.374C33.7822 25.5201 33.7702 25.6684 33.7292 25.8098C33.6881 25.9512 33.6189 26.0828 33.5257 26.1968C33.4325 26.3108 33.3172 26.4047 33.1867 26.4729L27.4686 29.7741C27.3067 29.8654 27.1239 29.9128 26.938 29.9117ZM106.328 48.1491C106.083 48.1496 105.845 48.0664 105.654 47.9133C105.482 47.7781 105.355 47.5945 105.289 47.3862C105.223 47.178 105.22 46.9547 105.283 46.7452L106.023 44.2693L103.13 45.9374C102.91 46.0636 102.652 46.1092 102.402 46.0661C102.152 46.0231 101.924 45.8942 101.759 45.7016C101.593 45.509 101.5 45.2648 101.495 45.0109C101.491 44.7571 101.574 44.5095 101.733 44.3108L104.962 40.2694L92.8594 47.2561C92.6173 47.3918 92.3325 47.4302 92.0631 47.3634C91.7937 47.2967 91.5598 47.1298 91.409 46.8967C91.2583 46.6636 91.202 46.3818 91.2516 46.1087C91.3012 45.8356 91.453 45.5916 91.6761 45.4264L94.8856 43.1099L93.3856 43.9833C93.1498 44.1218 92.8707 44.1667 92.6034 44.1093C92.336 44.0519 92.1 43.8962 91.9419 43.6731C91.7839 43.45 91.7153 43.1757 91.7497 42.9044C91.7842 42.6332 91.9192 42.3847 92.128 42.2082L97.7545 37.4049L94.0996 39.514C93.8723 39.647 93.6047 39.6933 93.346 39.6446C93.0873 39.5958 92.8549 39.4552 92.6917 39.2486C92.5285 39.0421 92.4454 38.7835 92.4577 38.5205C92.4701 38.2575 92.5771 38.0079 92.759 37.8175L97.7152 32.5775L91.0669 36.4158C90.9226 36.4984 90.7614 36.5469 90.5956 36.5576C90.4297 36.5684 90.2636 36.5412 90.1099 36.478C89.9561 36.4148 89.8188 36.3174 89.7085 36.1931C89.5981 36.0688 89.5176 35.921 89.4731 35.7608L88.6347 32.8221L87.9884 33.1867C87.8642 33.2657 87.7252 33.3187 87.5799 33.3426C87.4347 33.3665 87.286 33.3608 87.143 33.3257C87 33.2907 86.8656 33.2271 86.7478 33.1388C86.63 33.0504 86.5313 32.9392 86.4576 32.8117C86.3839 32.6843 86.3368 32.5432 86.3191 32.397C86.3013 32.2509 86.3133 32.1026 86.3543 31.9612C86.3954 31.8198 86.4646 31.6882 86.5578 31.5742C86.651 31.4603 86.7663 31.3663 86.8967 31.2981L88.746 30.2304C88.8904 30.1475 89.0518 30.0986 89.2179 30.0876C89.384 30.0766 89.5505 30.1038 89.7045 30.167C89.8585 30.2302 89.996 30.3278 90.1065 30.4523C90.217 30.5769 90.2976 30.725 90.342 30.8854L91.1805 33.822L103.093 26.9467C103.32 26.8169 103.586 26.7729 103.842 26.8226C104.099 26.8723 104.329 27.0125 104.491 27.2176C104.653 27.4228 104.736 27.6793 104.725 27.9405C104.714 28.2017 104.61 28.4503 104.431 28.641L99.4749 33.881L106.874 29.6104C107.11 29.4769 107.386 29.4356 107.65 29.4945C107.914 29.5534 108.147 29.7083 108.304 29.9291C108.46 30.15 108.529 30.421 108.497 30.6897C108.465 30.9584 108.334 31.2055 108.13 31.3832L102.508 36.1866L112.442 30.4531C112.684 30.3174 112.969 30.279 113.238 30.3458C113.508 30.4126 113.741 30.5795 113.892 30.8126C114.043 31.0456 114.099 31.3274 114.05 31.6005C114 31.8736 113.848 32.1176 113.625 32.2828L109.392 35.3395C109.553 35.3374 109.714 35.3701 109.862 35.4352C110.01 35.5004 110.142 35.5965 110.25 35.7172C110.416 35.9101 110.51 36.1552 110.515 36.41C110.52 36.6648 110.435 36.9133 110.276 37.1123L107.045 41.1558L107.3 41.0074C107.489 40.8985 107.706 40.8488 107.924 40.8646C108.142 40.8805 108.35 40.9612 108.521 41.0963C108.692 41.2314 108.819 41.4148 108.885 41.6227C108.951 41.8306 108.953 42.0536 108.892 42.2628L108.143 44.7736C108.398 44.6953 108.674 44.7136 108.917 44.825C109.16 44.9363 109.354 45.133 109.462 45.3778C109.569 45.6225 109.583 45.8983 109.501 46.1527C109.419 46.4072 109.247 46.6227 109.016 46.7583L106.861 48.0006C106.699 48.095 106.516 48.1461 106.328 48.1491Z" fill="white"/>
<path d="M96.6931 30.1563C96.5472 30.156 96.4029 30.1264 96.2687 30.0694C96.1344 30.0124 96.013 29.9291 95.9114 29.8244C95.7424 29.6509 95.6358 29.4261 95.6085 29.1854C95.5812 28.9446 95.6348 28.7017 95.7608 28.4947L98.7323 23.6434C98.693 23.5959 98.6572 23.5455 98.6253 23.4927C98.5533 23.3685 98.5065 23.2312 98.4876 23.0889C98.4687 22.9465 98.4781 22.8018 98.5152 22.6631C98.5523 22.5244 98.6165 22.3943 98.7039 22.2804C98.7914 22.1665 98.9004 22.071 99.0249 21.9993L100.365 21.2286C100.576 21.1067 100.82 21.0585 101.061 21.0914C101.302 21.1244 101.525 21.2368 101.694 21.4107C101.864 21.5846 101.971 21.8102 101.998 22.0517C102.025 22.2931 101.971 22.5367 101.844 22.7438L99.8655 25.9817L102.049 24.7263C102.299 24.5838 102.596 24.5462 102.874 24.6218C103.153 24.6973 103.39 24.8798 103.534 25.1295C103.678 25.3791 103.717 25.6756 103.644 25.9543C103.57 26.233 103.389 26.4713 103.14 26.6171L97.2455 30.0165C97.0774 30.1122 96.8864 30.1605 96.6931 30.1563Z" fill="white"/>
<path d="M55.8235 129.843C55.6102 129.843 55.4017 129.781 55.2235 129.663C55.0453 129.546 54.9053 129.38 54.8208 129.184C54.7363 128.988 54.7109 128.772 54.7479 128.562C54.7848 128.352 54.8825 128.157 55.0287 128.002L59.1683 123.607L52.1227 127.677C51.8902 127.81 51.6169 127.853 51.3548 127.798C51.0926 127.742 50.86 127.593 50.7012 127.377C50.5423 127.161 50.4684 126.895 50.4934 126.628C50.5184 126.361 50.6406 126.113 50.8367 125.93L55.6553 121.498L51.1293 124.118C50.8968 124.253 50.6225 124.298 50.3592 124.243C50.0959 124.188 49.8621 124.039 49.7025 123.822C49.5429 123.606 49.4687 123.338 49.4943 123.07C49.5199 122.803 49.6434 122.554 49.8411 122.371L52.5419 119.865L45.7605 123.773C45.5283 123.898 45.2589 123.934 45.002 123.876C44.745 123.817 44.5179 123.668 44.3626 123.455C44.2072 123.242 44.1341 122.98 44.1566 122.718C44.1792 122.455 44.296 122.21 44.4854 122.027L50.518 116.59L42.6798 121.116C42.4414 121.257 42.1586 121.302 41.8884 121.242C41.6182 121.182 41.3809 121.021 41.2245 120.793C41.0681 120.565 41.0042 120.286 41.0457 120.012C41.0873 119.738 41.2312 119.491 41.4484 119.319L46.2867 115.428L42.2999 117.73C42.0674 117.863 41.7941 117.906 41.5319 117.85C41.2698 117.795 41.0372 117.645 40.8783 117.43C40.7195 117.214 40.6455 116.947 40.6705 116.681C40.6955 116.414 40.8177 116.166 41.0139 115.983L46.1906 111.217L37.4573 116.26C37.2246 116.404 36.9465 116.456 36.6778 116.404C36.4091 116.353 36.1696 116.202 36.0065 115.983C35.8435 115.763 35.7688 115.49 35.7973 115.218C35.8258 114.946 35.9553 114.695 36.1604 114.514L42.3108 108.697L34.8504 113.005C34.618 113.135 34.3463 113.175 34.0864 113.118C33.8264 113.061 33.5961 112.912 33.4387 112.697C33.2813 112.483 33.2077 112.218 33.2316 111.953C33.2556 111.688 33.3755 111.441 33.5687 111.258L39.1624 106.145L33.3897 109.479C33.1618 109.61 32.8941 109.655 32.6358 109.605C32.3775 109.555 32.146 109.413 31.9839 109.206C31.8219 108.999 31.7401 108.74 31.7537 108.477C31.7672 108.214 31.8753 107.965 32.0579 107.776L34.8678 104.861L28.8877 108.311C28.6487 108.446 28.3677 108.486 28.1005 108.423C27.8334 108.36 27.5997 108.199 27.4461 107.971C27.2924 107.744 27.2301 107.467 27.2715 107.196C27.3129 106.924 27.4549 106.679 27.6694 106.507L28.165 106.11L27.5777 106.448C27.3434 106.584 27.0672 106.628 26.8026 106.571C26.538 106.514 26.3038 106.362 26.1456 106.142C25.9873 105.923 25.9161 105.652 25.946 105.383C25.9758 105.114 26.1044 104.866 26.307 104.686L30.237 101.206L27.4663 102.804C27.2341 102.931 26.9639 102.968 26.706 102.91C26.4481 102.852 26.22 102.703 26.064 102.49C25.908 102.276 25.8347 102.014 25.8577 101.75C25.8807 101.487 25.9984 101.241 26.1891 101.058L30.6234 97.0688C30.5272 96.9458 30.4585 96.8034 30.422 96.6515C30.3855 96.4996 30.3821 96.3416 30.4119 96.1883C30.4417 96.0349 30.504 95.8897 30.5948 95.7625C30.6855 95.6353 30.8025 95.5291 30.9378 95.451L35.1779 93.0035C35.4101 92.8773 35.6803 92.8397 35.9382 92.8976C36.1961 92.9555 36.4242 93.105 36.5802 93.3183C36.7362 93.5317 36.8095 93.7944 36.7865 94.0577C36.7635 94.321 36.6458 94.5671 36.4551 94.7501L35.3765 95.7195L38.4747 93.9314C38.7089 93.7959 38.9851 93.7522 39.2497 93.8088C39.5144 93.8654 39.7485 94.0183 39.9068 94.2377C40.0651 94.4572 40.1362 94.7277 40.1064 94.9966C40.0766 95.2656 39.9479 95.5139 39.7454 95.6933L35.8263 99.1692L40.3502 96.5492C40.5892 96.4116 40.8715 96.3695 41.1403 96.4315C41.4091 96.4935 41.6444 96.6549 41.799 96.8834C41.9536 97.1118 42.016 97.3903 41.9737 97.6629C41.9313 97.9355 41.7873 98.1819 41.5707 98.3526L40.7825 98.9705C41.0115 98.9193 41.251 98.9433 41.4653 99.0389C41.6796 99.1346 41.8574 99.2967 41.9724 99.5013C42.0873 99.7059 42.1332 99.9421 42.1033 100.175C42.0735 100.408 41.9694 100.625 41.8065 100.794L38.9965 103.711L46.7561 99.2303C46.9885 99.1008 47.2601 99.0606 47.5201 99.1173C47.78 99.174 48.0103 99.3236 48.1677 99.5381C48.3251 99.7526 48.3987 100.017 48.3748 100.282C48.3508 100.547 48.231 100.794 48.0377 100.977L42.444 106.11L49.2625 102.18C49.4952 102.036 49.7733 101.985 50.042 102.036C50.3107 102.088 50.5502 102.238 50.7133 102.458C50.8763 102.677 50.951 102.95 50.9225 103.222C50.894 103.494 50.7645 103.746 50.5594 103.927L44.4134 109.741L53.6401 104.411C53.8726 104.278 54.1459 104.235 54.4081 104.291C54.6702 104.346 54.9028 104.496 55.0617 104.712C55.2205 104.927 55.2945 105.194 55.2695 105.461C55.2445 105.727 55.1223 105.976 54.9261 106.158L49.7494 110.913L57.4762 106.453C57.7142 106.316 57.9951 106.273 58.2629 106.334C58.5307 106.395 58.7657 106.555 58.9211 106.781C59.0765 107.008 59.1408 107.284 59.1012 107.556C59.0617 107.828 58.9211 108.075 58.7076 108.248L53.8672 112.136L58.4391 109.496C58.6713 109.372 58.9407 109.335 59.1976 109.394C59.4545 109.452 59.6816 109.602 59.837 109.815C59.9924 110.027 60.0655 110.289 60.0429 110.552C60.0203 110.814 59.9036 111.06 59.7142 111.243L53.6816 116.671L59.8932 113.097C60.1257 112.964 60.399 112.921 60.6611 112.976C60.9233 113.031 61.1559 113.181 61.3147 113.397C61.4736 113.613 61.5476 113.879 61.5225 114.146C61.4976 114.413 61.3753 114.661 61.1792 114.843L58.474 117.345L63.118 114.667C63.3505 114.533 63.6238 114.49 63.8859 114.546C64.1481 114.601 64.3807 114.751 64.5395 114.967C64.6984 115.182 64.7723 115.449 64.7473 115.716C64.7223 115.982 64.6001 116.231 64.404 116.413L59.6006 120.841L64.5066 118.003C64.7333 117.873 64.999 117.829 65.2555 117.878C65.512 117.928 65.7423 118.067 65.9045 118.272C66.0667 118.477 66.1502 118.733 66.1396 118.994C66.1291 119.255 66.0253 119.504 65.8471 119.695L60.7338 125.129C60.9642 125.218 61.1569 125.384 61.2796 125.598C61.4245 125.849 61.4641 126.147 61.3896 126.426C61.3151 126.706 61.1326 126.945 60.8822 127.09L56.3693 129.69C56.2044 129.789 56.0158 129.842 55.8235 129.843Z" fill="black"/>
<path d="M55.8235 129.843C55.6102 129.843 55.4017 129.781 55.2235 129.663C55.0453 129.546 54.9053 129.38 54.8208 129.184C54.7363 128.988 54.7109 128.772 54.7479 128.562C54.7848 128.352 54.8825 128.157 55.0287 128.002L59.1683 123.607L52.1227 127.677C51.8902 127.81 51.6169 127.853 51.3548 127.798C51.0926 127.742 50.86 127.593 50.7012 127.377C50.5423 127.161 50.4684 126.895 50.4934 126.628C50.5184 126.361 50.6406 126.113 50.8367 125.93L55.6553 121.498L51.1293 124.118C50.8968 124.253 50.6225 124.298 50.3592 124.243C50.0959 124.188 49.8621 124.039 49.7025 123.822C49.5429 123.606 49.4687 123.338 49.4943 123.07C49.5199 122.803 49.6434 122.554 49.8411 122.371L52.5419 119.865L45.7605 123.773C45.5283 123.898 45.2589 123.934 45.002 123.876C44.745 123.817 44.5179 123.668 44.3626 123.455C44.2072 123.242 44.1341 122.98 44.1566 122.718C44.1792 122.455 44.296 122.21 44.4854 122.027L50.518 116.59L42.6798 121.116C42.4414 121.257 42.1586 121.302 41.8884 121.242C41.6182 121.182 41.3809 121.021 41.2245 120.793C41.0681 120.565 41.0042 120.286 41.0457 120.012C41.0873 119.738 41.2312 119.491 41.4484 119.319L46.2867 115.428L42.2999 117.73C42.0674 117.863 41.7941 117.906 41.5319 117.85C41.2698 117.795 41.0372 117.645 40.8783 117.43C40.7195 117.214 40.6455 116.947 40.6705 116.681C40.6955 116.414 40.8177 116.166 41.0139 115.983L46.1906 111.217L37.4573 116.26C37.2246 116.404 36.9465 116.456 36.6778 116.404C36.4091 116.353 36.1696 116.202 36.0065 115.983C35.8435 115.763 35.7688 115.49 35.7973 115.218C35.8258 114.946 35.9553 114.695 36.1604 114.514L42.3108 108.697L34.8504 113.005C34.618 113.135 34.3463 113.175 34.0864 113.118C33.8264 113.061 33.5961 112.912 33.4387 112.697C33.2813 112.483 33.2077 112.218 33.2316 111.953C33.2556 111.688 33.3755 111.441 33.5687 111.258L39.1624 106.145L33.3897 109.479C33.1618 109.61 32.8941 109.655 32.6358 109.605C32.3775 109.555 32.146 109.413 31.9839 109.206C31.8219 108.999 31.7401 108.74 31.7537 108.477C31.7672 108.214 31.8753 107.965 32.0579 107.776L34.8678 104.861L28.8877 108.311C28.6487 108.446 28.3677 108.486 28.1005 108.423C27.8334 108.36 27.5997 108.199 27.4461 107.971C27.2924 107.744 27.2301 107.467 27.2715 107.196C27.3129 106.924 27.4549 106.679 27.6694 106.507L28.165 106.11L27.5777 106.448C27.3434 106.584 27.0672 106.628 26.8026 106.571C26.538 106.514 26.3038 106.362 26.1456 106.142C25.9873 105.923 25.9161 105.652 25.946 105.383C25.9758 105.114 26.1044 104.866 26.307 104.686L30.237 101.206L27.4663 102.804C27.2341 102.931 26.9639 102.968 26.706 102.91C26.4481 102.852 26.22 102.703 26.064 102.49C25.908 102.276 25.8347 102.014 25.8577 101.75C25.8807 101.487 25.9984 101.241 26.1891 101.058L30.6234 97.0688C30.5272 96.9458 30.4585 96.8034 30.422 96.6515C30.3855 96.4996 30.3821 96.3416 30.4119 96.1883C30.4417 96.0349 30.504 95.8897 30.5948 95.7625C30.6855 95.6353 30.8025 95.5291 30.9378 95.451L35.1779 93.0035C35.4101 92.8773 35.6803 92.8397 35.9382 92.8976C36.1961 92.9555 36.4242 93.105 36.5802 93.3183C36.7362 93.5317 36.8095 93.7944 36.7865 94.0577C36.7635 94.321 36.6458 94.5671 36.4551 94.7501L35.3765 95.7195L38.4747 93.9314C38.7089 93.7959 38.9851 93.7522 39.2497 93.8088C39.5144 93.8654 39.7485 94.0183 39.9068 94.2377C40.0651 94.4572 40.1362 94.7277 40.1064 94.9966C40.0766 95.2656 39.9479 95.5139 39.7454 95.6933L35.8263 99.1692L40.3502 96.5492C40.5892 96.4116 40.8715 96.3695 41.1403 96.4315C41.4091 96.4935 41.6444 96.6549 41.799 96.8834C41.9536 97.1118 42.016 97.3903 41.9737 97.6629C41.9313 97.9355 41.7873 98.1819 41.5707 98.3526L40.7825 98.9705C41.0115 98.9193 41.251 98.9433 41.4653 99.0389C41.6796 99.1346 41.8574 99.2967 41.9724 99.5013C42.0873 99.7059 42.1332 99.9421 42.1033 100.175C42.0735 100.408 41.9694 100.625 41.8065 100.794L38.9965 103.711L46.7561 99.2303C46.9885 99.1008 47.2601 99.0606 47.5201 99.1173C47.78 99.174 48.0103 99.3236 48.1677 99.5381C48.3251 99.7526 48.3987 100.017 48.3748 100.282C48.3508 100.547 48.231 100.794 48.0377 100.977L42.444 106.11L49.2625 102.18C49.4952 102.036 49.7733 101.985 50.042 102.036C50.3107 102.088 50.5502 102.238 50.7133 102.458C50.8763 102.677 50.951 102.95 50.9225 103.222C50.894 103.494 50.7645 103.746 50.5594 103.927L44.4134 109.741L53.6401 104.411C53.8726 104.278 54.1459 104.235 54.4081 104.291C54.6702 104.346 54.9028 104.496 55.0617 104.712C55.2205 104.927 55.2945 105.194 55.2695 105.461C55.2445 105.727 55.1223 105.976 54.9261 106.158L49.7494 110.913L57.4762 106.453C57.7142 106.316 57.9951 106.273 58.2629 106.334C58.5307 106.395 58.7657 106.555 58.9211 106.781C59.0765 107.008 59.1408 107.284 59.1012 107.556C59.0617 107.828 58.9211 108.075 58.7076 108.248L53.8672 112.136L58.4391 109.496C58.6713 109.372 58.9407 109.335 59.1976 109.394C59.4545 109.452 59.6816 109.602 59.837 109.815C59.9924 110.027 60.0655 110.289 60.0429 110.552C60.0203 110.814 59.9036 111.06 59.7142 111.243L53.6816 116.671L59.8932 113.097C60.1257 112.964 60.399 112.921 60.6611 112.976C60.9233 113.031 61.1559 113.181 61.3147 113.397C61.4736 113.613 61.5476 113.879 61.5225 114.146C61.4976 114.413 61.3753 114.661 61.1792 114.843L58.474 117.345L63.118 114.667C63.3505 114.533 63.6238 114.49 63.8859 114.546C64.1481 114.601 64.3807 114.751 64.5395 114.967C64.6984 115.182 64.7723 115.449 64.7473 115.716C64.7223 115.982 64.6001 116.231 64.404 116.413L59.6006 120.841L64.5066 118.003C64.7333 117.873 64.999 117.829 65.2555 117.878C65.512 117.928 65.7423 118.067 65.9045 118.272C66.0667 118.477 66.1502 118.733 66.1396 118.994C66.1291 119.255 66.0253 119.504 65.8471 119.695L60.7338 125.129C60.9642 125.218 61.1569 125.384 61.2796 125.598C61.4245 125.849 61.4641 126.147 61.3896 126.426C61.3151 126.706 61.1326 126.945 60.8822 127.09L56.3693 129.69C56.2044 129.789 56.0158 129.842 55.8235 129.843Z" fill="black"/>
<path d="M38.278 116.861C38.0559 116.861 37.839 116.793 37.6563 116.667C37.4736 116.541 37.3338 116.362 37.2555 116.154C37.1772 115.946 37.1641 115.719 37.2181 115.504C37.2721 115.288 37.3905 115.095 37.5575 114.948L40.9962 111.929L35.8064 114.922C35.5739 115.057 35.2997 115.101 35.0364 115.047C34.7731 114.992 34.5392 114.842 34.3796 114.626C34.22 114.409 34.1459 114.142 34.1715 113.874C34.1971 113.606 34.3206 113.358 34.5183 113.175L41.0683 107.062L34.7759 110.695C34.5452 110.832 34.2723 110.879 34.0091 110.827C33.7459 110.776 33.5109 110.629 33.3489 110.415C33.187 110.201 33.1094 109.936 33.131 109.668C33.1526 109.401 33.2718 109.151 33.4659 108.966L39.6993 102.922C39.5661 102.809 39.462 102.665 39.3958 102.503C39.3297 102.342 39.3034 102.166 39.3193 101.992C39.3351 101.818 39.3926 101.65 39.4868 101.502C39.5811 101.355 39.7094 101.233 39.8609 101.145L44.1031 98.6867C44.3338 98.5499 44.6068 98.5028 44.87 98.5544C45.1331 98.606 45.3681 98.7527 45.5301 98.9665C45.692 99.1803 45.7696 99.4462 45.748 99.7135C45.7265 99.9808 45.6072 100.231 45.4131 100.416L41.315 104.39L48.2514 100.396C48.484 100.259 48.7591 100.213 49.0237 100.267C49.2882 100.321 49.5234 100.471 49.6838 100.688C49.8442 100.905 49.9184 101.174 49.8922 101.443C49.866 101.711 49.7412 101.961 49.5418 102.143L42.9918 108.256L49.4654 104.518C49.7001 104.382 49.9772 104.338 50.2427 104.395C50.5081 104.452 50.7429 104.606 50.901 104.826C51.0592 105.047 51.1295 105.319 51.0982 105.588C51.0669 105.858 50.9362 106.106 50.7317 106.285L45.8498 110.577C46.0473 110.646 46.221 110.769 46.3503 110.934C46.4796 111.098 46.5589 111.296 46.5789 111.504C46.5989 111.712 46.5587 111.922 46.4632 112.108C46.3676 112.294 46.2206 112.448 46.0397 112.553L38.8347 116.714C38.666 116.813 38.4734 116.864 38.278 116.861ZM55.9521 129.823C55.7385 129.823 55.5298 129.76 55.3517 129.642C55.1737 129.524 55.034 129.357 54.9501 129.16C54.8663 128.964 54.8418 128.747 54.8798 128.537C54.9178 128.327 55.0165 128.133 55.1639 127.978L59.0087 123.946L52.2622 127.839C52.027 127.974 51.75 128.016 51.485 127.958C51.22 127.9 50.9861 127.746 50.8288 127.525C50.6716 127.304 50.6023 127.032 50.6343 126.763C50.6664 126.494 50.7977 126.246 51.0024 126.068L54.6923 122.882L51.1138 124.948C50.8881 125.079 50.6229 125.125 50.3663 125.078C50.1096 125.03 49.8785 124.892 49.7148 124.689C49.5511 124.485 49.4656 124.23 49.474 123.969C49.4823 123.708 49.5838 123.459 49.7601 123.267L55.0198 117.494C54.8273 117.42 54.6597 117.293 54.5364 117.128C54.4131 116.962 54.3392 116.765 54.3232 116.56C54.3072 116.354 54.3498 116.148 54.4461 115.966C54.5423 115.783 54.6882 115.632 54.8669 115.529L59.1113 113.077C59.337 112.946 59.6022 112.9 59.8589 112.947C60.1155 112.995 60.3467 113.133 60.5104 113.336C60.6741 113.539 60.7595 113.795 60.7512 114.056C60.7429 114.316 60.6413 114.566 60.465 114.758L56.0983 119.546L63.5828 115.225C63.8183 115.088 64.0969 115.043 64.3638 115.1C64.6306 115.157 64.8663 115.313 65.0244 115.535C65.1824 115.758 65.2515 116.031 65.2178 116.302C65.1842 116.573 65.0503 116.821 64.8426 116.998L61.1549 120.182L64.4954 118.254C64.7226 118.125 64.9881 118.083 65.2441 118.133C65.5 118.184 65.7293 118.324 65.8906 118.529C66.0518 118.734 66.1343 118.99 66.1231 119.251C66.1119 119.512 66.0077 119.76 65.8295 119.95L60.7139 125.323C60.8958 125.419 61.0471 125.563 61.1506 125.74C61.2946 125.991 61.3335 126.288 61.2586 126.567C61.1837 126.847 61.0012 127.085 60.751 127.229L56.5088 129.681C56.3392 129.777 56.147 129.826 55.9521 129.823Z" fill="black"/>
<path d="M99.4179 99.3286C99.2031 99.3282 98.9933 99.2644 98.8146 99.1452C98.6359 99.026 98.4963 98.8568 98.4133 98.6587C98.3304 98.4606 98.3077 98.2424 98.3481 98.0314C98.3886 97.8205 98.4903 97.6262 98.6407 97.4728L101.686 94.3725L97.6909 96.6759C97.4597 96.8174 97.1842 96.8678 96.9179 96.8173C96.6516 96.7669 96.4135 96.6191 96.2501 96.4029C96.0867 96.1866 96.0096 95.9173 96.0338 95.6474C96.0579 95.3774 96.1817 95.1261 96.3809 94.9423L99.9965 91.4992L95.1932 94.272C94.9607 94.4033 94.6882 94.4449 94.4272 94.3889C94.1662 94.3328 93.9348 94.1831 93.7767 93.968C93.6186 93.7529 93.5448 93.4873 93.5692 93.2215C93.5937 92.9557 93.7147 92.708 93.9094 92.5254L98.394 88.412L92.5732 91.7656C92.3373 91.9 92.0597 91.9417 91.7947 91.8825C91.5297 91.8233 91.2963 91.6675 91.14 91.4455C90.9837 91.2234 90.9158 90.9511 90.9495 90.6817C90.9831 90.4123 91.116 90.1651 91.3221 89.9883L95.7434 86.2417L90.1715 89.4621C89.9315 89.5979 89.649 89.6379 89.3807 89.5739C89.1124 89.51 88.8783 89.3468 88.7254 89.1173C88.5725 88.8878 88.5121 88.6089 88.5564 88.3367C88.6007 88.0645 88.7464 87.8192 88.9641 87.65L90.8309 86.2264L88.3135 87.6784C88.0761 87.8117 87.7975 87.8515 87.5323 87.7899C87.2671 87.7284 87.0345 87.5701 86.88 87.3459C86.7256 87.1217 86.6604 86.8479 86.6974 86.5782C86.7344 86.3085 86.8708 86.0624 87.0799 85.888L93.0557 81.0236L85.7655 85.2308C85.5294 85.3658 85.2513 85.4077 84.9859 85.3484C84.7204 85.2891 84.4866 85.1328 84.3304 84.9101C84.1741 84.6875 84.1066 84.4145 84.1411 84.1447C84.1755 83.8749 84.3095 83.6277 84.5167 83.4514L93.1627 76.1809L82.663 82.2462C82.4222 82.3822 82.1388 82.4217 81.8699 82.3568C81.6011 82.2918 81.3669 82.1273 81.2148 81.8964C81.0626 81.6655 81.0037 81.3854 81.05 81.1127C81.0964 80.8401 81.2445 80.5952 81.4644 80.4275L87.3157 76.0477L80.3771 80.052C80.1449 80.1766 79.8755 80.213 79.6186 80.1545C79.3616 80.096 79.1345 79.9465 78.9792 79.7337C78.8238 79.5209 78.7507 79.259 78.7733 78.9965C78.7958 78.734 78.9126 78.4885 79.102 78.3053L86.9227 71.2881L77.1305 76.9429C76.8891 77.0781 76.6055 77.1167 76.3368 77.0509C76.0681 76.985 75.8345 76.8196 75.6831 76.588C75.5317 76.3565 75.4739 76.0761 75.5212 75.8036C75.5686 75.5311 75.7177 75.2867 75.9384 75.1198L76.5191 74.6832L75.4275 75.3076C75.1916 75.442 74.914 75.4837 74.649 75.4245C74.384 75.3653 74.1506 75.2095 73.9943 74.9875C73.838 74.7655 73.7701 74.4932 73.8037 74.2237C73.8374 73.9543 73.9703 73.7071 74.1764 73.5304L79.7767 68.7903L72.8184 72.8055C72.5814 72.9422 72.3017 72.985 72.0347 72.9253C71.7677 72.8656 71.5329 72.7079 71.3766 72.4833C71.2204 72.2587 71.1542 71.9836 71.1911 71.7126C71.2281 71.4415 71.3654 71.1941 71.5761 71.0195L76.2309 67.1528L70.384 70.5217C70.1462 70.658 69.866 70.6999 69.5988 70.6391C69.3316 70.5783 69.097 70.4193 68.9417 70.1936C68.7863 69.9678 68.7216 69.6919 68.7602 69.4206C68.7989 69.1494 68.9382 68.9026 69.1504 68.7292L72.7529 65.8035L65.5479 69.9628C65.2984 70.0933 65.0081 70.1224 64.7377 70.0439C64.4673 69.9655 64.2376 69.7856 64.0967 69.5418C63.9558 69.298 63.9146 69.0092 63.9815 68.7358C64.0485 68.4623 64.2186 68.2253 64.4562 68.0742L83.5582 57.0462C83.7956 56.9129 84.0742 56.8731 84.3394 56.9346C84.6046 56.9961 84.8372 57.1545 84.9917 57.3786C85.1461 57.6028 85.2112 57.8766 85.1743 58.1463C85.1373 58.416 85.0009 58.6622 84.7918 58.8365L81.1893 61.7644L86.2612 58.8365C86.4981 58.6998 86.7778 58.657 87.0448 58.7167C87.3118 58.7764 87.5467 58.9341 87.7029 59.1587C87.8591 59.3833 87.9253 59.6584 87.8884 59.9295C87.8515 60.2005 87.7141 60.4479 87.5035 60.6225L82.8508 64.487L89.2349 60.8037C89.4708 60.6693 89.7483 60.6276 90.0133 60.6868C90.2783 60.746 90.5117 60.9018 90.668 61.1238C90.8243 61.3458 90.8923 61.6181 90.8586 61.8876C90.8249 62.157 90.692 62.4042 90.4859 62.5809L84.8878 67.321L92.4706 62.9434C92.7118 62.8109 92.9941 62.7743 93.2611 62.8411C93.5281 62.9079 93.76 63.073 93.9104 63.3035C94.0608 63.5339 94.1186 63.8127 94.0723 64.084C94.0259 64.3552 93.8789 64.599 93.6605 64.7665L93.0797 65.2031L94.9115 64.1486C95.1437 64.024 95.4131 63.9876 95.67 64.0461C95.927 64.1046 96.1541 64.254 96.3094 64.4668C96.4648 64.6797 96.5379 64.9415 96.5154 65.204C96.4928 65.4666 96.376 65.7121 96.1866 65.8952L88.3593 72.9234L102.114 64.9913C102.355 64.8554 102.639 64.8158 102.907 64.8808C103.176 64.9457 103.41 65.1103 103.563 65.3412C103.715 65.5721 103.774 65.8522 103.727 66.1248C103.681 66.3975 103.533 66.6424 103.313 66.8101L97.4704 71.1767L102.83 68.0829C103.067 67.948 103.345 67.9061 103.61 67.9654C103.876 68.0247 104.109 68.181 104.266 68.4036C104.422 68.6263 104.489 68.8993 104.455 69.1691C104.421 69.4389 104.287 69.6861 104.079 69.8624L95.4115 77.1416L103.789 72.3055C104.027 72.1692 104.307 72.1273 104.574 72.1881C104.841 72.2489 105.076 72.4079 105.231 72.6337C105.387 72.8594 105.451 73.1353 105.413 73.4066C105.374 73.6779 105.235 73.9247 105.023 74.098L99.0577 78.9603L104.597 75.7617C104.837 75.6259 105.119 75.586 105.388 75.6499C105.656 75.7139 105.89 75.877 106.043 76.1065C106.196 76.3361 106.256 76.6149 106.212 76.8871C106.168 77.1593 106.022 77.4047 105.804 77.5739L103.937 78.9952L105.18 78.2813C105.416 78.1469 105.693 78.1052 105.958 78.1644C106.223 78.2235 106.457 78.3794 106.613 78.6014C106.769 78.8234 106.837 79.0957 106.803 79.3652C106.77 79.6346 106.637 79.8818 106.431 80.0585L102.018 83.7964L105.933 81.5366C106.165 81.4071 106.437 81.3669 106.697 81.4236C106.957 81.4802 107.187 81.6299 107.345 81.8444C107.502 82.0589 107.576 82.3235 107.552 82.5884C107.528 82.8534 107.408 83.1005 107.215 83.2833L102.73 87.3945L106.752 85.0736C106.983 84.9419 107.254 84.8991 107.514 84.9532C107.775 85.0073 108.007 85.1545 108.166 85.3674C108.325 85.5802 108.402 85.844 108.381 86.1091C108.359 86.3742 108.242 86.6224 108.051 86.8072L104.451 90.2525L107.538 88.4709C107.767 88.339 108.035 88.2945 108.294 88.3456C108.554 88.3967 108.785 88.54 108.947 88.749C109.108 88.9579 109.189 89.2183 109.173 89.4819C109.157 89.7456 109.046 89.9945 108.861 90.1826L105.817 93.283L108.317 91.8376C108.568 91.6951 108.865 91.6576 109.143 91.7331C109.421 91.8086 109.658 91.9911 109.802 92.2408C109.946 92.4904 109.986 92.7869 109.912 93.0656C109.838 93.3443 109.658 93.5826 109.409 93.7284L99.9638 99.1867C99.7978 99.2821 99.6093 99.3311 99.4179 99.3286Z" fill="black"/>
<path d="M46.5527 81.9078C46.3196 81.9074 46.0927 81.8324 45.9053 81.6937C45.7179 81.5551 45.5798 81.3601 45.5112 81.1373C45.4426 80.9144 45.4472 80.6755 45.5242 80.4555C45.6012 80.2354 45.7466 80.0458 45.9392 79.9144L57.2925 72.181L44.1685 79.7572C43.9237 79.8967 43.6345 79.9362 43.3613 79.8673C43.0881 79.7985 42.852 79.6267 42.7026 79.3878C42.5531 79.149 42.5018 78.8616 42.5594 78.5858C42.6169 78.31 42.7789 78.0671 43.0114 77.9079L52.118 71.7946L42.8432 77.1481C42.5986 77.2901 42.3085 77.3316 42.0339 77.2639C41.7593 77.1961 41.5217 77.0245 41.3712 76.7851C41.2206 76.5457 41.1688 76.2572 41.2268 75.9803C41.2847 75.7035 41.4478 75.46 41.6817 75.301L51.1334 68.8493L43.1686 73.4496C42.9266 73.5872 42.6412 73.6272 42.3708 73.5614C42.1003 73.4956 41.8652 73.329 41.7135 73.0956C41.5618 72.8622 41.505 72.5797 41.5547 72.3058C41.6044 72.0319 41.7568 71.7873 41.9808 71.6221L48.5352 66.8319L47.6881 67.3209C47.4531 67.4578 47.1755 67.502 46.9096 67.445C46.6437 67.3879 46.4087 67.2337 46.2505 67.0125C46.0924 66.7912 46.0225 66.5189 46.0546 66.2489C46.0867 65.9788 46.2184 65.7305 46.4239 65.5524L50.5111 61.9849C50.4325 61.9109 50.3655 61.8256 50.3124 61.7316C50.1684 61.4811 50.1295 61.1836 50.2044 60.9045C50.2793 60.6254 50.4618 60.3873 50.712 60.2426L56.0917 57.1335C56.3267 56.9943 56.6054 56.9483 56.8727 57.0045C57.1401 57.0608 57.3766 57.2152 57.5356 57.4372C57.6946 57.6593 57.7646 57.933 57.7317 58.2042C57.6989 58.4753 57.5655 58.7243 57.358 58.902L56.286 59.8343L65.2945 54.6336C65.5364 54.496 65.8218 54.456 66.0923 54.5218C66.3627 54.5876 66.5979 54.7542 66.7495 54.9876C66.9012 55.221 66.958 55.5035 66.9083 55.7774C66.8587 56.0513 66.7062 56.2958 66.4822 56.461L59.9016 61.2644L75.1064 52.4743C75.3512 52.3248 75.6451 52.2776 75.9244 52.3431C76.2037 52.4085 76.446 52.5813 76.599 52.824C76.7519 53.0668 76.8031 53.3599 76.7416 53.6402C76.68 53.9204 76.5107 54.1651 76.2701 54.3214L66.8337 60.76L78.7482 53.8825C78.993 53.743 79.2822 53.7036 79.5554 53.7724C79.8286 53.8412 80.0647 54.0131 80.2141 54.2519C80.3636 54.4908 80.4149 54.7781 80.3573 55.054C80.2998 55.3298 80.1378 55.5727 79.9053 55.7318L70.8074 61.8451L81.4773 55.686C81.7219 55.544 82.0121 55.5025 82.2867 55.5702C82.5613 55.6379 82.7989 55.8096 82.9494 56.049C83.1 56.2884 83.1517 56.5769 83.0938 56.8537C83.0359 57.1306 82.8728 57.3741 82.6389 57.5331L59.7466 73.1417L59.7706 73.1832C59.9147 73.4337 59.9535 73.7312 59.8786 74.0103C59.8037 74.2894 59.6212 74.5275 59.3711 74.6722L47.0986 81.7571C46.933 81.8545 46.7448 81.9065 46.5527 81.9078Z" fill="black"/>
<path d="M110.06 100.595C109.895 100.595 109.733 100.558 109.586 100.486C109.438 100.415 109.308 100.311 109.206 100.182C109.043 99.9774 108.959 99.7206 108.969 99.4589C108.979 99.1971 109.084 98.9479 109.263 98.7566L111.588 96.2697L108.391 98.1147C108.157 98.2506 107.88 98.2945 107.615 98.2377C107.35 98.1809 107.116 98.0276 106.958 97.8076C106.799 97.5875 106.729 97.3165 106.759 97.0472C106.79 96.7778 106.919 96.5295 107.123 96.3505L107.848 95.7152C107.624 95.8422 107.362 95.8858 107.108 95.8383C106.855 95.7907 106.627 95.655 106.464 95.4552C106.301 95.2555 106.214 95.0045 106.218 94.7468C106.223 94.4891 106.318 94.2412 106.488 94.0471L110.854 89.0407L106.872 91.3398C106.645 91.4681 106.379 91.5108 106.123 91.4599C105.867 91.4091 105.637 91.2682 105.476 91.0628C105.315 90.8573 105.233 90.6009 105.245 90.3401C105.256 90.0793 105.361 89.8313 105.54 89.6411L109.167 85.8618L106.06 87.6543C105.827 87.7805 105.557 87.8181 105.299 87.7602C105.041 87.7023 104.813 87.5528 104.657 87.3394C104.501 87.1261 104.428 86.8634 104.451 86.6001C104.474 86.3367 104.592 86.0907 104.782 85.9076L106.372 84.471L105.466 84.9928C105.233 85.132 104.957 85.1797 104.691 85.1266C104.425 85.0735 104.189 84.9234 104.028 84.7055C103.866 84.4876 103.792 84.2175 103.819 83.9477C103.846 83.678 103.972 83.4279 104.173 83.2462L106.498 81.0628L104.811 82.0366C104.586 82.1649 104.323 82.2091 104.068 82.1612C103.814 82.1134 103.584 81.9766 103.421 81.7753C103.258 81.574 103.172 81.3214 103.178 81.0625C103.185 80.8036 103.283 80.5553 103.455 80.362L107.843 75.4844L103.863 77.7835C103.634 77.9078 103.369 77.9463 103.114 77.8919C102.86 77.8376 102.633 77.6941 102.475 77.4872C102.317 77.2804 102.238 77.0238 102.252 76.7639C102.266 76.5039 102.373 76.2577 102.553 76.0695L106.016 72.5762L103.092 74.2639C102.867 74.3937 102.603 74.4388 102.348 74.3912C102.092 74.3437 101.862 74.2065 101.699 74.0044C101.535 73.8023 101.449 73.5486 101.456 73.2888C101.463 73.029 101.563 72.7802 101.737 72.5871L106.245 67.5938L102.136 69.9649C101.91 70.0962 101.644 70.1419 101.387 70.0938C101.131 70.0458 100.899 69.9071 100.736 69.703C100.573 69.4989 100.488 69.243 100.497 68.9818C100.507 68.7205 100.609 68.4713 100.787 68.2794L103.863 64.9389L101.344 66.393C101.132 66.5163 100.886 66.5651 100.643 66.5314C100.401 66.4977 100.177 66.3836 100.007 66.2073C99.8374 66.031 99.7318 65.8028 99.7073 65.5594C99.6828 65.3159 99.7409 65.0712 99.8721 64.8647L100.798 63.3888C100.55 63.4092 100.303 63.3447 100.097 63.2059C99.8916 63.0671 99.7393 62.8622 99.6655 62.6251C99.5917 62.3881 99.601 62.1329 99.6917 61.9018C99.7825 61.6707 99.9493 61.4774 100.165 61.3539L103.385 59.4959C103.596 59.3736 103.843 59.3257 104.084 59.3598C104.326 59.394 104.549 59.5082 104.719 59.6842C104.888 59.8602 104.993 60.0878 105.018 60.3308C105.042 60.5737 104.985 60.8178 104.854 61.0242L104.049 62.3102L108.959 59.4719C109.185 59.3406 109.451 59.2949 109.708 59.343C109.965 59.391 110.196 59.5297 110.359 59.7338C110.523 59.9379 110.607 60.1938 110.598 60.455C110.589 60.7163 110.486 60.9655 110.308 61.1574L107.234 64.4979L111.151 62.2359C111.376 62.1076 111.639 62.0634 111.894 62.1113C112.148 62.1592 112.378 62.296 112.541 62.4972C112.704 62.6985 112.79 62.9512 112.783 63.2101C112.777 63.469 112.679 63.7172 112.507 63.9106L107.998 68.9039L112.02 66.5917C112.249 66.4674 112.515 66.4289 112.769 66.4832C113.024 66.5376 113.251 66.6811 113.409 66.8879C113.567 67.0948 113.646 67.3514 113.631 67.6113C113.617 67.8713 113.51 68.1175 113.33 68.3056L109.865 71.7989L112.723 70.1505C112.948 70.0208 113.212 69.9757 113.468 70.0232C113.723 70.0708 113.954 70.208 114.117 70.4101C114.28 70.6121 114.366 70.8659 114.359 71.1257C114.352 71.3855 114.253 71.6343 114.079 71.8273L109.688 76.7027L113.583 74.4539C113.816 74.3147 114.092 74.267 114.358 74.3201C114.624 74.3732 114.86 74.5234 115.022 74.7413C115.183 74.9592 115.257 75.2293 115.23 75.499C115.203 75.7687 115.077 76.0188 114.876 76.2006L112.549 78.3839L114.182 77.4429C114.414 77.3167 114.684 77.2791 114.942 77.337C115.2 77.3949 115.428 77.5444 115.584 77.7577C115.74 77.9711 115.813 78.2338 115.79 78.4971C115.767 78.7604 115.65 79.0065 115.459 79.1895L113.872 80.624L114.723 80.1327C114.95 80.0044 115.216 79.9617 115.472 80.0126C115.728 80.0634 115.958 80.2043 116.119 80.4098C116.28 80.6152 116.362 80.8716 116.35 81.1324C116.339 81.3932 116.234 81.6412 116.055 81.8314L112.442 85.6107L115.479 83.864C115.702 83.7355 115.965 83.6905 116.219 83.7369C116.472 83.7834 116.702 83.9183 116.866 84.1178C117.029 84.3173 117.117 84.5684 117.114 84.8265C117.11 85.0846 117.015 85.3331 116.845 85.5278L112.468 90.5341L116.363 88.2853C116.597 88.1515 116.873 88.1092 117.137 88.1667C117.4 88.2242 117.633 88.3774 117.791 88.5967C117.948 88.816 118.019 89.0859 117.989 89.3542C117.959 89.6224 117.831 89.8701 117.629 90.0494L116.9 90.6891C117.129 90.5728 117.391 90.5408 117.641 90.5988C117.891 90.6567 118.113 90.8009 118.267 91.006C118.421 91.2111 118.498 91.464 118.485 91.7203C118.471 91.9766 118.368 92.2199 118.192 92.4074L115.858 94.9052L116.893 94.3069C117.144 94.1645 117.441 94.1269 117.719 94.2024C117.997 94.2779 118.234 94.4604 118.378 94.7101C118.522 94.9597 118.562 95.2563 118.488 95.535C118.415 95.8137 118.234 96.0519 117.985 96.1977L110.605 100.455C110.439 100.55 110.251 100.598 110.06 100.595ZM19.7547 99.56C19.5577 99.5603 19.3643 99.5073 19.195 99.4066C19.0257 99.3059 18.8867 99.1613 18.793 98.9881C18.6992 98.8148 18.654 98.6195 18.6623 98.4226C18.6705 98.2258 18.7319 98.0349 18.8398 97.8701L20.045 96.023L15.2832 98.7828C15.0492 98.9179 14.7734 98.9614 14.5092 98.905C14.245 98.8485 14.0111 98.6961 13.8527 98.4772C13.6944 98.2583 13.6229 97.9884 13.652 97.7198C13.6811 97.4512 13.8087 97.2029 14.0103 97.023L15.3945 95.7894L14.2308 96.4619C13.9968 96.597 13.7211 96.6405 13.4569 96.5841C13.1926 96.5277 12.9587 96.3752 12.8004 96.1563C12.642 95.9374 12.5705 95.6675 12.5996 95.3989C12.6287 95.1303 12.7564 94.882 12.9579 94.7021L16.1565 91.8398L13.9492 93.1126C13.7182 93.2517 13.444 93.3004 13.1793 93.2493C12.9146 93.1982 12.6782 93.0511 12.5155 92.8361C12.3529 92.6211 12.2755 92.3536 12.2984 92.085C12.3212 91.8164 12.4426 91.5657 12.6392 91.3813L18.484 85.7548L14.6282 87.9884C14.3957 88.1234 14.1214 88.1679 13.8582 88.1132C13.5949 88.0586 13.361 87.9087 13.2014 87.6923C13.0418 87.4759 12.9676 87.2082 12.9932 86.9405C13.0188 86.6728 13.1423 86.424 13.34 86.2417L18.687 81.2921L15.2526 83.2745C15.0181 83.4105 14.7415 83.4543 14.4765 83.3976C14.2114 83.3408 13.977 83.1875 13.8188 82.9674C13.6605 82.7474 13.5898 82.4763 13.6204 82.207C13.6509 81.9377 13.7806 81.6894 13.9841 81.5104L18.4316 77.5804L15.8116 79.1088C15.5725 79.2464 15.2902 79.2885 15.0214 79.2265C14.7526 79.1645 14.5173 79.003 14.3627 78.7746C14.2081 78.5461 14.1457 78.2676 14.1881 77.9951C14.2304 77.7225 14.3744 77.4761 14.5911 77.3053L15.7832 76.3665C15.5522 76.3948 15.3181 76.3485 15.1153 76.2345C14.9124 76.1204 14.7513 75.9444 14.6555 75.7323C14.5597 75.5202 14.5342 75.283 14.5827 75.0554C14.6312 74.8278 14.7512 74.6216 14.9251 74.467L19.8507 70.1003L16.77 71.8797C16.6522 71.963 16.5191 72.0223 16.3784 72.0541C16.2376 72.086 16.092 72.0898 15.9497 72.0654C15.8075 72.041 15.6715 71.9888 15.5495 71.9118C15.4274 71.8348 15.3217 71.7345 15.2384 71.6166C15.1551 71.4988 15.0959 71.3657 15.064 71.225C15.0322 71.0842 15.0283 70.9386 15.0528 70.7963C15.0772 70.6541 15.1294 70.5181 15.2064 70.3961C15.2834 70.274 15.3837 70.1683 15.5015 70.085L18.318 67.727L17.2264 68.358C16.9903 68.4971 16.7106 68.5424 16.4428 68.4849C16.1749 68.4273 15.9385 68.2712 15.7804 68.0474C15.6223 67.8236 15.5542 67.5486 15.5895 67.2769C15.6248 67.0052 15.7609 66.7567 15.9709 66.5808L17.0473 65.6681C16.838 65.6662 16.6338 65.6041 16.4588 65.4893C16.2838 65.3744 16.1455 65.2118 16.0604 65.0206C15.9752 64.8294 15.9469 64.6177 15.9786 64.4109C16.0104 64.204 16.1009 64.0107 16.2395 63.8538L17.3879 62.5547C17.1556 62.537 16.935 62.4454 16.7585 62.2934C16.5819 62.1414 16.4586 61.9368 16.4067 61.7097C16.3547 61.4825 16.3768 61.2447 16.4697 61.031C16.5625 60.8174 16.7214 60.639 16.9229 60.522L21.7066 57.7579C21.9309 57.6295 22.1935 57.5848 22.4476 57.6318C22.7018 57.6789 22.931 57.8145 23.0945 58.0147C23.258 58.2149 23.3452 58.4666 23.3405 58.725C23.3358 58.9835 23.2396 59.2319 23.069 59.426L22.3157 60.2797L25.7283 58.3147C25.9642 58.178 26.2428 58.1346 26.5092 58.193C26.7756 58.2514 27.0104 58.4073 27.1676 58.6302C27.3248 58.8531 27.3928 59.1267 27.3584 59.3972C27.3239 59.6677 27.1895 59.9155 26.9815 60.0919L26.5448 60.4587L27.9138 59.6705C28.1503 59.5326 28.4299 59.4886 28.6974 59.5473C28.9648 59.6059 29.2004 59.7628 29.3575 59.987C29.5147 60.2112 29.5819 60.4862 29.5458 60.7576C29.5097 61.0289 29.3729 61.2768 29.1626 61.4521L26.3549 63.8145L28.1212 62.7971C28.3551 62.6659 28.629 62.6254 28.8908 62.6832C29.1527 62.7411 29.384 62.8933 29.5408 63.1108C29.6976 63.3283 29.7689 63.596 29.741 63.8626C29.7131 64.1293 29.5881 64.3764 29.3897 64.5568L24.4619 68.9235L27.3177 67.2773C27.5564 67.143 27.8368 67.1034 28.1033 67.1662C28.3699 67.229 28.6031 67.3897 28.7567 67.6164C28.9103 67.8431 28.9731 68.1192 28.9326 68.3901C28.8921 68.6609 28.7514 68.9066 28.5382 69.0785L27.2457 70.1003C27.4334 70.0806 27.6231 70.112 27.7945 70.1912C27.9659 70.2703 28.1127 70.3944 28.2194 70.5501C28.3776 70.7699 28.4485 71.0407 28.4182 71.3098C28.388 71.5789 28.2588 71.8272 28.0557 72.0064L23.6061 75.9364L26.0077 74.5478C26.2403 74.4127 26.5145 74.3683 26.7778 74.4229C27.0411 74.4775 27.2749 74.6274 27.4345 74.8438C27.5942 75.0602 27.6683 75.328 27.6427 75.5957C27.6171 75.8633 27.4936 76.1122 27.2959 76.2944L21.9598 81.22L25.1453 79.3817C25.3763 79.2426 25.6505 79.194 25.9152 79.245C26.1798 79.2961 26.4163 79.4433 26.5789 79.6582C26.7416 79.8732 26.8189 80.1407 26.7961 80.4093C26.7733 80.6779 26.6519 80.9286 26.4553 81.1131L20.5996 86.7482L24.1977 84.6719C24.4317 84.5368 24.7075 84.4932 24.9717 84.5497C25.2359 84.6061 25.4698 84.7585 25.6282 84.9774C25.7865 85.1964 25.8581 85.4662 25.829 85.7348C25.7999 86.0034 25.6722 86.2517 25.4706 86.4317L22.2699 89.2984L23.4925 88.5931C23.7265 88.458 24.0023 88.4145 24.2665 88.4709C24.5307 88.5274 24.7646 88.6798 24.923 88.8987C25.0813 89.1176 25.1529 89.3875 25.1238 89.6561C25.0946 89.9247 24.967 90.173 24.7654 90.3529L23.2065 91.7437C23.4185 91.695 23.6402 91.7108 23.8432 91.789C24.0461 91.8671 24.2211 92.0041 24.3457 92.1824C24.4703 92.3607 24.5388 92.5722 24.5423 92.7896C24.5459 93.0071 24.4845 93.2207 24.3659 93.403L22.8375 95.7436C22.9914 95.7723 23.1371 95.8343 23.2646 95.9252C23.392 96.0161 23.4981 96.1337 23.5755 96.2697C23.7196 96.5203 23.7584 96.8177 23.6835 97.0969C23.6086 97.376 23.4261 97.614 23.1759 97.7588L20.2939 99.4247C20.1293 99.5165 19.9432 99.5632 19.7547 99.56Z" fill="black"/>
<path d="M9.99495 107.512C9.79945 107.512 9.60754 107.459 9.43928 107.36C9.27103 107.26 9.13259 107.117 9.03844 106.946C8.94429 106.774 8.89789 106.581 8.90407 106.386C8.91025 106.19 8.96879 106 9.07358 105.835L10.4666 103.652L5.23965 106.658C5.01205 106.777 4.74988 106.812 4.4992 106.756C4.24853 106.701 4.02539 106.559 3.869 106.355C3.7126 106.152 3.63295 105.9 3.64404 105.643C3.65514 105.387 3.75626 105.142 3.92965 104.953L8.51465 100.189L2.79432 103.49C2.55546 103.623 2.27557 103.661 2.00991 103.597C1.74426 103.533 1.51214 103.372 1.35941 103.146C1.20667 102.919 1.14441 102.644 1.18491 102.374C1.22542 102.104 1.36575 101.858 1.5782 101.687L2.52577 100.942C2.31418 100.998 2.09073 100.989 1.88439 100.916C1.67805 100.843 1.49835 100.71 1.3686 100.534C1.20928 100.317 1.13586 100.048 1.16246 99.7803C1.18906 99.5122 1.3138 99.2635 1.5127 99.0819L8.0234 93.1301L2.79432 96.1497C2.56199 96.2775 2.29109 96.3164 2.03219 96.2591C1.77329 96.2018 1.5441 96.0522 1.38741 95.8383C1.23071 95.6244 1.15724 95.3608 1.18069 95.0967C1.20415 94.8325 1.32294 94.586 1.51488 94.403L8.89673 87.6915L2.79432 91.2066C2.55339 91.3457 2.26847 91.3875 1.99774 91.3236C1.72702 91.2596 1.49091 91.0948 1.33764 90.8626C1.18437 90.6305 1.12549 90.3486 1.17304 90.0745C1.22059 89.8004 1.37098 89.5549 1.59348 89.3879L2.59782 88.6368C2.35155 88.7197 2.08379 88.7121 1.84267 88.6152C1.60155 88.5184 1.40288 88.3387 1.28238 88.1085C1.16188 87.8783 1.12745 87.6126 1.18527 87.3593C1.2431 87.1059 1.38939 86.8815 1.59785 86.7264L2.49302 86.0714C2.25108 86.1269 1.99746 86.0982 1.77399 85.9902C1.55052 85.8821 1.37054 85.7012 1.26373 85.4771C1.15691 85.2531 1.12964 84.9993 1.18641 84.7577C1.24318 84.516 1.3806 84.301 1.57602 84.1479L5.97325 80.6961L2.79432 82.5301C2.5535 82.666 2.27004 82.7056 2.00122 82.6406C1.73239 82.5757 1.49823 82.4111 1.34604 82.1802C1.19385 81.9493 1.13498 81.6692 1.18131 81.3966C1.22765 81.1239 1.37574 80.879 1.59567 80.7113L3.86197 79.0214L2.79432 79.6371C2.55449 79.7748 2.27136 79.8163 2.00211 79.7533C1.73286 79.6903 1.49755 79.5275 1.34372 79.2977C1.18988 79.0679 1.12898 78.7883 1.17331 78.5153C1.21765 78.2424 1.36391 77.9964 1.58257 77.8272L6.54965 73.9954L2.79213 76.1635C2.55192 76.2975 2.26995 76.3359 2.00262 76.271C1.7353 76.2062 1.50233 76.0427 1.35031 75.8135C1.19829 75.5842 1.13843 75.306 1.18271 75.0345C1.22699 74.763 1.37213 74.5182 1.58912 74.3491L6.24398 70.823L2.79432 72.812C2.55268 72.9484 2.26819 72.9877 1.99866 72.9218C1.72913 72.8559 1.49479 72.6899 1.34326 72.4575C1.19174 72.2251 1.1344 71.9437 1.18291 71.6705C1.23141 71.3973 1.38212 71.1528 1.6044 70.9868L4.44273 68.9148L2.79432 69.8667C2.55714 70.0017 2.27802 70.043 2.01194 69.9824C1.74586 69.9218 1.51213 69.7637 1.3568 69.5393C1.20147 69.315 1.1358 69.0406 1.17274 68.7702C1.20968 68.4998 1.34654 68.2531 1.55637 68.0786L8.18278 62.6486L2.79432 65.7511C2.562 65.8852 2.28847 65.929 2.02591 65.8742C1.76336 65.8194 1.53015 65.6699 1.37078 65.4542C1.21102 65.2382 1.13649 64.971 1.16147 64.7035C1.18644 64.436 1.30916 64.1871 1.50615 64.0045L5.80513 60.0264L2.79432 61.7731C2.56499 61.9006 2.29744 61.9412 2.04063 61.8875C1.78382 61.8338 1.55493 61.6894 1.39587 61.4808C1.2368 61.2721 1.1582 61.0132 1.17444 60.7513C1.19068 60.4895 1.30069 60.2422 1.48432 60.0548L2.77903 58.7623C2.57259 58.8765 2.33472 58.9207 2.10104 58.8884C1.86736 58.856 1.65044 58.7488 1.48277 58.5829C1.3151 58.4169 1.20569 58.2011 1.17094 57.9678C1.13619 57.7345 1.17796 57.4961 1.29 57.2885L2.24193 55.52C2.01362 55.494 1.79934 55.3966 1.62963 55.2417C1.45991 55.0868 1.3434 54.8822 1.29671 54.6572C1.25002 54.4322 1.27552 54.1982 1.36957 53.9886C1.46363 53.7789 1.62145 53.6043 1.82055 53.4895L4.28772 52.066C4.49342 51.9475 4.73214 51.8993 4.96772 51.9286C5.20329 51.958 5.42287 52.0633 5.59319 52.2287C5.7635 52.3941 5.87527 52.6105 5.91154 52.8451C5.94782 53.0797 5.90663 53.3197 5.79422 53.5288L5.03442 54.9393L8.91857 52.6992C9.14789 52.5717 9.41545 52.5311 9.67225 52.5848C9.92906 52.6385 10.1579 52.7829 10.317 52.9915C10.4761 53.2002 10.5547 53.4591 10.5384 53.721C10.5222 53.9828 10.4122 54.2301 10.2286 54.4175L8.93167 55.71L13.1477 53.2734C13.3802 53.1383 13.6544 53.0939 13.9177 53.1485C14.181 53.2031 14.4149 53.353 14.5745 53.5695C14.7341 53.7859 14.8082 54.0536 14.7826 54.3213C14.7571 54.589 14.6336 54.8378 14.4359 55.0201L10.1412 58.9915L18.6715 54.0659C18.9087 53.931 19.1878 53.8897 19.4539 53.9503C19.72 54.0109 19.9537 54.169 20.109 54.3933C20.2644 54.6177 20.33 54.8921 20.2931 55.1625C20.2562 55.4329 20.1193 55.6796 19.9095 55.8541L13.2831 61.284L20.7981 56.9458C21.0397 56.8094 21.3242 56.7701 21.5937 56.836C21.8633 56.9018 22.0976 57.0679 22.2491 57.3003C22.4007 57.5327 22.458 57.8141 22.4095 58.0873C22.361 58.3605 22.2103 58.605 21.988 58.771L19.1497 60.843L20.2544 60.2055C20.4948 60.0687 20.778 60.0282 21.0471 60.0922C21.3161 60.1562 21.5508 60.3198 21.7038 60.5502C21.8568 60.7805 21.9167 61.0603 21.8714 61.3331C21.826 61.6059 21.6789 61.8513 21.4596 62.0198L16.8113 65.5459L19.5885 63.9433C19.828 63.8093 20.1091 63.7703 20.376 63.8341C20.6429 63.898 20.8759 64.0601 21.0287 64.288C21.1815 64.516 21.2428 64.7931 21.2005 65.0642C21.1582 65.3354 21.0153 65.5806 20.8003 65.7511L15.8376 69.5873L18.8942 67.8188C19.135 67.6828 19.4185 67.6433 19.6873 67.7082C19.9561 67.7731 20.1903 67.9377 20.3425 68.1686C20.4947 68.3995 20.5536 68.6796 20.5072 68.9522C20.4609 69.2249 20.3128 69.4698 20.0929 69.6375L17.8353 71.3208L18.3178 71.0435C18.5568 70.9085 18.8378 70.8685 19.105 70.9314C19.3721 70.9943 19.6058 71.1555 19.7594 71.3829C19.9131 71.6103 19.9754 71.8873 19.934 72.1586C19.8926 72.4299 19.7506 72.6757 19.5361 72.847L15.1411 76.2945L17.6453 74.8491C17.8865 74.712 18.1707 74.6719 18.4404 74.7368C18.7101 74.8017 18.9449 74.9668 19.0972 75.1986C19.2495 75.4304 19.3079 75.7115 19.2605 75.9848C19.213 76.2581 19.0633 76.5031 18.8418 76.67L17.5755 77.6088C17.7716 77.5936 17.9683 77.6307 18.1455 77.7162C18.3227 77.8017 18.4741 77.9327 18.5842 78.0957C18.7372 78.3277 18.796 78.6094 18.7485 78.8832C18.701 79.157 18.5509 79.4025 18.3287 79.5695L16.9729 80.5847C17.1711 80.5557 17.3734 80.581 17.5583 80.6579C17.7433 80.7348 17.9039 80.8604 18.0231 81.0214C18.1819 81.239 18.2545 81.5077 18.2271 81.7758C18.1997 82.0438 18.0742 82.2923 17.8746 82.4733L10.4928 89.187L15.6105 86.2308C15.8429 86.1013 16.1146 86.0611 16.3745 86.1178C16.6344 86.1744 16.8647 86.3241 17.0221 86.5386C17.1795 86.753 17.2531 87.0176 17.2292 87.2826C17.2053 87.5476 17.0854 87.7947 16.8921 87.9775L10.3836 93.9336L14.6782 91.4555C14.9171 91.3229 15.1969 91.2847 15.4626 91.3485C15.7283 91.4122 15.9604 91.5732 16.1131 91.7997C16.2658 92.0262 16.3281 92.3017 16.2876 92.5719C16.2471 92.842 16.1068 93.0872 15.8943 93.259L14.5974 94.2764C14.7783 94.2621 14.9599 94.2924 15.1262 94.3647C15.2926 94.4371 15.4387 94.5492 15.5515 94.6912C15.7136 94.8985 15.7953 95.1574 15.7817 95.4201C15.768 95.6829 15.6599 95.9319 15.4773 96.1213L10.8748 100.89L13.235 99.5295C13.4463 99.4093 13.6917 99.363 13.9322 99.3981C14.1728 99.4331 14.3947 99.5474 14.563 99.7229C14.7312 99.8984 14.836 100.125 14.8608 100.367C14.8857 100.609 14.8291 100.852 14.7 101.058L13.0538 103.649C13.2797 103.679 13.4906 103.779 13.657 103.934C13.8234 104.09 13.9369 104.294 13.9817 104.517C14.0264 104.741 14.0002 104.972 13.9066 105.18C13.8131 105.388 13.6569 105.561 13.4599 105.676L10.5408 107.363C10.3755 107.461 10.1869 107.512 9.99495 107.512ZM121.074 108.182C120.856 108.182 120.642 108.116 120.462 107.993C120.281 107.87 120.141 107.695 120.061 107.492C119.98 107.289 119.963 107.066 120.01 106.853C120.058 106.64 120.168 106.445 120.328 106.296L121.111 105.56L118.939 106.813C118.702 106.951 118.423 106.995 118.155 106.936C117.888 106.878 117.652 106.721 117.495 106.497C117.338 106.272 117.271 105.997 117.307 105.726C117.343 105.455 117.48 105.207 117.69 105.031L118.526 104.328L118.194 104.521C117.965 104.646 117.699 104.686 117.443 104.632C117.187 104.578 116.96 104.434 116.801 104.226C116.642 104.019 116.564 103.761 116.579 103.5C116.594 103.239 116.703 102.992 116.884 102.804L122.14 97.5427L117.28 100.348C117.05 100.479 116.78 100.522 116.521 100.469C116.262 100.416 116.031 100.271 115.871 100.06C115.71 99.8498 115.632 99.5883 115.65 99.3244C115.669 99.0605 115.782 98.8121 115.97 98.6256L121.876 92.8223L116.323 96.0252C116.085 96.1605 115.805 96.2013 115.538 96.1394C115.271 96.0776 115.037 95.9178 114.883 95.6916C114.728 95.4654 114.664 95.1893 114.704 94.9183C114.744 94.6473 114.884 94.401 115.096 94.2284L116.819 92.8507L115.758 93.4642C115.519 93.6069 115.234 93.653 114.963 93.5931C114.691 93.5331 114.452 93.3717 114.296 93.1417C114.139 92.9116 114.076 92.6305 114.12 92.3556C114.163 92.0808 114.31 91.833 114.531 91.6629L116.579 90.0364L115.177 90.8442C114.942 90.9785 114.666 91.0208 114.402 90.9632C114.138 90.9055 113.905 90.7518 113.747 90.532C113.59 90.3121 113.52 90.0417 113.55 89.7731C113.581 89.5044 113.71 89.2567 113.913 89.0779L119.605 84.1064L114.365 87.1369C114.133 87.2631 113.862 87.3007 113.605 87.2428C113.347 87.1849 113.119 87.0354 112.962 86.822C112.806 86.6087 112.733 86.346 112.756 86.0826C112.779 85.8193 112.897 85.5733 113.088 85.3902L120.402 78.7791L113.415 82.8183C113.177 82.9569 112.894 83.0001 112.625 82.9391C112.356 82.8781 112.12 82.7175 111.965 82.4896C111.809 82.2616 111.746 81.9832 111.787 81.7104C111.829 81.4376 111.972 81.1907 112.188 81.0192L116.666 77.4538L112.736 79.7245C112.495 79.8635 112.21 79.9054 111.939 79.8414C111.669 79.7775 111.433 79.6126 111.279 79.3805C111.126 79.1483 111.067 78.8664 111.115 78.5924C111.162 78.3183 111.313 78.0727 111.535 77.9058L113.476 76.4538L112.166 77.2005C111.925 77.3347 111.642 77.3727 111.374 77.3069C111.107 77.241 110.874 77.0761 110.722 76.8455C110.571 76.6148 110.513 76.3354 110.559 76.0635C110.605 75.7915 110.753 75.5472 110.972 75.3796L112.577 74.1941L111.623 74.7421C111.383 74.877 111.101 74.9165 110.833 74.8525C110.566 74.7886 110.332 74.626 110.18 74.3973C110.027 74.1686 109.966 73.8906 110.009 73.619C110.052 73.3473 110.197 73.102 110.413 72.9321L114.913 69.4759L110.961 71.7575C110.725 71.8914 110.448 71.9329 110.184 71.8739C109.919 71.8148 109.686 71.6595 109.53 71.4381C109.373 71.2166 109.305 70.945 109.338 70.6759C109.371 70.4069 109.503 70.1597 109.708 69.9824L118.921 62.1421L109.97 67.3057C109.73 67.4701 109.435 67.5327 109.15 67.4797C108.864 67.4267 108.611 67.2624 108.447 67.0229C108.282 66.7835 108.22 66.4885 108.273 66.2029C108.326 65.9173 108.49 65.6645 108.73 65.5001L113.839 61.4325L109.243 64.0831C109.008 64.2182 108.73 64.261 108.465 64.203C108.201 64.145 107.967 63.9904 107.809 63.7694C107.652 63.5484 107.583 63.2767 107.615 63.0074C107.647 62.738 107.778 62.4903 107.983 62.3124L109.334 61.1334L108.679 61.5133C108.466 61.6361 108.218 61.6833 107.974 61.6472C107.731 61.611 107.507 61.4937 107.338 61.3142C107.17 61.1347 107.067 60.9036 107.047 60.6583C107.026 60.4131 107.089 60.1681 107.225 59.9631L108.051 58.7252C107.817 58.7107 107.594 58.6215 107.415 58.4707C107.236 58.3199 107.11 58.1155 107.056 57.8877C107.002 57.6599 107.022 57.4207 107.115 57.2055C107.207 56.9903 107.366 56.8104 107.568 56.6925L110.786 54.8323C111 54.7095 111.248 54.6623 111.492 54.6984C111.735 54.7346 111.959 54.8519 112.127 55.0314C112.296 55.2109 112.399 55.442 112.419 55.6873C112.44 55.9325 112.377 56.1775 112.24 56.3825L111.64 57.2842L118.168 53.5157C118.403 53.3831 118.679 53.3421 118.942 53.4007C119.205 53.4593 119.438 53.6133 119.594 53.833C119.751 54.0526 119.82 54.3225 119.79 54.5905C119.759 54.8585 119.63 55.1056 119.428 55.2842L118.074 56.4567L125.415 52.221C125.653 52.0824 125.935 52.0392 126.205 52.1002C126.474 52.1611 126.71 52.3218 126.865 52.5497C127.021 52.7777 127.084 53.056 127.043 53.3288C127.001 53.6016 126.858 53.8486 126.642 54.0201L121.541 58.0811L128.207 54.2341C128.443 54.1001 128.72 54.0586 128.984 54.1177C129.249 54.1767 129.482 54.3321 129.638 54.5535C129.795 54.7749 129.863 55.0466 129.83 55.3156C129.797 55.5847 129.665 55.8319 129.46 56.0091L120.247 63.8495L128.209 59.2535C128.449 59.1186 128.731 59.0792 128.998 59.1431C129.266 59.207 129.5 59.3696 129.652 59.5983C129.805 59.8271 129.866 60.105 129.823 60.3767C129.78 60.6483 129.635 60.8936 129.419 61.0635L124.91 64.5263L128.209 62.6224C128.451 62.4841 128.736 62.4432 129.007 62.5081C129.277 62.573 129.513 62.7387 129.665 62.9715C129.818 63.2042 129.875 63.4864 129.827 63.7604C129.778 64.0343 129.627 64.2794 129.404 64.4455L127.814 65.618L128.209 65.3996C128.45 65.2606 128.735 65.2188 129.006 65.2827C129.277 65.3466 129.513 65.5115 129.666 65.7436C129.819 65.9758 129.878 66.2577 129.831 66.5317C129.783 66.8058 129.633 67.0514 129.41 67.2183L127.46 68.6768L128.209 68.2401C128.447 68.1073 128.727 68.0683 128.992 68.1309C129.257 68.1935 129.49 68.3532 129.643 68.5785C129.797 68.8038 129.861 69.0785 129.822 69.3484C129.783 69.6183 129.645 69.864 129.434 70.037L124.961 73.6024L128.209 71.7269C128.442 71.6007 128.712 71.5631 128.97 71.621C129.228 71.6789 129.456 71.8284 129.612 72.0418C129.768 72.2551 129.841 72.5179 129.818 72.7812C129.795 73.0445 129.677 73.2905 129.487 73.4736L122.17 80.0869L128.209 76.5936C128.444 76.4593 128.72 76.4169 128.984 76.4746C129.248 76.5323 129.482 76.6859 129.639 76.9058C129.797 77.1257 129.867 77.3961 129.836 77.6647C129.805 77.9333 129.676 78.1811 129.473 78.3599L123.782 83.3292L128.209 80.7747C128.448 80.637 128.729 80.5944 128.998 80.6556C129.266 80.7167 129.502 80.877 129.657 81.1043C129.813 81.3316 129.877 81.6094 129.836 81.8819C129.796 82.1544 129.654 82.4016 129.439 82.5737L127.404 84.1916L128.214 83.7243C128.452 83.5857 128.734 83.5425 129.004 83.6035C129.273 83.6645 129.509 83.8251 129.664 84.053C129.82 84.281 129.883 84.5594 129.842 84.8322C129.8 85.105 129.657 85.3519 129.441 85.5234L127.705 86.9098L128.214 86.6194C128.444 86.4886 128.713 86.4456 128.972 86.4986C129.232 86.5515 129.463 86.6968 129.623 86.9073C129.783 87.1179 129.861 87.3794 129.843 87.6433C129.825 87.9072 129.711 88.1555 129.524 88.3421L123.629 94.141L128.214 91.4905C128.443 91.3646 128.709 91.3251 128.965 91.3791C129.221 91.4331 129.449 91.5771 129.607 91.7848C129.766 91.9926 129.845 92.2503 129.829 92.5112C129.814 92.7721 129.706 93.0188 129.524 93.2066L124.266 98.4728L128.196 96.1977C128.433 96.0622 128.711 96.02 128.977 96.0795C129.243 96.1389 129.477 96.2957 129.634 96.519C129.79 96.7423 129.857 97.0159 129.822 97.2861C129.786 97.5564 129.651 97.8036 129.443 97.9793L128.454 98.8112C128.689 98.7477 128.938 98.7644 129.162 98.8587C129.386 98.9529 129.572 99.1193 129.691 99.3314C129.81 99.5435 129.855 99.7893 129.818 100.03C129.781 100.27 129.665 100.491 129.489 100.658L128.526 101.562C128.78 101.511 129.043 101.552 129.27 101.677C129.496 101.802 129.671 102.004 129.763 102.246C129.854 102.488 129.857 102.755 129.77 102.999C129.683 103.243 129.512 103.448 129.288 103.577L121.611 108.034C121.449 108.13 121.263 108.181 121.074 108.182Z" fill="black"/>
<path d="M84.8573 14.5367C80.8705 13.7332 77.2156 13.5651 73.1568 12.6939C66.4125 -2.86231 64.6025 -2.09815 57.9543 12.9319C41.5531 14.6437 40.9243 15.4013 53.4544 26.4293C49.5834 43.2999 50.7842 42.7432 65.2117 34.7871C79.7767 43.1362 81.3836 42.8218 77.5606 26.0145C79.078 23.4731 90.8462 16.4624 84.8573 14.5367ZM53.4719 26.3398C53.4566 26.2459 53.4719 26.2088 53.4719 26.3398V26.3398ZM65.5763 34.5993L65.7182 34.5251C66.1549 34.2784 65.8776 34.5709 65.5763 34.5993ZM82.7482 17.6501C73.3599 25.9468 73.7027 25.2044 76.0912 37.418C66.8099 31.0558 63.7838 32.2064 54.5832 37.8809C57.6399 25.9009 57.1726 24.2918 47.4481 16.5803C58.8342 15.5847 61.1332 15.5235 65.4038 4.3667C70.8621 17.1632 70.694 14.755 83.5036 16.6807C83.7176 16.8947 83.1172 17.2899 82.7482 17.6501ZM44.0443 30.4095C41.3697 29.7916 38.944 29.737 36.1843 29.117C32.0206 17.982 29.2347 18.637 25.1104 29.3353C13.7876 30.5667 13.875 31.5274 21.986 39.097C19.5429 49.6949 20.556 51.494 30.2216 45.1841C40.0116 51.5878 41.8587 49.4569 39.1383 38.549C40.2409 36.5447 47.8542 32.1627 44.0443 30.4095ZM41.8609 32.5164C36.7192 37.1276 34.8612 39.0664 37.0576 46.0902C31.9813 41.7759 28.9159 43.0641 23.8812 46.481C25.8658 37.501 25.3506 37.9376 19.3486 32.0361C25.2676 31.7173 28.8068 30.6497 30.4224 24.4687C32.573 31.5732 35.4441 31.5208 42.0945 32.226C42.0683 32.2086 42.1448 32.226 42.1448 32.226C42.1382 32.3134 41.9199 32.4487 41.8653 32.5164H41.8609Z" fill="#8EFF01"/>
<path d="M113.601 30.4095C110.926 29.7916 108.498 29.737 105.741 29.1169C101.577 17.9819 98.7911 18.6369 94.6668 29.3353C83.3397 30.5645 83.4248 31.5361 91.5359 39.1057C89.095 49.7036 90.1058 51.5027 99.7737 45.1928C109.564 51.5965 111.411 49.4656 108.688 38.5577C109.797 36.5446 117.408 32.1627 113.601 30.4095ZM111.417 32.5164C106.276 37.1276 104.418 39.0664 106.614 46.0902C101.536 41.7759 98.4702 43.0641 93.4376 46.481C95.4201 37.5009 94.9048 37.9376 88.905 32.0361C94.824 31.7173 98.3632 30.6496 99.9789 24.4686C102.129 31.5732 105.001 31.5208 111.651 32.226C111.625 32.2085 111.701 32.226 111.701 32.226C111.695 32.3133 111.476 32.4487 111.422 32.5164H111.417ZM34.6885 94.713C34.7387 94.6868 34.7649 94.6737 34.6885 94.713V94.713ZM56.9847 127.987H57.0021C56.9279 128.018 56.9476 128.009 56.9847 127.987Z" fill="#8EFF01"/>
<path d="M0.602444 100.979C-0.19229 104.752 1.92991 106.918 5.68961 106.734C11.6501 108.263 15.5779 105.304 15.5998 99.1452C18.8507 99.6648 22.8244 100.132 24.2217 96.8789L28.5753 97.8767C22.427 101.746 25.1759 111.132 32.7236 109.296C32.4441 110.326 32.442 111.412 32.7175 112.443C32.993 113.475 33.5364 114.415 34.2926 115.169C35.0488 115.923 35.9908 116.463 37.0232 116.735C38.0555 117.007 39.1415 117.002 40.171 116.719C38.6885 121.769 44.5027 125.489 48.9524 123.487C49.0986 132.926 60.8144 129.659 64.1112 123.747C67.7421 129.552 78.0256 128.686 78.4448 121.485C82.1434 122.609 87.3965 119.339 87.0952 115.389C91.7064 117.057 98.3743 111.405 95.0294 106.569C98.9834 106.084 102.536 102.663 101.348 98.9269L106.212 97.5994C107.374 101.678 111.671 100.811 115.118 100.075C115.673 105.824 117.797 109.64 124.153 107.313C126.238 106.942 129.53 106.798 130.29 104.361C130.605 98.6714 130.275 92.8572 130.391 87.1128V54.7886C128.548 49.4984 120.981 54.2187 116.939 54.0615C113.688 54.6423 106.896 54.7624 106.289 58.8365C102.918 59.3517 98.4769 60.057 98.8306 64.1551C94.1474 64.8887 90.2676 59.7557 86.2546 57.8059C81.6565 54.5419 77.0715 51.1468 71.1765 53.3803C65.8841 52.2057 60.7293 49.9416 55.3626 49.3215C45.387 49.2429 40.1273 63.1638 30.501 62.2316C30.6014 58.2797 26.3046 57.9653 22.9401 57.5963C22.045 52.0791 13.8203 54.1772 9.73751 52.793C6.60661 52.3563 0.833877 51.1424 0.60026 55.8824C0.0675271 70.8754 0.825144 85.96 0.602444 100.979ZM31.7433 107.898C27.0601 106.682 27.3963 100.722 30.942 98.3286C31.8678 98.3963 33.1407 97.5645 32.6319 96.5645C33.1735 95.9265 33.7818 95.3483 34.4463 94.8397C34.431 94.8397 34.7236 94.7021 34.7738 94.6606C34.8143 94.6611 34.8548 94.656 34.8939 94.6453C34.5205 94.7087 35.348 94.5842 35.3655 94.606C43.863 96.6387 37.2955 104.521 33.3175 107.758C33.4179 107.699 32.9922 107.922 33.0337 107.9C32.8481 107.996 32.9573 107.94 33.0337 107.9C32.6108 108.013 32.1658 108.012 31.7433 107.898ZM38.8479 114.841C30.9333 111.374 39.9854 103.099 44.1316 100.556C54.1618 101.567 44.1403 114.878 38.8479 114.841ZM44.9197 121.352C39.3173 116.433 49.5047 108.252 53.5723 106.125C54.3889 106.274 55.1522 106.634 55.7857 107.17C56.4192 107.706 56.9008 108.399 57.182 109.18C57.4633 109.961 57.5344 110.802 57.3883 111.619C57.2422 112.436 56.884 113.2 56.3495 113.835C52.9064 116.068 49.6576 124.54 44.9197 121.352ZM58.5132 126.686C58.1399 127.126 57.713 127.518 57.2425 127.852C57.2534 127.852 56.9761 127.987 56.9215 128.033C56.8802 128.031 56.8389 128.036 56.7993 128.048C57.1748 127.983 56.3495 128.107 56.332 128.085C47.9458 126.09 54.212 118.009 58.3778 114.898C66.5107 114.686 63.4934 123.271 58.5132 126.686ZM112.284 56.2121C116.083 56.5221 125.751 51.3498 127.236 55.627C127.07 72.1919 127.659 88.984 127.07 105.455C118.005 109.37 118.723 99.9377 117.105 93.8113C117.304 87.5255 104.758 55.7471 112.284 56.2121ZM103.099 61.6464C104.172 61.2714 105.292 61.0466 106.426 60.9783C109.125 73.2945 111.983 85.5736 114.649 97.9051C107.824 100.826 108.826 92.0777 107.387 87.8333C106.841 80.1284 100.601 68.12 103.099 61.6464ZM77.9448 55.3977C84.8049 58.6443 90.8549 67.3799 99.0577 65.417C101.381 75.7333 103.494 86.1085 105.935 96.3986L100.859 97.7828C90.94 87.7678 80.7723 76.9647 69.7028 68.3842C61.476 66.1681 57.463 74.5892 52.2929 79.1764C51.7131 79.6563 51.0333 80.0003 50.3032 80.1833C49.5732 80.3663 48.8115 80.3836 48.0739 80.2339C47.3363 80.0842 46.6416 79.7713 46.0407 79.3182C45.4397 78.8651 44.9478 78.2833 44.601 77.6153C41.5443 70.6832 50.8759 63.0743 55.6028 58.9784C62.7881 57.5112 70.7005 52.5376 77.9448 55.3977ZM37.1383 62.6464C48.6685 53.8934 51.9501 47.9831 67.0042 54.4873C62.1004 56.092 56.7971 56.7099 52.2055 59.0723C47.7384 64.083 37.5335 71.5697 41.767 79.0148C42.9309 80.4083 44.5123 81.3901 46.2773 81.8152C48.0424 82.2402 49.8974 82.0859 51.568 81.375C58.1748 79.6284 61.2227 66.8056 68.8163 70.5981C78.423 79.4428 87.6563 88.8923 97.1997 97.8789C99.9965 101.215 96.9813 107.464 92.7347 103.946C85.6411 103.551 94.643 107.876 92.5732 111.418C91.4051 115.129 87.3332 113.913 85.5494 111.444C84.9097 110.83 81.9251 111.848 82.5888 112.595C86.4205 117.566 81.519 123.69 76.8466 117.507C76.2025 116.898 73.2201 117.92 73.886 118.66C78.8138 126.928 70.2923 128.081 65.9758 121.459C68.5827 117.284 64.2139 112.317 59.7009 113.3C63.1375 108.117 56.963 102.468 51.7012 104.881C52.2623 100.167 46.6795 97.2632 42.7364 99.1037C43.3106 92.4904 34.0577 91.3791 30.5665 95.8025L24.8243 94.4925C26.571 84.3749 28.5622 74.3032 30.2499 64.1769C31.4404 64.3952 32.6625 64.3723 33.8439 64.1094C35.0253 63.8464 36.1419 63.349 37.1274 62.6464H37.1383ZM27.2522 63.3756C25.4226 73.9015 23.4379 84.4077 21.5755 94.9335C21.6869 98.3745 18.3901 97.5688 15.9906 96.9662L22.641 59.76C24.9422 59.8233 27.9662 60.4456 27.2413 63.3756H27.2522ZM3.76391 55.3999C3.84033 54.1685 3.32724 53.2406 5.05426 53.7908C9.47114 55.4872 18.8857 52.7996 19.7896 58.7404C16.9993 73.9058 14.4688 89.1674 11.6457 104.296C11.1523 105.907 10.8292 105.791 9.43403 105.606C7.11096 105.328 3.35999 105.505 3.75736 102.208C3.72898 86.6041 3.78138 70.9998 3.76391 55.3999Z" fill="#8EFF01"/>
</svg>
