<svg width="162" height="162" viewBox="0 0 162 162" fill="none" xmlns="http://www.w3.org/2000/svg">
<g clip-path="url(#clip0_1_3540)">
<path d="M69.8625 128.172C69.5701 128.172 69.2854 128.078 69.0512 127.902C68.8171 127.727 68.6463 127.481 68.5643 127.2C68.4824 126.919 68.4939 126.619 68.597 126.346C68.7002 126.072 68.8894 125.839 69.1362 125.682L106.172 102.095L61.3197 127.98C61.0135 128.146 60.6548 128.187 60.3188 128.095C59.9828 128.003 59.6955 127.784 59.517 127.485C59.3384 127.186 59.2825 126.829 59.3608 126.49C59.4392 126.15 59.6457 125.854 59.9373 125.663L76.2615 115.619L56.6406 126.959C56.4884 127.05 56.3197 127.11 56.1443 127.136C55.9688 127.161 55.7901 127.152 55.6182 127.109C55.4463 127.065 55.2847 126.988 55.1426 126.882C55.0004 126.776 54.8806 126.643 54.7898 126.491C54.699 126.339 54.6391 126.17 54.6136 125.995C54.588 125.819 54.5972 125.64 54.6407 125.469C54.6842 125.297 54.7611 125.135 54.8671 124.993C54.973 124.851 55.106 124.731 55.2582 124.64L74.871 112.59L54.0351 124.619C53.73 124.789 53.3707 124.835 53.0327 124.746C52.6946 124.657 52.4043 124.44 52.2228 124.141C52.0413 123.843 51.9827 123.485 52.0593 123.144C52.136 122.803 52.3419 122.505 52.6338 122.313L105.44 88.714L50.0904 120.668C49.7836 120.838 49.4227 120.882 49.0843 120.79C48.7458 120.698 48.4563 120.479 48.277 120.177C48.0977 119.876 48.0428 119.517 48.1237 119.175C48.2047 118.834 48.4152 118.538 48.7107 118.349L64.2843 108.845L47.79 118.368C47.4834 118.541 47.1213 118.587 46.7811 118.497C46.4409 118.406 46.1494 118.187 45.9687 117.885C45.7881 117.583 45.7326 117.222 45.8141 116.879C45.8956 116.537 46.1076 116.24 46.4049 116.051L87.3694 90.6067L44.6742 115.255C44.367 115.439 43.9993 115.493 43.652 115.406C43.3046 115.319 43.0061 115.098 42.822 114.791C42.638 114.483 42.5835 114.116 42.6706 113.768C42.7577 113.421 42.9792 113.122 43.2864 112.938L85.4523 86.7943L41.5584 112.136C41.2509 112.312 40.8868 112.359 40.5446 112.269C40.2024 112.178 39.9094 111.957 39.7289 111.652C39.5483 111.348 39.4946 110.984 39.5792 110.641C39.6639 110.297 39.8801 110 40.1814 109.814L53.6382 101.644L39.3282 109.906C39.0227 110.072 38.6651 110.113 38.3299 110.022C37.9946 109.93 37.7076 109.713 37.5284 109.415C37.3493 109.117 37.2919 108.762 37.3681 108.423C37.4444 108.084 37.6484 107.787 37.9377 107.595L90.5094 74.6902L35.7318 106.315C35.4259 106.477 35.0697 106.514 34.7367 106.421C34.4038 106.327 34.1195 106.109 33.9426 105.812C33.7656 105.515 33.7094 105.161 33.7856 104.824C33.8618 104.486 34.0646 104.191 34.3521 103.999L64.7028 85.339L33.0372 103.621C32.7308 103.806 32.3633 103.862 32.0157 103.776C31.6681 103.69 31.3688 103.47 31.1837 103.163C30.9986 102.857 30.9428 102.489 31.0286 102.141C31.1145 101.794 31.3349 101.495 31.6413 101.309L81.9477 69.4684L29.2977 99.8623C28.9926 100.033 28.6333 100.078 28.2953 99.9894C27.9572 99.9003 27.6669 99.6837 27.4854 99.385C27.3039 99.0863 27.2453 98.7288 27.3219 98.3878C27.3986 98.0468 27.6045 97.7488 27.8964 97.5565L74.4741 67.9429L27.7641 94.9132C27.4582 95.0744 27.102 95.1121 26.769 95.0184C26.4361 94.9247 26.1518 94.7068 25.9749 94.4097C25.7979 94.1125 25.7417 93.7588 25.8179 93.4214C25.8941 93.084 26.0969 92.7888 26.3844 92.5966L36.9144 86.1166L27.7614 91.4005C27.4581 91.5547 27.1077 91.5886 26.7804 91.4955C26.4531 91.4024 26.173 91.1891 25.9962 90.8983C25.8195 90.6076 25.759 90.2608 25.827 89.9273C25.895 89.5939 26.0863 89.2984 26.3628 89.1001L53.568 71.9848L27.756 86.8888C27.4511 87.0623 27.0907 87.1104 26.7509 87.0227C26.4112 86.9351 26.119 86.7186 25.9361 86.4192C25.7532 86.1198 25.6941 85.761 25.7712 85.4187C25.8484 85.0765 26.0557 84.7777 26.3493 84.5857L58.7979 63.6472L27.7479 81.5698C27.4428 81.7403 27.0835 81.7859 26.7454 81.6969C26.4074 81.6078 26.1171 81.3912 25.9356 81.0925C25.7541 80.7938 25.6955 80.4363 25.7721 80.0953C25.8488 79.7543 26.0547 79.4563 26.3466 79.264L47.466 65.7424L27.756 77.1229C27.4507 77.2908 27.0923 77.3341 26.7558 77.2438C26.4192 77.1536 26.1306 76.9367 25.9503 76.6385C25.77 76.3403 25.712 75.984 25.7884 75.644C25.8647 75.304 26.0696 75.0068 26.3601 74.8144L34.4601 69.6844L27.7479 73.5562C27.4445 73.7213 27.0894 73.7638 26.7556 73.675C26.4218 73.5862 26.1348 73.3728 25.9535 73.0788C25.7722 72.7848 25.7106 72.4325 25.7812 72.0944C25.8518 71.7562 26.0493 71.4581 26.3331 71.2612L43.6131 59.9212L27.7587 69.0742C27.4581 69.2476 27.1022 69.2985 26.7649 69.2163C26.4277 69.1342 26.1351 68.9253 25.9478 68.6331C25.7605 68.3409 25.693 67.9878 25.7592 67.6471C25.8254 67.3064 26.0203 67.0043 26.3034 66.8035L48.8106 50.8546L34.83 58.9249C34.528 59.0905 34.1741 59.1343 33.8408 59.0475C33.5074 58.9606 33.2199 58.7497 33.0371 58.4578C32.8542 58.1659 32.7898 57.8151 32.8571 57.4773C32.9244 57.1395 33.1183 56.8402 33.399 56.6407L41.5935 51.0841C41.3494 50.9889 41.139 50.8236 40.9887 50.6089C40.7936 50.3356 40.7073 49.9993 40.7468 49.6658C40.7862 49.3323 40.9485 49.0255 41.202 48.8053L52.5582 38.9503L52.5258 38.8936C52.3477 38.5838 52.2997 38.2159 52.3923 37.8707C52.4849 37.5256 52.7106 37.2312 53.0199 37.0522L58.2822 34.0201C58.5728 33.8535 58.9148 33.8009 59.242 33.8724C59.5692 33.9439 59.8581 34.1345 60.0526 34.4071C60.2471 34.6797 60.3334 35.0149 60.2946 35.3475C60.2558 35.6801 60.0948 35.9865 59.8428 36.2071L53.5977 41.6287L66.7764 34.0201C67.0787 33.8501 67.4348 33.8029 67.7709 33.8884C68.107 33.9739 68.3973 34.1854 68.5816 34.4791C68.766 34.7728 68.8302 35.1262 68.7611 35.466C68.6919 35.8058 68.4946 36.106 68.2101 36.3043L65.8287 37.9243L72.5787 34.0255C72.8788 33.8583 73.2313 33.8119 73.5645 33.8955C73.8976 33.9792 74.1863 34.1867 74.3718 34.4758C74.5573 34.7649 74.6257 35.1138 74.5629 35.4515C74.5001 35.7892 74.311 36.0903 74.034 36.2935L51.5376 52.2235L83.0952 34.0201C83.3989 33.8502 83.7564 33.8042 84.0932 33.8915C84.43 33.9789 84.72 34.1929 84.9028 34.4889C85.0857 34.7849 85.1472 35.1401 85.0745 35.4803C85.0018 35.8205 84.8006 36.1196 84.5127 36.3151L67.2489 47.6551L90.8523 34.0201C91.158 33.8454 91.5199 33.797 91.8607 33.8853C92.2015 33.9736 92.4944 34.1915 92.6768 34.4926C92.8593 34.7938 92.9168 35.1543 92.8373 35.4972C92.7577 35.8402 92.5473 36.1385 92.2509 36.3286L84.1104 41.4748L97.03 34.0201C97.3345 33.8526 97.692 33.809 98.0279 33.8984C98.3638 33.9879 98.6523 34.2035 98.8332 34.5003C99.0141 34.7971 99.0736 35.1523 98.9993 35.4918C98.9249 35.8314 98.7224 36.1292 98.434 36.3232L77.3172 49.8448L104.73 34.0201C105.035 33.85 105.393 33.8043 105.73 33.8925C106.068 33.9807 106.358 34.196 106.54 34.4933C106.722 34.7906 106.782 35.1469 106.708 35.4874C106.633 35.828 106.429 36.1265 106.14 36.3205L73.6938 57.2401L113.94 34.0201C114.245 33.8522 114.604 33.8088 114.94 33.8991C115.277 33.9894 115.565 34.2063 115.746 34.5045C115.926 34.8026 115.984 35.159 115.908 35.4989C115.831 35.8389 115.626 36.1362 115.336 36.3286L88.1199 53.4412L121.77 34.0201C122.076 33.8588 122.432 33.8212 122.765 33.9148C123.098 34.0085 123.382 34.2264 123.559 34.5236C123.736 34.8207 123.792 35.1745 123.716 35.5118C123.64 35.8492 123.437 36.1445 123.15 36.3367L112.62 42.8167L127.848 34.0255C128.153 33.8603 128.509 33.8187 128.844 33.9093C129.179 34 129.465 34.2158 129.645 34.5123C129.825 34.8087 129.884 35.1629 129.81 35.5016C129.735 35.8402 129.534 36.1373 129.246 36.3313L82.6578 65.9395L137.97 34.0201C138.275 33.8522 138.634 33.8088 138.97 33.8991C139.307 33.9894 139.595 34.2063 139.776 34.5045C139.956 34.8026 140.014 35.159 139.938 35.4989C139.861 35.8389 139.656 36.1362 139.366 36.3286L89.0542 68.1616L148.211 34.0201C148.517 33.8588 148.873 33.8212 149.206 33.9148C149.539 34.0085 149.823 34.2264 150 34.5236C150.177 34.8207 150.234 35.1745 150.157 35.5118C150.081 35.8492 149.878 36.1445 149.591 36.3367L119.264 54.9667L154.826 34.4467C155.132 34.2812 155.489 34.2398 155.825 34.3313C156.16 34.4228 156.447 34.64 156.626 34.9377C156.805 35.2355 156.863 35.5909 156.786 35.9299C156.71 36.2689 156.506 36.5655 156.217 36.7579L103.65 69.6601L158.22 38.1457C158.527 37.9787 158.887 37.9373 159.224 38.0303C159.561 38.1232 159.849 38.3432 160.027 38.644C160.205 38.9449 160.259 39.303 160.179 39.6431C160.098 39.9832 159.889 40.2788 159.594 40.4677L146.07 48.6865L158.552 41.4802C158.859 41.3074 159.221 41.2612 159.561 41.3515C159.901 41.4418 160.193 41.6615 160.373 41.9636C160.554 42.2657 160.61 42.6264 160.528 42.9689C160.447 43.3113 160.235 43.6084 159.937 43.7968L117.831 69.9058L158.544 46.3942C158.85 46.2309 159.207 46.1914 159.541 46.284C159.875 46.3766 160.16 46.5942 160.338 46.8916C160.516 47.189 160.573 47.5435 160.497 47.8817C160.421 48.2198 160.218 48.5157 159.929 48.7081L118.919 74.1853L158.544 51.3001C158.851 51.1363 159.208 51.097 159.543 51.1904C159.878 51.2838 160.164 51.5027 160.341 51.8015C160.519 52.1003 160.574 52.4561 160.496 52.7947C160.417 53.1333 160.212 53.4287 159.921 53.6194L144.393 63.0991L158.544 54.9316C158.849 54.7664 159.206 54.7248 159.54 54.8154C159.875 54.906 160.162 55.1219 160.342 55.4184C160.521 55.7148 160.58 56.069 160.506 56.4077C160.432 56.7463 160.23 57.0434 159.943 57.2374L107.131 90.8416L158.547 61.1416C158.854 60.9719 159.214 60.9283 159.553 61.02C159.891 61.1117 160.181 61.3315 160.36 61.6328C160.539 61.9342 160.594 62.2935 160.513 62.6347C160.433 62.9759 160.222 63.2722 159.926 63.4609L140.338 75.5029L158.547 64.9891C158.854 64.8194 159.214 64.7758 159.553 64.8675C159.891 64.9592 160.181 65.179 160.36 65.4803C160.539 65.7817 160.594 66.141 160.513 66.4822C160.433 66.8234 160.222 67.1197 159.926 67.3084L143.594 77.3578L158.547 68.7178C158.852 68.5526 159.208 68.511 159.543 68.6016C159.878 68.6922 160.164 68.9081 160.344 69.2046C160.524 69.501 160.583 69.8552 160.509 70.1939C160.434 70.5325 160.233 70.8296 159.945 71.0236L122.92 94.627L158.547 74.0611C158.85 73.896 159.205 73.8535 159.539 73.9423C159.873 74.0311 160.16 74.2444 160.341 74.5384C160.522 74.8325 160.584 75.1848 160.514 75.5229C160.443 75.861 160.245 76.1592 159.962 76.3561L120.674 102.155L158.547 80.2846C158.853 80.1132 159.213 80.0675 159.552 80.1573C159.891 80.247 160.182 80.4651 160.363 80.7654C160.544 81.0656 160.601 81.4246 160.522 81.7662C160.443 82.1078 160.234 82.4053 159.94 82.5958L145.784 91.5301L158.547 84.1645C158.851 83.997 159.209 83.9534 159.545 84.0428C159.881 84.1323 160.169 84.3479 160.35 84.6447C160.531 84.9415 160.59 85.2967 160.516 85.6362C160.442 85.9758 160.239 86.2736 159.951 86.4676L143.397 97.1083L158.547 88.363C158.85 88.1998 159.203 88.1585 159.536 88.2475C159.868 88.3364 160.154 88.5489 160.335 88.8416C160.516 89.1342 160.578 89.4849 160.51 89.822C160.441 90.1591 160.246 90.4571 159.964 90.6553L140.997 103.183L158.547 93.0529C158.85 92.8803 159.209 92.8319 159.547 92.918C159.885 93.004 160.177 93.2178 160.361 93.5143C160.545 93.8109 160.607 94.1673 160.534 94.5087C160.461 94.85 160.259 95.1498 159.97 95.3452L146.372 104.393L158.547 97.3729C158.848 97.2026 159.204 97.1547 159.54 97.2392C159.876 97.3236 160.166 97.5339 160.351 97.8266C160.537 98.1193 160.602 98.4719 160.535 98.8116C160.467 99.1513 160.272 99.4521 159.989 99.6517L146.759 108.77L158.549 101.966C158.847 101.799 159.196 101.751 159.528 101.831C159.859 101.911 160.148 102.114 160.336 102.398C160.524 102.683 160.598 103.028 160.542 103.365C160.486 103.701 160.305 104.004 160.034 104.212L146.318 114.523L158.549 107.465C158.847 107.297 159.198 107.248 159.53 107.329C159.863 107.409 160.152 107.613 160.34 107.898C160.529 108.184 160.601 108.53 160.544 108.867C160.487 109.204 160.304 109.507 160.032 109.715L154.022 114.202L158.549 111.588C158.835 111.419 159.172 111.361 159.498 111.425C159.823 111.489 160.114 111.67 160.314 111.934C160.514 112.199 160.61 112.528 160.584 112.858C160.557 113.189 160.41 113.498 160.169 113.727L153.503 120.172L158.558 117.256C158.843 117.084 159.182 117.024 159.51 117.087C159.837 117.15 160.129 117.332 160.33 117.598C160.532 117.864 160.627 118.194 160.599 118.527C160.571 118.859 160.421 119.169 160.178 119.397L159.041 120.493C159.296 120.463 159.555 120.511 159.783 120.63C160.011 120.75 160.197 120.935 160.318 121.163C160.497 121.472 160.546 121.841 160.454 122.186C160.362 122.532 160.136 122.827 159.827 123.007L151.187 127.994C150.901 128.166 150.562 128.226 150.235 128.163C149.907 128.099 149.615 127.917 149.414 127.652C149.213 127.386 149.117 127.055 149.145 126.723C149.173 126.391 149.323 126.081 149.567 125.852L150.32 125.129L145.338 127.98C145.053 128.149 144.716 128.207 144.39 128.144C144.065 128.08 143.774 127.898 143.574 127.634C143.373 127.37 143.277 127.041 143.304 126.71C143.331 126.38 143.478 126.071 143.718 125.842L150.39 119.405L135.524 127.98C135.226 128.145 134.877 128.191 134.547 128.11C134.217 128.028 133.929 127.825 133.742 127.541C133.555 127.257 133.482 126.912 133.538 126.577C133.594 126.241 133.775 125.939 134.044 125.731L140.046 121.249L128.385 127.98C128.089 128.139 127.744 128.182 127.417 128.1C127.091 128.017 126.807 127.817 126.622 127.536C126.436 127.256 126.361 126.916 126.413 126.584C126.464 126.251 126.638 125.95 126.9 125.739L140.616 115.425L118.854 127.98C118.552 128.156 118.194 128.208 117.855 128.125C117.516 128.042 117.222 127.831 117.035 127.536C116.848 127.241 116.782 126.885 116.852 126.543C116.922 126.201 117.122 125.899 117.41 125.701L130.64 116.591L110.9 127.98C110.597 128.145 110.243 128.189 109.909 128.101C109.576 128.013 109.288 127.801 109.106 127.508C108.924 127.215 108.861 126.863 108.93 126.525C108.999 126.187 109.195 125.889 109.477 125.69L123.08 116.64L103.434 127.98C103.131 128.147 102.775 128.192 102.44 128.104C102.105 128.017 101.817 127.804 101.634 127.509C101.452 127.215 101.39 126.862 101.46 126.523C101.531 126.184 101.729 125.885 102.014 125.688L120.992 113.152L95.31 127.98C95.0051 128.154 94.6447 128.202 94.3049 128.114C93.9652 128.026 93.673 127.81 93.4901 127.511C93.3072 127.211 93.2481 126.852 93.3252 126.51C93.4024 126.168 93.6097 125.869 93.9033 125.677L110.454 115.047L88.0443 127.98C87.7393 128.143 87.3834 128.183 87.0499 128.091C86.7164 127.999 86.4309 127.783 86.2522 127.487C86.0735 127.191 86.0152 126.837 86.0895 126.5C86.1637 126.162 86.3648 125.865 86.6511 125.672L100.815 116.726L81.3267 127.98C81.0234 128.145 80.6682 128.188 80.3344 128.099C80.0006 128.01 79.7136 127.797 79.5323 127.503C79.351 127.209 79.2894 126.856 79.36 126.518C79.4306 126.18 79.6282 125.882 79.9119 125.685L119.192 99.9001L70.5375 127.98C70.3334 128.102 70.1005 128.168 69.8625 128.172Z" fill="white"/>
<path d="M47.7712 88.9192C47.5093 88.9189 47.253 88.8425 47.0338 88.6992C46.8145 88.5558 46.6417 88.3518 46.5364 88.112C46.431 87.8721 46.3978 87.6068 46.4406 87.3484C46.4834 87.09 46.6005 86.8496 46.7776 86.6566L46.9585 86.4595L44.5987 87.8095C44.3113 87.9696 43.9754 88.0193 43.6539 87.9493C43.3325 87.8792 43.0477 87.6941 42.853 87.4289C42.6584 87.1636 42.5673 86.8364 42.5969 86.5088C42.6266 86.1811 42.7748 85.8755 43.0138 85.6495L43.1677 85.5064L42.5305 85.8736C42.2499 86.0341 41.9209 86.0885 41.6035 86.0271C41.2861 85.9656 41.0013 85.7922 40.8009 85.5385C40.6005 85.2848 40.4978 84.9676 40.5115 84.6446C40.5252 84.3216 40.6543 84.0142 40.8754 83.7784L43.3459 81.1621L41.2885 82.3447C41.0098 82.5051 40.6829 82.5607 40.3668 82.5016C40.0507 82.4424 39.766 82.2723 39.5642 82.0219C39.3623 81.7716 39.2565 81.4573 39.2657 81.1359C39.2749 80.8144 39.3986 80.5067 39.6145 80.2684L41.2858 78.427C41.0689 78.317 40.8856 78.1505 40.7555 77.945C40.6254 77.7396 40.5532 77.5027 40.5466 77.2596C40.5399 77.0165 40.5991 76.7761 40.7178 76.5638C40.8365 76.3515 41.0104 76.1753 41.221 76.0537L46.081 73.2538C46.3595 73.0933 46.6861 73.0375 47.002 73.0963C47.318 73.1552 47.6026 73.3248 47.8047 73.5747C48.0068 73.8246 48.1131 74.1384 48.1044 74.4597C48.0958 74.781 47.9729 75.0886 47.7577 75.3274L47.4256 75.6946L49.9852 74.2177C50.2659 74.0572 50.5948 74.0027 50.9122 74.0642C51.2296 74.1257 51.5144 74.299 51.7148 74.5527C51.9152 74.8064 52.0179 75.1236 52.0042 75.4466C51.9906 75.7696 51.8614 76.077 51.6403 76.3129L49.1752 78.9265L52.5664 76.9717C52.8538 76.8115 53.1898 76.7618 53.5112 76.8319C53.8327 76.9019 54.1175 77.087 54.3121 77.3522C54.5067 77.6175 54.5978 77.9447 54.5682 78.2724C54.5386 78.6 54.3903 78.9056 54.1513 79.1317L53.6977 79.5475C53.9745 79.5026 54.2583 79.545 54.5099 79.6688C54.7615 79.7926 54.9683 79.9916 55.1016 80.2383C55.2348 80.485 55.288 80.767 55.2537 81.0453C55.2194 81.3236 55.0992 81.5843 54.91 81.7912L53.263 83.5867C53.4784 83.7039 53.6569 83.8787 53.7787 84.0916C53.9577 84.4016 54.0062 84.7701 53.9136 85.1159C53.8209 85.4618 53.5947 85.7566 53.2846 85.9357L48.4597 88.7221C48.2527 88.8498 48.0145 88.918 47.7712 88.9192Z" fill="black"/>
<path d="M154.694 34.1118C150.374 33.156 144.785 34.1118 140.357 34.1118H59.7293C59.5097 34.121 59.2925 34.161 59.084 34.2306C58.7813 34.2517 58.4835 34.3191 58.2011 34.4304C52.334 36.8604 49.2371 40.7916 44.7011 45.3303C39.2606 50.7708 30.9014 56.5029 26.9594 63.072C25.785 65.1036 25.1078 67.3842 24.983 69.7275C18.7735 68.7799 12.4224 69.6961 6.73374 72.36C1.07994 75.33 -1.56876 82.6497 3.11034 87.858C7.16034 92.3724 16.5347 93.8736 24.7994 92.3589C24.9407 94.9313 25.6695 97.4371 26.9297 99.684C30.4667 105.538 37.9835 110.738 42.8597 115.614C47.2445 119.996 51.5618 126.452 57.9419 127.886C69.4115 130.467 84.6314 127.899 96.2819 127.899C113.71 127.899 131.158 128.155 148.584 127.899C156.568 127.783 160.734 126.357 161.274 117.639C162.381 99.7272 161.274 81.378 161.274 63.4338C161.255 54.9855 165.488 36.4986 154.694 34.1118ZM17.7146 90.8415C13.9172 90.7922 10.2463 89.4696 7.28994 87.0858C6.0924 85.8331 5.2557 84.2801 4.86834 82.5909C4.48099 80.9017 4.55738 79.1393 5.08944 77.49C7.58154 70.0272 18.4436 70.3836 24.8831 71.6634C24.8534 74.0313 25.0451 76.4559 25.0451 78.9183C25.0451 82.4769 24.578 86.5971 24.7103 90.5607C22.4005 90.9572 20.0488 91.0516 17.7146 90.8415ZM153.484 125.912C150.244 127.246 143.84 125.912 140.357 125.912H67.805C63.6794 125.912 60.4313 126.452 56.7701 124.416C50.9975 121.192 45.5219 113.168 40.8536 108.486C36.2636 103.896 30.2858 99.738 28.9547 93.2283C28.8386 92.6505 28.7522 92.0133 28.6604 91.3842C32.057 90.431 35.1036 88.5119 37.43 85.86C38.233 86.8349 39.2455 87.616 40.3923 88.1452C41.539 88.6744 42.7904 88.938 44.0531 88.9164C46.2136 88.975 48.3242 88.262 50.0065 86.9052C51.6888 85.5485 52.8328 83.6368 53.2331 81.513C53.3196 80.4267 53.1778 79.3344 52.8167 78.3062C52.4556 77.2781 51.8834 76.3369 51.1367 75.5431C50.3901 74.7494 49.4855 74.1208 48.4813 73.6977C47.4771 73.2745 46.3955 73.0663 45.3059 73.0863C45.2089 73.0894 45.1123 73.1002 45.017 73.1187C44.9414 73.1187 44.8928 73.0998 44.8091 73.1187C42.5687 73.1028 40.4041 73.9296 38.7447 75.4349C37.0853 76.9403 36.0523 79.0143 35.8505 81.2457C35.8505 81.3375 35.8721 81.4185 35.8748 81.5157C35.8748 81.5157 35.8559 81.5373 35.8559 81.5508C35.5392 83.4698 34.6692 85.2547 33.3527 86.6864C32.0361 88.118 30.3303 89.1342 28.4444 89.6103C27.9122 82.7796 28.0868 75.9121 28.9655 69.1173C29.8916 61.8273 35.7695 57.8421 40.8455 52.7715C46.2752 47.3391 52.0154 39.3606 59.0651 36.1152H138.78C148.964 36.1152 157.356 34.5654 157.356 47.0718V94.7943C157.345 101.412 161.066 122.793 153.484 125.912ZM44.0099 75.4461C45.2579 75.5563 46.4369 76.0666 47.3714 76.9009C48.306 77.7353 48.9462 78.8491 49.1966 80.0766C49.7582 82.8441 48.2138 86.6997 44.9198 86.5215C38.9231 86.1975 37.8269 76.113 44.0099 75.4461Z" fill="#8EFF01"/>
<path d="M88.3897 94.3784L90.358 85.1984H98.5363L100.645 95.0318C101.058 96.9704 104.965 95.9498 104.555 93.9842L96.4546 56.1842C96.0334 54.2132 92.8286 55.3472 92.51 56.8295L84.41 94.6295C83.9699 96.6599 87.9902 96.2414 88.3897 94.3784ZM94.4485 66.1067L97.8991 82.2095H90.9899L94.4485 66.1067ZM112.644 95.6231H123.444C124.932 95.6231 127.588 93.3767 124.956 93.3767H118.821C117.629 93.4523 116.433 93.4523 115.241 93.3767C114.946 89.8025 114.985 86.2085 115.357 82.6415V56.4515C115.357 54.8126 111.442 55.6415 111.442 56.9321V94.7321C111.442 95.399 112.05 95.6231 112.644 95.6231ZM145.981 93.0959H136.979V76.4099H141.839C142.815 76.4547 143.781 76.1963 144.604 75.6701C145.122 75.2624 145.219 74.7791 144.366 74.7791H136.979V58.1039H145.619C147.83 58.1039 148.64 55.2959 145.981 55.2959H135.181C134.433 55.2959 133.021 55.952 133.021 56.8565V94.6565C133.021 95.6663 133.971 95.9039 134.819 95.9039H145.619C147.83 95.9039 148.64 93.0959 145.981 93.0959ZM73.4804 78.8129C74.6814 79.8736 75.5577 81.2526 76.0077 82.7904C76.4577 84.3283 76.4632 85.9621 76.0234 87.503C75.5836 89.0438 74.7165 90.4286 73.5226 91.4972C72.3286 92.5658 70.8564 93.2746 69.2765 93.5414C67.1566 93.748 65.0216 93.748 62.9018 93.5414C61.6247 93.5414 58.6871 95.4584 61.298 95.4584C68.966 95.4584 80.2763 95.1587 80.2547 84.5261C80.2385 75.2651 71.8307 77.039 66.9194 72.3761C65.7183 71.3155 64.842 69.9364 64.392 68.3986C63.942 66.8607 63.9365 65.2269 64.3763 63.6861C64.8161 62.1452 65.6832 60.7604 66.8771 59.6918C68.0711 58.6232 69.5433 57.9145 71.1233 57.6476C73.2431 57.4411 75.3781 57.4411 77.4979 57.6476C78.775 57.6476 81.7127 55.7306 79.1018 55.7306C71.4338 55.7306 60.1235 56.0303 60.1451 66.6629C60.1613 75.9347 68.5799 74.1608 73.4804 78.8129ZM148.659 106.515H145.959C145.473 106.509 144.998 106.665 144.61 106.959C144.222 107.252 143.943 107.666 143.815 108.135C143.715 109.169 144.839 109.485 145.641 109.485H148.341C148.827 109.491 149.301 109.334 149.689 109.041C150.077 108.748 150.357 108.334 150.484 107.865C150.584 106.831 149.461 106.515 148.659 106.515ZM135.723 106.753H62.8235C61.1738 106.753 58.7384 109.247 61.3763 109.247H134.276C135.926 109.247 138.361 106.753 135.723 106.753Z" fill="black"/>
</g>
<defs>
<clipPath id="clip0_1_3540">
<rect width="162" height="162" fill="white"/>
</clipPath>
</defs>
</svg>
