<svg width="131" height="131" viewBox="0 0 131 131" fill="none" xmlns="http://www.w3.org/2000/svg">
<path d="M85.7658 48.7494C85.5546 48.7494 85.3481 48.6881 85.1711 48.573C84.9941 48.4579 84.8542 48.294 84.7685 48.101C84.6828 47.9081 84.6549 47.6944 84.6881 47.486C84.7213 47.2775 84.8143 47.0831 84.9557 46.9264L88.3792 43.1295L83.7549 45.7998C83.524 45.9388 83.2497 45.9875 82.9851 45.9364C82.7204 45.8853 82.4839 45.7382 82.3213 45.5232C82.1586 45.3082 82.0813 45.0407 82.1041 44.7721C82.1269 44.5035 82.2483 44.2528 82.4449 44.0684L86.5932 40.0772L85.7199 40.5772C85.4914 40.709 85.2228 40.7536 84.9639 40.7027C84.7051 40.6518 84.4734 40.5089 84.3117 40.3004C84.1501 40.0919 84.0694 39.8319 84.0847 39.5685C84.0999 39.3051 84.21 39.0561 84.3946 38.8677L87.3771 35.8372L84.8837 37.276C84.6514 37.4038 84.3805 37.4427 84.1216 37.3854C83.8627 37.3281 83.6335 37.1786 83.4768 36.9647C83.3201 36.7507 83.2466 36.4871 83.2701 36.223C83.2935 35.9589 83.4123 35.7123 83.6043 35.5294L85.3902 33.9028L83.5628 34.9595C83.3255 35.0969 83.0453 35.14 82.7777 35.0802C82.5101 35.0205 82.2749 34.8622 82.1186 34.637C81.9624 34.4117 81.8966 34.1359 81.9344 33.8643C81.9722 33.5928 82.1108 33.3454 82.3226 33.1714L83.0868 32.5404C82.9096 32.5563 82.7312 32.5265 82.5688 32.4538C82.4064 32.3812 82.2652 32.2682 82.1589 32.1255C81.9966 31.9185 81.9145 31.6598 81.9277 31.397C81.9409 31.1343 82.0486 30.8851 82.2309 30.6955L86.2483 26.5166L83.2527 28.2458C83.0244 28.3791 82.7554 28.4251 82.4957 28.3751C82.236 28.3251 82.0034 28.1825 81.8409 27.9738C81.6784 27.7652 81.5972 27.5047 81.6123 27.2407C81.6274 26.9767 81.7378 26.7271 81.9231 26.5384L84.8575 23.5254L82.2943 25.0057C82.0617 25.1428 81.7866 25.1888 81.522 25.1349C81.2575 25.081 81.0224 24.931 80.8619 24.7139C80.7015 24.4967 80.6273 24.2279 80.6535 23.9592C80.6797 23.6905 80.8046 23.441 81.0039 23.259L82.1851 22.1674L81.196 22.7372C80.9721 22.8671 80.7093 22.9133 80.4546 22.8674C80.1998 22.8215 79.9696 22.6866 79.8051 22.4867C79.6406 22.2867 79.5525 22.0349 79.5566 21.776C79.5606 21.5172 79.6565 21.2682 79.8271 21.0735L82.8445 17.6173L79.0476 19.8006C78.8207 19.9304 78.5547 19.9745 78.298 19.9247C78.0414 19.875 77.8111 19.7348 77.649 19.5297C77.487 19.3245 77.4039 19.068 77.415 18.8068C77.426 18.5456 77.5305 18.2971 77.7093 18.1064L79.9908 15.72L76.7006 17.6173C76.4725 17.7489 76.2045 17.7937 75.946 17.7433C75.6875 17.6929 75.4559 17.5507 75.294 17.3431C75.1321 17.1354 75.0507 16.8762 75.0648 16.6132C75.0789 16.3502 75.1876 16.1012 75.3709 15.9121L77.4167 13.8161L73.8928 15.851C73.6752 15.9769 73.4207 16.0239 73.1725 15.9839C72.9242 15.9439 72.6974 15.8195 72.5303 15.6316C72.3632 15.4437 72.2661 15.2039 72.2554 14.9526C72.2446 14.7014 72.321 14.4542 72.4714 14.2528L75.8207 9.76602L68.2532 14.1327C68.0226 14.2695 67.7496 14.3166 67.4864 14.265C67.2232 14.2134 66.9882 14.0667 66.8263 13.8529C66.6643 13.6391 66.5867 13.3732 66.6083 13.1059C66.6299 12.8386 66.7491 12.5885 66.9432 12.4035L69.5458 9.87737L61.3277 14.6283C61.2035 14.7073 61.0645 14.7603 60.9192 14.7842C60.774 14.8081 60.6253 14.8024 60.4823 14.7673C60.3393 14.7323 60.2049 14.6687 60.0871 14.5804C59.9693 14.4921 59.8706 14.3808 59.7969 14.2533C59.7232 14.1259 59.6761 13.9848 59.6584 13.8387C59.6406 13.6925 59.6526 13.5443 59.6936 13.4029C59.7346 13.2615 59.8038 13.1298 59.8971 13.0159C59.9903 12.9019 60.1056 12.808 60.236 12.7397L76.0892 3.58718C76.3199 3.45039 76.5929 3.40331 76.8561 3.45491C77.1193 3.50651 77.3542 3.65319 77.5162 3.86697C77.6781 4.08074 77.7557 4.34666 77.7342 4.61398C77.7126 4.88131 77.5934 5.13134 77.3992 5.31638L74.7945 7.83813L79.3206 5.21813C79.5379 5.09436 79.7912 5.049 80.0381 5.08965C80.2849 5.13029 80.5103 5.25447 80.6765 5.44141C80.8427 5.62834 80.9397 5.8667 80.9512 6.11658C80.9627 6.36647 80.8881 6.61273 80.7397 6.81415L77.3927 11.3096L83.1851 7.96913C83.4134 7.83741 83.6816 7.79275 83.9403 7.84339C84.199 7.89403 84.4306 8.03656 84.5924 8.24466C84.7542 8.45275 84.8352 8.71236 84.8206 8.97554C84.8059 9.23872 84.6965 9.4877 84.5125 9.6765L82.4711 11.7703L85.4186 10.0673C85.6458 9.93594 85.9127 9.89081 86.1705 9.94019C86.4282 9.98957 86.6596 10.1302 86.8221 10.3362C86.9847 10.5422 87.0676 10.8 87.0556 11.0621C87.0436 11.3243 86.9376 11.5734 86.757 11.7638L84.4885 14.1654L87.4535 12.445C87.6774 12.315 87.9402 12.2689 88.195 12.3148C88.4497 12.3607 88.6799 12.4956 88.8444 12.6955C89.0089 12.8954 89.097 13.1473 89.093 13.4061C89.0889 13.665 88.9931 13.914 88.8224 14.1087L85.8051 17.5605L89.4665 15.4492C89.6991 15.3142 89.9732 15.2697 90.2365 15.3244C90.4998 15.379 90.7337 15.5289 90.8933 15.7453C91.0529 15.9617 91.1271 16.2294 91.1015 16.4971C91.0759 16.7648 90.9524 17.0136 90.7547 17.1959L89.5822 18.2876L90.6215 17.6893C90.8496 17.5593 91.1168 17.5158 91.3744 17.5668C91.6319 17.6178 91.8624 17.7599 92.0237 17.967C92.185 18.1742 92.2662 18.4325 92.2524 18.6947C92.2387 18.9569 92.131 19.2053 91.949 19.3945L89.0124 22.4097L91.8507 20.7744C92.0784 20.6429 92.3458 20.598 92.6039 20.6479C92.862 20.6977 93.0935 20.8391 93.2557 21.046C93.4179 21.2528 93.5001 21.5113 93.4871 21.7738C93.474 22.0364 93.3667 22.2854 93.1847 22.4752L89.163 26.6366L92.8026 24.5363C93.0399 24.3989 93.3201 24.3558 93.5877 24.4155C93.8553 24.4753 94.0906 24.6335 94.2468 24.8588C94.403 25.0841 94.4688 25.3599 94.431 25.6315C94.3932 25.903 94.2546 26.1504 94.0428 26.3244L93.4882 26.7807C93.7211 26.7406 93.9608 26.777 94.1712 26.8847C94.3816 26.9924 94.5513 27.1655 94.6549 27.3779C94.7586 27.5903 94.7905 27.8306 94.7458 28.0627C94.7012 28.2948 94.5824 28.5061 94.4074 28.665L92.6127 30.2959L93.2677 29.916C93.4962 29.7858 93.764 29.7425 94.0219 29.794C94.2799 29.8455 94.5105 29.9884 94.6715 30.1963C94.8324 30.4043 94.9129 30.6634 94.8981 30.926C94.8833 31.1886 94.7741 31.437 94.5908 31.6256L91.6127 34.6626L93.2721 33.7063C93.503 33.5672 93.7772 33.5186 94.0419 33.5696C94.3066 33.6207 94.543 33.7679 94.7057 33.9828C94.8683 34.1978 94.9457 34.4654 94.9229 34.734C94.9001 35.0026 94.7787 35.2532 94.5821 35.4377L90.4337 39.4244L93.2721 37.7847C93.497 37.6564 93.7602 37.6122 94.0148 37.6601C94.2693 37.708 94.4985 37.8447 94.6614 38.046C94.8244 38.2473 94.9105 38.4999 94.9044 38.7588C94.8982 39.0177 94.8002 39.266 94.6279 39.4594L91.2023 43.2584L93.2721 42.0663C93.5216 41.9357 93.8118 41.9067 94.0822 41.9851C94.3526 42.0636 94.5823 42.2435 94.7232 42.4872C94.8641 42.731 94.9054 43.0198 94.8384 43.2933C94.7714 43.5668 94.6013 43.8038 94.3637 43.9548L86.3116 48.6032C86.1461 48.7001 85.9575 48.7506 85.7658 48.7494Z" fill="black"/>
<path d="M37.4962 62.225C37.2708 62.2256 37.0507 62.1564 36.8661 62.0269C36.6816 61.8974 36.5416 61.714 36.4655 61.5017C36.3894 61.2895 36.3809 61.0589 36.4412 60.8417C36.5014 60.6244 36.6274 60.4311 36.8019 60.2884L37.3609 59.8299C37.126 59.8687 36.8849 59.8297 36.6742 59.7187C36.4636 59.6078 36.295 59.4311 36.1941 59.2155C36.0932 58.9998 36.0656 58.7571 36.1154 58.5244C36.1652 58.2916 36.2898 58.0815 36.4701 57.926L38.4962 56.1793L37.7277 56.616C37.4951 56.7552 37.219 56.8029 36.9532 56.7498C36.6874 56.6966 36.4508 56.5465 36.2896 56.3286C36.1283 56.1107 36.0539 55.8406 36.0808 55.5709C36.1077 55.3012 36.234 55.0511 36.4351 54.8693L40.3368 51.2144L37.7168 52.7188C37.4821 52.853 37.2059 52.8954 36.9418 52.8377C36.6776 52.78 36.4443 52.6264 36.2869 52.4065C36.1296 52.1867 36.0594 51.9162 36.09 51.6476C36.1206 51.379 36.2498 51.1313 36.4526 50.9524L38.8543 48.863L37.7255 49.518C37.4929 49.6572 37.2168 49.7049 36.951 49.6518C36.6852 49.5986 36.4486 49.4485 36.2874 49.2306C36.1261 49.0127 36.0517 48.7426 36.0786 48.4729C36.1055 48.2032 36.2318 47.9531 36.433 47.7713L40.2669 44.1885L37.7255 45.6557C37.4929 45.7907 37.2187 45.8352 36.9554 45.7806C36.6921 45.7259 36.4583 45.576 36.2987 45.3596C36.1391 45.1432 36.0649 44.8755 36.0905 44.6078C36.1161 44.3401 36.2396 44.0913 36.4373 43.909L40.149 40.4724L37.7342 41.8654C37.4995 41.9997 37.2234 42.0421 36.9592 41.9844C36.6951 41.9267 36.4618 41.773 36.3044 41.5532C36.1471 41.3333 36.0769 41.0629 36.1075 40.7943C36.1381 40.5256 36.2673 40.2779 36.4701 40.0991L38.8717 38.0053L37.743 38.6603C37.5147 38.7904 37.2471 38.8338 36.9894 38.7826C36.7317 38.7313 36.5011 38.5888 36.34 38.3812C36.1789 38.1737 36.098 37.915 36.1123 37.6526C36.1266 37.3902 36.235 37.1418 36.4177 36.9529L42.1839 31.071L37.7277 33.643C37.4898 33.7752 37.2112 33.8139 36.9463 33.7514C36.6815 33.6889 36.4495 33.5297 36.2959 33.305C36.1423 33.0804 36.0782 32.8065 36.1161 32.537C36.1539 32.2675 36.2911 32.0219 36.5006 31.8483L38.1491 30.5252L37.7539 30.7435C37.5098 30.8855 37.2202 30.9275 36.9459 30.8605C36.6716 30.7935 36.4339 30.6229 36.2828 30.3844C36.1316 30.146 36.0787 29.8582 36.1352 29.5815C36.1917 29.3049 36.3532 29.0609 36.5858 28.9008L52.2861 18.0278L38.2473 26.1345C38.0012 26.2871 37.7046 26.3356 37.4227 26.2695C37.1408 26.2034 36.8967 26.028 36.7441 25.7819C36.5915 25.5358 36.5429 25.2392 36.6091 24.9572C36.6752 24.6753 36.8506 24.4312 37.0967 24.2787L41.4175 21.425L39.125 22.735C38.8849 22.8738 38.601 22.9159 38.3309 22.8529C38.0609 22.7899 37.8249 22.6265 37.671 22.3958C37.517 22.1652 37.4566 21.8846 37.502 21.611C37.5474 21.3375 37.6952 21.0914 37.9154 20.9229L50.057 11.6284L42.2799 16.1283C42.0407 16.2641 41.759 16.3046 41.4912 16.2416C41.2234 16.1787 40.9892 16.017 40.8355 15.7888C40.6818 15.5606 40.62 15.2828 40.6623 15.011C40.7046 14.7391 40.848 14.4933 41.0638 14.3227L46.3213 10.2224C46.144 10.1274 45.9972 9.9844 45.8977 9.80971C45.7536 9.55917 45.7148 9.26174 45.7897 8.98261C45.8646 8.70348 46.0471 8.46544 46.2973 8.32068L55.8472 2.80558C56.0865 2.66698 56.3695 2.62439 56.639 2.68641C56.9085 2.74843 57.1445 2.91043 57.2992 3.13969C57.4538 3.36894 57.5157 3.64837 57.4724 3.92151C57.429 4.19465 57.2836 4.44114 57.0655 4.61119L54.7882 6.38843L63.5085 1.35366C63.7486 1.21495 64.0325 1.17282 64.3026 1.23583C64.5726 1.29883 64.8086 1.46225 64.9625 1.69289C65.1165 1.92354 65.1769 2.20413 65.1315 2.47769C65.0861 2.75125 64.9382 2.99728 64.718 3.16583L52.5853 12.445L70.827 1.92133C71.0724 1.78176 71.3623 1.74266 71.6358 1.81224C71.9094 1.88182 72.1454 2.05466 72.2943 2.29449C72.4431 2.53433 72.4933 2.8225 72.4343 3.09854C72.3752 3.37458 72.2116 3.61702 71.9776 3.77498L67.6524 6.64388L74.2024 2.85798C74.446 2.7219 74.7323 2.68421 75.0028 2.75265C75.2732 2.82109 75.5072 2.99047 75.6567 3.226C75.8061 3.46153 75.8598 3.74535 75.8066 4.01919C75.7533 4.29303 75.5973 4.53611 75.3705 4.69853L50.8168 21.7089L50.8975 21.8093C51.0526 22.0364 51.1163 22.3137 51.0758 22.5857C51.0354 22.8577 50.8937 23.1044 50.6792 23.2765L48.4675 25.0516C48.6883 25.036 48.9086 25.0879 49.0992 25.2004C49.2898 25.3129 49.4417 25.4807 49.5348 25.6815C49.6278 25.8823 49.6577 26.1067 49.6203 26.3248C49.5829 26.543 49.4801 26.7446 49.3255 26.903L43.5572 32.7827L47.4239 30.5514C47.6585 30.4171 47.9347 30.3747 48.1988 30.4324C48.463 30.4901 48.6963 30.6437 48.8537 30.8636C49.011 31.0835 49.0812 31.3539 49.0506 31.6225C49.02 31.8911 48.8908 32.1389 48.688 32.3177L46.2863 34.4093L47.4195 33.7543C47.652 33.6212 47.9253 33.5782 48.1874 33.6336C48.4496 33.6889 48.6822 33.8387 48.841 34.0544C48.9999 34.2702 49.0738 34.5368 49.0488 34.8035C49.0238 35.0703 48.9016 35.3185 48.7055 35.501L44.9938 38.9397L47.4173 37.5402C47.6499 37.4032 47.925 37.3571 48.1895 37.411C48.454 37.4649 48.6892 37.6149 48.8496 37.8321C49.01 38.0492 49.0843 38.3181 49.0581 38.5867C49.0319 38.8554 48.907 39.1049 48.7077 39.2869L44.8715 42.8697L47.4239 41.3982C47.6589 41.259 47.9376 41.213 48.2049 41.2692C48.4722 41.3254 48.7087 41.4798 48.8677 41.7019C49.0268 41.924 49.0968 42.1977 49.0639 42.4688C49.031 42.74 48.8977 42.989 48.6902 43.1667L46.306 45.2496L47.4304 44.5946C47.663 44.4554 47.9391 44.4077 48.2049 44.4608C48.4707 44.5139 48.7073 44.6641 48.8685 44.882C49.0298 45.0998 49.1042 45.3699 49.0773 45.6397C49.0503 45.9094 48.924 46.1595 48.7229 46.3412L44.8453 49.9983L47.4653 48.4896C47.7008 48.354 47.9784 48.3111 48.2438 48.3692C48.5092 48.4273 48.7434 48.5824 48.9006 48.804C49.0578 49.0256 49.1267 49.2979 49.0939 49.5676C49.061 49.8373 48.9288 50.0851 48.7229 50.2625L46.7012 52.0092L47.4719 51.5725C47.7095 51.4316 47.9916 51.3861 48.2614 51.445C48.5313 51.5039 48.7688 51.6629 48.9261 51.8899C49.0833 52.117 49.1487 52.3952 49.109 52.6685C49.0693 52.9418 48.9274 53.1899 48.712 53.3628L47.9479 53.9873C48.0983 53.9767 48.2493 53.9975 48.3914 54.0482C48.5334 54.0989 48.6634 54.1785 48.7732 54.282C48.9421 54.444 49.0546 54.656 49.0939 54.8868C49.1332 55.1176 49.0973 55.3548 48.9915 55.5636L47.5963 58.3321C47.8513 58.2273 48.1364 58.2229 48.3945 58.3196C48.6525 58.4163 48.8645 58.6071 48.9878 58.8536C49.111 59.1001 49.1365 59.3841 49.059 59.6487C48.9815 59.9132 48.8069 60.1386 48.5701 60.2796L45.5396 62.0263C45.3364 62.1458 45.1 62.1964 44.8656 62.1703C44.6313 62.1443 44.4117 62.0431 44.2397 61.8819C44.0676 61.7207 43.9524 61.5081 43.9113 61.276C43.8701 61.0438 43.9052 60.8046 44.0113 60.594L45.4043 57.8147L38.0312 62.0722C37.8694 62.1693 37.6849 62.222 37.4962 62.225Z" fill="black"/>
<path d="M64.1681 129.834C63.9324 129.834 63.7028 129.758 63.5138 129.617C63.3248 129.476 63.1866 129.278 63.1197 129.052C63.0529 128.826 63.061 128.584 63.143 128.363C63.2249 128.142 63.3762 127.953 63.5743 127.825L67.4016 125.354L60.0416 129.605C59.7976 129.741 59.5108 129.778 59.2402 129.708C58.9697 129.639 58.736 129.469 58.5872 129.232C58.4384 128.996 58.3859 128.712 58.4404 128.438C58.4948 128.164 58.6522 127.921 58.8801 127.76L80.4405 113.02L52.4174 129.199C52.1725 129.336 51.884 129.374 51.612 129.304C51.34 129.234 51.1054 129.062 50.9569 128.824C50.8085 128.585 50.7576 128.299 50.8149 128.024C50.8722 127.749 51.0333 127.507 51.2646 127.347L77.1502 109.985L45.1819 128.437C44.9352 128.569 44.6474 128.601 44.3777 128.527C44.1081 128.452 43.8772 128.277 43.7327 128.038C43.5881 127.799 43.541 127.513 43.6011 127.24C43.6611 126.966 43.8237 126.727 44.0553 126.57L55.6968 119.243L40.9396 127.758C40.6918 127.907 40.3947 127.953 40.1136 127.883C39.8325 127.814 39.5905 127.636 39.4408 127.388C39.2911 127.14 39.246 126.843 39.3154 126.562C39.3848 126.281 39.563 126.038 39.8109 125.889L55.1466 116.247L36.7411 126.871C36.4952 127.005 36.2074 127.039 35.9372 126.966C35.667 126.894 35.435 126.72 35.289 126.481C35.143 126.243 35.0943 125.957 35.1528 125.683C35.2114 125.41 35.3727 125.169 35.6036 125.011L68.502 103.691L31.1889 125.236C30.9409 125.376 30.6481 125.413 30.373 125.34C30.0979 125.267 29.8622 125.089 29.7161 124.845C29.57 124.601 29.5251 124.309 29.591 124.032C29.6569 123.755 29.8284 123.515 30.0688 123.363L40.9135 116.671L28.7261 123.705C28.4788 123.838 28.1903 123.869 27.9201 123.795C27.65 123.72 27.4191 123.544 27.2751 123.303C27.1311 123.063 27.0852 122.776 27.1468 122.503C27.2084 122.229 27.3728 121.99 27.606 121.834L45.1688 110.942L27.2087 121.313C26.9616 121.457 26.6676 121.499 26.3899 121.429C26.1123 121.359 25.8732 121.183 25.7243 120.938C25.5754 120.694 25.5285 120.401 25.5938 120.122C25.6591 119.843 25.8313 119.601 26.0733 119.448L64.0633 95.1322L26.8113 116.634C26.5639 116.764 26.2758 116.795 26.0066 116.719C25.7374 116.643 25.5075 116.467 25.3644 116.226C25.2213 115.986 25.1759 115.7 25.2375 115.427C25.2991 115.155 25.4631 114.916 25.6956 114.76L36.1036 108.363L26.8113 113.728C26.5636 113.862 26.2736 113.895 26.0019 113.821C25.7302 113.746 25.4979 113.569 25.3535 113.327C25.2091 113.085 25.1639 112.797 25.2272 112.522C25.2906 112.248 25.4576 112.009 25.6934 111.854L43.7278 100.687L26.8113 110.455C26.5636 110.589 26.2736 110.622 26.0019 110.548C25.7302 110.473 25.4979 110.297 25.3535 110.055C25.2091 109.813 25.1639 109.524 25.2272 109.25C25.2906 108.975 25.4576 108.736 25.6934 108.582L43.2867 97.6889L26.8113 107.202C26.5641 107.343 26.2715 107.382 25.9959 107.311C25.7203 107.239 25.4835 107.063 25.336 106.82C25.1884 106.576 25.1419 106.285 25.2062 106.007C25.2705 105.73 25.4407 105.489 25.6803 105.335L58.212 84.6522L26.8113 102.785C26.565 102.915 26.2784 102.946 26.01 102.872C25.7415 102.797 25.5117 102.623 25.3675 102.385C25.2232 102.147 25.1755 101.862 25.2341 101.59C25.2926 101.318 25.4531 101.078 25.6825 100.92L52.7296 83.7461L26.8113 98.7107C26.5644 98.8464 26.2746 98.8815 26.0024 98.8085C25.7303 98.7355 25.4969 98.5601 25.3511 98.319C25.2053 98.0779 25.1584 97.7897 25.2202 97.5148C25.2819 97.2399 25.4476 96.9995 25.6825 96.8439L46.2408 83.7941L26.8091 95.0121C26.5618 95.1507 26.2702 95.1876 25.9961 95.1151C25.722 95.0425 25.4869 94.8661 25.3406 94.6233C25.1942 94.3805 25.148 94.0903 25.2118 93.814C25.2757 93.5378 25.4445 93.2972 25.6825 93.1432L36.8175 86.1347L26.8113 91.9183C26.5634 92.0612 26.2694 92.1011 25.9924 92.0294C25.7154 91.9577 25.4776 91.7802 25.3303 91.5349C25.1829 91.2897 25.1377 90.9964 25.2044 90.7181C25.2711 90.4399 25.4443 90.199 25.6869 90.0472L29.2566 87.7984L26.8113 89.2088C26.5676 89.343 26.2818 89.3791 26.0124 89.3098C25.743 89.2404 25.5102 89.0707 25.3616 88.8355C25.2131 88.6002 25.1599 88.3171 25.2131 88.044C25.2662 87.7709 25.4216 87.5284 25.6476 87.3661L48.5158 71.6461L26.8113 84.174C26.5676 84.3139 26.2794 84.3544 26.0066 84.2871C25.7338 84.2199 25.4975 84.05 25.3467 83.8129C25.196 83.5759 25.1424 83.2898 25.1972 83.0142C25.2521 82.7386 25.411 82.4948 25.641 82.3335L42.4527 70.6265L26.8113 79.6502C26.5686 79.7853 26.2836 79.8229 26.0142 79.7552C25.7448 79.6876 25.5113 79.5198 25.3613 79.286C25.2113 79.0522 25.1561 78.7701 25.2068 78.497C25.2576 78.2239 25.4105 77.9804 25.6345 77.8162L37.2302 69.6112L26.8113 75.6263C26.5702 75.7634 26.2859 75.8035 26.0162 75.7386C25.7466 75.6737 25.5117 75.5085 25.3594 75.2767C25.2071 75.0449 25.1487 74.7638 25.1962 74.4906C25.2436 74.2173 25.3933 73.9723 25.6148 73.8054L34.4049 67.2816L26.8113 71.6657C26.569 71.8048 26.2827 71.8456 26.0112 71.7799C25.7397 71.7142 25.5037 71.547 25.3518 71.3125C25.1999 71.0781 25.1436 70.7944 25.1946 70.5197C25.2455 70.2451 25.3999 70.0004 25.6258 69.8361L27.6584 68.3667L26.8113 68.8536C26.5789 68.9831 26.3072 69.0233 26.0473 68.9666C25.7874 68.91 25.5571 68.7603 25.3997 68.5458C25.2423 68.3313 25.1686 68.0668 25.1926 67.8018C25.2165 67.5368 25.3364 67.2897 25.5297 67.1069L30.2282 62.8254L26.8113 64.7904C26.5898 64.9172 26.3308 64.9624 26.0795 64.918C25.8281 64.8737 25.6002 64.7427 25.4354 64.5478C25.2706 64.3529 25.1793 64.1064 25.1774 63.8512C25.1755 63.5959 25.263 63.3481 25.4249 63.1507L27.5667 60.5547C27.3715 60.5565 27.1793 60.507 27.0091 60.4113C26.839 60.3155 26.697 60.1767 26.5973 60.0089C26.4531 59.7586 26.4139 59.4614 26.4884 59.1823C26.5629 58.9032 26.7449 58.665 26.9947 58.5199L31.4705 55.9348C31.6921 55.8067 31.9516 55.7605 32.2037 55.8043C32.4559 55.8481 32.6846 55.9791 32.85 56.1744C33.0154 56.3697 33.107 56.6169 33.1086 56.8728C33.1103 57.1287 33.022 57.3771 32.8591 57.5745L30.9596 59.8757L37.8721 55.8933C38.1045 55.7638 38.3761 55.7236 38.6361 55.7803C38.896 55.8369 39.1263 55.9866 39.2837 56.2011C39.4411 56.4156 39.5147 56.6801 39.4908 56.9451C39.4668 57.2101 39.347 57.4572 39.1537 57.64L34.4595 61.9193L44.9024 55.8933C45.1447 55.7543 45.431 55.7134 45.7025 55.7791C45.974 55.8448 46.21 56.0121 46.3619 56.2465C46.5138 56.4809 46.5701 56.7647 46.5191 57.0393C46.4682 57.314 46.3138 57.5586 46.0879 57.723L44.0465 59.1989L49.78 55.8933C50.0211 55.7562 50.3054 55.7161 50.575 55.781C50.8447 55.8459 51.0795 56.0111 51.2318 56.2429C51.3842 56.4747 51.4425 56.7558 51.3951 57.029C51.3476 57.3023 51.198 57.5473 50.9764 57.7142L42.1885 64.2337L56.6356 55.8933C56.8784 55.7548 57.1651 55.7147 57.4366 55.7813C57.7081 55.8479 57.9437 56.0161 58.0948 56.2512C58.246 56.4864 58.3012 56.7705 58.2491 57.0451C58.1969 57.3198 58.0414 57.5639 57.8146 57.7273L46.2124 65.9367L63.6092 55.8933C63.8524 55.7587 64.1378 55.7219 64.4072 55.7904C64.6765 55.8589 64.9096 56.0276 65.0589 56.2621C65.2082 56.4966 65.2624 56.7792 65.2105 57.0523C65.1585 57.3254 65.0044 57.5684 64.7795 57.7317L47.9853 69.43L71.4386 55.8933C71.6823 55.7591 71.9681 55.723 72.2375 55.7924C72.507 55.8617 72.7398 56.0314 72.8883 56.2666C73.0369 56.5019 73.09 56.785 73.0369 57.0581C72.9837 57.3312 72.8283 57.5737 72.6023 57.7361L49.7297 73.4561L80.1632 55.8933C80.4103 55.7595 80.6995 55.7261 80.9706 55.8C81.2416 55.874 81.4738 56.0496 81.6186 56.2904C81.7635 56.5312 81.8099 56.8186 81.7483 57.0927C81.6866 57.3669 81.5216 57.6067 81.2876 57.7623L77.7266 59.9958L84.8334 55.8933C85.0803 55.7575 85.3701 55.7225 85.6423 55.7955C85.9144 55.8685 86.1478 56.0439 86.2936 56.285C86.4394 56.5261 86.4863 56.8143 86.4245 57.0892C86.3628 57.3641 86.1971 57.6045 85.9622 57.7601L74.8272 64.7686L90.2109 55.8933C90.4574 55.7597 90.7458 55.7261 91.0164 55.7994C91.287 55.8727 91.5191 56.0473 91.6645 56.287C91.8099 56.5267 91.8575 56.8131 91.7974 57.0869C91.7374 57.3608 91.5742 57.601 91.3419 57.7579L70.7858 70.8077L96.619 55.8933C96.8655 55.7597 97.1539 55.7261 97.4245 55.7994C97.6951 55.8727 97.9272 56.0473 98.0725 56.287C98.2179 56.5267 98.2655 56.8131 98.2055 57.0869C98.1454 57.3608 97.9823 57.601 97.75 57.7579L70.7094 74.9189L101.525 57.1356C101.772 56.9977 102.062 56.9609 102.336 57.0329C102.609 57.1049 102.844 57.28 102.991 57.5216C103.137 57.7631 103.185 58.0522 103.123 58.328C103.061 58.6037 102.894 58.8447 102.658 59.0002L70.1264 79.6807L103.828 60.2251C104.076 60.093 104.364 60.0611 104.634 60.136C104.904 60.2109 105.135 60.3868 105.279 60.6273C105.423 60.8678 105.469 61.1545 105.408 61.4279C105.346 61.7014 105.182 61.9406 104.948 62.0962L87.3333 72.9954L104.195 63.2621C104.442 63.1334 104.729 63.1041 104.997 63.18C105.265 63.2559 105.494 63.4313 105.637 63.6704C105.779 63.9095 105.825 64.1941 105.765 64.4661C105.705 64.738 105.543 64.9766 105.313 65.1332L87.2787 76.3009L104.195 66.5349C104.443 66.4045 104.731 66.374 105 66.4498C105.269 66.5255 105.499 66.7018 105.642 66.942C105.785 67.1823 105.831 67.4684 105.769 67.7412C105.707 68.014 105.543 68.2528 105.311 68.4082L94.9029 74.8054L104.195 69.4409C104.441 69.3092 104.728 69.2767 104.998 69.3502C105.267 69.4236 105.498 69.5974 105.643 69.8359C105.788 70.0744 105.836 70.3593 105.778 70.6322C105.719 70.9052 105.558 71.1453 105.328 71.3033L67.3318 95.63L104.189 74.349C104.436 74.217 104.724 74.1851 104.995 74.26C105.265 74.3348 105.496 74.5108 105.64 74.7513C105.784 74.9918 105.83 75.2784 105.768 75.5519C105.706 75.8253 105.542 76.0646 105.309 76.2202L87.7874 87.0866L104.189 77.6175C104.436 77.4832 104.726 77.4498 104.998 77.5244C105.27 77.599 105.502 77.7758 105.646 78.0177C105.791 78.2597 105.836 78.5481 105.773 78.8226C105.709 79.0972 105.542 79.3366 105.307 79.4908L94.4575 86.1893L104.189 80.565C104.435 80.4246 104.727 80.3858 105.001 80.4567C105.276 80.5275 105.512 80.7026 105.66 80.9447C105.808 81.1868 105.856 81.477 105.794 81.7537C105.731 82.0305 105.564 82.2721 105.326 82.4274L72.4189 103.756L104.189 85.4164C104.436 85.2778 104.728 85.2408 105.002 85.3134C105.276 85.386 105.511 85.5623 105.657 85.8051C105.804 86.0479 105.85 86.3382 105.786 86.6144C105.722 86.8907 105.553 87.1313 105.315 87.2853L89.9751 96.94L104.189 88.735C104.435 88.6032 104.723 88.5711 104.993 88.6453C105.262 88.7194 105.493 88.8943 105.638 89.1337C105.782 89.3732 105.829 89.659 105.769 89.9321C105.709 90.2053 105.547 90.445 105.315 90.6018L93.665 97.9225L104.182 91.8506C104.427 91.7133 104.716 91.6757 104.988 91.7456C105.26 91.8154 105.494 91.9875 105.643 92.2259C105.791 92.4643 105.842 92.7507 105.785 93.0257C105.727 93.3006 105.566 93.5429 105.335 93.7021L79.458 111.062L104.189 96.785C104.433 96.643 104.723 96.6015 104.998 96.6692C105.273 96.737 105.51 96.9086 105.661 97.148C105.811 97.3874 105.863 97.6759 105.805 97.9528C105.747 98.2296 105.584 98.4731 105.35 98.6321L83.7963 113.367L104.189 101.593C104.435 101.452 104.727 101.413 105.001 101.484C105.276 101.555 105.512 101.73 105.66 101.972C105.808 102.214 105.856 102.505 105.794 102.781C105.731 103.058 105.564 103.3 105.326 103.455L101.525 105.913L104.191 104.385C104.433 104.248 104.718 104.208 104.989 104.273C105.259 104.339 105.494 104.506 105.646 104.739C105.798 104.973 105.854 105.255 105.805 105.529C105.755 105.803 105.603 106.047 105.379 106.213L90.1825 117.245L104.189 109.167C104.427 109.031 104.708 108.99 104.976 109.051C105.243 109.113 105.477 109.274 105.632 109.501C105.786 109.728 105.85 110.004 105.809 110.276C105.769 110.547 105.627 110.794 105.413 110.966L94.4204 119.717L104.189 114.077C104.428 113.945 104.709 113.907 104.975 113.972C105.241 114.037 105.473 114.199 105.625 114.427C105.777 114.654 105.838 114.931 105.795 115.201C105.753 115.472 105.61 115.717 105.396 115.887L102.916 117.789L104.189 117.055C104.414 116.925 104.679 116.88 104.935 116.929C105.19 116.977 105.421 117.115 105.584 117.317C105.747 117.52 105.832 117.775 105.824 118.035C105.816 118.295 105.715 118.544 105.54 118.736L103.525 120.944C103.759 120.957 103.982 121.046 104.162 121.196C104.342 121.347 104.469 121.551 104.523 121.779C104.578 122.007 104.558 122.247 104.465 122.462C104.373 122.678 104.214 122.858 104.012 122.976L98.905 125.913C98.6793 126.043 98.4148 126.087 98.159 126.039C97.9033 125.991 97.6731 125.853 97.51 125.65C97.347 125.448 97.2617 125.193 97.2697 124.933C97.2777 124.673 97.3783 124.424 97.5535 124.232L99.1735 122.459L89.4904 128.046C89.2508 128.178 88.9702 128.216 88.7042 128.151C88.4382 128.086 88.2062 127.924 88.0543 127.696C87.9024 127.468 87.8416 127.192 87.8839 126.922C87.9263 126.651 88.0688 126.406 88.2831 126.236L90.7546 124.339L82.8225 128.924C82.584 129.062 82.3018 129.105 82.0327 129.045C81.7636 128.984 81.5275 128.823 81.3721 128.595C81.2166 128.367 81.1532 128.089 81.1946 127.816C81.2361 127.543 81.3793 127.296 81.5955 127.125L92.5929 118.372L73.2028 129.566C72.9608 129.703 72.6754 129.743 72.405 129.677C72.1345 129.612 71.8994 129.445 71.7477 129.212C71.596 128.978 71.5392 128.696 71.5889 128.422C71.6386 128.148 71.791 127.903 72.015 127.738L87.2045 116.706L64.714 129.69C64.5478 129.785 64.3596 129.835 64.1681 129.834Z" fill="black"/>
<path d="M63.1157 105.826C62.8944 105.826 62.6784 105.758 62.4964 105.632C62.3145 105.506 62.175 105.328 62.0966 105.121C62.0183 104.914 62.0046 104.688 62.0576 104.473C62.1105 104.259 62.2275 104.065 62.393 103.918L63.1637 103.235L59.8407 105.152C59.6111 105.281 59.3425 105.322 59.0846 105.269C58.8266 105.216 58.5966 105.071 58.4371 104.861C58.2775 104.652 58.1991 104.392 58.2163 104.129C58.2335 103.866 58.3452 103.618 58.5307 103.431L64.0371 97.9989L58.6573 101.104C58.4234 101.239 58.1476 101.282 57.8834 101.226C57.6191 101.169 57.3852 101.017 57.2269 100.798C57.0685 100.579 56.997 100.309 57.0261 100.041C57.0552 99.772 57.1829 99.5238 57.3845 99.3439L64.8078 92.7218L60.2228 95.3702C60.1059 95.4538 59.9738 95.5135 59.8339 95.546C59.6939 95.5785 59.549 95.5831 59.4073 95.5596C59.1211 95.5121 58.8654 95.3529 58.6966 95.1169C58.5278 94.8809 58.4597 94.5876 58.5072 94.3014C58.5547 94.0152 58.7139 93.7596 58.9499 93.5908L64.0982 89.2372L61.0568 90.9839C60.8193 91.122 60.5384 91.1655 60.2703 91.1056C60.0021 91.0458 59.7664 90.887 59.6101 90.661C59.4539 90.435 59.3886 90.1584 59.4272 89.8864C59.4659 89.6144 59.6058 89.367 59.8189 89.1935L62.3297 87.1412L59.0547 89.0363C58.8221 89.1734 58.547 89.2194 58.2825 89.1655C58.018 89.1116 57.7828 88.9616 57.6224 88.7445C57.462 88.5274 57.3877 88.2585 57.4139 87.9898C57.4401 87.7211 57.565 87.4717 57.7644 87.2897L63.334 82.1064L57.5373 85.4535C57.3013 85.5902 57.0227 85.6336 56.7564 85.5752C56.49 85.5168 56.2551 85.3608 56.0979 85.138C55.9408 84.9151 55.8727 84.6415 55.9072 84.371C55.9416 84.1005 56.0761 83.8526 56.2841 83.6763L58.5132 81.7833L57.5264 82.3532C57.2968 82.4823 57.0282 82.524 56.7702 82.4707C56.5123 82.4173 56.2823 82.2725 56.1227 82.063C55.9631 81.8534 55.8847 81.5932 55.9019 81.3303C55.9191 81.0674 56.0308 80.8197 56.2164 80.6327L58.4259 78.4493C58.234 78.3742 58.0674 78.2462 57.9452 78.0802C57.823 77.9143 57.7503 77.7171 57.7354 77.5116C57.7206 77.306 57.7642 77.1005 57.8613 76.9187C57.9584 76.7369 58.1049 76.5863 58.284 76.4843L63.4956 73.4757C63.7252 73.3466 63.9938 73.3048 64.2517 73.3582C64.5097 73.4115 64.7397 73.5563 64.8993 73.7659C65.0588 73.9755 65.1373 74.2357 65.12 74.4986C65.1028 74.7614 64.9911 75.0092 64.8056 75.1962L63.7663 76.2245L67.8776 73.8513C68.1135 73.7168 68.391 73.6751 68.656 73.7343C68.921 73.7935 69.1544 73.9493 69.3107 74.1713C69.467 74.3934 69.535 74.6657 69.5013 74.9351C69.4676 75.2045 69.3347 75.4517 69.1286 75.6285L66.9038 77.5193L70.5674 75.4036C70.8 75.2665 71.0751 75.2205 71.3396 75.2744C71.6042 75.3283 71.8393 75.4783 71.9997 75.6954C72.1601 75.9126 72.2344 76.1814 72.2082 76.4501C72.182 76.7188 72.0571 76.9682 71.8578 77.1503L66.2881 82.3357L72.8861 78.5279C73.1232 78.3952 73.4013 78.3557 73.666 78.4171C73.9307 78.4785 74.163 78.6363 74.3174 78.8599C74.4719 79.0834 74.5375 79.3565 74.5013 79.6258C74.4652 79.8951 74.3299 80.1412 74.1219 80.3161L71.6089 82.3728L73.5739 81.2375C73.8098 81.103 74.0873 81.0613 74.3523 81.1205C74.6173 81.1797 74.8507 81.3355 75.007 81.5576C75.1633 81.7796 75.2313 82.0519 75.1976 82.3213C75.1639 82.5908 75.0311 82.838 74.8249 83.0147L69.6766 87.3814L72.8752 85.5364C73.1073 85.4134 73.376 85.3782 73.632 85.4373C73.888 85.4963 74.1141 85.6457 74.2688 85.858C74.4235 86.0703 74.4965 86.3313 74.4743 86.5931C74.4521 86.8549 74.3363 87.0999 74.1481 87.2831L66.7248 93.9052L70.3076 91.8376C70.5372 91.7084 70.8058 91.6667 71.0637 91.72C71.3217 91.7733 71.5517 91.9182 71.7113 92.1278C71.8708 92.3373 71.9493 92.5975 71.932 92.8604C71.9148 93.1233 71.8031 93.371 71.6176 93.558L66.1112 98.9902L71.4277 95.9204C71.6618 95.7869 71.9371 95.7448 72.2005 95.8022C72.4638 95.8595 72.6967 96.0123 72.8541 96.231C73.0116 96.4497 73.0826 96.719 73.0535 96.987C73.0243 97.2549 72.897 97.5026 72.6962 97.6823L71.9167 98.3745L72.0783 98.2828C72.2835 98.1605 72.5234 98.1099 72.7605 98.1387C72.9976 98.1676 73.2184 98.2743 73.3883 98.4421C73.5586 98.6068 73.6707 98.8223 73.7077 99.0563C73.7447 99.2902 73.7046 99.5299 73.5935 99.739L72.4451 101.903C72.6853 101.819 72.947 101.822 73.1857 101.909C73.4245 101.997 73.6256 102.164 73.7551 102.383C73.9 102.634 73.9396 102.931 73.8651 103.211C73.7906 103.491 73.6081 103.729 73.3577 103.874L70.253 105.665C70.0479 105.783 69.8097 105.832 69.5745 105.803C69.3393 105.774 69.1198 105.67 68.9492 105.505C68.7786 105.341 68.6661 105.125 68.6288 104.891C68.5914 104.657 68.6312 104.418 68.7422 104.208L69.8775 102.073L63.6615 105.673C63.4965 105.772 63.308 105.825 63.1157 105.826Z" fill="white"/>
<path d="M24.6059 105.455C22.0973 124.45 29.3154 127.572 46.8759 128.956C61.4475 129.129 101.165 134.568 106.391 117.839C103.531 47.577 124.48 55.3257 49.6095 55.7121C50.7623 43.885 46.4393 30.3134 53.2098 19.8007C62.8492 7.39932 82.3551 16.9623 81.3748 31.6736C80.091 35.6036 85.0362 37.8394 83.0931 41.6471C76.1457 50.9394 97.4834 51.7887 95.4551 41.5881C102.66 7.59145 61.3951 -14.2179 40.3434 14.9296C32.7236 27.2458 36.3588 42.0314 35.527 55.7165C16.0429 53.5222 27.4792 92.9773 24.6059 105.455ZM39.874 22.222C54.6311 -15.3314 100.448 7.6373 92.298 43.4112C92.25 45.5946 91.4749 46.9984 89.0579 47.2146C79.2329 45.6164 89.333 41.3654 86.0755 36.2805C85.3694 35.6316 84.8539 34.8023 84.5845 33.8819C84.3152 32.9615 84.3023 31.9851 84.5472 31.0579C85.6585 13.5716 62.0588 6.02819 51.2011 18.7483C42.9045 29.1759 47.6467 43.42 46.4502 55.699C43.8629 55.6837 41.2801 55.699 38.695 55.7121C39.2365 44.6121 37.3348 33.0906 39.874 22.2132V22.222ZM28.2783 60.7294C34.9811 53.8345 66.8775 59.6094 78.4688 57.8059C86.0602 59.1836 101.285 53.1052 103.208 63.6485C100.876 75.0019 109.206 123.823 97.2869 124.321C83.1957 127.684 33.9179 133.107 27.7914 117.944C28.2281 98.9378 26.9006 79.5825 28.2783 60.7294Z" fill="#8EFF01"/>
<path d="M56.6161 88.2067C57.0527 89.2132 58.6837 90.2787 59.1334 90.6826C58.5898 94.9423 55.0593 99.774 56.865 103.951C58.4413 106.206 61.8866 105.628 64.2621 105.628C77.6088 107.457 74.9189 99.2042 71.9038 90.1586C88.829 71.526 47.6076 66.2315 56.6161 88.2067ZM58.5527 80.8052C62.5307 66.9563 79.9384 81.9078 69.441 89.7569C66.6419 92.5188 74.7181 101.671 70.2663 103.949C55.1183 105.597 60.1007 100.198 62.2294 89.6848C60.792 88.7503 59.6714 87.4024 59.015 85.8185C58.3587 84.2346 58.1975 82.4891 58.5527 80.8118V80.8052Z" fill="#8EFF01"/>
</svg>
