<svg width="154" height="62" viewBox="0 0 154 62" fill="none" xmlns="http://www.w3.org/2000/svg">
<g clip-path="url(#clip0_1_4152)">
<path d="M52.2296 17.1091L15.135 32.9021L18.0053 46.0629L18.9642 50.6127L25.0683 42.1146L19.2023 39.1252C19.2023 39.1252 35.8162 27.0988 45.5239 20.7001C49.1024 18.3437 51.6593 17.2971 52.2234 17.1091" fill="#1F2533"/>
<path d="M18.9077 50.9073L17.8924 46.0942L14.9971 32.8332L50.5312 17.7045C51.3334 17.3222 51.9099 17.0903 52.192 16.9963L52.2797 17.222L50.6252 17.9239C49.4031 18.5067 47.6546 19.4405 45.599 20.8004C36.5056 26.798 21.1638 37.8593 19.4341 39.1127L25.2499 42.077L25.1685 42.1898L18.9077 50.9073ZM15.2728 32.9773L18.1243 46.0441L19.0268 50.3245L24.8865 42.1648L18.9766 39.1503L19.1333 39.0375C19.3025 38.9184 35.8601 26.9359 45.4612 20.6062C46.3636 20.0108 47.2034 19.4969 47.968 19.0582L15.2728 32.9773Z" fill="#1F2533"/>
<path d="M21.4769 0L36.5554 21.3017L4.96325 29.4363L14.0567 33.7417L15.8491 41.5129C15.8491 41.5129 5.08233 44.1513 4.84418 52.5303C4.84418 52.5303 -0.626946 46.8085 0.0561613 36.4992C0.776871 25.7262 13.8311 12.1142 17.5287 6.58039C21.3265 0.896187 21.4769 0 21.4769 0Z" fill="white"/>
<path d="M19.2022 39.1253L19.2273 50.2681L21.7592 46.815L19.2022 39.1253Z" fill="#8EFF01"/>
<path d="M50.7944 17.5916L15.9747 36.8753L15.1349 32.9083L50.7944 17.5916Z" fill="#8EFF01"/>
<path d="M15.8932 37.0573L15.0033 32.8333L15.091 32.7957L50.7505 17.4791L50.857 17.6922L15.8932 37.0573ZM15.2728 32.9775L16.0562 36.6938L48.6448 18.6448L15.2728 32.9775Z" fill="#8EFF01"/>
<path d="M29.9753 44.6341L31.8867 45.593L51.9413 17.5166C52.0227 17.4038 51.9037 17.2597 51.7783 17.3161L50.0799 18.0681L29.9753 44.6341Z" fill="#8EFF01"/>
<path d="M31.9243 45.7432L29.7872 44.6778L50.0235 17.9614L51.7219 17.2031C51.8284 17.153 51.9475 17.1843 52.0227 17.2721C52.0979 17.3598 52.0979 17.4851 52.0352 17.5791L31.9243 45.737V45.7432ZM30.157 44.5901L31.8491 45.4361L51.841 17.4475L51.772 17.3159L51.8221 17.4225L50.1488 18.1683L30.1507 44.5901H30.157Z" fill="#8EFF01"/>
<path d="M16.5823 44.684L16.927 46.1881L18.0049 46.069L18.9638 50.6189L25.0679 42.1208L31.8864 45.5927L42.296 31.1158C42.296 31.1158 46.3633 40.93 40.6227 49.7854C40.6227 49.7854 34.1613 62.2317 20.0417 60.7966C20.0417 60.7966 6.64277 59.8377 8.31607 51.7031C8.31607 51.7031 8.93651 47.617 16.5823 44.6965V44.684Z" fill="white"/>
<path d="M22.2605 61.0221C21.5398 61.0221 20.794 60.9845 20.0294 60.9093C19.9542 60.9093 12.1267 60.3014 9.18114 56.4159C8.15962 55.0684 7.82746 53.4703 8.19722 51.6717C8.22229 51.5088 8.91793 47.4916 16.5387 44.5774L16.6703 44.5273L17.0212 46.0627L18.0991 45.9436L19.0204 50.3306L25.0242 41.9703L31.8428 45.4423L42.3213 30.8714L42.4027 31.0719C42.4403 31.1722 46.4262 41.0428 40.7169 49.848C40.6605 49.9545 34.7569 61.0221 22.2542 61.0221H22.2605ZM16.501 44.8469C12.6719 46.3322 10.6852 48.1058 9.69504 49.3466C8.61084 50.694 8.44163 51.703 8.44163 51.7156C8.08441 53.4453 8.40403 54.9807 9.38169 56.2717C12.2645 60.0758 19.9855 60.6712 20.0607 60.6712C20.819 60.7464 21.5523 60.784 22.2667 60.784C34.6379 60.784 40.4662 49.8417 40.5289 49.7289C45.7243 41.7134 42.8101 32.8204 42.2774 31.3665L31.9368 45.7494L25.1182 42.2774L18.9201 50.9071L17.9299 46.2006L16.8583 46.3197L16.5199 44.8469H16.501Z" fill="white"/>
<path d="M15.7867 41.4002C15.7303 41.4002 15.6801 41.3626 15.6676 41.3062L13.9504 33.8234L4.788 29.4239C4.74413 29.4051 4.71279 29.3549 4.71906 29.3048C4.71906 29.2547 4.76293 29.2108 4.8068 29.1983L52.1919 16.9901C52.242 16.9775 52.2922 16.9963 52.3235 17.0402C52.3548 17.0841 52.3486 17.1342 52.3235 17.1781L42.3902 31.1787C42.3526 31.2351 42.2774 31.2476 42.221 31.21C42.1646 31.1724 42.1521 31.0972 42.196 31.0408L51.9349 17.3097L5.19536 29.3487L14.1134 33.6353C14.1447 33.6479 14.1698 33.6792 14.176 33.7168L15.9057 41.2561C15.9183 41.3187 15.8807 41.3877 15.818 41.4002C15.8117 41.4002 15.7992 41.4002 15.7929 41.4002H15.7867Z" fill="#1F2533"/>
<path d="M31.6799 45.4612C31.6799 45.4612 31.6423 45.4612 31.6298 45.4487L19.1834 39.2255C19.127 39.1942 19.102 39.1252 19.127 39.0626C19.1584 39.0062 19.2273 38.9811 19.29 39.0062L31.7363 45.2293C31.7927 45.2607 31.8178 45.3296 31.7927 45.3923C31.7739 45.4361 31.73 45.4612 31.6862 45.4612H31.6799Z" fill="white"/>
<path d="M63.7546 21.1576C62.7958 21.1576 61.9748 21.0009 61.2854 20.6938C60.6023 20.3867 60.0383 19.9543 59.6058 19.4091C59.1734 18.8638 58.8538 18.2371 58.6532 17.5352C58.4527 16.8333 58.3524 16.0875 58.3524 15.2979C58.3524 14.5082 58.4527 13.7249 58.6595 13.0041C58.8663 12.2834 59.1797 11.6567 59.6121 11.1115C60.0383 10.5663 60.5898 10.1464 61.2666 9.83302C61.9434 9.51967 62.7519 9.36926 63.6982 9.36926C64.5192 9.36926 65.2274 9.48834 65.8227 9.72022C66.4181 9.9521 66.8944 10.2717 67.2516 10.6791C67.6088 11.0864 67.8595 11.5502 67.9974 12.0766C68.1353 12.6031 68.1666 13.1483 68.0977 13.7186L65.547 14.0257C65.572 13.5368 65.5094 13.1107 65.3652 12.7597C65.2211 12.4088 65.008 12.133 64.7135 11.9387C64.4252 11.7445 64.0554 11.6505 63.6105 11.6505C63.2344 11.6505 62.9023 11.7257 62.6077 11.8761C62.3195 12.0265 62.0688 12.2458 61.8682 12.5467C61.6677 12.8412 61.5173 13.211 61.417 13.6497C61.3167 14.0883 61.2603 14.6022 61.2603 15.1851C61.2603 15.9371 61.3543 16.5952 61.5361 17.1467C61.7178 17.6982 61.9998 18.1306 62.3759 18.4314C62.7519 18.7322 63.2282 18.8826 63.7985 18.8826C64.3249 18.8826 64.7385 18.7636 65.0393 18.5254C65.3402 18.2873 65.5532 17.9551 65.6786 17.529C65.8039 17.1091 65.8415 16.6328 65.7977 16.1063L68.4173 16.3319C68.4737 16.9586 68.4298 17.5603 68.2857 18.1369C68.1415 18.7134 67.8846 19.2336 67.5148 19.6848C67.1451 20.1423 66.6437 20.4995 66.0233 20.7627C65.4028 21.026 64.6383 21.1576 63.7358 21.1576H63.7546Z" fill="white"/>
<path d="M74.3395 21.1577C73.5374 21.1577 72.8229 21.0323 72.1837 20.7817C71.5444 20.531 70.9992 20.1612 70.5542 19.6661C70.1093 19.1773 69.7709 18.5631 69.5327 17.8362C69.3008 17.1029 69.1818 16.2631 69.1818 15.3168C69.1818 13.9694 69.4011 12.8601 69.8398 11.9827C70.2785 11.1116 70.8989 10.4536 71.6886 10.0212C72.4845 9.58873 73.3995 9.36938 74.4398 9.36938C75.242 9.36938 75.9564 9.49473 76.5894 9.73914C77.2224 9.98355 77.7613 10.3533 78.2063 10.8421C78.6513 11.331 78.9897 11.9451 79.2278 12.6846C79.4597 13.4242 79.5788 14.2765 79.5788 15.2479C79.5788 16.2193 79.4534 17.0904 79.209 17.8362C78.9646 18.5819 78.6074 19.1961 78.1499 19.6849C77.6861 20.1738 77.1346 20.5435 76.4891 20.7879C75.8436 21.0323 75.1292 21.1577 74.3395 21.1577ZM74.4461 18.8828C74.96 18.8828 75.3861 18.7511 75.7246 18.4942C76.063 18.2372 76.3137 17.8487 76.4766 17.3285C76.6395 16.8084 76.7273 16.1566 76.7273 15.3669C76.7273 14.5334 76.6395 13.8441 76.4641 13.2926C76.2886 12.7411 76.0254 12.3274 75.6744 12.0517C75.3235 11.7697 74.891 11.6318 74.3646 11.6318C73.8382 11.6318 73.4371 11.7634 73.0987 12.0329C72.754 12.3024 72.497 12.7035 72.3278 13.2424C72.1586 13.7814 72.0709 14.4457 72.0709 15.2479C72.0709 15.8558 72.121 16.3822 72.215 16.8397C72.3153 17.2972 72.4594 17.6732 72.66 17.9803C72.8605 18.2811 73.1049 18.5067 73.4057 18.6571C73.7003 18.8075 74.0513 18.8828 74.4523 18.8828H74.4461Z" fill="white"/>
<path d="M80.7319 20.9195V9.61377H84.8932L87.2057 17.6481H87.2371L89.4995 9.61377H93.4414V20.9195H90.8719V12.4026H90.8406L88.2899 20.9195H85.8583L83.339 12.4026H83.3076V20.9195H80.7381H80.7319Z" fill="white"/>
<path d="M94.814 20.9195V9.61377H98.9753L101.288 17.6481H101.319L103.582 9.61377H107.524V20.9195H104.954V12.4026H104.923L102.372 20.9195H99.9404L97.4211 12.4026H97.3897V20.9195H94.8202H94.814Z" fill="white"/>
<path d="M113.571 21.1577C112.919 21.1577 112.337 21.0825 111.823 20.932C111.309 20.7816 110.864 20.5748 110.494 20.2991C110.124 20.0233 109.817 19.6974 109.567 19.3151C109.322 18.9329 109.14 18.5004 109.021 18.0241C108.902 17.5416 108.84 17.0277 108.84 16.4636V9.61377H111.616V16.332C111.616 16.9149 111.704 17.3786 111.873 17.7296C112.042 18.0805 112.274 18.325 112.568 18.4754C112.857 18.6258 113.195 18.701 113.571 18.701C113.947 18.701 114.298 18.6258 114.593 18.4754C114.881 18.325 115.113 18.0805 115.288 17.7359C115.464 17.3912 115.545 16.9274 115.545 16.332V9.61377H118.322V16.4636C118.322 17.9489 117.921 19.1021 117.125 19.9231C116.322 20.744 115.144 21.1577 113.577 21.1577H113.571Z" fill="white"/>
<path d="M119.638 20.9195V9.61377H123.354L127.378 17.2721H127.409V9.61377H130.148V20.9195H126.651L122.402 13.0042H122.37V20.9195H119.631H119.638Z" fill="white"/>
<path d="M131.526 20.9195V9.61377H134.321V20.9195H131.526Z" fill="white"/>
<path d="M135.243 11.9764V9.61377H143.603V11.9764H135.243ZM138.038 20.9195V9.61377H140.814V20.9195H138.038Z" fill="white"/>
<path d="M147.564 20.9195V17.153L143.879 9.61377H147.169L148.949 14.6525H148.98L150.747 9.61377H154L150.334 17.153V20.9195H147.557H147.564Z" fill="white"/>
<path d="M74.6023 38.5615H65.8034V28.7411H59.6868V53.6713H65.8034V43.7005H74.6023V53.6713H80.7252V28.7411H74.6023V38.5615Z" fill="#8EFF01"/>
<path d="M81.2017 54.1476H74.1325V44.1767H66.2861V54.1476H59.2169V28.2647H66.2861V38.0851H74.1325V28.2647H81.2017V54.1476ZM75.0788 53.195H80.2491V29.2173H75.0788V39.0377H65.3273V29.2173H60.157V53.195H65.3273V43.2241H75.0788V53.195Z" fill="black"/>
<path d="M90.734 28.7411L82.3864 53.6713H88.9229L90.17 49.2531H99.1319L100.366 53.6713H106.978L98.6681 28.7411H90.734ZM91.3796 44.9476L94.5507 33.692H94.7763L97.9286 44.9476H91.3796Z" fill="#8EFF01"/>
<path d="M107.636 54.1476H100.003L98.7682 49.7293H90.527L89.2799 54.1476H81.7281L90.3954 28.2647H99.0126L107.642 54.1476H107.636ZM100.723 53.195H106.314L98.3232 29.2173H91.0785L83.0504 53.195H88.5654L89.8126 48.7767H99.4951L100.73 53.195H100.723ZM98.5488 45.4238H90.7464L94.187 33.2156H95.1333L98.5488 45.4238ZM92.006 44.4712H97.2954L94.657 35.0456L91.9998 44.4712H92.006Z" fill="black"/>
<path d="M123.291 43.5501C123.291 44.8599 123.103 45.894 122.721 46.646C122.345 47.4043 121.831 47.9433 121.192 48.2692C120.546 48.5951 119.8 48.758 118.942 48.758C118.083 48.758 117.375 48.5951 116.729 48.2692C116.084 47.9433 115.576 47.3918 115.2 46.6272C114.824 45.8564 114.636 44.8348 114.636 43.5501V28.7411H108.52V43.8509C108.52 45.0855 108.651 46.2324 108.914 47.2853C109.178 48.3444 109.579 49.2907 110.124 50.1368C110.663 50.9828 111.346 51.7035 112.167 52.3114C112.988 52.9131 113.959 53.3831 115.094 53.709C116.228 54.0349 117.513 54.1978 118.948 54.1978C122.395 54.1978 125.002 53.2891 126.769 51.4779C128.537 49.6667 129.414 47.1223 129.414 43.8509V28.7411H123.297V43.5501H123.291Z" fill="#8EFF01"/>
<path d="M118.948 54.6739C117.475 54.6739 116.134 54.5047 114.962 54.1663C113.778 53.8279 112.744 53.3328 111.885 52.6936C111.02 52.0606 110.3 51.2835 109.729 50.3936C109.165 49.5162 108.739 48.5072 108.457 47.3979C108.188 46.3074 108.043 45.1104 108.043 43.8445V28.2584H115.113V43.5374C115.113 44.7407 115.288 45.7058 115.633 46.4077C115.965 47.0908 116.397 47.5546 116.949 47.8366C117.519 48.1249 118.19 48.2753 118.942 48.2753C119.694 48.2753 120.402 48.1249 120.972 47.8366C121.518 47.5608 121.963 47.0846 122.288 46.4265C122.633 45.7434 122.809 44.772 122.809 43.5437V28.2646H129.878V43.8508C129.878 47.235 128.944 49.9173 127.101 51.8099C125.253 53.7088 122.508 54.6739 118.942 54.6739H118.948ZM109.002 29.2172V43.8508C109.002 45.0415 109.134 46.157 109.385 47.1723C109.635 48.1813 110.024 49.09 110.531 49.8797C111.039 50.6693 111.685 51.3587 112.455 51.929C113.226 52.4993 114.16 52.9442 115.232 53.2513C116.316 53.5647 117.569 53.7213 118.954 53.7213C122.257 53.7213 124.77 52.8565 126.431 51.1456C128.098 49.4347 128.938 46.978 128.938 43.8445V29.211H123.767V43.5437C123.767 44.9224 123.561 46.038 123.147 46.8527C122.727 47.6987 122.138 48.3129 121.411 48.6889C120.703 49.0461 119.876 49.2341 118.948 49.2341C118.021 49.2341 117.225 49.0524 116.523 48.6889C115.789 48.3192 115.207 47.6925 114.78 46.8339C114.373 46.0004 114.166 44.8974 114.166 43.5437V29.211H108.996L109.002 29.2172Z" fill="black"/>
<path d="M151.412 43.174C150.848 42.2402 150.095 41.4819 149.162 40.8865C148.228 40.2974 147.219 39.8149 146.122 39.4514C145.025 39.0879 143.935 38.7558 142.857 38.4487C141.823 38.1729 140.933 37.9034 140.175 37.634C139.423 37.3707 138.84 37.0637 138.439 36.7064C138.038 36.3555 137.837 35.9105 137.837 35.3841C137.837 34.9329 137.969 34.5255 138.232 34.1745C138.495 33.8236 138.884 33.5478 139.404 33.341C139.918 33.1405 140.57 33.0402 141.347 33.0402C142.124 33.0402 142.757 33.1468 143.315 33.3598C143.866 33.5729 144.33 33.88 144.693 34.2874C145.057 34.6884 145.326 35.1835 145.502 35.7601C145.677 36.3429 145.752 37.0072 145.727 37.7593L151.318 36.8506C151.493 34.9893 151.167 33.4162 150.334 32.1315C149.5 30.8467 148.316 29.8691 146.78 29.2048C145.245 28.5405 143.496 28.2021 141.528 28.2021C139.561 28.2021 138.006 28.4966 136.559 29.092C135.111 29.6811 133.977 30.5459 133.156 31.6803C132.335 32.8146 131.927 34.1871 131.927 35.7977C131.927 37.1075 132.197 38.2043 132.742 39.0816C133.281 39.9653 133.995 40.6797 134.873 41.2375C135.756 41.789 136.728 42.2528 137.8 42.6163C138.871 42.9797 139.949 43.3119 141.027 43.619C142.036 43.8947 142.932 44.1705 143.728 44.4525C144.524 44.7282 145.145 45.0604 145.596 45.4552C146.047 45.85 146.273 46.3451 146.273 46.9468C146.273 47.398 146.103 47.7991 145.765 48.1375C145.427 48.4759 144.963 48.7392 144.386 48.9334C143.81 49.1214 143.139 49.2154 142.387 49.2154C141.453 49.2154 140.613 49.0462 139.855 48.7078C139.097 48.3694 138.501 47.8367 138.063 47.1223C137.624 46.4078 137.373 45.4678 137.323 44.3084L131.658 45.5555C131.608 46.8653 131.789 48.056 132.203 49.1277C132.617 50.1994 133.268 51.1081 134.146 51.8664C135.023 52.6247 136.126 53.2013 137.449 53.6024C138.771 54.0035 140.313 54.204 142.074 54.204C144.06 54.204 145.821 53.9283 147.344 53.3705C148.867 52.819 150.064 51.9855 150.929 50.8762C151.8 49.7669 152.233 48.3819 152.233 46.7212C152.233 45.286 151.951 44.1015 151.38 43.1678L151.412 43.174Z" fill="#8EFF01"/>
<path d="M142.105 54.6738C140.306 54.6738 138.702 54.4608 137.342 54.0471C135.963 53.6272 134.791 53.0131 133.864 52.2172C132.93 51.415 132.228 50.4311 131.783 49.2905C131.344 48.1624 131.15 46.8964 131.207 45.5302L131.219 45.1605L137.793 43.7128L137.818 44.2768C137.862 45.3485 138.088 46.2196 138.489 46.8651C138.884 47.5043 139.398 47.9618 140.074 48.2689C140.764 48.5823 141.553 48.739 142.412 48.739C143.114 48.739 143.734 48.6512 144.267 48.482C144.768 48.3191 145.17 48.0872 145.458 47.8052C145.708 47.5545 145.828 47.2787 145.828 46.9528C145.828 46.4891 145.658 46.1193 145.314 45.8185C144.906 45.4676 144.33 45.1605 143.596 44.9035C142.826 44.634 141.923 44.3583 140.927 44.0825C139.83 43.7755 138.74 43.437 137.668 43.0736C136.571 42.6975 135.55 42.2212 134.641 41.6447C133.701 41.0556 132.93 40.2785 132.353 39.3384C131.771 38.3858 131.47 37.1951 131.47 35.8038C131.47 34.0991 131.915 32.6201 132.786 31.4106C133.651 30.2073 134.867 29.2861 136.389 28.6594C137.887 28.0452 139.617 27.7381 141.535 27.7381C143.553 27.7381 145.383 28.0891 146.974 28.7784C148.591 29.4803 149.857 30.5269 150.735 31.8806C151.618 33.2531 151.976 34.9389 151.794 36.9068L151.762 37.2703L145.238 38.3294L145.257 37.7528C145.282 37.0509 145.213 36.4305 145.05 35.9041C144.894 35.3964 144.656 34.964 144.342 34.613C144.029 34.2684 143.628 33.9989 143.145 33.8109C142.65 33.6166 142.042 33.5226 141.353 33.5226C140.664 33.5226 140.043 33.6103 139.579 33.7921C139.147 33.9613 138.827 34.1869 138.614 34.4626C138.414 34.7321 138.313 35.0329 138.313 35.3839C138.313 35.7787 138.451 36.0858 138.758 36.349C139.116 36.6624 139.648 36.9381 140.338 37.1825C141.09 37.4457 141.98 37.7152 142.989 37.9847C144.079 38.2918 145.188 38.6302 146.285 38.9937C147.407 39.3697 148.466 39.8711 149.431 40.479C150.421 41.1057 151.23 41.9267 151.831 42.9169C152.439 43.9196 152.753 45.1981 152.753 46.7147C152.753 48.4757 152.283 49.9736 151.349 51.1643C150.428 52.3362 149.149 53.2262 147.551 53.809C145.984 54.3793 144.154 54.6676 142.117 54.6676L142.105 54.6738ZM132.147 45.9376C132.147 47.0343 132.316 48.0433 132.667 48.952C133.055 49.9422 133.663 50.8008 134.478 51.5027C135.305 52.2109 136.358 52.7624 137.611 53.1447C138.884 53.5332 140.394 53.7275 142.099 53.7275C144.023 53.7275 145.74 53.458 147.206 52.9253C148.635 52.4052 149.776 51.6155 150.584 50.5877C151.38 49.5725 151.788 48.2689 151.788 46.7272C151.788 45.3861 151.524 44.2768 151.004 43.4245C150.478 42.5597 149.776 41.8452 148.911 41.2937C148.015 40.7234 147.025 40.2596 145.978 39.9087C144.9 39.5515 143.803 39.2131 142.732 38.9122C141.704 38.6365 140.795 38.3607 140.018 38.0913C139.197 37.803 138.577 37.4708 138.125 37.076C137.618 36.631 137.361 36.067 137.361 35.3964C137.361 34.8387 137.524 34.3373 137.85 33.9049C138.169 33.485 138.633 33.1466 139.228 32.9147C139.799 32.6953 140.513 32.5825 141.347 32.5825C142.18 32.5825 142.876 32.7016 143.484 32.9335C144.104 33.1716 144.631 33.5288 145.044 33.9801C145.458 34.4376 145.765 34.9953 145.959 35.6346C146.103 36.1109 146.185 36.6373 146.204 37.2139L150.873 36.4556C150.967 34.8637 150.647 33.5038 149.939 32.4008C149.162 31.2038 148.04 30.2763 146.598 29.6495C145.132 29.0103 143.427 28.6907 141.541 28.6907C139.749 28.6907 138.138 28.979 136.753 29.543C135.393 30.1008 134.321 30.9155 133.557 31.9684C132.798 33.0149 132.416 34.306 132.416 35.81C132.416 37.0259 132.667 38.0474 133.156 38.8496C133.657 39.6643 134.321 40.3349 135.136 40.8488C135.982 41.3814 136.935 41.8264 137.962 42.1774C139.015 42.5346 140.093 42.873 141.165 43.1676C142.18 43.4496 143.101 43.7316 143.897 44.0073C144.743 44.3019 145.426 44.6716 145.922 45.0978C146.479 45.5804 146.768 46.2071 146.768 46.9528C146.768 47.5357 146.548 48.0496 146.116 48.482C145.727 48.8706 145.195 49.1776 144.549 49.3907C143.922 49.5913 143.202 49.6978 142.399 49.6978C141.403 49.6978 140.488 49.5098 139.673 49.1463C138.834 48.7703 138.157 48.1749 137.668 47.3727C137.261 46.7084 137.004 45.8812 136.903 44.891L132.14 45.9376H132.147Z" fill="black"/>
</g>
<defs>
<clipPath id="clip0_1_4152">
<rect width="154" height="61.0222" fill="white"/>
</clipPath>
</defs>
</svg>
