<svg width="172" height="69" viewBox="0 0 172 69" fill="none" xmlns="http://www.w3.org/2000/svg">
<g clip-path="url(#clip0_1_3608)">
<path d="M58.3342 19.1088L16.9038 36.7476L20.1096 51.4467L21.1805 56.5284L27.9981 47.037L21.4465 43.6982C21.4465 43.6982 40.0023 30.2661 50.8446 23.1195C54.8414 20.4877 57.6972 19.3188 58.3272 19.1088" fill="#1F2533"/>
<path d="M21.1177 56.8575L19.9838 51.4818L16.75 36.6708L56.4375 19.7739C57.3334 19.3469 57.9774 19.0879 58.2923 18.9829L58.3903 19.2349L56.5425 20.0188C55.1775 20.6698 53.2247 21.7127 50.9288 23.2316C40.7725 29.9302 23.6376 42.2844 21.7057 43.6843L28.2013 46.9951L28.1103 47.1211L21.1177 56.8575ZM17.058 36.8318L20.2428 51.4258L21.2507 56.2065L27.7953 47.0931L21.1947 43.7263L21.3697 43.6003C21.5587 43.4673 40.0515 30.0842 50.7748 23.0147C51.7828 22.3497 52.7207 21.7757 53.5746 21.2858L17.058 36.8318Z" fill="#1F2533"/>
<path d="M23.9875 0.00012207L40.8284 23.7916L5.54365 32.877L15.7 37.6857L17.7019 46.3652C17.7019 46.3652 5.67664 49.312 5.41066 58.6704C5.41066 58.6704 -0.699951 52.2798 0.0629998 40.7655C0.867948 28.7333 15.448 13.5303 19.5778 7.34965C23.8195 1.00106 23.9875 0.00012207 23.9875 0.00012207Z" fill="white"/>
<path d="M21.4463 43.6981L21.4743 56.1433L24.3021 52.2866L21.4463 43.6981Z" fill="#8EFF01"/>
<path d="M56.7313 19.6477L17.8417 41.1853L16.9038 36.7546L56.7313 19.6477Z" fill="#8EFF01"/>
<path d="M17.7508 41.3885L16.7568 36.6708L16.8548 36.6288L56.6823 19.5219L56.8013 19.7598L17.7508 41.3885ZM17.0578 36.8317L17.9328 40.9825L54.3304 20.8238L17.0578 36.8317Z" fill="#8EFF01"/>
<path d="M33.479 49.8508L35.6139 50.9218L58.0124 19.5638C58.1034 19.4378 57.9704 19.2768 57.8304 19.3398L55.9336 20.1797L33.479 49.8508Z" fill="#8EFF01"/>
<path d="M35.6559 51.0897L33.269 49.8998L55.8706 20.0607L57.7675 19.2137C57.8865 19.1577 58.0195 19.1927 58.1035 19.2907C58.1875 19.3887 58.1875 19.5287 58.1175 19.6337L35.6559 51.0827V51.0897ZM33.682 49.8018L35.5719 50.7467L57.9005 19.4867L57.8235 19.3397L57.8795 19.4587L56.0106 20.2917L33.675 49.8018H33.682Z" fill="#8EFF01"/>
<path d="M18.5209 49.9065L18.9059 51.5864L20.1098 51.4534L21.1807 56.535L27.9983 47.0437L35.6138 50.9214L47.2401 34.7524C47.2401 34.7524 51.7828 45.7137 45.3712 55.6041C45.3712 55.6041 38.1546 69.5052 22.3846 67.9023C22.3846 67.9023 7.4196 66.8314 9.28848 57.746C9.28848 57.746 9.98144 53.1823 18.5209 49.9205V49.9065Z" fill="white"/>
<path d="M24.8626 68.1546C24.0577 68.1546 23.2247 68.1126 22.3708 68.0286C22.2868 68.0286 13.5443 67.3496 10.2545 63.0099C9.11361 61.505 8.74263 59.7201 9.15561 57.7113C9.1836 57.5293 9.96055 53.0425 18.472 49.7878L18.619 49.7318L19.011 51.4467L20.2149 51.3137L21.2438 56.2133L27.9494 46.8759L35.5649 50.7537L47.2682 34.4797L47.3592 34.7037C47.4012 34.8157 51.8529 45.84 45.4763 55.6744C45.4133 55.7934 38.8197 68.1546 24.8556 68.1546H24.8626ZM18.43 50.0887C14.1533 51.7476 11.9344 53.7285 10.8285 55.1144C9.61758 56.6193 9.42859 57.7462 9.42859 57.7602C9.02961 59.6921 9.38659 61.407 10.4785 62.8489C13.6983 67.0977 22.3218 67.7626 22.4058 67.7626C23.2527 67.8466 24.0717 67.8886 24.8696 67.8886C38.6867 67.8886 45.1963 55.6674 45.2663 55.5414C51.0689 46.589 47.8141 36.6566 47.2192 35.0327L35.6699 51.0967L28.0544 47.2189L21.1318 56.8573L20.0259 51.6006L18.829 51.7336L18.451 50.0887H18.43Z" fill="white"/>
<path d="M17.6316 46.2392C17.5686 46.2392 17.5126 46.1972 17.4986 46.1342L15.5808 37.7767L5.34742 32.863C5.29842 32.8421 5.26342 32.7861 5.27042 32.7301C5.27042 32.6741 5.31942 32.6251 5.36842 32.6111L58.292 18.9759C58.348 18.9619 58.404 18.9829 58.439 19.0319C58.474 19.0809 58.467 19.1369 58.439 19.1859L47.3447 34.8229C47.3027 34.8859 47.2187 34.8999 47.1557 34.8579C47.0928 34.8159 47.0788 34.7319 47.1277 34.6689L58.0051 19.3329L5.80239 32.7791L15.7628 37.5667C15.7978 37.5807 15.8257 37.6157 15.8327 37.6577L17.7646 46.0782C17.7786 46.1482 17.7366 46.2252 17.6666 46.2392C17.6596 46.2392 17.6456 46.2392 17.6386 46.2392H17.6316Z" fill="#1F2533"/>
<path d="M35.383 50.7748C35.383 50.7748 35.341 50.7748 35.327 50.7608L21.4259 43.8103C21.3629 43.7753 21.3349 43.6983 21.3629 43.6283C21.3979 43.5653 21.4749 43.5373 21.5449 43.5653L35.446 50.5159C35.509 50.5509 35.537 50.6279 35.509 50.6978C35.488 50.7468 35.439 50.7748 35.39 50.7748H35.383Z" fill="white"/>
<path d="M71.2065 23.6305C70.1355 23.6305 69.2186 23.4555 68.4486 23.1125C67.6857 22.7696 67.0557 22.2866 66.5728 21.6776C66.0898 21.0687 65.7328 20.3687 65.5088 19.5848C65.2848 18.8008 65.1729 17.9679 65.1729 17.0859C65.1729 16.204 65.2848 15.329 65.5158 14.5241C65.7468 13.7191 66.0968 13.0192 66.5798 12.4102C67.0557 11.8013 67.6717 11.3323 68.4276 10.9823C69.1836 10.6323 70.0865 10.4644 71.1435 10.4644C72.0604 10.4644 72.8514 10.5973 73.5163 10.8563C74.1813 11.1153 74.7132 11.4723 75.1122 11.9273C75.5112 12.3822 75.7912 12.9002 75.9452 13.4882C76.0992 14.0761 76.1342 14.6851 76.0572 15.322L73.2083 15.665C73.2363 15.1191 73.1663 14.6431 73.0054 14.2511C72.8444 13.8591 72.6064 13.5512 72.2774 13.3342C71.9554 13.1172 71.5424 13.0122 71.0455 13.0122C70.6255 13.0122 70.2545 13.0962 69.9255 13.2642C69.6036 13.4322 69.3236 13.6772 69.0996 14.0131C68.8756 14.3421 68.7076 14.7551 68.5956 15.2451C68.4836 15.735 68.4206 16.309 68.4206 16.9599C68.4206 17.7999 68.5256 18.5348 68.7286 19.1508C68.9316 19.7668 69.2466 20.2497 69.6666 20.5857C70.0865 20.9217 70.6185 21.0897 71.2555 21.0897C71.8434 21.0897 72.3054 20.9567 72.6414 20.6907C72.9774 20.4247 73.2153 20.0537 73.3553 19.5778C73.4953 19.1088 73.5373 18.5768 73.4883 17.9889L76.4141 18.2409C76.4771 18.9408 76.4281 19.6128 76.2671 20.2567C76.1062 20.9007 75.8192 21.4817 75.4062 21.9856C74.9932 22.4966 74.4333 22.8956 73.7403 23.1895C73.0473 23.4835 72.1934 23.6305 71.1855 23.6305H71.2065Z" fill="white"/>
<path d="M83.0287 23.6305C82.1328 23.6305 81.3348 23.4905 80.6209 23.2105C79.9069 22.9306 79.2979 22.5176 78.801 21.9646C78.304 21.4187 77.926 20.7327 77.66 19.9208C77.4011 19.1018 77.2681 18.1639 77.2681 17.1069C77.2681 15.602 77.5131 14.3631 78.003 13.3832C78.493 12.4102 79.1859 11.6753 80.0679 11.1923C80.9568 10.7093 81.9788 10.4644 83.1407 10.4644C84.0366 10.4644 84.8346 10.6043 85.5415 10.8773C86.2485 11.1503 86.8505 11.5633 87.3474 12.1092C87.8444 12.6552 88.2224 13.3412 88.4883 14.1671C88.7473 14.9931 88.8803 15.945 88.8803 17.0299C88.8803 18.1149 88.7403 19.0878 88.4674 19.9208C88.1944 20.7537 87.7954 21.4397 87.2844 21.9856C86.7665 22.5316 86.1505 22.9446 85.4295 23.2175C84.7086 23.4905 83.9106 23.6305 83.0287 23.6305ZM83.1477 21.0897C83.7217 21.0897 84.1976 20.9427 84.5756 20.6557C84.9536 20.3687 85.2336 19.9348 85.4155 19.3538C85.5975 18.7728 85.6955 18.0449 85.6955 17.1629C85.6955 16.232 85.5975 15.462 85.4015 14.8461C85.2056 14.2301 84.9116 13.7681 84.5196 13.4602C84.1276 13.1452 83.6447 12.9912 83.0567 12.9912C82.4687 12.9912 82.0208 13.1382 81.6428 13.4392C81.2578 13.7401 80.9708 14.1881 80.7818 14.7901C80.5929 15.392 80.4949 16.134 80.4949 17.0299C80.4949 17.7089 80.5509 18.2969 80.6559 18.8078C80.7678 19.3188 80.9288 19.7388 81.1528 20.0817C81.3768 20.4177 81.6498 20.6697 81.9858 20.8377C82.3147 21.0057 82.7067 21.0897 83.1547 21.0897H83.1477Z" fill="white"/>
<path d="M90.168 23.3644V10.7372H94.8157L97.3985 19.7106H97.4335L99.9603 10.7372H104.363V23.3644H101.493V13.852H101.458L98.6094 23.3644H95.8936L93.0798 13.852H93.0448V23.3644H90.175H90.168Z" fill="white"/>
<path d="M105.896 23.3644V10.7372H110.544L113.127 19.7106H113.162L115.689 10.7372H120.092V23.3644H117.222V13.852H117.187L114.338 23.3644H111.622L108.808 13.852H108.773V23.3644H105.903H105.896Z" fill="white"/>
<path d="M126.846 23.6304C126.118 23.6304 125.467 23.5464 124.893 23.3784C124.319 23.2104 123.822 22.9794 123.409 22.6714C122.996 22.3634 122.653 21.9995 122.373 21.5725C122.1 21.1455 121.897 20.6625 121.764 20.1306C121.631 19.5916 121.561 19.0177 121.561 18.3877V10.7372H124.662V18.2407C124.662 18.8917 124.76 19.4096 124.949 19.8016C125.138 20.1936 125.397 20.4666 125.726 20.6345C126.048 20.8025 126.426 20.8865 126.846 20.8865C127.266 20.8865 127.658 20.8025 127.987 20.6345C128.309 20.4666 128.568 20.1936 128.764 19.8086C128.96 19.4236 129.051 18.9057 129.051 18.2407V10.7372H132.151V18.3877C132.151 20.0466 131.703 21.3345 130.814 22.2514C129.919 23.1684 128.603 23.6304 126.853 23.6304H126.846Z" fill="white"/>
<path d="M133.621 23.3644V10.7372H137.772L142.266 19.2906H142.301V10.7372H145.36V23.3644H141.454L136.708 14.5239H136.673V23.3644H133.614H133.621Z" fill="white"/>
<path d="M146.899 23.3644V10.7372H150.021V23.3644H146.899Z" fill="white"/>
<path d="M151.05 13.376V10.7372H160.388V13.376H151.05ZM154.172 23.3644V10.7372H157.273V23.3644H154.172Z" fill="white"/>
<path d="M164.812 23.3644V19.1576L160.696 10.7372H164.371L166.358 16.3648H166.393L168.367 10.7372H172L167.905 19.1576V23.3644H164.805H164.812Z" fill="white"/>
<path d="M83.3225 43.0683H73.4951V32.1H66.6636V59.9442H73.4951V48.8079H83.3225V59.9442H90.1611V32.1H83.3225V43.0683Z" fill="#8EFF01"/>
<path d="M90.6931 60.4763H82.7976V49.34H74.0342V60.4763H66.1387V31.5681H74.0342V42.5364H82.7976V31.5681H90.6931V60.4763ZM83.8545 59.4123H89.6292V32.632H83.8545V43.6003H72.9632V32.632H67.1886V59.4123H72.9632V48.276H83.8545V59.4123Z" fill="black"/>
<path d="M101.34 32.1L92.0161 59.9442H99.3166L100.71 55.0095H110.719L112.098 59.9442H119.482L110.201 32.1H101.34ZM102.06 50.2008L105.602 37.6296H105.854L109.375 50.2008H102.06Z" fill="#8EFF01"/>
<path d="M120.217 60.4763H111.692L110.313 55.5416H101.109L99.7157 60.4763H91.2812L100.962 31.5681H110.586L120.224 60.4763H120.217ZM112.497 59.4123H118.74L109.816 32.632H101.725L92.7582 59.4123H98.9178L100.311 54.4777H111.125L112.504 59.4123H112.497ZM110.068 50.7329H101.354L105.196 37.0978H106.253L110.068 50.7329ZM102.761 49.669H108.668L105.721 39.1416L102.754 49.669H102.761Z" fill="black"/>
<path d="M137.702 48.6399C137.702 50.1028 137.492 51.2577 137.065 52.0977C136.645 52.9446 136.071 53.5466 135.357 53.9106C134.636 54.2746 133.803 54.4565 132.844 54.4565C131.885 54.4565 131.094 54.2746 130.374 53.9106C129.653 53.5466 129.086 52.9306 128.666 52.0767C128.246 51.2158 128.036 50.0748 128.036 48.6399V32.1H121.204V48.9759C121.204 50.3548 121.351 51.6357 121.645 52.8116C121.939 53.9946 122.387 55.0515 122.996 55.9964C123.598 56.9414 124.361 57.7463 125.278 58.4253C126.195 59.0972 127.28 59.6222 128.547 59.9862C129.814 60.3502 131.248 60.5322 132.851 60.5322C136.701 60.5322 139.613 59.5172 141.587 57.4944C143.561 55.4715 144.541 52.6297 144.541 48.9759V32.1H137.709V48.6399H137.702Z" fill="#8EFF01"/>
<path d="M132.852 61.0641C131.207 61.0641 129.709 60.8752 128.4 60.4972C127.077 60.1192 125.922 59.5662 124.963 58.8523C123.997 58.1453 123.192 57.2774 122.555 56.2835C121.925 55.3035 121.449 54.1766 121.134 52.9377C120.833 51.7197 120.672 50.3828 120.672 48.9689V31.561H128.568V48.6259C128.568 49.9699 128.764 51.0478 129.149 51.8317C129.52 52.5947 130.003 53.1127 130.619 53.4276C131.256 53.7496 132.005 53.9176 132.845 53.9176C133.685 53.9176 134.475 53.7496 135.112 53.4276C135.721 53.1197 136.218 52.5877 136.582 51.8527C136.967 51.0898 137.163 50.0049 137.163 48.6329V31.568H145.059V48.9759C145.059 52.7557 144.016 55.7515 141.958 57.8654C139.893 59.9862 136.827 61.0641 132.845 61.0641H132.852ZM121.743 32.632V48.9759C121.743 50.3058 121.89 51.5518 122.17 52.6857C122.45 53.8126 122.884 54.8275 123.451 55.7095C124.018 56.5914 124.739 57.3614 125.6 57.9983C126.461 58.6353 127.504 59.1323 128.701 59.4753C129.912 59.8252 131.312 60.0002 132.859 60.0002C136.547 60.0002 139.354 59.0343 141.209 57.1234C143.071 55.2125 144.009 52.4687 144.009 48.9689V32.625H138.234V48.6329C138.234 50.1728 138.003 51.4188 137.541 52.3287C137.072 53.2736 136.414 53.9596 135.602 54.3796C134.811 54.7786 133.888 54.9885 132.852 54.9885C131.816 54.9885 130.927 54.7856 130.143 54.3796C129.324 53.9666 128.673 53.2667 128.197 52.3077C127.742 51.3768 127.511 50.1448 127.511 48.6329V32.625H121.736L121.743 32.632Z" fill="black"/>
<path d="M169.109 48.22C168.479 47.177 167.639 46.3301 166.596 45.6651C165.553 45.0072 164.426 44.4682 163.201 44.0622C161.976 43.6563 160.758 43.2853 159.554 42.9423C158.399 42.6343 157.406 42.3334 156.559 42.0324C155.719 41.7384 155.068 41.3954 154.62 40.9964C154.172 40.6045 153.948 40.1075 153.948 39.5195C153.948 39.0156 154.095 38.5606 154.389 38.1686C154.683 37.7766 155.117 37.4687 155.698 37.2377C156.272 37.0137 157 36.9017 157.867 36.9017C158.735 36.9017 159.442 37.0207 160.065 37.2587C160.681 37.4967 161.199 37.8396 161.605 38.2946C162.011 38.7426 162.312 39.2955 162.508 39.9395C162.704 40.5905 162.788 41.3324 162.76 42.1724L169.004 41.1574C169.2 39.0786 168.836 37.3217 167.905 35.8868C166.974 34.4519 165.651 33.3599 163.936 32.618C162.221 31.876 160.268 31.498 158.07 31.498C155.873 31.498 154.137 31.827 152.52 32.492C150.903 33.1499 149.636 34.1159 148.719 35.3828C147.802 36.6497 147.347 38.1826 147.347 39.9815C147.347 41.4444 147.648 42.6693 148.257 43.6493C148.859 44.6362 149.657 45.4342 150.637 46.0571C151.624 46.6731 152.709 47.191 153.906 47.597C155.103 48.003 156.307 48.374 157.511 48.7169C158.637 49.0249 159.638 49.3329 160.527 49.6479C161.416 49.9559 162.109 50.3268 162.613 50.7678C163.117 51.2088 163.369 51.7618 163.369 52.4337C163.369 52.9377 163.18 53.3856 162.802 53.7636C162.424 54.1416 161.906 54.4356 161.262 54.6526C160.618 54.8626 159.869 54.9675 159.029 54.9675C157.986 54.9675 157.049 54.7786 156.202 54.4006C155.355 54.0226 154.69 53.4276 154.2 52.6297C153.71 51.8317 153.43 50.7818 153.374 49.4869L147.046 50.8798C146.99 52.3427 147.193 53.6726 147.655 54.8696C148.117 56.0665 148.845 57.0814 149.825 57.9284C150.805 58.7753 152.037 59.4193 153.514 59.8672C154.991 60.3152 156.713 60.5392 158.679 60.5392C160.898 60.5392 162.865 60.2312 164.566 59.6083C166.267 58.9923 167.604 58.0613 168.57 56.8224C169.543 55.5835 170.026 54.0366 170.026 52.1817C170.026 50.5788 169.711 49.2559 169.074 48.213L169.109 48.22Z" fill="#8EFF01"/>
<path d="M158.715 61.0641C156.706 61.0641 154.914 60.8261 153.395 60.3641C151.855 59.8951 150.546 59.2092 149.51 58.3202C148.467 57.4243 147.683 56.3254 147.186 55.0514C146.696 53.7915 146.479 52.3776 146.542 50.8517L146.556 50.4387L153.899 48.8218L153.927 49.4518C153.976 50.6487 154.228 51.6217 154.676 52.3426C155.117 53.0566 155.691 53.5675 156.447 53.9105C157.217 54.2605 158.099 54.4355 159.058 54.4355C159.842 54.4355 160.534 54.3375 161.129 54.1485C161.689 53.9665 162.137 53.7075 162.459 53.3925C162.739 53.1126 162.872 52.8046 162.872 52.4406C162.872 51.9226 162.683 51.5097 162.298 51.1737C161.843 50.7817 161.199 50.4387 160.38 50.1518C159.52 49.8508 158.512 49.5428 157.399 49.2348C156.174 48.8918 154.956 48.5139 153.759 48.1079C152.534 47.6879 151.393 47.1559 150.378 46.512C149.328 45.854 148.467 44.9861 147.823 43.9362C147.172 42.8722 146.836 41.5423 146.836 39.9884C146.836 38.0845 147.333 36.4326 148.306 35.0817C149.272 33.7378 150.63 32.7089 152.331 32.0089C154.004 31.323 155.936 30.98 158.078 30.98C160.331 30.98 162.375 31.372 164.153 32.1419C165.959 32.9259 167.373 34.0948 168.353 35.6067C169.34 37.1396 169.739 39.0225 169.536 41.2203L169.501 41.6263L162.214 42.8092L162.235 42.1653C162.263 41.3813 162.186 40.6884 162.004 40.1004C161.829 39.5334 161.563 39.0505 161.213 38.6585C160.863 38.2735 160.415 37.9725 159.877 37.7625C159.324 37.5456 158.645 37.4406 157.875 37.4406C157.105 37.4406 156.412 37.5386 155.894 37.7415C155.411 37.9305 155.054 38.1825 154.816 38.4905C154.592 38.7915 154.48 39.1275 154.48 39.5194C154.48 39.9604 154.634 40.3034 154.977 40.5974C155.376 40.9473 155.971 41.2553 156.741 41.5283C157.581 41.8223 158.575 42.1233 159.702 42.4242C160.919 42.7672 162.158 43.1452 163.383 43.5512C164.636 43.9712 165.819 44.5311 166.897 45.2101C168.003 45.91 168.906 46.827 169.578 47.9329C170.257 49.0528 170.607 50.4807 170.607 52.1746C170.607 54.1415 170.082 55.8144 169.039 57.1443C168.01 58.4532 166.582 59.4472 164.797 60.0981C163.047 60.7351 161.003 61.0571 158.729 61.0571L158.715 61.0641ZM147.592 51.3067C147.592 52.5316 147.781 53.6585 148.173 54.6735C148.607 55.7794 149.286 56.7383 150.196 57.5223C151.12 58.3132 152.296 58.9292 153.696 59.3562C155.117 59.7901 156.804 60.0071 158.708 60.0071C160.856 60.0071 162.774 59.7061 164.412 59.1112C166.008 58.5302 167.282 57.6483 168.185 56.5004C169.074 55.3664 169.529 53.9105 169.529 52.1886C169.529 50.6907 169.235 49.4518 168.654 48.4999C168.066 47.5339 167.282 46.736 166.316 46.12C165.315 45.4831 164.209 44.9651 163.04 44.5731C161.836 44.1741 160.611 43.7962 159.415 43.4602C158.267 43.1522 157.252 42.8442 156.384 42.5432C155.467 42.2213 154.774 41.8503 154.27 41.4093C153.703 40.9123 153.416 40.2824 153.416 39.5334C153.416 38.9105 153.598 38.3505 153.962 37.8675C154.319 37.3986 154.837 37.0206 155.502 36.7616C156.139 36.5166 156.937 36.3906 157.868 36.3906C158.799 36.3906 159.576 36.5236 160.255 36.7826C160.947 37.0486 161.535 37.4476 161.997 37.9515C162.459 38.4625 162.802 39.0855 163.019 39.7994C163.18 40.3314 163.271 40.9193 163.292 41.5633L168.507 40.7164C168.612 38.9385 168.255 37.4196 167.464 36.1876C166.596 34.8507 165.343 33.8148 163.733 33.1148C162.095 32.4009 160.192 32.0439 158.085 32.0439C156.083 32.0439 154.284 32.3659 152.737 32.9959C151.218 33.6188 150.021 34.5288 149.167 35.7047C148.32 36.8736 147.893 38.3155 147.893 39.9954C147.893 41.3533 148.173 42.4942 148.719 43.3902C149.279 44.3001 150.021 45.0491 150.931 45.623C151.876 46.218 152.94 46.715 154.088 47.107C155.264 47.5059 156.468 47.8839 157.665 48.2129C158.799 48.5279 159.828 48.8428 160.716 49.1508C161.661 49.4798 162.424 49.8928 162.977 50.3687C163.6 50.9077 163.922 51.6077 163.922 52.4406C163.922 53.0916 163.677 53.6655 163.194 54.1485C162.76 54.5825 162.165 54.9254 161.444 55.1634C160.744 55.3874 159.94 55.5064 159.044 55.5064C157.931 55.5064 156.909 55.2964 155.999 54.8905C155.061 54.4705 154.305 53.8055 153.759 52.9096C153.304 52.1676 153.017 51.2437 152.905 50.1378L147.585 51.3067H147.592Z" fill="black"/>
</g>
<defs>
<clipPath id="clip0_1_3608">
<rect width="172" height="68.1546" fill="white"/>
</clipPath>
</defs>
</svg>
